<?xml version="1.0" encoding="utf-8"?>
<!-- Generator: Adobe Illustrator 19.0.0, SVG Export Plug-In . SVG Version: 6.00 Build 0)  -->
<svg version="1.1" id="Calque_1" xmlns="http://www.w3.org/2000/svg" xmlns:xlink="http://www.w3.org/1999/xlink" x="0px" y="0px"
	 viewBox="494 -49.7 1600 891.7" style="enable-background:new 494 -49.7 1600 891.7;" xml:space="preserve">
<style type="text/css">
	.st0{fill:none;stroke:#FAFAFA;stroke-width:2;stroke-miterlimit:10;}
	.st1{clip-path:url(#SVGID_2_);}
	.st2{clip-path:url(#SVGID_6_);}
	.st3{clip-path:url(#SVGID_7_);}
	.st4{clip-path:url(#SVGID_8_);fill:url(#XMLID_2_);}
	.st5{opacity:0.55;clip-path:url(#SVGID_8_);fill:#8A40FF;enable-background:new    ;}
	.st6{opacity:0.3;clip-path:url(#SVGID_8_);fill:#743BFF;enable-background:new    ;}
</style>
<g id="BG">
</g>
<g id="Hero">
	<path class="st0" d="M572.9-6419.4"/>
</g>
<g id="section1">
</g>
<g id="section2">
</g>
<g id="section3">
</g>
<g id="section4">
</g>
<g>
	<g>
		<g id="footer">
			<defs>
				<rect id="SVGID_1_" x="494" y="-49.7" width="1600" height="891.7"/>
			</defs>
			<clipPath id="SVGID_2_">
				<use xlink:href="#SVGID_1_"  style="overflow:visible;"/>
			</clipPath>
			<g class="st1">
				<g>
					<defs>
						<rect id="SVGID_3_" x="859.1" y="-49.7" width="1234.9" height="891.7"/>
					</defs>
					<defs>
						<rect id="SVGID_4_" x="859.1" y="-49.7" width="1234.9" height="891.7"/>
					</defs>
					<defs>
						<rect id="SVGID_5_" x="859.1" y="-49.7" width="1234.9" height="891.7"/>
					</defs>
					<clipPath id="SVGID_6_">
						<use xlink:href="#SVGID_3_"  style="overflow:visible;"/>
					</clipPath>
					<clipPath id="SVGID_7_" class="st2">
						<use xlink:href="#SVGID_4_"  style="overflow:visible;"/>
					</clipPath>
					<clipPath id="SVGID_8_" class="st3">
						<use xlink:href="#SVGID_5_"  style="overflow:visible;"/>
					</clipPath>
					
						<linearGradient id="XMLID_2_" gradientUnits="userSpaceOnUse" x1="1146.5536" y1="16992.4668" x2="2337.8035" y2="18183.7168" gradientTransform="matrix(1 0 0 1 0 -17459.6211)">
						<stop  offset="9.817236e-008" style="stop-color:#6A00E5"/>
						<stop  offset="0.5053" style="stop-color:#6800E5"/>
						<stop  offset="0.6873" style="stop-color:#6100E5"/>
						<stop  offset="0.817" style="stop-color:#5600E5"/>
						<stop  offset="0.9211" style="stop-color:#4500E5"/>
						<stop  offset="1" style="stop-color:#3200E5"/>
					</linearGradient>
					<path id="XMLID_212_" class="st4" d="M859.1-49.7c0,0,31.5,267.9,336,268s276,244.3,276,244.3S1471,774.9,1771,821.4
						s469.5,0,469.5,0v-987H845C845-165.6,840.6-124.4,859.1-49.7z"/>
					<path class="st5" d="M1853.7-165.6c0,0,46.8,198.9,135.3,252.9s263.8,18,308.2-60c44.3-78,152.7-192.9,152.7-192.9H1853.7z"/>
					<path class="st6" d="M1351.6-165.6c8,0,170.4,283.6,266.8,323.2c96.4,39.6,645.9,80.5,719.7,0
						c73.7-80.5,233.9-101.3,279.3-323.2H1351.6z"/>
				</g>
			</g>
		</g>
	</g>
</g>
</svg>
