<?xml version="1.0" encoding="utf-8"?>
<!-- Generator: Adobe Illustrator 19.0.0, SVG Export Plug-In . SVG Version: 6.00 Build 0)  -->
<svg version="1.1" id="Calque_1" xmlns="http://www.w3.org/2000/svg" xmlns:xlink="http://www.w3.org/1999/xlink" x="0px" y="0px"
	 viewBox="68 50.1 748.2 692.9" style="enable-background:new 68 50.1 748.2 692.9;" xml:space="preserve">
<style type="text/css">
	.st0{fill:none;stroke:#FAFAFA;stroke-width:2;stroke-miterlimit:10;}
	.st1{fill:#FFFFFF;}
	.st2{fill:#E0DEFF;}
	.st3{fill:#8C8CF4;}
	.st4{fill:#FEEBE2;}
	.st5{fill:#F9BAA0;}
	.st6{fill:#D5F2F5;}
	.st7{fill:#52E8E8;}
	.st8{clip-path:url(#SVGID_2_);}
	.st9{fill:none;stroke:#7062F9;stroke-width:3;stroke-linecap:round;stroke-miterlimit:10;}
	.st10{fill:#FAFAFA;}
	.st11{fill:#7062F9;}
	.st12{clip-path:url(#SVGID_4_);}
	.st13{clip-path:url(#SVGID_6_);}
	.st14{clip-path:url(#SVGID_8_);}
	.st15{clip-path:url(#SVGID_10_);}
	.st16{clip-path:url(#SVGID_12_);}
	.st17{fill:#3B1C60;}
	.st18{fill:#999999;}
	.st19{fill:#6D30ED;}
	.st20{clip-path:url(#SVGID_14_);}
</style>
<g id="Hero">
	<path class="st0" d="M865.2,213"/>
</g>
<g id="footer">
	<g>
		<g>
			
				<image style="overflow:visible;opacity:0.12;enable-background:new    ;" width="543" height="390" xlink:href="3F471F7C.png"  transform="matrix(1 0 0 1 152.7 214.7057)">
			</image>
			<g>
				<path class="st1" d="M672.5,586.9H172.3c-3.3,0-6-2.7-6-6V234.3c0-3.3,2.7-6,6-6h500.2c3.3,0,6,2.7,6,6v346.6
					C678.5,584.2,675.8,586.9,672.5,586.9z"/>
			</g>
		</g>
		<g>
			
				<image style="overflow:visible;opacity:0.12;enable-background:new    ;" width="249" height="250" xlink:href="3F471F7D.png"  transform="matrix(1 0 0 1 545.7 258.7057)">
			</image>
			<g>
				<path class="st1" d="M771.4,491.6H566c-3.5,0-6.3-2.8-6.3-6.3v-207c0-3.5,2.8-6.3,6.3-6.3h205.4c3.5,0,6.3,2.8,6.3,6.3v207
					C777.7,488.8,774.9,491.6,771.4,491.6z"/>
			</g>
		</g>
		<g>
			<circle class="st2" cx="325.2" cy="429.3" r="27.2"/>
			<g>
				<g>
					<path class="st3" d="M325.1,428.1c0,1.8-0.5,3.2-1.5,4.1c-1,1-2.5,1.4-4.5,1.4H316v-11h3.4c1.8,0,3.2,0.5,4.2,1.4
						C324.6,425.1,325.1,426.4,325.1,428.1z M322.7,428.1c0-2.4-1-3.5-3.1-3.5h-1.2v7.1h1C321.6,431.8,322.7,430.6,322.7,428.1z"/>
					<path class="st3" d="M332.1,424.5c-0.9,0-1.6,0.3-2,1s-0.7,1.6-0.7,2.7c0,2.4,0.9,3.7,2.8,3.7c0.8,0,1.7-0.2,2.8-0.6v2
						c-0.9,0.4-1.9,0.6-3,0.6c-1.6,0-2.8-0.5-3.7-1.5c-0.8-1-1.3-2.4-1.3-4.2c0-1.1,0.2-2.1,0.6-3c0.4-0.9,1-1.5,1.8-2
						s1.7-0.7,2.7-0.7c1.1,0,2.1,0.3,3.2,0.8l-0.8,1.9c-0.4-0.2-0.8-0.4-1.2-0.5C332.9,424.6,332.5,424.5,332.1,424.5z"/>
				</g>
			</g>
		</g>
		<g>
			<circle class="st4" cx="477.3" cy="428.2" r="27.2"/>
			<g>
				<g>
					<path class="st5" d="M471.5,433.7l-2.6-8.6h-0.1c0.1,1.8,0.1,2.9,0.1,3.5v5.1h-2.1v-11h3.2l2.6,8.4l0,0l2.8-8.4h3.2v11h-2.2
						v-5.2c0-0.2,0-0.5,0-0.8s0-1.2,0.1-2.6h-0.1l-2.8,8.6H471.5z"/>
					<path class="st5" d="M487.8,430.7c0,1-0.4,1.8-1.1,2.3c-0.7,0.6-1.7,0.9-3,0.9c-1.2,0-2.2-0.2-3.1-0.7V431
						c0.7,0.3,1.4,0.6,1.9,0.7s1,0.2,1.4,0.2c0.5,0,0.9-0.1,1.2-0.3c0.3-0.2,0.4-0.5,0.4-0.9c0-0.2-0.1-0.4-0.2-0.6
						s-0.3-0.3-0.5-0.5s-0.7-0.4-1.4-0.7c-0.7-0.3-1.2-0.6-1.5-0.9s-0.6-0.6-0.8-1c-0.2-0.4-0.3-0.8-0.3-1.3c0-1,0.3-1.7,1-2.3
						c0.7-0.6,1.6-0.8,2.7-0.8c0.6,0,1.1,0.1,1.6,0.2s1.1,0.3,1.6,0.6l-0.8,1.8c-0.6-0.2-1.1-0.4-1.5-0.5s-0.8-0.1-1.1-0.1
						c-0.4,0-0.8,0.1-1,0.3c-0.2,0.2-0.4,0.5-0.4,0.8c0,0.2,0,0.4,0.1,0.5c0.1,0.2,0.2,0.3,0.5,0.4c0.2,0.1,0.7,0.4,1.5,0.8
						c1,0.5,1.7,1,2.1,1.5C487.6,429.3,487.8,429.9,487.8,430.7z"/>
				</g>
			</g>
		</g>
		<g>
			<circle class="st6" cx="403.2" cy="509.3" r="27.2"/>
			<g>
				<g>
					<path class="st7" d="M397.2,516.4c-0.5,0-1-0.1-1.4-0.2v-1.9c0.4,0.1,0.8,0.1,1.1,0.1c0.5,0,0.9-0.2,1.1-0.5s0.3-0.8,0.3-1.5
						v-10.3h2.3v10.3c0,1.3-0.3,2.3-0.9,2.9S398.3,516.4,397.2,516.4z"/>
					<path class="st7" d="M407.6,513.2h-2.3v-9h-3v-1.9h8.3v1.9h-3V513.2z"/>
				</g>
			</g>
		</g>
		<g>
			<g>
				<defs>
					<circle id="SVGID_1_" cx="251.7" cy="509.3" r="27.3"/>
				</defs>
				<clipPath id="SVGID_2_">
					<use xlink:href="#SVGID_1_"  style="overflow:visible;"/>
				</clipPath>
				<g class="st8">
					
						<image style="overflow:visible;enable-background:new    ;" width="270" height="270" xlink:href="3F471F7C.jpeg"  transform="matrix(0.2018 0 0 0.2018 224.3791 482.0377)">
					</image>
				</g>
			</g>
		</g>
		<path class="st9" d="M89.5,223.7c0,0,82.9-63,135.9-20.7c0,0,26.1,25.8,42,51.6c16,25.8,41.8,21,41.8,21s26.3-9.4,45.6-28.4
			c19.3-19,39.5-9.2,39.5-9.2s20.4,11.6,33.4,34c13,22.3,38.2,33.1,38.2,33.1s12,8.8,30.7-7.8c18.7-16.6,35.9-64.3,35.9-64.3
			s18.7-36.1,35.1-32.8c0,0,15.6-1.8,29.4,20.8c13.9,22.6,29.8,57.9,29.8,57.9"/>
		<g>
			<g>
				
					<image style="overflow:visible;opacity:0.75;enable-background:new    ;" width="54" height="54" xlink:href="3F471F84.png"  transform="matrix(1 0 0 1 218.7 194.7057)">
				</image>
				<g>
					<circle class="st10" cx="243.9" cy="219.4" r="11.6"/>
				</g>
			</g>
			<circle class="st11" cx="243.9" cy="219.4" r="7.2"/>
		</g>
		<g>
			<g>
				
					<image style="overflow:visible;opacity:0.75;enable-background:new    ;" width="56" height="55" xlink:href="3F471F87.png"  transform="matrix(1 0 0 1 390.7 232.7057)">
				</image>
				<g>
					<circle class="st10" cx="416.8" cy="258.1" r="12.1"/>
				</g>
			</g>
			<circle class="st11" cx="416.8" cy="258.1" r="7.5"/>
		</g>
		<g>
			<g>
				<defs>
					<circle id="SVGID_3_" cx="326.9" cy="508.7" r="26.7"/>
				</defs>
				<clipPath id="SVGID_4_">
					<use xlink:href="#SVGID_3_"  style="overflow:visible;"/>
				</clipPath>
				<g class="st12">
					
						<image style="overflow:visible;enable-background:new    ;" width="200" height="200" xlink:href="3F471F84.jpeg"  transform="matrix(0.2666 0 0 0.2666 300.2577 482.0377)">
					</image>
				</g>
			</g>
		</g>
		<g>
			<g>
				<defs>
					<circle id="SVGID_5_" cx="668.7" cy="340.6" r="38.4"/>
				</defs>
				<clipPath id="SVGID_6_">
					<use xlink:href="#SVGID_5_"  style="overflow:visible;"/>
				</clipPath>
				<g class="st13">
					
						<image style="overflow:visible;enable-background:new    ;" width="300" height="300" xlink:href="3F471F84.jpeg"  transform="matrix(0.2555 0 0 0.2555 630.309 302.1808)">
					</image>
				</g>
			</g>
		</g>
		<g>
			<g>
				<defs>
					<circle id="SVGID_7_" cx="251.7" cy="429.1" r="27.2"/>
				</defs>
				<clipPath id="SVGID_8_">
					<use xlink:href="#SVGID_7_"  style="overflow:visible;"/>
				</clipPath>
				<g class="st14">
					
						<image style="overflow:visible;enable-background:new    ;" width="300" height="300" xlink:href="3F471F8C.jpeg"  transform="matrix(0.1809 0 0 0.1809 224.4844 401.9361)">
					</image>
				</g>
			</g>
		</g>
		<g>
			<g>
				<defs>
					<circle id="SVGID_9_" cx="402.3" cy="428.2" r="26.6"/>
				</defs>
				<clipPath id="SVGID_10_">
					<use xlink:href="#SVGID_9_"  style="overflow:visible;"/>
				</clipPath>
				<g class="st15">
					
						<image style="overflow:visible;enable-background:new    ;" width="370" height="370" xlink:href="3F471F8C.jpeg"  transform="matrix(0.1435 0 0 0.1435 375.7884 401.6393)">
					</image>
				</g>
			</g>
		</g>
		<g>
			<g>
				<defs>
					<circle id="SVGID_11_" cx="477.3" cy="509.3" r="27.2"/>
				</defs>
				<clipPath id="SVGID_12_">
					<use xlink:href="#SVGID_11_"  style="overflow:visible;"/>
				</clipPath>
				<g class="st16">
					
						<image style="overflow:visible;enable-background:new    ;" width="225" height="225" xlink:href="25478D4B.jpeg"  transform="matrix(0.2416 0 0 0.2416 450.1229 482.1427)">
					</image>
				</g>
			</g>
		</g>
		<circle class="st17" cx="239.6" cy="347.9" r="7.3"/>
		<circle class="st17" cx="267.4" cy="347.9" r="7.3"/>
		<circle class="st17" cx="295.1" cy="347.9" r="7.3"/>
		<circle class="st17" cx="325.9" cy="347.9" r="7.3"/>
		<circle class="st17" cx="353.6" cy="347.9" r="7.3"/>
		<circle class="st17" cx="381.3" cy="347.9" r="7.3"/>
		<circle class="st17" cx="408" cy="347.9" r="7.3"/>
		<circle class="st17" cx="433.9" cy="347.9" r="7.3"/>
		<g>
			<path class="st17" d="M480.7,337.9c-1.7,0-3.1,0.5-4.2,1.5s-1.8,2.5-2.2,4.6h8.2v2.8H474v0.8v1v0.7h7.4v2.8h-7.1
				c0.8,3.8,3,5.6,6.6,5.6c1.7,0,3.5-0.4,5.3-1.1v3.7c-1.6,0.7-3.4,1.1-5.5,1.1c-2.9,0-5.3-0.8-7.1-2.4c-1.8-1.6-3-3.9-3.6-6.9h-2.7
				v-2.8h2.5v-0.7v-0.7v-1.2h-2.5v-2.8h2.7c0.5-3,1.6-5.4,3.5-7.1s4.2-2.6,7.1-2.6c2.4,0,4.6,0.5,6.5,1.6l-1.5,3.4
				C483.8,338.4,482.2,337.9,480.7,337.9z"/>
		</g>
		<g>
			<path class="st17" d="M638.4,402.9l-2-6.7h-0.1c0.1,1.4,0.1,2.3,0.1,2.7v3.9h-1.6v-8.5h2.4l2,6.5l0,0l2.1-6.5h2.4v8.5H642v-4
				c0-0.2,0-0.4,0-0.7c0-0.2,0-0.9,0.1-2H642l-2.2,6.6h-1.4V402.9z"/>
			<path class="st17" d="M645.7,394.8c0-0.6,0.3-0.9,1-0.9c0.6,0,1,0.3,1,0.9c0,0.3-0.1,0.5-0.2,0.6s-0.4,0.2-0.7,0.2
				C646.1,395.7,645.7,395.4,645.7,394.8z M647.6,402.9h-1.8v-6.5h1.8V402.9z"/>
			<path class="st17" d="M651.1,399.4l0.8-1l1.8-2h2l-2.6,2.8l2.7,3.7h-2l-1.9-2.6l-0.8,0.6v2h-1.8v-9h1.8v4V399.4L651.1,399.4z"/>
			<path class="st17" d="M659.7,403.1c-1,0-1.9-0.3-2.4-0.9s-0.9-1.4-0.9-2.4c0-1.1,0.3-1.9,0.8-2.5s1.3-0.9,2.3-0.9
				c0.9,0,1.6,0.3,2.1,0.8s0.8,1.2,0.8,2.2v0.9h-4.2c0,0.5,0.2,0.9,0.4,1.2s0.7,0.4,1.2,0.4c0.4,0,0.8,0,1.1-0.1
				c0.3-0.1,0.7-0.2,1.1-0.4v1.4c-0.3,0.2-0.6,0.3-1,0.3C660.7,403,660.2,403.1,659.7,403.1z M659.5,397.6c-0.4,0-0.7,0.1-0.9,0.4
				c-0.2,0.2-0.3,0.6-0.4,1h2.5c0-0.4-0.1-0.8-0.3-1C660.2,397.7,659.9,397.6,659.5,397.6z"/>
			<path class="st17" d="M668.8,399.7v3.3H667v-8.5h2.5c1.2,0,2,0.2,2.6,0.6c0.6,0.4,0.8,1.1,0.8,1.9c0,0.5-0.1,0.9-0.4,1.3
				c-0.3,0.4-0.7,0.7-1.2,0.9c1.3,1.9,2.1,3.1,2.5,3.7h-2l-2-3.3h-1V399.7z M668.8,398.2h0.6c0.6,0,1-0.1,1.3-0.3s0.4-0.5,0.4-0.9
				s-0.1-0.7-0.4-0.9c-0.3-0.2-0.7-0.3-1.3-0.3h-0.5L668.8,398.2L668.8,398.2z"/>
			<path class="st17" d="M680.6,399.7c0,1.1-0.3,1.9-0.8,2.5c-0.6,0.6-1.3,0.9-2.3,0.9c-0.6,0-1.2-0.1-1.6-0.4
				c-0.5-0.3-0.8-0.7-1.1-1.2s-0.4-1.1-0.4-1.8c0-1.1,0.3-1.9,0.8-2.5c0.6-0.6,1.3-0.9,2.3-0.9c0.6,0,1.2,0.1,1.6,0.4
				c0.5,0.3,0.8,0.7,1.1,1.2S680.6,399,680.6,399.7z M676.2,399.7c0,0.6,0.1,1.1,0.3,1.5c0.2,0.3,0.6,0.5,1,0.5c0.5,0,0.8-0.2,1-0.5
				c0.2-0.3,0.3-0.8,0.3-1.5c0-0.6-0.1-1.1-0.3-1.4c-0.2-0.3-0.6-0.5-1-0.5c-0.5,0-0.8,0.2-1,0.5C676.3,398.6,676.2,399,676.2,399.7
				z"/>
			<path class="st17" d="M685.7,396.3c0.8,0,1.4,0.3,1.8,0.9s0.6,1.4,0.6,2.5s-0.2,1.9-0.7,2.5c-0.4,0.6-1.1,0.9-1.8,0.9
				c-0.8,0-1.4-0.3-1.8-0.8h-0.1l-0.3,0.7H682v-9h1.8v2.1c0,0.3,0,0.7-0.1,1.3h0.1C684.3,396.7,684.9,396.3,685.7,396.3z
				 M685.1,397.8c-0.4,0-0.8,0.1-1,0.4c-0.2,0.3-0.3,0.7-0.3,1.3v0.2c0,0.7,0.1,1.2,0.3,1.5c0.2,0.3,0.5,0.5,1,0.5
				c0.4,0,0.7-0.2,0.9-0.5s0.3-0.8,0.3-1.5s-0.1-1.1-0.3-1.4C685.8,397.9,685.5,397.8,685.1,397.8z"/>
			<path class="st17" d="M692.6,403.1c-1,0-1.9-0.3-2.4-0.9s-0.9-1.4-0.9-2.4c0-1.1,0.3-1.9,0.8-2.5s1.3-0.9,2.3-0.9
				c0.9,0,1.6,0.3,2.1,0.8s0.8,1.2,0.8,2.2v0.9h-4.2c0,0.5,0.2,0.9,0.4,1.2c0.2,0.3,0.7,0.4,1.2,0.4c0.4,0,0.8,0,1.1-0.1
				c0.3-0.1,0.7-0.2,1.1-0.4v1.4c-0.3,0.2-0.6,0.3-1,0.3C693.5,403,693.1,403.1,692.6,403.1z M692.3,397.6c-0.4,0-0.7,0.1-0.9,0.4
				c-0.2,0.2-0.3,0.6-0.4,1h2.5c0-0.4-0.1-0.8-0.3-1C693,397.7,692.7,397.6,692.3,397.6z"/>
			<path class="st17" d="M700.3,396.3c0.2,0,0.4,0,0.6,0.1l-0.1,1.7c-0.1,0-0.3-0.1-0.5-0.1c-0.6,0-1,0.1-1.3,0.4
				c-0.3,0.3-0.5,0.7-0.5,1.2v3.3h-1.8v-6.5h1.3l0.3,1.1h0.1c0.2-0.4,0.5-0.7,0.8-0.9C699.5,396.5,699.9,396.3,700.3,396.3z"/>
			<path class="st17" d="M704.8,401.7c0.3,0,0.7-0.1,1.1-0.2v1.3c-0.4,0.2-1,0.3-1.6,0.3c-0.7,0-1.2-0.2-1.5-0.5
				c-0.3-0.4-0.5-0.9-0.5-1.6v-3.1h-0.8v-0.7l1-0.6l0.5-1.4h1.1v1.4h1.8v1.3h-1.8v3.1c0,0.3,0.1,0.4,0.2,0.6
				C704.3,401.6,704.5,401.7,704.8,401.7z"/>
			<path class="st17" d="M711.7,401c0,0.7-0.2,1.2-0.7,1.5s-1.2,0.5-2.1,0.5c-0.5,0-0.9,0-1.2-0.1s-0.6-0.2-0.9-0.3v-1.5
				c0.3,0.2,0.7,0.3,1.1,0.4s0.8,0.2,1.1,0.2c0.6,0,1-0.2,1-0.6c0-0.1,0-0.3-0.1-0.3s-0.2-0.2-0.4-0.3c-0.2-0.1-0.5-0.2-0.8-0.4
				c-0.5-0.2-0.9-0.4-1.1-0.6s-0.4-0.4-0.5-0.6c-0.1-0.2-0.2-0.5-0.2-0.8c0-0.6,0.2-1,0.7-1.3s1.1-0.5,1.9-0.5
				c0.8,0,1.5,0.2,2.3,0.5l-0.5,1.3c-0.3-0.1-0.6-0.3-0.9-0.3s-0.6-0.1-0.9-0.1c-0.5,0-0.8,0.1-0.8,0.4c0,0.2,0.1,0.3,0.3,0.4
				c0.2,0.1,0.5,0.3,1.1,0.5c0.5,0.2,0.9,0.4,1.1,0.6c0.2,0.2,0.4,0.4,0.5,0.6C711.6,400.4,711.7,400.7,711.7,401z"/>
		</g>
		<g>
			<path class="st18" d="M613.7,426.6c-0.3,0-0.6,0-0.8-0.1v-1c0.3,0.1,0.5,0.1,0.7,0.1c0.6,0,0.9-0.4,0.9-1.2v-6.8h1.1v6.7
				c0,0.7-0.2,1.3-0.5,1.6C614.8,426.4,614.3,426.6,613.7,426.6z"/>
			<path class="st18" d="M621.1,424.6l-0.2-0.7h-0.1c-0.2,0.2-0.4,0.4-0.7,0.6c-0.3,0.2-0.6,0.2-1,0.2c-0.6,0-1.1-0.2-1.4-0.5
				s-0.5-0.8-0.5-1.5v-3.5h1.1v3.3c0,0.4,0.1,0.7,0.2,0.9c0.2,0.2,0.4,0.3,0.8,0.3c0.5,0,0.8-0.1,1-0.4c0.2-0.3,0.3-0.8,0.3-1.4
				v-2.6h1.1v5.3L621.1,424.6L621.1,424.6z"/>
			<path class="st18" d="M627.2,423.1c0,0.5-0.2,0.9-0.6,1.2c-0.4,0.3-0.9,0.4-1.6,0.4s-1.3-0.1-1.7-0.3v-1c0.6,0.3,1.2,0.4,1.7,0.4
				c0.7,0,1-0.2,1-0.6c0-0.1,0-0.2-0.1-0.3c-0.1-0.1-0.2-0.2-0.4-0.3s-0.4-0.2-0.7-0.3c-0.6-0.2-1-0.5-1.2-0.7
				c-0.2-0.2-0.3-0.5-0.3-0.9c0-0.5,0.2-0.8,0.5-1.1c0.4-0.3,0.9-0.4,1.5-0.4c0.6,0,1.2,0.1,1.8,0.4l-0.4,0.8
				c-0.6-0.2-1.1-0.4-1.4-0.4c-0.6,0-0.9,0.2-0.9,0.5c0,0.2,0.1,0.3,0.2,0.4c0.2,0.1,0.5,0.3,1,0.5c0.4,0.2,0.8,0.3,1,0.5
				c0.2,0.1,0.3,0.3,0.4,0.5S627.2,422.9,627.2,423.1z"/>
			<path class="st18" d="M630.4,423.8c0.3,0,0.5,0,0.8-0.1v0.8c-0.1,0.1-0.3,0.1-0.5,0.1s-0.4,0.1-0.6,0.1c-1.1,0-1.6-0.6-1.6-1.7
				v-2.9h-0.7v-0.5l0.8-0.4l0.4-1.1h0.7v1.2h1.5v0.9h-1.5v2.8c0,0.3,0.1,0.5,0.2,0.6C630,423.7,630.1,423.8,630.4,423.8z"/>
			<path class="st18" d="M637.5,419.2c0.2,0,0.4,0,0.6,0l-0.1,1c-0.2,0-0.3-0.1-0.5-0.1c-0.5,0-0.8,0.1-1.1,0.4
				c-0.3,0.3-0.4,0.7-0.4,1.1v2.8h-1.1v-5.3h0.9l0.1,0.9h0.1c0.2-0.3,0.4-0.6,0.7-0.8C636.8,419.3,637.1,419.2,637.5,419.2z"/>
			<path class="st18" d="M642.3,424.6l-0.2-0.7l0,0c-0.3,0.3-0.5,0.5-0.8,0.7c-0.3,0.1-0.6,0.2-1,0.2c-0.5,0-0.9-0.1-1.2-0.4
				s-0.4-0.7-0.4-1.2s0.2-1,0.6-1.2s1-0.4,1.9-0.5h0.9v-0.3c0-0.3-0.1-0.6-0.2-0.8c-0.2-0.2-0.4-0.3-0.7-0.3s-0.5,0-0.8,0.1
				c-0.2,0.1-0.5,0.2-0.7,0.3l-0.4-0.8c0.3-0.1,0.6-0.3,0.9-0.3c0.3-0.1,0.7-0.1,1-0.1c0.7,0,1.2,0.1,1.5,0.4s0.5,0.8,0.5,1.4v3.6
				h-0.9V424.6z M640.6,423.8c0.4,0,0.7-0.1,1-0.3c0.2-0.2,0.4-0.5,0.4-1V422h-0.7c-0.5,0-0.9,0.1-1.2,0.3c-0.2,0.2-0.4,0.4-0.4,0.7
				c0,0.2,0.1,0.4,0.2,0.5C640.2,423.8,640.4,423.8,640.6,423.8z"/>
			<path class="st18" d="M644.6,417.9c0-0.2,0.1-0.4,0.2-0.5c0.1-0.1,0.3-0.2,0.5-0.2s0.4,0.1,0.5,0.2c0.1,0.1,0.2,0.3,0.2,0.5
				s-0.1,0.3-0.2,0.5c-0.1,0.1-0.3,0.2-0.5,0.2s-0.4-0.1-0.5-0.2C644.7,418.3,644.6,418.1,644.6,417.9z M645.8,424.6h-1.1v-5.3h1.1
				V424.6z"/>
			<path class="st18" d="M651,423.1c0,0.5-0.2,0.9-0.6,1.2c-0.4,0.3-0.9,0.4-1.6,0.4s-1.3-0.1-1.7-0.3v-1c0.6,0.3,1.2,0.4,1.7,0.4
				c0.7,0,1-0.2,1-0.6c0-0.1,0-0.2-0.1-0.3c-0.1-0.1-0.2-0.2-0.4-0.3s-0.4-0.2-0.7-0.3c-0.6-0.2-1-0.5-1.2-0.7
				c-0.2-0.2-0.3-0.5-0.3-0.9c0-0.5,0.2-0.8,0.5-1.1c0.4-0.3,0.9-0.4,1.5-0.4c0.6,0,1.2,0.1,1.8,0.4l-0.4,0.8
				c-0.6-0.2-1.1-0.4-1.4-0.4c-0.6,0-0.9,0.2-0.9,0.5c0,0.2,0.1,0.3,0.2,0.4c0.2,0.1,0.5,0.3,1,0.5c0.4,0.2,0.8,0.3,1,0.5
				c0.2,0.1,0.3,0.3,0.4,0.5C650.9,422.6,651,422.9,651,423.1z"/>
			<path class="st18" d="M654.5,424.7c-0.8,0-1.5-0.2-1.9-0.7c-0.5-0.5-0.7-1.1-0.7-2s0.2-1.5,0.6-2c0.4-0.5,1-0.7,1.8-0.7
				c0.7,0,1.3,0.2,1.7,0.6c0.4,0.4,0.6,1,0.6,1.8v0.6h-3.5c0,0.5,0.2,0.9,0.4,1.2c0.3,0.3,0.6,0.4,1.1,0.4c0.3,0,0.6,0,0.9-0.1
				c0.3-0.1,0.6-0.2,0.9-0.3v0.9c-0.3,0.1-0.6,0.2-0.8,0.3C655.2,424.7,654.9,424.7,654.5,424.7z M654.3,420.1
				c-0.4,0-0.6,0.1-0.9,0.3c-0.2,0.2-0.3,0.6-0.4,1h2.4c0-0.4-0.1-0.8-0.3-1S654.7,420.1,654.3,420.1z"/>
			<path class="st18" d="M659.6,424.7c-0.7,0-1.2-0.2-1.5-0.7c-0.4-0.5-0.6-1.2-0.6-2c0-0.9,0.2-1.5,0.6-2c0.4-0.5,0.9-0.7,1.6-0.7
				s1.2,0.3,1.6,0.8h0.1c-0.1-0.4-0.1-0.7-0.1-0.9v-1.9h1.1v7.5h-0.9l-0.2-0.7h-0.1C660.9,424.4,660.3,424.7,659.6,424.7z
				 M659.9,423.8c0.5,0,0.8-0.1,1-0.4c0.2-0.3,0.3-0.7,0.3-1.3v-0.2c0-0.7-0.1-1.1-0.3-1.4c-0.2-0.3-0.6-0.4-1-0.4
				c-0.4,0-0.7,0.2-0.9,0.5c-0.2,0.3-0.3,0.8-0.3,1.4s0.1,1,0.3,1.3C659.2,423.6,659.5,423.8,659.9,423.8z"/>
			<path class="st18" d="M668.5,423.8c0.3,0,0.5,0,0.8-0.1v0.8c-0.1,0.1-0.3,0.1-0.5,0.1c-0.2,0-0.4,0.1-0.6,0.1
				c-1.1,0-1.6-0.6-1.6-1.7v-2.9h-0.7v-0.5l0.8-0.4l0.4-1.1h0.7v1.2h1.5v0.9h-1.5v2.8c0,0.3,0.1,0.5,0.2,0.6
				S668.3,423.8,668.5,423.8z"/>
			<path class="st18" d="M675,424.6h-1.1v-3.3c0-0.4-0.1-0.7-0.2-0.9c-0.2-0.2-0.4-0.3-0.8-0.3c-0.5,0-0.8,0.1-1,0.4
				c-0.2,0.3-0.3,0.8-0.3,1.4v2.6h-1.1V417h1.1v1.9c0,0.3,0,0.6-0.1,1h0.1c0.2-0.3,0.4-0.5,0.6-0.6c0.3-0.1,0.6-0.2,1-0.2
				c1.3,0,1.9,0.6,1.9,1.9L675,424.6L675,424.6z"/>
			<path class="st18" d="M678.9,424.7c-0.8,0-1.5-0.2-1.9-0.7c-0.5-0.5-0.7-1.1-0.7-2s0.2-1.5,0.6-2s1-0.7,1.8-0.7
				c0.7,0,1.3,0.2,1.7,0.6s0.6,1,0.6,1.8v0.6h-3.5c0,0.5,0.2,0.9,0.4,1.2c0.3,0.3,0.6,0.4,1.1,0.4c0.3,0,0.6,0,0.9-0.1
				s0.6-0.2,0.9-0.3v0.9c-0.3,0.1-0.6,0.2-0.8,0.3C679.6,424.7,679.3,424.7,678.9,424.7z M678.7,420.1c-0.4,0-0.6,0.1-0.9,0.3
				c-0.2,0.2-0.3,0.6-0.4,1h2.4c0-0.4-0.1-0.8-0.3-1C679.3,420.2,679.1,420.1,678.7,420.1z"/>
			<path class="st18" d="M687.5,419.2c0.7,0,1.2,0.2,1.5,0.7c0.4,0.5,0.6,1.2,0.6,2c0,0.9-0.2,1.5-0.6,2c-0.4,0.5-0.9,0.7-1.6,0.7
				s-1.2-0.2-1.6-0.7h-0.1l-0.2,0.6h-0.8V417h1.1v1.8c0,0.1,0,0.3,0,0.6c0,0.3,0,0.4,0,0.5l0,0C686.3,419.5,686.8,419.2,687.5,419.2
				z M687.2,420.1c-0.5,0-0.8,0.1-1,0.4s-0.3,0.7-0.3,1.3v0.1c0,0.6,0.1,1.1,0.3,1.4s0.5,0.4,1,0.4c0.4,0,0.7-0.2,0.9-0.5
				c0.2-0.3,0.3-0.8,0.3-1.4C688.4,420.7,688,420.1,687.2,420.1z"/>
			<path class="st18" d="M690.8,417.9c0-0.2,0.1-0.4,0.2-0.5c0.1-0.1,0.3-0.2,0.5-0.2c0.2,0,0.4,0.1,0.5,0.2
				c0.1,0.1,0.2,0.3,0.2,0.5s-0.1,0.3-0.2,0.5c-0.1,0.1-0.3,0.2-0.5,0.2c-0.2,0-0.4-0.1-0.5-0.2
				C690.9,418.3,690.8,418.1,690.8,417.9z M692,424.6h-1.1v-5.3h1.1V424.6z"/>
			<path class="st18" d="M695.4,424.7c-0.7,0-1.2-0.2-1.5-0.7c-0.4-0.5-0.6-1.2-0.6-2c0-0.9,0.2-1.5,0.6-2c0.4-0.5,0.9-0.7,1.6-0.7
				s1.2,0.3,1.6,0.8h0.1c-0.1-0.4-0.1-0.7-0.1-0.9v-1.9h1.1v7.5h-0.9l-0.2-0.7H697C696.6,424.4,696.1,424.7,695.4,424.7z
				 M695.7,423.8c0.5,0,0.8-0.1,1-0.4s0.3-0.7,0.3-1.3v-0.2c0-0.7-0.1-1.1-0.3-1.4s-0.6-0.4-1-0.4s-0.7,0.2-0.9,0.5
				c-0.2,0.3-0.3,0.8-0.3,1.4s0.1,1,0.3,1.3C695,423.6,695.3,423.8,695.7,423.8z"/>
			<path class="st18" d="M705,419.2c0.7,0,1.2,0.2,1.5,0.7c0.4,0.5,0.6,1.2,0.6,2c0,0.9-0.2,1.5-0.6,2c-0.4,0.5-0.9,0.7-1.6,0.7
				s-1.2-0.2-1.6-0.7h-0.1l-0.2,0.6h-0.8V417h1.1v1.8c0,0.1,0,0.3,0,0.6c0,0.3,0,0.4,0,0.5l0,0C703.8,419.5,704.3,419.2,705,419.2z
				 M704.7,420.1c-0.5,0-0.8,0.1-1,0.4s-0.3,0.7-0.3,1.3v0.1c0,0.6,0.1,1.1,0.3,1.4s0.5,0.4,1,0.4c0.4,0,0.7-0.2,0.9-0.5
				c0.2-0.3,0.3-0.8,0.3-1.4C705.9,420.7,705.5,420.1,704.7,420.1z"/>
			<path class="st18" d="M707.6,419.3h1.2l1.1,3c0.2,0.4,0.3,0.8,0.3,1.2l0,0c0-0.2,0.1-0.4,0.2-0.6c0.1-0.3,0.5-1.4,1.2-3.6h1.2
				l-2.3,6c-0.4,1.1-1.1,1.7-2.1,1.7c-0.2,0-0.5,0-0.7-0.1V426c0.2,0,0.4,0.1,0.6,0.1c0.5,0,0.9-0.3,1.1-0.9l0.2-0.5L707.6,419.3z"
				/>
			<path class="st18" d="M720.5,422.4c0,0.5-0.2,0.8-0.5,1.1c-0.3,0.3-0.8,0.5-1.5,0.6v1h-0.6v-1c-0.8,0-1.4-0.1-1.9-0.4v-1
				c0.3,0.1,0.6,0.2,1,0.3c0.4,0.1,0.7,0.1,1,0.1v-1.8l-0.4-0.1c-0.5-0.2-0.9-0.4-1.1-0.7c-0.2-0.3-0.4-0.6-0.4-1s0.2-0.8,0.5-1.1
				c0.3-0.3,0.8-0.5,1.4-0.5v-0.8h0.6v0.8c0.6,0,1.3,0.2,1.8,0.4l-0.3,0.9c-0.5-0.2-1-0.3-1.5-0.4v1.7l0.4,0.1
				c0.6,0.2,1,0.5,1.3,0.7C720.4,421.8,720.5,422.1,720.5,422.4z M717.1,419.6c0,0.2,0.1,0.3,0.2,0.5c0.1,0.1,0.3,0.2,0.6,0.4V419
				c-0.3,0-0.5,0.1-0.6,0.2C717.2,419.3,717.1,419.4,717.1,419.6z M719.4,422.5c0-0.2-0.1-0.3-0.2-0.5c-0.1-0.1-0.3-0.2-0.6-0.3v1.5
				C719.1,423.2,719.4,422.9,719.4,422.5z"/>
			<path class="st18" d="M722.2,424.6l2.8-6h-3.6v-1h4.8v0.8l-2.8,6.2H722.2z"/>
			<path class="st18" d="M728.5,421.8l0.6-0.8l1.6-1.7h1.3l-2.1,2.3l2.3,3h-1.3l-1.7-2.3l-0.6,0.5v1.8h-1.1v-7.5h1.1v3.6
				L728.5,421.8L728.5,421.8z"/>
		</g>
		<path class="st19" d="M727,472.2H618.8c-0.7,0-1.2-0.6-1.2-1.2v-27.2c0-0.7,0.6-1.2,1.2-1.2H727c0.7,0,1.2,0.6,1.2,1.2V471
			C728.3,471.6,727.7,472.2,727,472.2z"/>
		<g>
			<path class="st10" d="M661.6,457.5v3h-1.2v-7.6h2.1c1,0,1.7,0.2,2.2,0.5c0.5,0.4,0.7,0.9,0.7,1.7c0,0.9-0.5,1.6-1.5,2l2.1,3.3
				h-1.4l-1.8-3h-1.2V457.5z M661.6,456.5h0.9c0.6,0,1-0.1,1.3-0.3s0.4-0.5,0.4-1c0-0.4-0.1-0.7-0.4-0.9c-0.3-0.2-0.7-0.3-1.3-0.3
				h-0.8v2.5H661.6z"/>
			<path class="st10" d="M670.6,460.6l-0.2-0.8l0,0c-0.3,0.3-0.6,0.6-0.8,0.7c-0.2,0.1-0.6,0.2-1.1,0.2c-0.6,0-1-0.2-1.3-0.5
				s-0.5-0.7-0.5-1.3c0-0.6,0.2-1,0.7-1.3c0.4-0.3,1.1-0.5,2-0.5h1v-0.3c0-0.4-0.1-0.6-0.3-0.8c-0.2-0.2-0.4-0.3-0.8-0.3
				c-0.3,0-0.6,0-0.8,0.1c-0.3,0.1-0.5,0.2-0.8,0.3l-0.4-0.9c0.3-0.2,0.7-0.3,1-0.4c0.4-0.1,0.7-0.1,1-0.1c0.7,0,1.3,0.2,1.6,0.5
				c0.4,0.3,0.6,0.8,0.6,1.5v3.9L670.6,460.6L670.6,460.6z M668.8,459.7c0.4,0,0.8-0.1,1.1-0.4c0.3-0.2,0.4-0.6,0.4-1v-0.5h-0.7
				c-0.6,0-1,0.1-1.2,0.3c-0.3,0.2-0.4,0.4-0.4,0.8c0,0.3,0.1,0.5,0.2,0.6C668.3,459.6,668.5,459.7,668.8,459.7z"/>
			<path class="st10" d="M673.1,453.3c0-0.2,0.1-0.4,0.2-0.5c0.1-0.1,0.3-0.2,0.5-0.2s0.4,0.1,0.5,0.2c0.1,0.1,0.2,0.3,0.2,0.5
				s-0.1,0.4-0.2,0.5c-0.1,0.1-0.3,0.2-0.5,0.2s-0.4-0.1-0.5-0.2C673.1,453.7,673.1,453.5,673.1,453.3z M674.4,460.6h-1.2v-5.7h1.2
				V460.6z"/>
			<path class="st10" d="M679.9,458.9c0,0.6-0.2,1-0.6,1.3c-0.4,0.3-1,0.4-1.7,0.4c-0.8,0-1.4-0.1-1.8-0.3v-1
				c0.7,0.3,1.3,0.5,1.9,0.5c0.7,0,1.1-0.2,1.1-0.7c0-0.1,0-0.3-0.1-0.4c-0.1-0.1-0.2-0.2-0.4-0.3c-0.2-0.1-0.5-0.2-0.8-0.4
				c-0.7-0.3-1.1-0.5-1.3-0.8s-0.3-0.6-0.3-1c0-0.5,0.2-0.9,0.6-1.1c0.4-0.3,0.9-0.4,1.6-0.4c0.7,0,1.3,0.1,1.9,0.4l-0.4,0.9
				c-0.6-0.3-1.1-0.4-1.6-0.4c-0.6,0-1,0.2-1,0.5c0,0.2,0.1,0.3,0.3,0.5c0.2,0.1,0.5,0.3,1.1,0.5c0.5,0.2,0.8,0.4,1,0.5
				c0.2,0.2,0.4,0.3,0.5,0.5C680,458.3,679.9,458.7,679.9,458.9z"/>
			<path class="st10" d="M683.8,460.7c-0.9,0-1.6-0.3-2.1-0.8s-0.8-1.2-0.8-2.1s0.2-1.7,0.7-2.2s1.1-0.8,1.9-0.8s1.4,0.2,1.8,0.7
				c0.4,0.5,0.7,1.1,0.7,1.9v0.7h-3.8c0,0.6,0.2,1,0.5,1.3s0.7,0.4,1.2,0.4c0.3,0,0.7,0,0.9-0.1c0.3-0.1,0.6-0.2,0.9-0.3v1
				c-0.3,0.1-0.6,0.2-0.9,0.3C684.5,460.6,684.1,460.7,683.8,460.7z M683.5,455.7c-0.4,0-0.7,0.1-0.9,0.4c-0.2,0.2-0.4,0.6-0.4,1.1
				h2.6c0-0.5-0.1-0.8-0.3-1.1C684.3,455.8,683.9,455.7,683.5,455.7z"/>
		</g>
		<g>
			<g>
				<defs>
					<circle id="SVGID_13_" cx="668.7" cy="340.6" r="38.4"/>
				</defs>
				<clipPath id="SVGID_14_">
					<use xlink:href="#SVGID_13_"  style="overflow:visible;"/>
				</clipPath>
				<g class="st20">
					
						<image style="overflow:visible;enable-background:new    ;" width="300" height="300" xlink:href="25478D49.jpeg"  transform="matrix(0.2555 0 0 0.2555 630.309 302.1808)">
					</image>
				</g>
			</g>
		</g>
	</g>
</g>
</svg>
