<?xml version="1.0" encoding="utf-8"?>
<!-- Generator: Adobe Illustrator 19.0.0, SVG Export Plug-In . SVG Version: 6.00 Build 0)  -->
<svg version="1.1" id="Calque_1" xmlns="http://www.w3.org/2000/svg" xmlns:xlink="http://www.w3.org/1999/xlink" x="0px" y="0px"
	 viewBox="68 -692.9 748.2 692.9" style="enable-background:new 68 -692.9 748.2 692.9;" xml:space="preserve">
<style type="text/css">
	.st0{fill:none;stroke:#FAFAFA;stroke-width:2;stroke-miterlimit:10;}
	.st1{fill:#1B1B49;}
	.st2{fill:#2E2E5B;}
	.st3{fill:#E0DEFF;}
	.st4{fill:#8C8CF4;}
	.st5{fill:#FEEBE2;}
	.st6{fill:#F9BAA0;}
	.st7{fill:#D5F2F5;}
	.st8{fill:#52E8E8;}
	.st9{clip-path:url(#SVGID_2_);}
	.st10{fill:none;stroke:#7062F9;stroke-width:3;stroke-linecap:round;stroke-miterlimit:10;}
	.st11{fill:#FAFAFA;}
	.st12{fill:#7062F9;}
	.st13{clip-path:url(#SVGID_4_);}
	.st14{clip-path:url(#SVGID_6_);}
	.st15{clip-path:url(#SVGID_8_);}
	.st16{clip-path:url(#SVGID_10_);}
	.st17{clip-path:url(#SVGID_12_);}
	.st18{fill:#C5C4C6;}
	.st19{fill:#6D30ED;}
	.st20{clip-path:url(#SVGID_14_);}
</style>
<g id="Hero">
	<path class="st0" d="M865.2-530"/>
</g>
<g>
	
		<image style="overflow:visible;opacity:0.12;enable-background:new    ;" width="543" height="390" xlink:href="8BD478BD.png"  transform="matrix(1 0 0 1 152.7 -528.2943)">
	</image>
	<g>
		<path class="st1" d="M672.5-156.1H172.3c-3.3,0-6-2.7-6-6v-346.6c0-3.3,2.7-6,6-6h500.2c3.3,0,6,2.7,6,6v346.6
			C678.5-158.8,675.8-156.1,672.5-156.1z"/>
	</g>
</g>
<g>
	
		<image style="overflow:visible;opacity:0.12;enable-background:new    ;" width="249" height="250" xlink:href="8BD478BF.png"  transform="matrix(1 0 0 1 545.7 -484.2943)">
	</image>
	<g>
		<path class="st2" d="M771.4-251.4H566c-3.5,0-6.3-2.8-6.3-6.3v-207c0-3.5,2.8-6.3,6.3-6.3h205.4c3.5,0,6.3,2.8,6.3,6.3v207
			C777.7-254.2,774.9-251.4,771.4-251.4z"/>
	</g>
</g>
<g>
	<circle class="st3" cx="325.2" cy="-313.7" r="27.2"/>
	<g>
		<g>
			<path class="st4" d="M325.1-314.9c0,1.8-0.5,3.2-1.5,4.1c-1,1-2.5,1.4-4.5,1.4H316v-11h3.4c1.8,0,3.2,0.5,4.2,1.4
				C324.6-317.9,325.1-316.6,325.1-314.9z M322.7-314.9c0-2.4-1-3.5-3.1-3.5h-1.2v7.1h1C321.6-311.2,322.7-312.4,322.7-314.9z"/>
			<path class="st4" d="M332.1-318.5c-0.9,0-1.6,0.3-2,1s-0.7,1.6-0.7,2.7c0,2.4,0.9,3.7,2.8,3.7c0.8,0,1.7-0.2,2.8-0.6v2
				c-0.9,0.4-1.9,0.6-3,0.6c-1.6,0-2.8-0.5-3.7-1.5c-0.8-1-1.3-2.4-1.3-4.2c0-1.1,0.2-2.1,0.6-3c0.4-0.9,1-1.5,1.8-2
				s1.7-0.7,2.7-0.7c1.1,0,2.1,0.3,3.2,0.8l-0.8,1.9c-0.4-0.2-0.8-0.4-1.2-0.5C332.9-318.4,332.5-318.5,332.1-318.5z"/>
		</g>
	</g>
</g>
<g>
	<circle class="st5" cx="477.3" cy="-314.8" r="27.2"/>
	<g>
		<g>
			<path class="st6" d="M471.5-309.3l-2.6-8.6h-0.1c0.1,1.8,0.1,2.9,0.1,3.5v5.1h-2.1v-11h3.2l2.6,8.4l0,0l2.8-8.4h3.2v11h-2.2v-5.2
				c0-0.2,0-0.5,0-0.8s0-1.2,0.1-2.6h-0.1l-2.8,8.6H471.5z"/>
			<path class="st6" d="M487.8-312.3c0,1-0.4,1.8-1.1,2.3c-0.7,0.6-1.7,0.9-3,0.9c-1.2,0-2.2-0.2-3.1-0.7v-2.2
				c0.7,0.3,1.4,0.6,1.9,0.7s1,0.2,1.4,0.2c0.5,0,0.9-0.1,1.2-0.3c0.3-0.2,0.4-0.5,0.4-0.9c0-0.2-0.1-0.4-0.2-0.6s-0.3-0.3-0.5-0.5
				s-0.7-0.4-1.4-0.7c-0.7-0.3-1.2-0.6-1.5-0.9s-0.6-0.6-0.8-1c-0.2-0.4-0.3-0.8-0.3-1.3c0-1,0.3-1.7,1-2.3c0.7-0.6,1.6-0.8,2.7-0.8
				c0.6,0,1.1,0.1,1.6,0.2s1.1,0.3,1.6,0.6l-0.8,1.8c-0.6-0.2-1.1-0.4-1.5-0.5s-0.8-0.1-1.1-0.1c-0.4,0-0.8,0.1-1,0.3
				c-0.2,0.2-0.4,0.5-0.4,0.8c0,0.2,0,0.4,0.1,0.5c0.1,0.2,0.2,0.3,0.5,0.4c0.2,0.1,0.7,0.4,1.5,0.8c1,0.5,1.7,1,2.1,1.5
				C487.6-313.7,487.8-313.1,487.8-312.3z"/>
		</g>
	</g>
</g>
<g>
	<circle class="st7" cx="403.2" cy="-233.7" r="27.2"/>
	<g>
		<g>
			<path class="st8" d="M397.2-226.6c-0.5,0-1-0.1-1.4-0.2v-1.9c0.4,0.1,0.8,0.1,1.1,0.1c0.5,0,0.9-0.2,1.1-0.5s0.3-0.8,0.3-1.5
				v-10.3h2.3v10.3c0,1.3-0.3,2.3-0.9,2.9S398.3-226.6,397.2-226.6z"/>
			<path class="st8" d="M407.6-229.8h-2.3v-9h-3v-1.9h8.3v1.9h-3V-229.8z"/>
		</g>
	</g>
</g>
<g>
	<g>
		<defs>
			<circle id="SVGID_1_" cx="251.7" cy="-233.7" r="27.3"/>
		</defs>
		<clipPath id="SVGID_2_">
			<use xlink:href="#SVGID_1_"  style="overflow:visible;"/>
		</clipPath>
		<g class="st9">
			
				<image style="overflow:visible;enable-background:new    ;" width="270" height="270" xlink:href="8BD478BD.jpeg"  transform="matrix(0.2018 0 0 0.2018 224.3791 -260.9623)">
			</image>
		</g>
	</g>
</g>
<path class="st10" d="M89.5-519.3c0,0,82.9-63,135.9-20.7c0,0,26.1,25.8,42,51.6c16,25.8,41.8,21,41.8,21s26.3-9.4,45.6-28.4
	c19.3-19,39.5-9.2,39.5-9.2s20.4,11.6,33.4,34c13,22.3,38.2,33.1,38.2,33.1s12,8.8,30.7-7.8c18.7-16.6,35.9-64.3,35.9-64.3
	s18.7-36.1,35.1-32.8c0,0,15.6-1.8,29.4,20.8c13.9,22.6,29.8,57.9,29.8,57.9"/>
<g>
	<g>
		
			<image style="overflow:visible;opacity:0.75;enable-background:new    ;" width="54" height="54" xlink:href="8BD478BB.png"  transform="matrix(1 0 0 1 218.7 -548.2943)">
		</image>
		<g>
			<circle class="st11" cx="243.9" cy="-523.6" r="11.6"/>
		</g>
	</g>
	<circle class="st12" cx="243.9" cy="-523.6" r="7.2"/>
</g>
<g>
	<g>
		
			<image style="overflow:visible;opacity:0.75;enable-background:new    ;" width="56" height="55" xlink:href="8BD478C5.png"  transform="matrix(1 0 0 1 390.7 -510.2943)">
		</image>
		<g>
			<circle class="st11" cx="416.8" cy="-484.9" r="12.1"/>
		</g>
	</g>
	<circle class="st12" cx="416.8" cy="-484.9" r="7.5"/>
</g>
<g>
	<g>
		<defs>
			<circle id="SVGID_3_" cx="326.9" cy="-234.3" r="26.7"/>
		</defs>
		<clipPath id="SVGID_4_">
			<use xlink:href="#SVGID_3_"  style="overflow:visible;"/>
		</clipPath>
		<g class="st13">
			
				<image style="overflow:visible;enable-background:new    ;" width="200" height="200" xlink:href="8BD478C7.jpeg"  transform="matrix(0.2666 0 0 0.2666 300.2577 -260.9623)">
			</image>
		</g>
	</g>
</g>
<g>
	<g>
		<defs>
			<circle id="SVGID_5_" cx="668.7" cy="-402.4" r="38.4"/>
		</defs>
		<clipPath id="SVGID_6_">
			<use xlink:href="#SVGID_5_"  style="overflow:visible;"/>
		</clipPath>
		<g class="st14">
			
				<image style="overflow:visible;enable-background:new    ;" width="300" height="300" xlink:href="8BD478C5.jpeg"  transform="matrix(0.2555 0 0 0.2555 630.309 -440.8192)">
			</image>
		</g>
	</g>
</g>
<g>
	<g>
		<defs>
			<circle id="SVGID_7_" cx="251.7" cy="-313.9" r="27.2"/>
		</defs>
		<clipPath id="SVGID_8_">
			<use xlink:href="#SVGID_7_"  style="overflow:visible;"/>
		</clipPath>
		<g class="st15">
			
				<image style="overflow:visible;enable-background:new    ;" width="300" height="300" xlink:href="8BD478CB.jpeg"  transform="matrix(0.1809 0 0 0.1809 224.4844 -341.0639)">
			</image>
		</g>
	</g>
</g>
<g>
	<g>
		<defs>
			<circle id="SVGID_9_" cx="402.3" cy="-314.8" r="26.6"/>
		</defs>
		<clipPath id="SVGID_10_">
			<use xlink:href="#SVGID_9_"  style="overflow:visible;"/>
		</clipPath>
		<g class="st16">
			
				<image style="overflow:visible;enable-background:new    ;" width="370" height="370" xlink:href="8BD478CD.jpeg"  transform="matrix(0.1435 0 0 0.1435 375.7884 -341.3607)">
			</image>
		</g>
	</g>
</g>
<g>
	<g>
		<defs>
			<circle id="SVGID_11_" cx="477.3" cy="-233.7" r="27.2"/>
		</defs>
		<clipPath id="SVGID_12_">
			<use xlink:href="#SVGID_11_"  style="overflow:visible;"/>
		</clipPath>
		<g class="st17">
			
				<image style="overflow:visible;enable-background:new    ;" width="225" height="225" xlink:href="35B57356.jpeg"  transform="matrix(0.2416 0 0 0.2416 450.1229 -260.8573)">
			</image>
		</g>
	</g>
</g>
<circle class="st11" cx="239.6" cy="-395.1" r="7.3"/>
<circle class="st11" cx="267.4" cy="-395.1" r="7.3"/>
<circle class="st11" cx="295.1" cy="-395.1" r="7.3"/>
<circle class="st11" cx="325.9" cy="-395.1" r="7.3"/>
<circle class="st11" cx="353.6" cy="-395.1" r="7.3"/>
<circle class="st11" cx="381.3" cy="-395.1" r="7.3"/>
<circle class="st11" cx="408" cy="-395.1" r="7.3"/>
<circle class="st11" cx="433.9" cy="-395.1" r="7.3"/>
<g>
	<path class="st11" d="M480.7-405.1c-1.7,0-3.1,0.5-4.2,1.5s-1.8,2.5-2.2,4.6h8.2v2.8H474v0.8v1v0.7h7.4v2.8h-7.1
		c0.8,3.8,3,5.6,6.6,5.6c1.7,0,3.5-0.4,5.3-1.1v3.7c-1.6,0.7-3.4,1.1-5.5,1.1c-2.9,0-5.3-0.8-7.1-2.4c-1.8-1.6-3-3.9-3.6-6.9h-2.7
		v-2.8h2.5v-0.7v-0.7v-1.2h-2.5v-2.8h2.7c0.5-3,1.6-5.4,3.5-7.1s4.2-2.6,7.1-2.6c2.4,0,4.6,0.5,6.5,1.6l-1.5,3.4
		C483.8-404.6,482.2-405.1,480.7-405.1z"/>
</g>
<g>
	<path class="st11" d="M638.4-340.1l-2-6.7h-0.1c0.1,1.4,0.1,2.3,0.1,2.7v3.9h-1.6v-8.5h2.4l2,6.5l0,0l2.1-6.5h2.4v8.5H642v-4
		c0-0.2,0-0.4,0-0.7c0-0.2,0-0.9,0.1-2H642l-2.2,6.6h-1.4V-340.1z"/>
	<path class="st11" d="M645.7-348.2c0-0.6,0.3-0.9,1-0.9c0.6,0,1,0.3,1,0.9c0,0.3-0.1,0.5-0.2,0.6s-0.4,0.2-0.7,0.2
		C646.1-347.3,645.7-347.6,645.7-348.2z M647.6-340.1h-1.8v-6.5h1.8V-340.1z"/>
	<path class="st11" d="M651.1-343.6l0.8-1l1.8-2h2l-2.6,2.8l2.7,3.7h-2l-1.9-2.6l-0.8,0.6v2h-1.8v-9h1.8v4V-343.6L651.1-343.6z"/>
	<path class="st11" d="M659.7-339.9c-1,0-1.9-0.3-2.4-0.9s-0.9-1.4-0.9-2.4c0-1.1,0.3-1.9,0.8-2.5s1.3-0.9,2.3-0.9
		c0.9,0,1.6,0.3,2.1,0.8s0.8,1.2,0.8,2.2v0.9h-4.2c0,0.5,0.2,0.9,0.4,1.2s0.7,0.4,1.2,0.4c0.4,0,0.8,0,1.1-0.1
		c0.3-0.1,0.7-0.2,1.1-0.4v1.4c-0.3,0.2-0.6,0.3-1,0.3C660.7-340,660.2-339.9,659.7-339.9z M659.5-345.4c-0.4,0-0.7,0.1-0.9,0.4
		c-0.2,0.2-0.3,0.6-0.4,1h2.5c0-0.4-0.1-0.8-0.3-1C660.2-345.3,659.9-345.4,659.5-345.4z"/>
	<path class="st11" d="M668.8-343.3v3.3H667v-8.5h2.5c1.2,0,2,0.2,2.6,0.6c0.6,0.4,0.8,1.1,0.8,1.9c0,0.5-0.1,0.9-0.4,1.3
		c-0.3,0.4-0.7,0.7-1.2,0.9c1.3,1.9,2.1,3.1,2.5,3.7h-2l-2-3.3h-1V-343.3z M668.8-344.8h0.6c0.6,0,1-0.1,1.3-0.3s0.4-0.5,0.4-0.9
		s-0.1-0.7-0.4-0.9c-0.3-0.2-0.7-0.3-1.3-0.3h-0.5L668.8-344.8L668.8-344.8z"/>
	<path class="st11" d="M680.6-343.3c0,1.1-0.3,1.9-0.8,2.5c-0.6,0.6-1.3,0.9-2.3,0.9c-0.6,0-1.2-0.1-1.6-0.4
		c-0.5-0.3-0.8-0.7-1.1-1.2s-0.4-1.1-0.4-1.8c0-1.1,0.3-1.9,0.8-2.5c0.6-0.6,1.3-0.9,2.3-0.9c0.6,0,1.2,0.1,1.6,0.4
		c0.5,0.3,0.8,0.7,1.1,1.2S680.6-344,680.6-343.3z M676.2-343.3c0,0.6,0.1,1.1,0.3,1.5c0.2,0.3,0.6,0.5,1,0.5c0.5,0,0.8-0.2,1-0.5
		c0.2-0.3,0.3-0.8,0.3-1.5c0-0.6-0.1-1.1-0.3-1.4c-0.2-0.3-0.6-0.5-1-0.5c-0.5,0-0.8,0.2-1,0.5C676.3-344.4,676.2-344,676.2-343.3z"
		/>
	<path class="st11" d="M685.7-346.7c0.8,0,1.4,0.3,1.8,0.9s0.6,1.4,0.6,2.5s-0.2,1.9-0.7,2.5c-0.4,0.6-1.1,0.9-1.8,0.9
		c-0.8,0-1.4-0.3-1.8-0.8h-0.1l-0.3,0.7H682v-9h1.8v2.1c0,0.3,0,0.7-0.1,1.3h0.1C684.3-346.3,684.9-346.7,685.7-346.7z M685.1-345.2
		c-0.4,0-0.8,0.1-1,0.4c-0.2,0.3-0.3,0.7-0.3,1.3v0.2c0,0.7,0.1,1.2,0.3,1.5c0.2,0.3,0.5,0.5,1,0.5c0.4,0,0.7-0.2,0.9-0.5
		s0.3-0.8,0.3-1.5s-0.1-1.1-0.3-1.4C685.8-345.1,685.5-345.2,685.1-345.2z"/>
	<path class="st11" d="M692.6-339.9c-1,0-1.9-0.3-2.4-0.9s-0.9-1.4-0.9-2.4c0-1.1,0.3-1.9,0.8-2.5s1.3-0.9,2.3-0.9
		c0.9,0,1.6,0.3,2.1,0.8s0.8,1.2,0.8,2.2v0.9h-4.2c0,0.5,0.2,0.9,0.4,1.2c0.2,0.3,0.7,0.4,1.2,0.4c0.4,0,0.8,0,1.1-0.1
		c0.3-0.1,0.7-0.2,1.1-0.4v1.4c-0.3,0.2-0.6,0.3-1,0.3C693.5-340,693.1-339.9,692.6-339.9z M692.3-345.4c-0.4,0-0.7,0.1-0.9,0.4
		c-0.2,0.2-0.3,0.6-0.4,1h2.5c0-0.4-0.1-0.8-0.3-1C693-345.3,692.7-345.4,692.3-345.4z"/>
	<path class="st11" d="M700.3-346.7c0.2,0,0.4,0,0.6,0.1l-0.1,1.7c-0.1,0-0.3-0.1-0.5-0.1c-0.6,0-1,0.1-1.3,0.4
		c-0.3,0.3-0.5,0.7-0.5,1.2v3.3h-1.8v-6.5h1.3l0.3,1.1h0.1c0.2-0.4,0.5-0.7,0.8-0.9C699.5-346.5,699.9-346.7,700.3-346.7z"/>
	<path class="st11" d="M704.8-341.3c0.3,0,0.7-0.1,1.1-0.2v1.3c-0.4,0.2-1,0.3-1.6,0.3c-0.7,0-1.2-0.2-1.5-0.5
		c-0.3-0.4-0.5-0.9-0.5-1.6v-3.1h-0.8v-0.7l1-0.6l0.5-1.4h1.1v1.4h1.8v1.3h-1.8v3.1c0,0.3,0.1,0.4,0.2,0.6
		C704.3-341.4,704.5-341.3,704.8-341.3z"/>
	<path class="st11" d="M711.7-342c0,0.7-0.2,1.2-0.7,1.5s-1.2,0.5-2.1,0.5c-0.5,0-0.9,0-1.2-0.1s-0.6-0.2-0.9-0.3v-1.5
		c0.3,0.2,0.7,0.3,1.1,0.4s0.8,0.2,1.1,0.2c0.6,0,1-0.2,1-0.6c0-0.1,0-0.3-0.1-0.3s-0.2-0.2-0.4-0.3c-0.2-0.1-0.5-0.2-0.8-0.4
		c-0.5-0.2-0.9-0.4-1.1-0.6s-0.4-0.4-0.5-0.6c-0.1-0.2-0.2-0.5-0.2-0.8c0-0.6,0.2-1,0.7-1.3s1.1-0.5,1.9-0.5c0.8,0,1.5,0.2,2.3,0.5
		l-0.5,1.3c-0.3-0.1-0.6-0.3-0.9-0.3s-0.6-0.1-0.9-0.1c-0.5,0-0.8,0.1-0.8,0.4c0,0.2,0.1,0.3,0.3,0.4c0.2,0.1,0.5,0.3,1.1,0.5
		c0.5,0.2,0.9,0.4,1.1,0.6c0.2,0.2,0.4,0.4,0.5,0.6C711.6-342.6,711.7-342.3,711.7-342z"/>
</g>
<g>
	<path class="st18" d="M613.7-316.4c-0.3,0-0.6,0-0.8-0.1v-1c0.3,0.1,0.5,0.1,0.7,0.1c0.6,0,0.9-0.4,0.9-1.2v-6.8h1.1v6.7
		c0,0.7-0.2,1.3-0.5,1.6C614.8-316.6,614.3-316.4,613.7-316.4z"/>
	<path class="st18" d="M621.1-318.4l-0.2-0.7h-0.1c-0.2,0.2-0.4,0.4-0.7,0.6c-0.3,0.2-0.6,0.2-1,0.2c-0.6,0-1.1-0.2-1.4-0.5
		s-0.5-0.8-0.5-1.5v-3.5h1.1v3.3c0,0.4,0.1,0.7,0.2,0.9c0.2,0.2,0.4,0.3,0.8,0.3c0.5,0,0.8-0.1,1-0.4c0.2-0.3,0.3-0.8,0.3-1.4v-2.6
		h1.1v5.3L621.1-318.4L621.1-318.4z"/>
	<path class="st18" d="M627.2-319.9c0,0.5-0.2,0.9-0.6,1.2c-0.4,0.3-0.9,0.4-1.6,0.4s-1.3-0.1-1.7-0.3v-1c0.6,0.3,1.2,0.4,1.7,0.4
		c0.7,0,1-0.2,1-0.6c0-0.1,0-0.2-0.1-0.3c-0.1-0.1-0.2-0.2-0.4-0.3s-0.4-0.2-0.7-0.3c-0.6-0.2-1-0.5-1.2-0.7
		c-0.2-0.2-0.3-0.5-0.3-0.9c0-0.5,0.2-0.8,0.5-1.1c0.4-0.3,0.9-0.4,1.5-0.4c0.6,0,1.2,0.1,1.8,0.4l-0.4,0.8
		c-0.6-0.2-1.1-0.4-1.4-0.4c-0.6,0-0.9,0.2-0.9,0.5c0,0.2,0.1,0.3,0.2,0.4c0.2,0.1,0.5,0.3,1,0.5c0.4,0.2,0.8,0.3,1,0.5
		c0.2,0.1,0.3,0.3,0.4,0.5S627.2-320.1,627.2-319.9z"/>
	<path class="st18" d="M630.4-319.2c0.3,0,0.5,0,0.8-0.1v0.8c-0.1,0.1-0.3,0.1-0.5,0.1s-0.4,0.1-0.6,0.1c-1.1,0-1.6-0.6-1.6-1.7
		v-2.9h-0.7v-0.5l0.8-0.4l0.4-1.1h0.7v1.2h1.5v0.9h-1.5v2.8c0,0.3,0.1,0.5,0.2,0.6C630-319.3,630.1-319.2,630.4-319.2z"/>
	<path class="st18" d="M637.5-323.8c0.2,0,0.4,0,0.6,0l-0.1,1c-0.2,0-0.3-0.1-0.5-0.1c-0.5,0-0.8,0.1-1.1,0.4
		c-0.3,0.3-0.4,0.7-0.4,1.1v2.8h-1.1v-5.3h0.9l0.1,0.9h0.1c0.2-0.3,0.4-0.6,0.7-0.8C636.8-323.7,637.1-323.8,637.5-323.8z"/>
	<path class="st18" d="M642.3-318.4l-0.2-0.7l0,0c-0.3,0.3-0.5,0.5-0.8,0.7c-0.3,0.1-0.6,0.2-1,0.2c-0.5,0-0.9-0.1-1.2-0.4
		s-0.4-0.7-0.4-1.2s0.2-1,0.6-1.2s1-0.4,1.9-0.5h0.9v-0.3c0-0.3-0.1-0.6-0.2-0.8c-0.2-0.2-0.4-0.3-0.7-0.3s-0.5,0-0.8,0.1
		c-0.2,0.1-0.5,0.2-0.7,0.3l-0.4-0.8c0.3-0.1,0.6-0.3,0.9-0.3c0.3-0.1,0.7-0.1,1-0.1c0.7,0,1.2,0.1,1.5,0.4s0.5,0.8,0.5,1.4v3.6
		h-0.9V-318.4z M640.6-319.2c0.4,0,0.7-0.1,1-0.3c0.2-0.2,0.4-0.5,0.4-1v-0.5h-0.7c-0.5,0-0.9,0.1-1.2,0.3c-0.2,0.2-0.4,0.4-0.4,0.7
		c0,0.2,0.1,0.4,0.2,0.5C640.2-319.2,640.4-319.2,640.6-319.2z"/>
	<path class="st18" d="M644.6-325.1c0-0.2,0.1-0.4,0.2-0.5c0.1-0.1,0.3-0.2,0.5-0.2s0.4,0.1,0.5,0.2c0.1,0.1,0.2,0.3,0.2,0.5
		s-0.1,0.3-0.2,0.5c-0.1,0.1-0.3,0.2-0.5,0.2s-0.4-0.1-0.5-0.2C644.7-324.7,644.6-324.9,644.6-325.1z M645.8-318.4h-1.1v-5.3h1.1
		V-318.4z"/>
	<path class="st18" d="M651-319.9c0,0.5-0.2,0.9-0.6,1.2c-0.4,0.3-0.9,0.4-1.6,0.4s-1.3-0.1-1.7-0.3v-1c0.6,0.3,1.2,0.4,1.7,0.4
		c0.7,0,1-0.2,1-0.6c0-0.1,0-0.2-0.1-0.3c-0.1-0.1-0.2-0.2-0.4-0.3s-0.4-0.2-0.7-0.3c-0.6-0.2-1-0.5-1.2-0.7
		c-0.2-0.2-0.3-0.5-0.3-0.9c0-0.5,0.2-0.8,0.5-1.1c0.4-0.3,0.9-0.4,1.5-0.4c0.6,0,1.2,0.1,1.8,0.4l-0.4,0.8
		c-0.6-0.2-1.1-0.4-1.4-0.4c-0.6,0-0.9,0.2-0.9,0.5c0,0.2,0.1,0.3,0.2,0.4c0.2,0.1,0.5,0.3,1,0.5c0.4,0.2,0.8,0.3,1,0.5
		c0.2,0.1,0.3,0.3,0.4,0.5C650.9-320.4,651-320.1,651-319.9z"/>
	<path class="st18" d="M654.5-318.3c-0.8,0-1.5-0.2-1.9-0.7c-0.5-0.5-0.7-1.1-0.7-2s0.2-1.5,0.6-2c0.4-0.5,1-0.7,1.8-0.7
		c0.7,0,1.3,0.2,1.7,0.6c0.4,0.4,0.6,1,0.6,1.8v0.6h-3.5c0,0.5,0.2,0.9,0.4,1.2c0.3,0.3,0.6,0.4,1.1,0.4c0.3,0,0.6,0,0.9-0.1
		c0.3-0.1,0.6-0.2,0.9-0.3v0.9c-0.3,0.1-0.6,0.2-0.8,0.3C655.2-318.3,654.9-318.3,654.5-318.3z M654.3-322.9c-0.4,0-0.6,0.1-0.9,0.3
		c-0.2,0.2-0.3,0.6-0.4,1h2.4c0-0.4-0.1-0.8-0.3-1S654.7-322.9,654.3-322.9z"/>
	<path class="st18" d="M659.6-318.3c-0.7,0-1.2-0.2-1.5-0.7c-0.4-0.5-0.6-1.2-0.6-2c0-0.9,0.2-1.5,0.6-2c0.4-0.5,0.9-0.7,1.6-0.7
		s1.2,0.3,1.6,0.8h0.1c-0.1-0.4-0.1-0.7-0.1-0.9v-1.9h1.1v7.5h-0.9l-0.2-0.7h-0.1C660.9-318.6,660.3-318.3,659.6-318.3z
		 M659.9-319.2c0.5,0,0.8-0.1,1-0.4c0.2-0.3,0.3-0.7,0.3-1.3v-0.2c0-0.7-0.1-1.1-0.3-1.4c-0.2-0.3-0.6-0.4-1-0.4
		c-0.4,0-0.7,0.2-0.9,0.5c-0.2,0.3-0.3,0.8-0.3,1.4s0.1,1,0.3,1.3C659.2-319.4,659.5-319.2,659.9-319.2z"/>
	<path class="st18" d="M668.5-319.2c0.3,0,0.5,0,0.8-0.1v0.8c-0.1,0.1-0.3,0.1-0.5,0.1c-0.2,0-0.4,0.1-0.6,0.1
		c-1.1,0-1.6-0.6-1.6-1.7v-2.9h-0.7v-0.5l0.8-0.4l0.4-1.1h0.7v1.2h1.5v0.9h-1.5v2.8c0,0.3,0.1,0.5,0.2,0.6S668.3-319.2,668.5-319.2z
		"/>
	<path class="st18" d="M675-318.4h-1.1v-3.3c0-0.4-0.1-0.7-0.2-0.9c-0.2-0.2-0.4-0.3-0.8-0.3c-0.5,0-0.8,0.1-1,0.4
		c-0.2,0.3-0.3,0.8-0.3,1.4v2.6h-1.1v-7.5h1.1v1.9c0,0.3,0,0.6-0.1,1h0.1c0.2-0.3,0.4-0.5,0.6-0.6c0.3-0.1,0.6-0.2,1-0.2
		c1.3,0,1.9,0.6,1.9,1.9L675-318.4L675-318.4z"/>
	<path class="st18" d="M678.9-318.3c-0.8,0-1.5-0.2-1.9-0.7c-0.5-0.5-0.7-1.1-0.7-2s0.2-1.5,0.6-2s1-0.7,1.8-0.7
		c0.7,0,1.3,0.2,1.7,0.6s0.6,1,0.6,1.8v0.6h-3.5c0,0.5,0.2,0.9,0.4,1.2c0.3,0.3,0.6,0.4,1.1,0.4c0.3,0,0.6,0,0.9-0.1
		s0.6-0.2,0.9-0.3v0.9c-0.3,0.1-0.6,0.2-0.8,0.3C679.6-318.3,679.3-318.3,678.9-318.3z M678.7-322.9c-0.4,0-0.6,0.1-0.9,0.3
		c-0.2,0.2-0.3,0.6-0.4,1h2.4c0-0.4-0.1-0.8-0.3-1C679.3-322.8,679.1-322.9,678.7-322.9z"/>
	<path class="st18" d="M687.5-323.8c0.7,0,1.2,0.2,1.5,0.7c0.4,0.5,0.6,1.2,0.6,2c0,0.9-0.2,1.5-0.6,2c-0.4,0.5-0.9,0.7-1.6,0.7
		s-1.2-0.2-1.6-0.7h-0.1l-0.2,0.6h-0.8v-7.5h1.1v1.8c0,0.1,0,0.3,0,0.6c0,0.3,0,0.4,0,0.5l0,0C686.3-323.5,686.8-323.8,687.5-323.8z
		 M687.2-322.9c-0.5,0-0.8,0.1-1,0.4s-0.3,0.7-0.3,1.3v0.1c0,0.6,0.1,1.1,0.3,1.4s0.5,0.4,1,0.4c0.4,0,0.7-0.2,0.9-0.5
		c0.2-0.3,0.3-0.8,0.3-1.4C688.4-322.3,688-322.9,687.2-322.9z"/>
	<path class="st18" d="M690.8-325.1c0-0.2,0.1-0.4,0.2-0.5c0.1-0.1,0.3-0.2,0.5-0.2c0.2,0,0.4,0.1,0.5,0.2c0.1,0.1,0.2,0.3,0.2,0.5
		s-0.1,0.3-0.2,0.5c-0.1,0.1-0.3,0.2-0.5,0.2c-0.2,0-0.4-0.1-0.5-0.2C690.9-324.7,690.8-324.9,690.8-325.1z M692-318.4h-1.1v-5.3
		h1.1V-318.4z"/>
	<path class="st18" d="M695.4-318.3c-0.7,0-1.2-0.2-1.5-0.7c-0.4-0.5-0.6-1.2-0.6-2c0-0.9,0.2-1.5,0.6-2c0.4-0.5,0.9-0.7,1.6-0.7
		s1.2,0.3,1.6,0.8h0.1c-0.1-0.4-0.1-0.7-0.1-0.9v-1.9h1.1v7.5h-0.9l-0.2-0.7H697C696.6-318.6,696.1-318.3,695.4-318.3z M695.7-319.2
		c0.5,0,0.8-0.1,1-0.4s0.3-0.7,0.3-1.3v-0.2c0-0.7-0.1-1.1-0.3-1.4s-0.6-0.4-1-0.4s-0.7,0.2-0.9,0.5c-0.2,0.3-0.3,0.8-0.3,1.4
		s0.1,1,0.3,1.3C695-319.4,695.3-319.2,695.7-319.2z"/>
	<path class="st18" d="M705-323.8c0.7,0,1.2,0.2,1.5,0.7c0.4,0.5,0.6,1.2,0.6,2c0,0.9-0.2,1.5-0.6,2c-0.4,0.5-0.9,0.7-1.6,0.7
		s-1.2-0.2-1.6-0.7h-0.1l-0.2,0.6h-0.8v-7.5h1.1v1.8c0,0.1,0,0.3,0,0.6c0,0.3,0,0.4,0,0.5l0,0C703.8-323.5,704.3-323.8,705-323.8z
		 M704.7-322.9c-0.5,0-0.8,0.1-1,0.4s-0.3,0.7-0.3,1.3v0.1c0,0.6,0.1,1.1,0.3,1.4s0.5,0.4,1,0.4c0.4,0,0.7-0.2,0.9-0.5
		c0.2-0.3,0.3-0.8,0.3-1.4C705.9-322.3,705.5-322.9,704.7-322.9z"/>
	<path class="st18" d="M707.6-323.7h1.2l1.1,3c0.2,0.4,0.3,0.8,0.3,1.2l0,0c0-0.2,0.1-0.4,0.2-0.6c0.1-0.3,0.5-1.4,1.2-3.6h1.2
		l-2.3,6c-0.4,1.1-1.1,1.7-2.1,1.7c-0.2,0-0.5,0-0.7-0.1v-0.9c0.2,0,0.4,0.1,0.6,0.1c0.5,0,0.9-0.3,1.1-0.9l0.2-0.5L707.6-323.7z"/>
	<path class="st18" d="M720.5-320.6c0,0.5-0.2,0.8-0.5,1.1c-0.3,0.3-0.8,0.5-1.5,0.6v1h-0.6v-1c-0.8,0-1.4-0.1-1.9-0.4v-1
		c0.3,0.1,0.6,0.2,1,0.3c0.4,0.1,0.7,0.1,1,0.1v-1.8l-0.4-0.1c-0.5-0.2-0.9-0.4-1.1-0.7c-0.2-0.3-0.4-0.6-0.4-1s0.2-0.8,0.5-1.1
		c0.3-0.3,0.8-0.5,1.4-0.5v-0.8h0.6v0.8c0.6,0,1.3,0.2,1.8,0.4l-0.3,0.9c-0.5-0.2-1-0.3-1.5-0.4v1.7l0.4,0.1c0.6,0.2,1,0.5,1.3,0.7
		C720.4-321.2,720.5-320.9,720.5-320.6z M717.1-323.4c0,0.2,0.1,0.3,0.2,0.5c0.1,0.1,0.3,0.2,0.6,0.4v-1.5c-0.3,0-0.5,0.1-0.6,0.2
		C717.2-323.7,717.1-323.6,717.1-323.4z M719.4-320.5c0-0.2-0.1-0.3-0.2-0.5c-0.1-0.1-0.3-0.2-0.6-0.3v1.5
		C719.1-319.8,719.4-320.1,719.4-320.5z"/>
	<path class="st18" d="M722.2-318.4l2.8-6h-3.6v-1h4.8v0.8l-2.8,6.2H722.2z"/>
	<path class="st18" d="M728.5-321.2l0.6-0.8l1.6-1.7h1.3l-2.1,2.3l2.3,3h-1.3l-1.7-2.3l-0.6,0.5v1.8h-1.1v-7.5h1.1v3.6L728.5-321.2
		L728.5-321.2z"/>
</g>
<path class="st19" d="M727-270.8H618.8c-0.7,0-1.2-0.6-1.2-1.2v-27.2c0-0.7,0.6-1.2,1.2-1.2H727c0.7,0,1.2,0.6,1.2,1.2v27.2
	C728.3-271.4,727.7-270.8,727-270.8z"/>
<g>
	<path class="st11" d="M661.6-285.5v3h-1.2v-7.6h2.1c1,0,1.7,0.2,2.2,0.5c0.5,0.4,0.7,0.9,0.7,1.7c0,0.9-0.5,1.6-1.5,2l2.1,3.3h-1.4
		l-1.8-3h-1.2V-285.5z M661.6-286.5h0.9c0.6,0,1-0.1,1.3-0.3s0.4-0.5,0.4-1c0-0.4-0.1-0.7-0.4-0.9c-0.3-0.2-0.7-0.3-1.3-0.3h-0.8
		v2.5H661.6z"/>
	<path class="st11" d="M670.6-282.4l-0.2-0.8l0,0c-0.3,0.3-0.6,0.6-0.8,0.7c-0.2,0.1-0.6,0.2-1.1,0.2c-0.6,0-1-0.2-1.3-0.5
		s-0.5-0.7-0.5-1.3c0-0.6,0.2-1,0.7-1.3c0.4-0.3,1.1-0.5,2-0.5h1v-0.3c0-0.4-0.1-0.6-0.3-0.8c-0.2-0.2-0.4-0.3-0.8-0.3
		c-0.3,0-0.6,0-0.8,0.1c-0.3,0.1-0.5,0.2-0.8,0.3l-0.4-0.9c0.3-0.2,0.7-0.3,1-0.4c0.4-0.1,0.7-0.1,1-0.1c0.7,0,1.3,0.2,1.6,0.5
		c0.4,0.3,0.6,0.8,0.6,1.5v3.9L670.6-282.4L670.6-282.4z M668.8-283.3c0.4,0,0.8-0.1,1.1-0.4c0.3-0.2,0.4-0.6,0.4-1v-0.5h-0.7
		c-0.6,0-1,0.1-1.2,0.3c-0.3,0.2-0.4,0.4-0.4,0.8c0,0.3,0.1,0.5,0.2,0.6C668.3-283.4,668.5-283.3,668.8-283.3z"/>
	<path class="st11" d="M673.1-289.7c0-0.2,0.1-0.4,0.2-0.5c0.1-0.1,0.3-0.2,0.5-0.2s0.4,0.1,0.5,0.2c0.1,0.1,0.2,0.3,0.2,0.5
		s-0.1,0.4-0.2,0.5c-0.1,0.1-0.3,0.2-0.5,0.2s-0.4-0.1-0.5-0.2C673.1-289.3,673.1-289.5,673.1-289.7z M674.4-282.4h-1.2v-5.7h1.2
		V-282.4z"/>
	<path class="st11" d="M679.9-284.1c0,0.6-0.2,1-0.6,1.3c-0.4,0.3-1,0.4-1.7,0.4c-0.8,0-1.4-0.1-1.8-0.3v-1c0.7,0.3,1.3,0.5,1.9,0.5
		c0.7,0,1.1-0.2,1.1-0.7c0-0.1,0-0.3-0.1-0.4c-0.1-0.1-0.2-0.2-0.4-0.3c-0.2-0.1-0.5-0.2-0.8-0.4c-0.7-0.3-1.1-0.5-1.3-0.8
		s-0.3-0.6-0.3-1c0-0.5,0.2-0.9,0.6-1.1c0.4-0.3,0.9-0.4,1.6-0.4c0.7,0,1.3,0.1,1.9,0.4l-0.4,0.9c-0.6-0.3-1.1-0.4-1.6-0.4
		c-0.6,0-1,0.2-1,0.5c0,0.2,0.1,0.3,0.3,0.5c0.2,0.1,0.5,0.3,1.1,0.5c0.5,0.2,0.8,0.4,1,0.5c0.2,0.2,0.4,0.3,0.5,0.5
		C680-284.7,679.9-284.3,679.9-284.1z"/>
	<path class="st11" d="M683.8-282.3c-0.9,0-1.6-0.3-2.1-0.8s-0.8-1.2-0.8-2.1s0.2-1.7,0.7-2.2s1.1-0.8,1.9-0.8s1.4,0.2,1.8,0.7
		c0.4,0.5,0.7,1.1,0.7,1.9v0.7h-3.8c0,0.6,0.2,1,0.5,1.3s0.7,0.4,1.2,0.4c0.3,0,0.7,0,0.9-0.1c0.3-0.1,0.6-0.2,0.9-0.3v1
		c-0.3,0.1-0.6,0.2-0.9,0.3C684.5-282.4,684.1-282.3,683.8-282.3z M683.5-287.3c-0.4,0-0.7,0.1-0.9,0.4c-0.2,0.2-0.4,0.6-0.4,1.1
		h2.6c0-0.5-0.1-0.8-0.3-1.1C684.3-287.2,683.9-287.3,683.5-287.3z"/>
</g>
<g>
	<g>
		<defs>
			<circle id="SVGID_13_" cx="668.7" cy="-402.4" r="38.4"/>
		</defs>
		<clipPath id="SVGID_14_">
			<use xlink:href="#SVGID_13_"  style="overflow:visible;"/>
		</clipPath>
		<g class="st20">
			
				<image style="overflow:visible;enable-background:new    ;" width="300" height="300" xlink:href="35B57356.jpeg"  transform="matrix(0.2555 0 0 0.2555 630.309 -440.8192)">
			</image>
		</g>
	</g>
</g>
</svg>
