<?xml version="1.0" encoding="utf-8"?>
<!-- Generator: Adobe Illustrator 19.0.0, SVG Export Plug-In . SVG Version: 6.00 Build 0)  -->
<svg version="1.1" id="Calque_1" xmlns="http://www.w3.org/2000/svg" xmlns:xlink="http://www.w3.org/1999/xlink" x="0px" y="0px"
	 viewBox="68 -692.9 748.2 692.9" style="enable-background:new 68 -692.9 748.2 692.9;" xml:space="preserve">
<style type="text/css">
	.st0{fill:none;stroke:#FAFAFA;stroke-width:2;stroke-miterlimit:10;}
	.st1{fill:#1B1B49;}
	.st2{fill:none;stroke:#2C2C60;stroke-miterlimit:10;}
	.st3{fill:#FEEBE2;}
	.st4{fill:#F9BAA0;}
	.st5{fill:#FAFAFA;}
	.st6{fill:#C5C4C6;}
	.st7{clip-path:url(#SVGID_2_);}
	.st8{fill:#E0DEFF;}
	.st9{fill:#8C8CF4;}
	.st10{fill:#6D30ED;}
	.st11{fill:#FFFFFF;}
	.st12{fill:#767DFF;}
	.st13{clip-path:url(#SVGID_4_);}
	.st14{fill:#1B1B49;stroke:#2C2C60;stroke-miterlimit:10;}
	.st15{clip-path:url(#SVGID_6_);}
	.st16{clip-path:url(#SVGID_8_);}
	.st17{fill:#D5F2F5;}
	.st18{fill:#52E8E8;}
	.st19{clip-path:url(#SVGID_10_);}
	.st20{clip-path:url(#SVGID_12_);}
	.st21{clip-path:url(#SVGID_14_);}
	.st22{clip-path:url(#SVGID_16_);}
	.st23{font-family:'Montserrat-SemiBold';}
	.st24{font-size:8.1244px;}
</style>
<g id="BG">
</g>
<g id="section1">
</g>
<g id="section2">
</g>
<g id="section3">
</g>
<g id="section4">
</g>
<g id="Hero">
	<path class="st0" d="M1903.5-661.6"/>
</g>
<g id="Hero_1_">
	<path class="st0" d="M-62.3-592.5"/>
</g>
<g>
	
		<image style="overflow:visible;opacity:0.12;" width="623" height="152" xlink:href="B55C934F.png"  transform="matrix(1 0 0 1 133 -570)">
	</image>
	<g>
		<path class="st1" d="M723.4-438.6H160.8c-7.8,0-14.1-6.3-14.1-14.1v-91.9c0-7.8,6.3-14.1,14.1-14.1h562.7
			c7.8,0,14.1,6.3,14.1,14.1v91.9C737.6-444.9,731.3-438.6,723.4-438.6z"/>
		<path class="st2" d="M723.4-438.6H160.8c-7.8,0-14.1-6.3-14.1-14.1v-91.9c0-7.8,6.3-14.1,14.1-14.1h562.7
			c7.8,0,14.1,6.3,14.1,14.1v91.9C737.6-444.9,731.3-438.6,723.4-438.6z"/>
	</g>
</g>
<g>
	<circle class="st3" cx="202.1" cy="-499.8" r="34.4"/>
	<g>
		<g>
			<path class="st4" d="M194.7-492.8l-3.3-10.9h-0.1c0.1,2.3,0.1,3.7,0.1,4.4v6.5h-2.7v-13.9h4l3.3,10.6l0,0l3.5-10.6h4v13.9h-2.8
				v-6.6c0-0.3,0-0.6,0-1c0-0.4,0-1.5,0.1-3.3h-0.1l-3.5,10.9H194.7z"/>
			<path class="st4" d="M215.3-496.6c0,1.3-0.5,2.3-1.4,2.9c-0.9,0.8-2.2,1.1-3.8,1.1c-1.5,0-2.8-0.3-3.9-0.9v-2.8
				c0.9,0.4,1.8,0.8,2.4,0.9c0.6,0.1,1.3,0.3,1.8,0.3c0.6,0,1.1-0.1,1.5-0.4c0.4-0.3,0.5-0.6,0.5-1.1c0-0.3-0.1-0.5-0.3-0.8
				c-0.1-0.3-0.4-0.4-0.6-0.6c-0.3-0.3-0.9-0.5-1.8-0.9c-0.9-0.4-1.5-0.8-1.9-1.1c-0.4-0.4-0.8-0.8-1-1.3c-0.3-0.5-0.4-1-0.4-1.6
				c0-1.3,0.4-2.2,1.3-2.9c0.9-0.8,2-1,3.4-1c0.8,0,1.4,0.1,2,0.3s1.4,0.4,2,0.8l-1,2.3c-0.8-0.3-1.4-0.5-1.9-0.6
				c-0.5-0.1-1-0.1-1.4-0.1c-0.5,0-1,0.1-1.3,0.4c-0.3,0.3-0.5,0.6-0.5,1c0,0.3,0,0.5,0.1,0.6c0.1,0.3,0.3,0.4,0.6,0.5
				c0.3,0.1,0.9,0.5,1.9,1c1.3,0.6,2.2,1.3,2.7,1.9C215.1-498.4,215.3-497.6,215.3-496.6z"/>
		</g>
	</g>
</g>
<g>
	<path class="st5" d="M260.2-513.7h-5.8l-1.1,2.7H251l5.2-11.6h2.1l5.3,11.6h-2.3L260.2-513.7z M259.5-515.4l-2.2-5.1l-2.2,5.1
		H259.5z"/>
	<path class="st5" d="M278.3-519.9l-3.3,8.9h-2l-2.3-6.1l-2.3,6.1h-2l-3.3-8.9h2l2.3,6.6l2.4-6.6h1.7l2.4,6.6l2.4-6.6H278.3z"/>
	<path class="st5" d="M287.8-514.8h-7c0.1,0.7,0.4,1.2,1,1.6c0.5,0.4,1.2,0.6,1.9,0.6c1,0,1.8-0.3,2.4-1l1.1,1.3
		c-0.4,0.5-0.9,0.8-1.5,1.1c-0.6,0.2-1.3,0.4-2.1,0.4c-1,0-1.8-0.2-2.6-0.6c-0.7-0.4-1.3-0.9-1.7-1.6c-0.4-0.7-0.6-1.5-0.6-2.4
		c0-0.9,0.2-1.6,0.6-2.3s0.9-1.2,1.6-1.6c0.7-0.4,1.5-0.6,2.4-0.6c0.9,0,1.6,0.2,2.3,0.6c0.7,0.4,1.2,0.9,1.6,1.6
		c0.4,0.7,0.6,1.5,0.6,2.4C287.9-515.2,287.9-515,287.8-514.8z M281.7-517.7c-0.5,0.4-0.7,0.9-0.8,1.6h5c-0.1-0.6-0.4-1.2-0.8-1.6
		c-0.5-0.4-1-0.6-1.7-0.6C282.7-518.3,282.2-518.1,281.7-517.7z"/>
	<path class="st5" d="M290.5-511.2c-0.7-0.2-1.2-0.4-1.6-0.7l0.8-1.6c0.4,0.3,0.9,0.5,1.4,0.6c0.6,0.2,1.1,0.2,1.7,0.2
		c1.2,0,1.9-0.3,1.9-1c0-0.3-0.2-0.5-0.5-0.6c-0.3-0.1-0.8-0.2-1.5-0.3c-0.7-0.1-1.3-0.2-1.8-0.4c-0.5-0.1-0.9-0.4-1.2-0.8
		s-0.5-0.9-0.5-1.5c0-0.8,0.4-1.5,1.1-2s1.7-0.8,2.9-0.8c0.6,0,1.2,0.1,1.8,0.2s1.1,0.3,1.5,0.6l-0.8,1.6c-0.8-0.4-1.6-0.7-2.5-0.7
		c-0.6,0-1.1,0.1-1.4,0.3c-0.3,0.2-0.5,0.4-0.5,0.7c0,0.3,0.2,0.6,0.5,0.7c0.3,0.1,0.9,0.3,1.6,0.4c0.7,0.1,1.3,0.2,1.7,0.4
		c0.5,0.1,0.8,0.4,1.2,0.7s0.5,0.8,0.5,1.5c0,0.8-0.4,1.5-1.1,2s-1.7,0.7-2.9,0.7C291.9-510.9,291.2-511,290.5-511.2z"/>
	<path class="st5" d="M300-511.5c-0.7-0.4-1.3-0.9-1.7-1.6c-0.4-0.7-0.6-1.5-0.6-2.4s0.2-1.7,0.6-2.3c0.4-0.7,1-1.2,1.7-1.6
		c0.7-0.4,1.5-0.6,2.4-0.6c0.9,0,1.7,0.2,2.4,0.6c0.7,0.4,1.3,0.9,1.7,1.6s0.6,1.5,0.6,2.3s-0.2,1.7-0.6,2.4c-0.4,0.7-1,1.2-1.7,1.6
		c-0.7,0.4-1.5,0.6-2.4,0.6C301.5-510.9,300.7-511.1,300-511.5z M304.3-513.4c0.5-0.5,0.7-1.2,0.7-2s-0.2-1.5-0.7-2
		c-0.5-0.5-1.1-0.8-1.9-0.8s-1.4,0.3-1.9,0.8c-0.5,0.5-0.7,1.2-0.7,2s0.2,1.5,0.7,2c0.5,0.5,1.1,0.8,1.9,0.8
		S303.8-512.9,304.3-513.4z"/>
	<path class="st5" d="M323-519c0.7,0.6,1,1.6,1,2.9v5.1h-2.1v-4.8c0-0.8-0.2-1.4-0.5-1.8s-0.8-0.6-1.5-0.6c-0.7,0-1.3,0.2-1.7,0.7
		c-0.4,0.5-0.6,1.1-0.6,2v4.5h-2.1v-4.8c0-0.8-0.2-1.4-0.5-1.8c-0.3-0.4-0.8-0.6-1.5-0.6c-0.7,0-1.3,0.2-1.7,0.7
		c-0.4,0.5-0.6,1.1-0.6,2v4.5h-2.1v-8.9h2v1.1c0.3-0.4,0.7-0.7,1.2-0.9c0.5-0.2,1.1-0.3,1.7-0.3c0.7,0,1.3,0.1,1.8,0.4
		c0.5,0.2,0.9,0.6,1.2,1.1c0.4-0.5,0.8-0.8,1.4-1.1c0.6-0.3,1.2-0.4,1.9-0.4C321.5-520,322.4-519.6,323-519z"/>
	<path class="st5" d="M335.1-514.8h-7c0.1,0.7,0.4,1.2,1,1.6c0.5,0.4,1.2,0.6,1.9,0.6c1,0,1.8-0.3,2.4-1l1.1,1.3
		c-0.4,0.5-0.9,0.8-1.5,1.1c-0.6,0.2-1.3,0.4-2.1,0.4c-1,0-1.8-0.2-2.6-0.6c-0.7-0.4-1.3-0.9-1.7-1.6c-0.4-0.7-0.6-1.5-0.6-2.4
		c0-0.9,0.2-1.6,0.6-2.3s0.9-1.2,1.6-1.6c0.7-0.4,1.5-0.6,2.4-0.6c0.9,0,1.6,0.2,2.3,0.6c0.7,0.4,1.2,0.9,1.6,1.6
		c0.4,0.7,0.6,1.5,0.6,2.4C335.1-515.2,335.1-515,335.1-514.8z M328.9-517.7c-0.5,0.4-0.7,0.9-0.8,1.6h5c-0.1-0.6-0.4-1.2-0.8-1.6
		c-0.5-0.4-1-0.6-1.7-0.6C330-518.3,329.4-518.1,328.9-517.7z"/>
	<path class="st5" d="M352.6-511l0-7.7l-3.8,6.4h-1l-3.8-6.3v7.6h-2.1v-11.6h1.8l4.6,7.7l4.5-7.7h1.8l0,11.6H352.6z"/>
	<path class="st5" d="M364-519c0.7,0.6,1,1.6,1,2.8v5.2h-2v-1.1c-0.3,0.4-0.6,0.7-1.1,0.9s-1,0.3-1.7,0.3c-0.7,0-1.2-0.1-1.7-0.3
		c-0.5-0.2-0.9-0.5-1.2-0.9s-0.4-0.9-0.4-1.4c0-0.8,0.3-1.4,0.9-1.9c0.6-0.5,1.5-0.7,2.8-0.7h2.3v-0.1c0-0.6-0.2-1.1-0.6-1.4
		c-0.4-0.3-0.9-0.5-1.7-0.5c-0.5,0-1,0.1-1.5,0.2s-0.9,0.4-1.2,0.6l-0.8-1.5c0.5-0.4,1-0.6,1.7-0.8c0.7-0.2,1.3-0.3,2.1-0.3
		C362.3-520,363.3-519.7,364-519z M362.1-512.7c0.4-0.2,0.7-0.6,0.9-1v-1h-2.1c-1.2,0-1.8,0.4-1.8,1.2c0,0.4,0.1,0.7,0.4,0.9
		s0.7,0.3,1.2,0.3C361.2-512.4,361.7-512.5,362.1-512.7z"/>
	<path class="st5" d="M375.4-519c0.7,0.7,1,1.6,1,2.9v5.1h-2.1v-4.8c0-0.8-0.2-1.4-0.5-1.8c-0.4-0.4-0.9-0.6-1.6-0.6
		c-0.8,0-1.4,0.2-1.8,0.7c-0.4,0.5-0.7,1.1-0.7,2v4.5h-2.1v-8.9h2v1.1c0.3-0.4,0.8-0.7,1.3-0.9c0.5-0.2,1.1-0.3,1.8-0.3
		C373.8-520,374.7-519.6,375.4-519z"/>
	<path class="st5" d="M386.8-519c0.7,0.7,1,1.6,1,2.9v5.1h-2.1v-4.8c0-0.8-0.2-1.4-0.5-1.8c-0.4-0.4-0.9-0.6-1.6-0.6
		c-0.8,0-1.4,0.2-1.8,0.7c-0.4,0.5-0.7,1.1-0.7,2v4.5h-2.1v-12.3h2.1v4.5c0.3-0.4,0.8-0.6,1.3-0.8c0.5-0.2,1.1-0.3,1.7-0.3
		C385.2-520,386.1-519.6,386.8-519z"/>
	<path class="st5" d="M396.9-519c0.7,0.6,1,1.6,1,2.8v5.2h-2v-1.1c-0.3,0.4-0.6,0.7-1.1,0.9s-1,0.3-1.7,0.3c-0.7,0-1.2-0.1-1.7-0.3
		c-0.5-0.2-0.9-0.5-1.2-0.9s-0.4-0.9-0.4-1.4c0-0.8,0.3-1.4,0.9-1.9c0.6-0.5,1.5-0.7,2.8-0.7h2.3v-0.1c0-0.6-0.2-1.1-0.6-1.4
		c-0.4-0.3-0.9-0.5-1.7-0.5c-0.5,0-1,0.1-1.5,0.2s-0.9,0.4-1.2,0.6l-0.8-1.5c0.5-0.4,1-0.6,1.7-0.8c0.7-0.2,1.3-0.3,2.1-0.3
		C395.2-520,396.2-519.7,396.9-519z M395-512.7c0.4-0.2,0.7-0.6,0.9-1v-1h-2.1c-1.2,0-1.8,0.4-1.8,1.2c0,0.4,0.1,0.7,0.4,0.9
		s0.7,0.3,1.2,0.3C394.1-512.4,394.5-512.5,395-512.7z"/>
	<path class="st5" d="M405.9-511.5c-0.2,0.2-0.5,0.3-0.9,0.4c-0.3,0.1-0.7,0.1-1.1,0.1c-1,0-1.7-0.3-2.3-0.8
		c-0.5-0.5-0.8-1.3-0.8-2.2v-4.3h-1.5v-1.7h1.5v-2h2.1v2h2.4v1.7h-2.4v4.2c0,0.4,0.1,0.8,0.3,1c0.2,0.2,0.5,0.3,0.9,0.3
		c0.5,0,0.9-0.1,1.2-0.4L405.9-511.5z"/>
	<path class="st5" d="M412.7-511.5c-0.2,0.2-0.5,0.3-0.9,0.4c-0.3,0.1-0.7,0.1-1.1,0.1c-1,0-1.7-0.3-2.3-0.8
		c-0.5-0.5-0.8-1.3-0.8-2.2v-4.3h-1.5v-1.7h1.5v-2h2.1v2h2.4v1.7h-2.4v4.2c0,0.4,0.1,0.8,0.3,1c0.2,0.2,0.5,0.3,0.9,0.3
		c0.5,0,0.9-0.1,1.2-0.4L412.7-511.5z"/>
	<path class="st5" d="M420.8-519c0.7,0.6,1,1.6,1,2.8v5.2h-2v-1.1c-0.3,0.4-0.6,0.7-1.1,0.9c-0.5,0.2-1,0.3-1.7,0.3
		c-0.7,0-1.2-0.1-1.7-0.3c-0.5-0.2-0.9-0.5-1.2-0.9s-0.4-0.9-0.4-1.4c0-0.8,0.3-1.4,0.9-1.9c0.6-0.5,1.5-0.7,2.8-0.7h2.3v-0.1
		c0-0.6-0.2-1.1-0.6-1.4c-0.4-0.3-0.9-0.5-1.7-0.5c-0.5,0-1,0.1-1.5,0.2s-0.9,0.4-1.2,0.6l-0.8-1.5c0.5-0.4,1-0.6,1.7-0.8
		c0.7-0.2,1.3-0.3,2.1-0.3C419.1-520,420.1-519.7,420.8-519z M418.9-512.7c0.4-0.2,0.7-0.6,0.9-1v-1h-2.1c-1.2,0-1.8,0.4-1.8,1.2
		c0,0.4,0.1,0.7,0.4,0.9s0.7,0.3,1.2,0.3C418.1-512.4,418.5-512.5,418.9-512.7z"/>
	<path class="st5" d="M432.3-519c0.7,0.7,1,1.6,1,2.9v5.1h-2.1v-4.8c0-0.8-0.2-1.4-0.5-1.8c-0.4-0.4-0.9-0.6-1.6-0.6
		c-0.8,0-1.4,0.2-1.8,0.7c-0.4,0.5-0.7,1.1-0.7,2v4.5h-2.1v-8.9h2v1.1c0.3-0.4,0.8-0.7,1.3-0.9c0.5-0.2,1.1-0.3,1.8-0.3
		C430.7-520,431.6-519.6,432.3-519z"/>
	<path class="st5" d="M260.2-493.7h-5.8l-1.1,2.7H251l5.2-11.6h2.1l5.3,11.6h-2.3L260.2-493.7z M259.5-495.4l-2.2-5.1l-2.2,5.1
		H259.5z"/>
	<path class="st5" d="M272.2-499.4c0.7,0.4,1.2,0.9,1.6,1.6c0.4,0.7,0.6,1.5,0.6,2.4c0,0.9-0.2,1.7-0.6,2.4
		c-0.4,0.7-0.9,1.2-1.6,1.6c-0.7,0.4-1.5,0.6-2.3,0.6c-1.2,0-2.1-0.4-2.8-1.2v4.3h-2.1v-12.1h2v1.2c0.3-0.4,0.8-0.7,1.3-0.9
		c0.5-0.2,1.1-0.3,1.7-0.3C270.7-500,271.5-499.8,272.2-499.4z M271.5-493.5c0.5-0.5,0.7-1.2,0.7-2s-0.2-1.5-0.7-2
		c-0.5-0.5-1.1-0.8-1.9-0.8c-0.5,0-0.9,0.1-1.3,0.3c-0.4,0.2-0.7,0.6-0.9,1c-0.2,0.4-0.3,0.9-0.3,1.5c0,0.6,0.1,1,0.3,1.5
		s0.5,0.7,0.9,1c0.4,0.2,0.8,0.3,1.3,0.3C270.4-492.7,271-493,271.5-493.5z"/>
	<path class="st5" d="M283.6-499.4c0.7,0.4,1.2,0.9,1.6,1.6c0.4,0.7,0.6,1.5,0.6,2.4c0,0.9-0.2,1.7-0.6,2.4
		c-0.4,0.7-0.9,1.2-1.6,1.6c-0.7,0.4-1.5,0.6-2.3,0.6c-1.2,0-2.1-0.4-2.8-1.2v4.3h-2.1v-12.1h2v1.2c0.3-0.4,0.8-0.7,1.3-0.9
		c0.5-0.2,1.1-0.3,1.7-0.3C282.1-500,282.9-499.8,283.6-499.4z M282.9-493.5c0.5-0.5,0.7-1.2,0.7-2s-0.2-1.5-0.7-2
		c-0.5-0.5-1.1-0.8-1.9-0.8c-0.5,0-0.9,0.1-1.3,0.3c-0.4,0.2-0.7,0.6-0.9,1c-0.2,0.4-0.3,0.9-0.3,1.5c0,0.6,0.1,1,0.3,1.5
		s0.5,0.7,0.9,1c0.4,0.2,0.8,0.3,1.3,0.3C281.8-492.7,282.4-493,282.9-493.5z"/>
	<path class="st5" d="M294-499.1c0.7,0.6,1,1.6,1,2.8v5.2h-2v-1.1c-0.3,0.4-0.6,0.7-1.1,0.9s-1,0.3-1.7,0.3c-0.7,0-1.2-0.1-1.7-0.3
		c-0.5-0.2-0.9-0.5-1.2-0.9s-0.4-0.9-0.4-1.4c0-0.8,0.3-1.4,0.9-1.9c0.6-0.5,1.5-0.7,2.8-0.7h2.3v-0.1c0-0.6-0.2-1.1-0.6-1.4
		c-0.4-0.3-0.9-0.5-1.7-0.5c-0.5,0-1,0.1-1.5,0.2s-0.9,0.4-1.2,0.6l-0.8-1.5c0.5-0.4,1-0.6,1.7-0.8c0.7-0.2,1.3-0.3,2.1-0.3
		C292.3-500,293.3-499.7,294-499.1z M292.1-492.8c0.4-0.2,0.7-0.6,0.9-1v-1h-2.1c-1.2,0-1.8,0.4-1.8,1.2c0,0.4,0.1,0.7,0.4,0.9
		s0.7,0.3,1.2,0.3C291.3-492.4,291.7-492.5,292.1-492.8z"/>
	<path class="st5" d="M302.9-500v2c-0.2,0-0.3,0-0.5,0c-0.8,0-1.4,0.2-1.9,0.7s-0.7,1.2-0.7,2v4.3h-2.1v-8.9h2v1.3
		C300.3-499.5,301.4-500,302.9-500z"/>
	<path class="st5" d="M310.3-491.5c-0.2,0.2-0.5,0.3-0.9,0.4c-0.3,0.1-0.7,0.1-1.1,0.1c-1,0-1.7-0.3-2.3-0.8
		c-0.5-0.5-0.8-1.3-0.8-2.2v-4.3h-1.5v-1.7h1.5v-2h2.1v2h2.4v1.7h-2.4v4.2c0,0.4,0.1,0.8,0.3,1c0.2,0.2,0.5,0.3,0.9,0.3
		c0.5,0,0.9-0.1,1.2-0.4L310.3-491.5z"/>
	<path class="st5" d="M325.9-499c0.7,0.6,1,1.6,1,2.9v5.1h-2.1v-4.8c0-0.8-0.2-1.4-0.5-1.8s-0.8-0.6-1.5-0.6c-0.7,0-1.3,0.2-1.7,0.7
		c-0.4,0.5-0.6,1.1-0.6,2v4.5h-2.1v-4.8c0-0.8-0.2-1.4-0.5-1.8c-0.3-0.4-0.8-0.6-1.5-0.6c-0.7,0-1.3,0.2-1.7,0.7
		c-0.4,0.5-0.6,1.1-0.6,2v4.5H312v-8.9h2v1.1c0.3-0.4,0.7-0.7,1.2-0.9c0.5-0.2,1.1-0.3,1.7-0.3c0.7,0,1.3,0.1,1.8,0.4
		c0.5,0.2,0.9,0.6,1.2,1.1c0.4-0.5,0.8-0.8,1.4-1.1c0.6-0.3,1.2-0.4,1.9-0.4C324.4-500,325.2-499.7,325.9-499z"/>
	<path class="st5" d="M337.9-494.8h-7c0.1,0.7,0.4,1.2,1,1.6c0.5,0.4,1.2,0.6,1.9,0.6c1,0,1.8-0.3,2.4-1l1.1,1.3
		c-0.4,0.5-0.9,0.8-1.5,1.1c-0.6,0.2-1.3,0.4-2.1,0.4c-1,0-1.8-0.2-2.6-0.6c-0.7-0.4-1.3-0.9-1.7-1.6c-0.4-0.7-0.6-1.5-0.6-2.4
		c0-0.9,0.2-1.6,0.6-2.3s0.9-1.2,1.6-1.6c0.7-0.4,1.5-0.6,2.4-0.6c0.9,0,1.6,0.2,2.3,0.6c0.7,0.4,1.2,0.9,1.6,1.6
		c0.4,0.7,0.6,1.5,0.6,2.4C338-495.3,338-495.1,337.9-494.8z M331.8-497.8c-0.5,0.4-0.7,0.9-0.8,1.6h5c-0.1-0.6-0.4-1.2-0.8-1.6
		c-0.5-0.4-1-0.6-1.7-0.6C332.8-498.4,332.2-498.2,331.8-497.8z"/>
	<path class="st5" d="M347.7-499c0.7,0.7,1,1.6,1,2.9v5.1h-2.1v-4.8c0-0.8-0.2-1.4-0.5-1.8c-0.4-0.4-0.9-0.6-1.6-0.6
		c-0.8,0-1.4,0.2-1.8,0.7c-0.4,0.5-0.7,1.1-0.7,2v4.5H340v-8.9h2v1.1c0.3-0.4,0.8-0.7,1.3-0.9c0.5-0.2,1.1-0.3,1.8-0.3
		C346.1-500,347-499.7,347.7-499z"/>
	<path class="st5" d="M356.7-491.5c-0.2,0.2-0.5,0.3-0.9,0.4c-0.3,0.1-0.7,0.1-1.1,0.1c-1,0-1.7-0.3-2.3-0.8
		c-0.5-0.5-0.8-1.3-0.8-2.2v-4.3h-1.5v-1.7h1.5v-2h2.1v2h2.4v1.7h-2.4v4.2c0,0.4,0.1,0.8,0.3,1c0.2,0.2,0.5,0.3,0.9,0.3
		c0.5,0,0.9-0.1,1.2-0.4L356.7-491.5z"/>
</g>
<g>
	<path class="st6" d="M501.3-511.5h-2.7l-0.6,1.3h-0.5l2.2-4.8h0.5l2.2,4.8h-0.5L501.3-511.5z M501.2-511.9l-1.2-2.6l-1.2,2.6H501.2
		z"/>
	<path class="st6" d="M504-510.4c-0.4-0.2-0.7-0.5-0.9-0.9c-0.2-0.4-0.3-0.8-0.3-1.3s0.1-0.9,0.3-1.3c0.2-0.4,0.5-0.7,0.9-0.9
		c0.4-0.2,0.8-0.3,1.3-0.3c0.4,0,0.7,0.1,1,0.2c0.3,0.1,0.6,0.3,0.8,0.5l-0.3,0.3c-0.4-0.4-0.9-0.6-1.4-0.6c-0.4,0-0.7,0.1-1,0.3
		c-0.3,0.2-0.6,0.4-0.7,0.7c-0.2,0.3-0.3,0.6-0.3,1s0.1,0.7,0.3,1s0.4,0.5,0.7,0.7c0.3,0.2,0.7,0.3,1,0.3c0.6,0,1.1-0.2,1.4-0.6
		l0.3,0.3c-0.2,0.2-0.5,0.4-0.8,0.5s-0.6,0.2-1,0.2C504.8-510.1,504.4-510.2,504-510.4z"/>
	<path class="st6" d="M508.8-510.4c-0.4-0.2-0.7-0.5-0.9-0.9c-0.2-0.4-0.3-0.8-0.3-1.3s0.1-0.9,0.3-1.3c0.2-0.4,0.5-0.7,0.9-0.9
		c0.4-0.2,0.8-0.3,1.3-0.3c0.4,0,0.7,0.1,1,0.2c0.3,0.1,0.6,0.3,0.8,0.5l-0.3,0.3c-0.4-0.4-0.9-0.6-1.4-0.6c-0.4,0-0.7,0.1-1,0.3
		c-0.3,0.2-0.6,0.4-0.7,0.7c-0.2,0.3-0.3,0.6-0.3,1s0.1,0.7,0.3,1s0.4,0.5,0.7,0.7c0.3,0.2,0.7,0.3,1,0.3c0.6,0,1.1-0.2,1.4-0.6
		l0.3,0.3c-0.2,0.2-0.5,0.4-0.8,0.5s-0.6,0.2-1,0.2C509.7-510.1,509.2-510.2,508.8-510.4z"/>
	<path class="st6" d="M516.4-510.6v0.4H513v-4.8h3.3v0.4h-2.8v1.7h2.5v0.4h-2.5v1.8H516.4z"/>
	<path class="st6" d="M520.9-514.5c0.3,0.3,0.5,0.7,0.5,1.2s-0.2,0.9-0.5,1.2c-0.3,0.3-0.8,0.4-1.4,0.4h-1.3v1.5h-0.5v-4.8h1.8
		C520-515,520.5-514.8,520.9-514.5z M520.5-512.4c0.3-0.2,0.4-0.5,0.4-0.9c0-0.4-0.1-0.7-0.4-0.9s-0.6-0.3-1.1-0.3h-1.3v2.4h1.3
		C519.9-512.1,520.2-512.2,520.5-512.4z"/>
	<path class="st6" d="M523.3-514.5h-1.7v-0.4h3.9v0.4h-1.7v4.4h-0.5V-514.5z"/>
	<path class="st6" d="M529.7-510.6v0.4h-3.4v-4.8h3.3v0.4h-2.8v1.7h2.5v0.4h-2.5v1.8H529.7z"/>
	<path class="st6" d="M530.9-515h2c0.5,0,1,0.1,1.3,0.3c0.4,0.2,0.7,0.5,0.9,0.9s0.3,0.8,0.3,1.3c0,0.5-0.1,0.9-0.3,1.3
		c-0.2,0.4-0.5,0.6-0.9,0.9c-0.4,0.2-0.8,0.3-1.3,0.3h-2V-515z M532.8-510.6c0.4,0,0.8-0.1,1.1-0.3c0.3-0.2,0.6-0.4,0.7-0.7
		s0.3-0.6,0.3-1s-0.1-0.7-0.3-1c-0.2-0.3-0.4-0.5-0.7-0.7c-0.3-0.2-0.7-0.3-1.1-0.3h-1.4v3.9H532.8z"/>
</g>
<g>
	<path class="st6" d="M636.3-514.5c0.3,0.3,0.5,0.7,0.5,1.2s-0.2,0.9-0.5,1.2c-0.3,0.3-0.8,0.4-1.4,0.4h-1.3v1.5H633v-4.8h1.8
		C635.4-515,635.9-514.8,636.3-514.5z M635.9-512.5c0.3-0.2,0.4-0.5,0.4-0.9c0-0.4-0.1-0.7-0.4-0.9s-0.6-0.3-1.1-0.3h-1.3v2.4h1.3
		C635.3-512.1,635.6-512.2,635.9-512.5z"/>
	<path class="st6" d="M641.3-510.6v0.4h-3.4v-4.8h3.3v0.4h-2.8v1.7h2.5v0.4h-2.5v1.8H641.3z"/>
	<path class="st6" d="M643.3-510.4c-0.4-0.2-0.7-0.5-0.9-0.9c-0.2-0.4-0.3-0.8-0.3-1.3s0.1-0.9,0.3-1.3c0.2-0.4,0.5-0.7,0.9-0.9
		s0.8-0.3,1.3-0.3s0.9,0.1,1.3,0.3c0.4,0.2,0.7,0.5,0.9,0.9c0.2,0.4,0.3,0.8,0.3,1.3s-0.1,0.9-0.3,1.3c-0.2,0.4-0.5,0.7-0.9,0.9
		c-0.4,0.2-0.8,0.3-1.3,0.3S643.7-510.2,643.3-510.4z M645.6-510.8c0.3-0.2,0.5-0.4,0.7-0.7c0.2-0.3,0.3-0.6,0.3-1s-0.1-0.7-0.3-1
		c-0.2-0.3-0.4-0.5-0.7-0.7c-0.3-0.2-0.7-0.3-1-0.3c-0.4,0-0.7,0.1-1,0.3c-0.3,0.2-0.6,0.4-0.7,0.7c-0.2,0.3-0.3,0.6-0.3,1
		s0.1,0.7,0.3,1c0.2,0.3,0.4,0.5,0.7,0.7c0.3,0.2,0.7,0.3,1,0.3C645-510.6,645.3-510.7,645.6-510.8z"/>
	<path class="st6" d="M651.5-514.5c0.3,0.3,0.5,0.7,0.5,1.2s-0.2,0.9-0.5,1.2c-0.3,0.3-0.8,0.4-1.4,0.4h-1.3v1.5h-0.5v-4.8h1.8
		C650.7-515,651.1-514.8,651.5-514.5z M651.1-512.5c0.3-0.2,0.4-0.5,0.4-0.9c0-0.4-0.1-0.7-0.4-0.9s-0.6-0.3-1.1-0.3h-1.3v2.4h1.3
		C650.5-512.1,650.9-512.2,651.1-512.5z"/>
	<path class="st6" d="M653.1-515h0.5v4.4h2.7v0.4h-3.2V-515z"/>
	<path class="st6" d="M660.6-510.6v0.4h-3.4v-4.8h3.3v0.4h-2.8v1.7h2.5v0.4h-2.5v1.8H660.6z"/>
</g>
<g>
	<path class="st6" d="M256.7-480.1c0.5,0.4,0.7,1,0.7,1.7c0,0.7-0.2,1.3-0.7,1.7s-1.2,0.6-2,0.6h-1.6v2h-0.9v-6.6h2.6
		C255.6-480.7,256.2-480.5,256.7-480.1z M256-477.3c0.3-0.3,0.5-0.6,0.5-1.1s-0.2-0.8-0.5-1.1c-0.3-0.3-0.8-0.4-1.4-0.4h-1.6v3h1.6
		C255.3-476.9,255.7-477.1,256-477.3z"/>
	<path class="st6" d="M259.5-474.4c-0.4-0.2-0.7-0.5-0.9-0.9c-0.2-0.4-0.3-0.8-0.3-1.3s0.1-0.9,0.3-1.3c0.2-0.4,0.5-0.7,0.9-0.9
		s0.8-0.3,1.3-0.3s0.9,0.1,1.3,0.3s0.7,0.5,0.9,0.9c0.2,0.4,0.3,0.8,0.3,1.3s-0.1,0.9-0.3,1.3c-0.2,0.4-0.5,0.7-0.9,0.9
		s-0.8,0.3-1.3,0.3S259.9-474.2,259.5-474.4z M261.7-475.1c0.3-0.1,0.5-0.4,0.6-0.6c0.1-0.3,0.2-0.6,0.2-0.9s-0.1-0.7-0.2-0.9
		c-0.1-0.3-0.3-0.5-0.6-0.6c-0.3-0.1-0.5-0.2-0.9-0.2s-0.6,0.1-0.9,0.2c-0.3,0.1-0.5,0.4-0.6,0.6c-0.1,0.3-0.2,0.6-0.2,0.9
		s0.1,0.7,0.2,0.9s0.4,0.5,0.6,0.6c0.3,0.1,0.5,0.2,0.9,0.2S261.5-474.9,261.7-475.1z"/>
	<path class="st6" d="M265-474.2c-0.4-0.1-0.7-0.3-0.9-0.4l0.4-0.7c0.2,0.2,0.5,0.3,0.8,0.4c0.3,0.1,0.6,0.1,1,0.1
		c0.8,0,1.2-0.2,1.2-0.7c0-0.2-0.1-0.3-0.2-0.4c-0.1-0.1-0.2-0.2-0.4-0.2c-0.2,0-0.4-0.1-0.7-0.1c-0.4-0.1-0.7-0.1-1-0.2
		c-0.3-0.1-0.5-0.2-0.7-0.4c-0.2-0.2-0.3-0.5-0.3-0.8c0-0.5,0.2-0.8,0.6-1.1c0.4-0.3,0.9-0.4,1.5-0.4c0.3,0,0.7,0,1,0.1
		c0.3,0.1,0.6,0.2,0.8,0.3l-0.4,0.7c-0.4-0.3-0.9-0.4-1.4-0.4c-0.4,0-0.7,0.1-0.9,0.2c-0.2,0.1-0.3,0.3-0.3,0.5
		c0,0.2,0.1,0.3,0.2,0.4c0.1,0.1,0.3,0.2,0.4,0.2c0.2,0,0.4,0.1,0.7,0.2c0.4,0.1,0.7,0.1,1,0.2c0.2,0.1,0.5,0.2,0.6,0.4
		c0.2,0.2,0.3,0.5,0.3,0.8c0,0.5-0.2,0.8-0.6,1.1c-0.4,0.3-0.9,0.4-1.6,0.4C265.7-474.1,265.3-474.1,265-474.2z"/>
	<path class="st6" d="M272.3-474.4c-0.1,0.1-0.3,0.2-0.5,0.3s-0.4,0.1-0.6,0.1c-0.5,0-0.9-0.1-1.2-0.4c-0.3-0.3-0.4-0.7-0.4-1.2
		v-2.8h-0.9v-0.7h0.9v-1.1h0.9v1.1h1.4v0.7h-1.4v2.7c0,0.3,0.1,0.5,0.2,0.6c0.1,0.1,0.3,0.2,0.6,0.2c0.3,0,0.5-0.1,0.7-0.2
		L272.3-474.4z"/>
	<path class="st6" d="M277.7-476.3h-4.1c0.1,0.4,0.3,0.8,0.6,1.1c0.3,0.3,0.7,0.4,1.2,0.4c0.6,0,1.1-0.2,1.4-0.6l0.5,0.6
		c-0.2,0.3-0.5,0.5-0.8,0.6c-0.3,0.1-0.7,0.2-1.1,0.2c-0.5,0-1-0.1-1.4-0.3c-0.4-0.2-0.7-0.5-1-0.9c-0.2-0.4-0.3-0.8-0.3-1.3
		c0-0.5,0.1-0.9,0.3-1.3s0.5-0.7,0.9-0.9s0.8-0.3,1.3-0.3s0.9,0.1,1.3,0.3s0.7,0.5,0.9,0.9s0.3,0.8,0.3,1.3
		C277.7-476.5,277.7-476.4,277.7-476.3z M274.2-478c-0.3,0.3-0.5,0.6-0.5,1h3.2c-0.1-0.4-0.2-0.8-0.5-1c-0.3-0.3-0.7-0.4-1.1-0.4
		S274.5-478.3,274.2-478z"/>
	<path class="st6" d="M283.7-481.1v7h-0.9v-0.8c-0.2,0.3-0.5,0.5-0.8,0.6c-0.3,0.1-0.6,0.2-1,0.2c-0.5,0-0.9-0.1-1.3-0.3
		c-0.4-0.2-0.7-0.5-0.9-0.9s-0.3-0.8-0.3-1.3s0.1-0.9,0.3-1.3c0.2-0.4,0.5-0.7,0.9-0.9c0.4-0.2,0.8-0.3,1.3-0.3c0.4,0,0.7,0.1,1,0.2
		c0.3,0.1,0.6,0.3,0.8,0.6v-2.8H283.7z M282-475.1c0.3-0.1,0.5-0.4,0.6-0.6c0.1-0.3,0.2-0.6,0.2-0.9s-0.1-0.7-0.2-0.9
		c-0.1-0.3-0.3-0.5-0.6-0.6c-0.3-0.1-0.5-0.2-0.9-0.2c-0.3,0-0.6,0.1-0.9,0.2c-0.3,0.1-0.5,0.4-0.6,0.6c-0.1,0.3-0.2,0.6-0.2,0.9
		s0.1,0.7,0.2,0.9s0.4,0.5,0.6,0.6c0.3,0.1,0.5,0.2,0.9,0.2C281.5-474.8,281.7-474.9,282-475.1z"/>
	<path class="st6" d="M292.2-474.9v0.8h-4.8v-0.6l2.7-2.6c0.3-0.3,0.5-0.6,0.7-0.8c0.1-0.2,0.2-0.5,0.2-0.7c0-0.3-0.1-0.6-0.4-0.8
		c-0.2-0.2-0.6-0.3-1-0.3c-0.7,0-1.3,0.2-1.7,0.7l-0.6-0.6c0.3-0.3,0.6-0.6,1-0.7c0.4-0.2,0.9-0.3,1.4-0.3c0.7,0,1.2,0.2,1.7,0.5
		c0.4,0.3,0.6,0.8,0.6,1.3c0,0.4-0.1,0.7-0.2,1s-0.4,0.7-0.9,1.1l-2,1.9H292.2z"/>
	<path class="st6" d="M300.2-478.6c0.4,0.4,0.6,0.9,0.6,1.6v2.9h-0.9v-2.8c0-0.5-0.1-0.9-0.4-1.1s-0.6-0.4-1-0.4
		c-0.5,0-0.9,0.1-1.2,0.4c-0.3,0.3-0.4,0.7-0.4,1.2v2.6H296v-7h0.9v2.7c0.2-0.2,0.4-0.4,0.7-0.6c0.3-0.1,0.6-0.2,1-0.2
		C299.3-479.2,299.8-479,300.2-478.6z"/>
	<path class="st6" d="M303.3-474.4c-0.4-0.2-0.7-0.5-0.9-0.9c-0.2-0.4-0.3-0.8-0.3-1.3s0.1-0.9,0.3-1.3c0.2-0.4,0.5-0.7,0.9-0.9
		s0.8-0.3,1.3-0.3s0.9,0.1,1.3,0.3s0.7,0.5,0.9,0.9c0.2,0.4,0.3,0.8,0.3,1.3s-0.1,0.9-0.3,1.3c-0.2,0.4-0.5,0.7-0.9,0.9
		s-0.8,0.3-1.3,0.3S303.7-474.2,303.3-474.4z M305.5-475.1c0.3-0.1,0.5-0.4,0.6-0.6c0.1-0.3,0.2-0.6,0.2-0.9s-0.1-0.7-0.2-0.9
		c-0.1-0.3-0.3-0.5-0.6-0.6c-0.3-0.1-0.5-0.2-0.9-0.2s-0.6,0.1-0.9,0.2c-0.3,0.1-0.5,0.4-0.6,0.6c-0.1,0.3-0.2,0.6-0.2,0.9
		s0.1,0.7,0.2,0.9s0.4,0.5,0.6,0.6c0.3,0.1,0.5,0.2,0.9,0.2S305.2-474.9,305.5-475.1z"/>
	<path class="st6" d="M313.1-479.1v5h-0.9v-0.8c-0.2,0.3-0.4,0.5-0.7,0.6c-0.3,0.1-0.6,0.2-1,0.2c-0.7,0-1.2-0.2-1.6-0.6
		c-0.4-0.4-0.6-0.9-0.6-1.6v-2.9h0.9v2.8c0,0.5,0.1,0.9,0.4,1.1c0.2,0.2,0.6,0.4,1,0.4c0.5,0,0.9-0.1,1.1-0.4
		c0.3-0.3,0.4-0.7,0.4-1.2v-2.6H313.1z"/>
	<path class="st6" d="M316.4-478.9c0.3-0.2,0.7-0.2,1.1-0.2v0.9c-0.1,0-0.1,0-0.2,0c-0.5,0-0.9,0.1-1.2,0.4s-0.4,0.7-0.4,1.3v2.5
		h-0.9v-5h0.9v0.8C315.9-478.6,316.1-478.8,316.4-478.9z"/>
	<path class="st6" d="M319-474.2c-0.4-0.1-0.7-0.3-0.9-0.4l0.4-0.7c0.2,0.2,0.5,0.3,0.8,0.4c0.3,0.1,0.6,0.1,1,0.1
		c0.8,0,1.2-0.2,1.2-0.7c0-0.2-0.1-0.3-0.2-0.4c-0.1-0.1-0.2-0.2-0.4-0.2c-0.2,0-0.4-0.1-0.7-0.1c-0.4-0.1-0.7-0.1-1-0.2
		c-0.3-0.1-0.5-0.2-0.7-0.4c-0.2-0.2-0.3-0.5-0.3-0.8c0-0.5,0.2-0.8,0.6-1.1c0.4-0.3,0.9-0.4,1.5-0.4c0.3,0,0.7,0,1,0.1
		c0.3,0.1,0.6,0.2,0.8,0.3l-0.4,0.7c-0.4-0.3-0.9-0.4-1.4-0.4c-0.4,0-0.7,0.1-0.9,0.2c-0.2,0.1-0.3,0.3-0.3,0.5
		c0,0.2,0.1,0.3,0.2,0.4c0.1,0.1,0.3,0.2,0.4,0.2c0.2,0,0.4,0.1,0.7,0.2c0.4,0.1,0.7,0.1,1,0.2c0.2,0.1,0.5,0.2,0.6,0.4
		c0.2,0.2,0.3,0.5,0.3,0.8c0,0.5-0.2,0.8-0.6,1.1c-0.4,0.3-0.9,0.4-1.6,0.4C319.8-474.1,319.4-474.1,319-474.2z"/>
	<path class="st6" d="M329.4-478.7c0.4,0.3,0.6,0.8,0.6,1.5v3h-0.9v-0.7c-0.2,0.2-0.4,0.4-0.6,0.5s-0.6,0.2-1,0.2
		c-0.6,0-1-0.1-1.3-0.4c-0.3-0.3-0.5-0.6-0.5-1.1c0-0.4,0.2-0.8,0.5-1.1c0.3-0.3,0.8-0.4,1.5-0.4h1.4v-0.2c0-0.4-0.1-0.7-0.3-0.9
		c-0.2-0.2-0.6-0.3-1-0.3c-0.3,0-0.6,0-0.9,0.1s-0.5,0.2-0.7,0.4l-0.4-0.7c0.3-0.2,0.6-0.4,0.9-0.5s0.7-0.2,1.1-0.2
		C328.5-479.2,329.1-479,329.4-478.7z M328.5-475c0.3-0.2,0.4-0.4,0.5-0.7v-0.7h-1.4c-0.8,0-1.2,0.3-1.2,0.8c0,0.3,0.1,0.5,0.3,0.6
		c0.2,0.1,0.5,0.2,0.8,0.2S328.3-474.8,328.5-475z"/>
	<path class="st6" d="M336.5-479.1v4.3c0,0.9-0.2,1.5-0.7,1.9c-0.4,0.4-1.1,0.6-1.9,0.6c-0.5,0-0.9-0.1-1.4-0.2
		c-0.4-0.1-0.8-0.3-1-0.6l0.4-0.7c0.2,0.2,0.5,0.4,0.9,0.5c0.3,0.1,0.7,0.2,1.1,0.2c0.6,0,1-0.1,1.3-0.4c0.3-0.3,0.4-0.7,0.4-1.3
		v-0.4c-0.2,0.3-0.5,0.5-0.8,0.6s-0.7,0.2-1,0.2c-0.5,0-0.9-0.1-1.3-0.3c-0.4-0.2-0.7-0.5-0.9-0.9c-0.2-0.4-0.3-0.8-0.3-1.3
		c0-0.5,0.1-0.9,0.3-1.3c0.2-0.4,0.5-0.7,0.9-0.9c0.4-0.2,0.8-0.3,1.3-0.3c0.4,0,0.7,0.1,1.1,0.2c0.3,0.1,0.6,0.3,0.8,0.6v-0.8
		H336.5z M334.8-475.3c0.3-0.1,0.5-0.3,0.6-0.6c0.1-0.2,0.2-0.5,0.2-0.8c0-0.5-0.2-0.9-0.5-1.2s-0.7-0.4-1.2-0.4
		c-0.5,0-0.9,0.1-1.2,0.4c-0.3,0.3-0.5,0.7-0.5,1.2c0,0.3,0.1,0.6,0.2,0.8c0.1,0.2,0.4,0.4,0.6,0.6c0.3,0.1,0.6,0.2,0.9,0.2
		C334.2-475.1,334.5-475.2,334.8-475.3z"/>
	<path class="st6" d="M339-474.4c-0.4-0.2-0.7-0.5-0.9-0.9c-0.2-0.4-0.3-0.8-0.3-1.3s0.1-0.9,0.3-1.3c0.2-0.4,0.5-0.7,0.9-0.9
		s0.8-0.3,1.3-0.3s0.9,0.1,1.3,0.3s0.7,0.5,0.9,0.9c0.2,0.4,0.3,0.8,0.3,1.3s-0.1,0.9-0.3,1.3c-0.2,0.4-0.5,0.7-0.9,0.9
		s-0.8,0.3-1.3,0.3S339.4-474.2,339-474.4z M341.2-475.1c0.3-0.1,0.5-0.4,0.6-0.6c0.1-0.3,0.2-0.6,0.2-0.9s-0.1-0.7-0.2-0.9
		c-0.1-0.3-0.3-0.5-0.6-0.6c-0.3-0.1-0.5-0.2-0.9-0.2s-0.6,0.1-0.9,0.2c-0.3,0.1-0.5,0.4-0.6,0.6c-0.1,0.3-0.2,0.6-0.2,0.9
		s0.1,0.7,0.2,0.9s0.4,0.5,0.6,0.6c0.3,0.1,0.5,0.2,0.9,0.2S341-474.9,341.2-475.1z"/>
</g>
<g>
	
		<image style="overflow:visible;opacity:0.12;" width="623" height="153" xlink:href="B55C934D.png"  transform="matrix(1 0 0 1 133 -419)">
	</image>
	<g>
		<path class="st1" d="M723.4-287.3H160.8c-7.8,0-14.1-6.3-14.1-14.1v-91.9c0-7.8,6.3-14.1,14.1-14.1h562.7
			c7.8,0,14.1,6.3,14.1,14.1v91.9C737.6-293.6,731.3-287.3,723.4-287.3z"/>
		<path class="st2" d="M723.4-287.3H160.8c-7.8,0-14.1-6.3-14.1-14.1v-91.9c0-7.8,6.3-14.1,14.1-14.1h562.7
			c7.8,0,14.1,6.3,14.1,14.1v91.9C737.6-293.6,731.3-287.3,723.4-287.3z"/>
	</g>
</g>
<g>
	<path class="st5" d="M258.4-362c-0.8-0.3-1.5-0.6-2-1l0.7-1.7c0.5,0.4,1.1,0.7,1.8,0.9s1.4,0.4,2.1,0.4c0.9,0,1.5-0.1,1.9-0.4
		c0.4-0.3,0.6-0.6,0.6-1.1c0-0.3-0.1-0.6-0.4-0.8c-0.2-0.2-0.5-0.4-0.9-0.5s-0.9-0.3-1.5-0.4c-0.9-0.2-1.6-0.4-2.2-0.6s-1-0.5-1.4-1
		s-0.6-1.1-0.6-1.8c0-0.6,0.2-1.2,0.5-1.8c0.3-0.5,0.9-0.9,1.6-1.3c0.7-0.3,1.6-0.5,2.6-0.5c0.7,0,1.4,0.1,2.1,0.3s1.3,0.4,1.8,0.8
		l-0.7,1.7c-0.5-0.3-1-0.5-1.6-0.7c-0.6-0.2-1.1-0.2-1.6-0.2c-0.9,0-1.5,0.1-1.9,0.4c-0.4,0.3-0.6,0.7-0.6,1.1
		c0,0.3,0.1,0.6,0.4,0.8c0.2,0.2,0.5,0.4,0.9,0.5c0.4,0.1,0.9,0.3,1.5,0.4c0.9,0.2,1.6,0.4,2.1,0.6c0.6,0.2,1,0.5,1.4,1
		c0.4,0.4,0.6,1,0.6,1.8c0,0.6-0.2,1.2-0.5,1.7c-0.3,0.5-0.9,0.9-1.6,1.2c-0.7,0.3-1.6,0.5-2.6,0.5
		C260.1-361.6,259.2-361.7,258.4-362z"/>
	<path class="st5" d="M275.9-365.5h-7c0.1,0.7,0.4,1.2,1,1.6c0.5,0.4,1.2,0.6,1.9,0.6c1,0,1.8-0.3,2.4-1l1.1,1.3
		c-0.4,0.5-0.9,0.8-1.5,1.1c-0.6,0.2-1.3,0.4-2.1,0.4c-1,0-1.8-0.2-2.6-0.6c-0.7-0.4-1.3-0.9-1.7-1.6c-0.4-0.7-0.6-1.5-0.6-2.4
		c0-0.9,0.2-1.6,0.6-2.3s0.9-1.2,1.6-1.6c0.7-0.4,1.5-0.6,2.4-0.6c0.9,0,1.6,0.2,2.3,0.6c0.7,0.4,1.2,0.9,1.6,1.6
		c0.4,0.7,0.6,1.5,0.6,2.4C276-366,275.9-365.8,275.9-365.5z M269.8-368.5c-0.5,0.4-0.7,0.9-0.8,1.6h5c-0.1-0.6-0.4-1.2-0.8-1.6
		c-0.5-0.4-1-0.6-1.7-0.6C270.8-369.1,270.2-368.9,269.8-368.5z"/>
	<path class="st5" d="M279.6-362.2c-0.7-0.4-1.3-0.9-1.7-1.6c-0.4-0.7-0.6-1.5-0.6-2.4s0.2-1.7,0.6-2.3c0.4-0.7,1-1.2,1.7-1.6
		c0.7-0.4,1.6-0.6,2.5-0.6c0.9,0,1.6,0.2,2.3,0.5s1.2,0.9,1.5,1.5l-1.6,0.9c-0.3-0.4-0.6-0.7-1-0.9c-0.4-0.2-0.8-0.3-1.3-0.3
		c-0.8,0-1.4,0.3-1.9,0.8c-0.5,0.5-0.8,1.2-0.8,2s0.3,1.5,0.8,2c0.5,0.5,1.1,0.8,1.9,0.8c0.5,0,0.9-0.1,1.3-0.3
		c0.4-0.2,0.7-0.5,1-0.9l1.6,0.9c-0.3,0.7-0.8,1.2-1.5,1.5c-0.7,0.4-1.4,0.5-2.3,0.5C281.1-361.7,280.3-361.8,279.6-362.2z"/>
	<path class="st5" d="M289-362.2c-0.7-0.4-1.3-0.9-1.7-1.6c-0.4-0.7-0.6-1.5-0.6-2.4s0.2-1.7,0.6-2.3c0.4-0.7,1-1.2,1.7-1.6
		c0.7-0.4,1.5-0.6,2.4-0.6c0.9,0,1.7,0.2,2.4,0.6c0.7,0.4,1.3,0.9,1.7,1.6s0.6,1.5,0.6,2.3s-0.2,1.7-0.6,2.4c-0.4,0.7-1,1.2-1.7,1.6
		c-0.7,0.4-1.5,0.6-2.4,0.6C290.6-361.7,289.8-361.8,289-362.2z M293.4-364.2c0.5-0.5,0.7-1.2,0.7-2s-0.2-1.5-0.7-2
		c-0.5-0.5-1.1-0.8-1.9-0.8s-1.4,0.3-1.9,0.8c-0.5,0.5-0.7,1.2-0.7,2s0.2,1.5,0.7,2c0.5,0.5,1.1,0.8,1.9,0.8
		S292.9-363.7,293.4-364.2z"/>
	<path class="st5" d="M305.9-369.8c0.7,0.7,1,1.6,1,2.9v5.1h-2.1v-4.8c0-0.8-0.2-1.4-0.5-1.8c-0.4-0.4-0.9-0.6-1.6-0.6
		c-0.8,0-1.4,0.2-1.8,0.7c-0.4,0.5-0.7,1.1-0.7,2v4.5h-2.1v-8.9h2v1.1c0.3-0.4,0.8-0.7,1.3-0.9c0.5-0.2,1.1-0.3,1.8-0.3
		C304.4-370.7,305.3-370.4,305.9-369.8z"/>
	<path class="st5" d="M318.4-374.1v12.3h-2v-1.1c-0.3,0.4-0.8,0.7-1.3,0.9c-0.5,0.2-1.1,0.3-1.7,0.3c-0.9,0-1.6-0.2-2.3-0.6
		c-0.7-0.4-1.2-0.9-1.6-1.6c-0.4-0.7-0.6-1.5-0.6-2.4c0-0.9,0.2-1.7,0.6-2.4s0.9-1.2,1.6-1.6c0.7-0.4,1.4-0.6,2.3-0.6
		c0.6,0,1.1,0.1,1.6,0.3c0.5,0.2,0.9,0.5,1.2,0.9v-4.6H318.4z M315-363.8c0.4-0.2,0.7-0.6,0.9-1s0.3-0.9,0.3-1.5
		c0-0.6-0.1-1-0.3-1.5c-0.2-0.4-0.5-0.7-0.9-1c-0.4-0.2-0.8-0.3-1.3-0.3s-0.9,0.1-1.3,0.3c-0.4,0.2-0.7,0.6-0.9,1
		c-0.2,0.4-0.3,0.9-0.3,1.5c0,0.6,0.1,1,0.3,1.5s0.5,0.7,0.9,1c0.4,0.2,0.8,0.3,1.3,0.3S314.6-363.5,315-363.8z"/>
	<path class="st5" d="M333.4-369.8c0.7,0.7,1,1.6,1,2.9v5.1h-2.1v-4.8c0-0.8-0.2-1.4-0.5-1.8c-0.4-0.4-0.9-0.6-1.6-0.6
		c-0.8,0-1.4,0.2-1.8,0.7c-0.4,0.5-0.7,1.1-0.7,2v4.5h-2.1v-12.3h2.1v4.5c0.3-0.4,0.8-0.6,1.3-0.8c0.5-0.2,1.1-0.3,1.7-0.3
		C331.9-370.7,332.8-370.4,333.4-369.8z"/>
	<path class="st5" d="M343.5-369.8c0.7,0.6,1,1.6,1,2.8v5.2h-2v-1.1c-0.3,0.4-0.6,0.7-1.1,0.9s-1,0.3-1.7,0.3
		c-0.7,0-1.2-0.1-1.7-0.3c-0.5-0.2-0.9-0.5-1.2-0.9s-0.4-0.9-0.4-1.4c0-0.8,0.3-1.4,0.9-1.9c0.6-0.5,1.5-0.7,2.8-0.7h2.3v-0.1
		c0-0.6-0.2-1.1-0.6-1.4c-0.4-0.3-0.9-0.5-1.7-0.5c-0.5,0-1,0.1-1.5,0.2s-0.9,0.4-1.2,0.6l-0.8-1.5c0.5-0.4,1-0.6,1.7-0.8
		c0.7-0.2,1.3-0.3,2.1-0.3C341.8-370.7,342.8-370.4,343.5-369.8z M341.6-363.5c0.4-0.2,0.7-0.6,0.9-1v-1h-2.1
		c-1.2,0-1.8,0.4-1.8,1.2c0,0.4,0.1,0.7,0.4,0.9s0.7,0.3,1.2,0.3C340.7-363.2,341.2-363.3,341.6-363.5z"/>
	<path class="st5" d="M354.9-369.8c0.7,0.7,1,1.6,1,2.9v5.1h-2.1v-4.8c0-0.8-0.2-1.4-0.5-1.8c-0.4-0.4-0.9-0.6-1.6-0.6
		c-0.8,0-1.4,0.2-1.8,0.7c-0.4,0.5-0.7,1.1-0.7,2v4.5h-2.1v-8.9h2v1.1c0.3-0.4,0.8-0.7,1.3-0.9c0.5-0.2,1.1-0.3,1.8-0.3
		C353.4-370.7,354.2-370.4,354.9-369.8z"/>
	<path class="st5" d="M367.4-374.1v12.3h-2v-1.1c-0.3,0.4-0.8,0.7-1.3,0.9c-0.5,0.2-1.1,0.3-1.7,0.3c-0.9,0-1.6-0.2-2.3-0.6
		c-0.7-0.4-1.2-0.9-1.6-1.6c-0.4-0.7-0.6-1.5-0.6-2.4c0-0.9,0.2-1.7,0.6-2.4s0.9-1.2,1.6-1.6c0.7-0.4,1.4-0.6,2.3-0.6
		c0.6,0,1.1,0.1,1.6,0.3c0.5,0.2,0.9,0.5,1.2,0.9v-4.6H367.4z M364-363.8c0.4-0.2,0.7-0.6,0.9-1s0.3-0.9,0.3-1.5
		c0-0.6-0.1-1-0.3-1.5c-0.2-0.4-0.5-0.7-0.9-1c-0.4-0.2-0.8-0.3-1.3-0.3s-0.9,0.1-1.3,0.3c-0.4,0.2-0.7,0.6-0.9,1
		c-0.2,0.4-0.3,0.9-0.3,1.5c0,0.6,0.1,1,0.3,1.5s0.5,0.7,0.9,1c0.4,0.2,0.8,0.3,1.3,0.3S363.6-363.5,364-363.8z"/>
	<path class="st5" d="M375.3-361.9c-0.7-0.2-1.2-0.4-1.6-0.7l0.8-1.6c0.4,0.3,0.9,0.5,1.4,0.6c0.6,0.2,1.1,0.2,1.7,0.2
		c1.2,0,1.9-0.3,1.9-1c0-0.3-0.2-0.5-0.5-0.6c-0.3-0.1-0.8-0.2-1.5-0.3c-0.7-0.1-1.3-0.2-1.8-0.4c-0.5-0.1-0.9-0.4-1.2-0.8
		s-0.5-0.9-0.5-1.5c0-0.8,0.4-1.5,1.1-2s1.7-0.8,2.9-0.8c0.6,0,1.2,0.1,1.8,0.2s1.1,0.3,1.5,0.6l-0.8,1.6c-0.8-0.4-1.6-0.7-2.5-0.7
		c-0.6,0-1.1,0.1-1.4,0.3c-0.3,0.2-0.5,0.4-0.5,0.7c0,0.3,0.2,0.6,0.5,0.7c0.3,0.1,0.9,0.3,1.6,0.4c0.7,0.1,1.3,0.2,1.7,0.4
		c0.5,0.1,0.8,0.4,1.2,0.7s0.5,0.8,0.5,1.5c0,0.8-0.4,1.5-1.1,2s-1.7,0.7-2.9,0.7C376.7-361.7,376-361.7,375.3-361.9z"/>
	<path class="st5" d="M383.3-372.5c-0.3-0.2-0.4-0.5-0.4-0.9c0-0.4,0.1-0.7,0.4-0.9c0.3-0.2,0.6-0.4,0.9-0.4s0.7,0.1,0.9,0.3
		c0.3,0.2,0.4,0.5,0.4,0.9c0,0.4-0.1,0.7-0.4,0.9c-0.2,0.2-0.6,0.4-1,0.4C383.9-372.1,383.6-372.2,383.3-372.5z M383.2-370.6h2.1
		v8.9h-2.1V-370.6z"/>
	<path class="st5" d="M396.9-370.6v7.5c0,3.1-1.6,4.7-4.8,4.7c-0.9,0-1.7-0.1-2.4-0.3s-1.4-0.5-1.9-0.9l0.9-1.6
		c0.4,0.3,0.9,0.6,1.5,0.8c0.6,0.2,1.2,0.3,1.8,0.3c1,0,1.7-0.2,2.1-0.7s0.7-1.1,0.7-2v-0.5c-0.4,0.4-0.8,0.7-1.3,0.9
		c-0.5,0.2-1.1,0.3-1.7,0.3c-0.8,0-1.6-0.2-2.3-0.5c-0.7-0.4-1.2-0.9-1.6-1.5s-0.6-1.4-0.6-2.2s0.2-1.6,0.6-2.2
		c0.4-0.6,0.9-1.1,1.6-1.5c0.7-0.4,1.4-0.5,2.3-0.5c0.6,0,1.2,0.1,1.8,0.3c0.5,0.2,1,0.5,1.3,1v-1.2H396.9z M394.1-364.6
		c0.5-0.5,0.8-1.1,0.8-1.8c0-0.7-0.3-1.3-0.8-1.8s-1.2-0.7-1.9-0.7c-0.8,0-1.4,0.2-2,0.7c-0.5,0.5-0.8,1.1-0.8,1.8
		c0,0.8,0.3,1.4,0.8,1.8c0.5,0.5,1.2,0.7,2,0.7C392.9-363.9,393.6-364.2,394.1-364.6z"/>
	<path class="st5" d="M407.3-369.8c0.7,0.7,1,1.6,1,2.9v5.1h-2.1v-4.8c0-0.8-0.2-1.4-0.5-1.8c-0.4-0.4-0.9-0.6-1.6-0.6
		c-0.8,0-1.4,0.2-1.8,0.7c-0.4,0.5-0.7,1.1-0.7,2v4.5h-2.1v-8.9h2v1.1c0.3-0.4,0.8-0.7,1.3-0.9c0.5-0.2,1.1-0.3,1.8-0.3
		C405.8-370.7,406.7-370.4,407.3-369.8z"/>
	<path class="st5" d="M417.4-369.8c0.7,0.6,1,1.6,1,2.8v5.2h-2v-1.1c-0.3,0.4-0.6,0.7-1.1,0.9s-1,0.3-1.7,0.3
		c-0.7,0-1.2-0.1-1.7-0.3c-0.5-0.2-0.9-0.5-1.2-0.9s-0.4-0.9-0.4-1.4c0-0.8,0.3-1.4,0.9-1.9c0.6-0.5,1.5-0.7,2.8-0.7h2.3v-0.1
		c0-0.6-0.2-1.1-0.6-1.4c-0.4-0.3-0.9-0.5-1.7-0.5c-0.5,0-1,0.1-1.5,0.2s-0.9,0.4-1.2,0.6l-0.8-1.5c0.5-0.4,1-0.6,1.7-0.8
		c0.7-0.2,1.3-0.3,2.1-0.3C415.7-370.7,416.7-370.4,417.4-369.8z M415.5-363.5c0.4-0.2,0.7-0.6,0.9-1v-1h-2.1
		c-1.2,0-1.8,0.4-1.8,1.2c0,0.4,0.1,0.7,0.4,0.9s0.7,0.3,1.2,0.3C414.6-363.2,415.1-363.3,415.5-363.5z"/>
	<path class="st5" d="M426.4-362.2c-0.2,0.2-0.5,0.3-0.9,0.4c-0.3,0.1-0.7,0.1-1.1,0.1c-1,0-1.7-0.3-2.3-0.8
		c-0.5-0.5-0.8-1.3-0.8-2.2v-4.3h-1.5v-1.7h1.5v-2h2.1v2h2.4v1.7h-2.4v4.2c0,0.4,0.1,0.8,0.3,1c0.2,0.2,0.5,0.3,0.9,0.3
		c0.5,0,0.9-0.1,1.2-0.4L426.4-362.2z"/>
	<path class="st5" d="M436.7-370.6v8.9h-2v-1.1c-0.3,0.4-0.7,0.7-1.2,0.9s-1,0.3-1.6,0.3c-1.2,0-2.1-0.3-2.8-1s-1-1.6-1-2.9v-5.1
		h2.1v4.8c0,0.8,0.2,1.4,0.5,1.8s0.9,0.6,1.5,0.6c0.7,0,1.3-0.2,1.8-0.7c0.4-0.5,0.7-1.1,0.7-2v-4.5H436.7z"/>
	<path class="st5" d="M444.6-370.7v2c-0.2,0-0.3,0-0.5,0c-0.8,0-1.4,0.2-1.9,0.7c-0.5,0.5-0.7,1.2-0.7,2v4.3h-2.1v-8.9h2v1.3
		C442-370.3,443.1-370.7,444.6-370.7z"/>
	<path class="st5" d="M454.6-365.5h-7c0.1,0.7,0.4,1.2,1,1.6c0.5,0.4,1.2,0.6,1.9,0.6c1,0,1.8-0.3,2.4-1l1.1,1.3
		c-0.4,0.5-0.9,0.8-1.5,1.1c-0.6,0.2-1.3,0.4-2.1,0.4c-1,0-1.8-0.2-2.6-0.6c-0.7-0.4-1.3-0.9-1.7-1.6c-0.4-0.7-0.6-1.5-0.6-2.4
		c0-0.9,0.2-1.6,0.6-2.3s0.9-1.2,1.6-1.6c0.7-0.4,1.5-0.6,2.4-0.6c0.9,0,1.6,0.2,2.3,0.6c0.7,0.4,1.2,0.9,1.6,1.6
		c0.4,0.7,0.6,1.5,0.6,2.4C454.6-366,454.6-365.8,454.6-365.5z M448.5-368.5c-0.5,0.4-0.7,0.9-0.8,1.6h5c-0.1-0.6-0.4-1.2-0.8-1.6
		c-0.5-0.4-1-0.6-1.7-0.6C449.5-369.1,448.9-368.9,448.5-368.5z"/>
	<path class="st5" d="M258.7-342.3c-0.7-0.4-1.3-0.9-1.7-1.6c-0.4-0.7-0.6-1.5-0.6-2.4s0.2-1.7,0.6-2.3c0.4-0.7,1-1.2,1.7-1.6
		c0.7-0.4,1.6-0.6,2.5-0.6c0.9,0,1.6,0.2,2.3,0.5s1.2,0.9,1.5,1.5l-1.6,0.9c-0.3-0.4-0.6-0.7-1-0.9c-0.4-0.2-0.8-0.3-1.3-0.3
		c-0.8,0-1.4,0.3-1.9,0.8c-0.5,0.5-0.8,1.2-0.8,2s0.3,1.5,0.8,2c0.5,0.5,1.1,0.8,1.9,0.8c0.5,0,0.9-0.1,1.3-0.3
		c0.4-0.2,0.7-0.5,1-0.9l1.6,0.9c-0.3,0.7-0.8,1.2-1.5,1.5s-1.4,0.5-2.3,0.5C260.3-341.7,259.5-341.9,258.7-342.3z"/>
	<path class="st5" d="M266.7-354.1h2.1v12.3h-2.1V-354.1z"/>
	<path class="st5" d="M273.1-342.3c-0.7-0.4-1.3-0.9-1.7-1.6c-0.4-0.7-0.6-1.5-0.6-2.4s0.2-1.7,0.6-2.3c0.4-0.7,1-1.2,1.7-1.6
		c0.7-0.4,1.5-0.6,2.4-0.6c0.9,0,1.7,0.2,2.4,0.6c0.7,0.4,1.3,0.9,1.7,1.6s0.6,1.5,0.6,2.3s-0.2,1.7-0.6,2.4s-1,1.2-1.7,1.6
		c-0.7,0.4-1.5,0.6-2.4,0.6C274.6-341.7,273.8-341.9,273.1-342.3z M277.4-344.2c0.5-0.5,0.7-1.2,0.7-2c0-0.8-0.2-1.5-0.7-2
		c-0.5-0.5-1.1-0.8-1.9-0.8s-1.4,0.3-1.9,0.8c-0.5,0.5-0.7,1.2-0.7,2c0,0.8,0.2,1.5,0.7,2c0.5,0.5,1.1,0.8,1.9,0.8
		S276.9-343.7,277.4-344.2z"/>
	<path class="st5" d="M287.6-342.3c-0.2,0.2-0.5,0.3-0.9,0.4c-0.3,0.1-0.7,0.1-1.1,0.1c-1,0-1.7-0.3-2.3-0.8s-0.8-1.3-0.8-2.2v-4.3
		h-1.5v-1.7h1.5v-2h2.1v2h2.4v1.7h-2.4v4.2c0,0.4,0.1,0.8,0.3,1c0.2,0.2,0.5,0.3,0.9,0.3c0.5,0,0.9-0.1,1.2-0.4L287.6-342.3z"/>
	<path class="st5" d="M297-349.8c0.7,0.7,1,1.6,1,2.9v5.1H296v-4.8c0-0.8-0.2-1.4-0.5-1.8c-0.4-0.4-0.9-0.6-1.6-0.6
		c-0.8,0-1.4,0.2-1.8,0.7c-0.4,0.5-0.7,1.1-0.7,2v4.5h-2.1v-12.3h2.1v4.5c0.3-0.4,0.8-0.6,1.3-0.8c0.5-0.2,1.1-0.3,1.7-0.3
		C295.5-350.8,296.4-350.5,297-349.8z"/>
	<path class="st5" d="M309.1-345.6h-7c0.1,0.7,0.4,1.2,1,1.6c0.5,0.4,1.2,0.6,1.9,0.6c1,0,1.8-0.3,2.4-1l1.1,1.3
		c-0.4,0.5-0.9,0.8-1.5,1.1s-1.3,0.4-2.1,0.4c-1,0-1.8-0.2-2.6-0.6c-0.7-0.4-1.3-0.9-1.7-1.6c-0.4-0.7-0.6-1.5-0.6-2.4
		c0-0.9,0.2-1.6,0.6-2.3s0.9-1.2,1.6-1.6c0.7-0.4,1.5-0.6,2.4-0.6c0.9,0,1.6,0.2,2.3,0.6c0.7,0.4,1.2,0.9,1.6,1.6
		c0.4,0.7,0.6,1.5,0.6,2.4C309.1-346.1,309.1-345.9,309.1-345.6z M303-348.5c-0.5,0.4-0.7,0.9-0.8,1.6h5c-0.1-0.6-0.4-1.2-0.8-1.6
		c-0.5-0.4-1-0.6-1.7-0.6C304-349.1,303.4-348.9,303-348.5z"/>
	<path class="st5" d="M311.8-342c-0.7-0.2-1.2-0.4-1.6-0.7l0.8-1.6c0.4,0.3,0.9,0.5,1.4,0.6c0.6,0.2,1.1,0.2,1.7,0.2
		c1.2,0,1.9-0.3,1.9-1c0-0.3-0.2-0.5-0.5-0.6c-0.3-0.1-0.8-0.2-1.5-0.3c-0.7-0.1-1.3-0.2-1.8-0.4c-0.5-0.1-0.9-0.4-1.2-0.8
		s-0.5-0.9-0.5-1.5c0-0.8,0.4-1.5,1.1-2s1.7-0.8,2.9-0.8c0.6,0,1.2,0.1,1.8,0.2s1.1,0.3,1.5,0.6l-0.8,1.6c-0.8-0.4-1.6-0.7-2.5-0.7
		c-0.6,0-1.1,0.1-1.4,0.3c-0.3,0.2-0.5,0.4-0.5,0.7c0,0.3,0.2,0.6,0.5,0.7c0.3,0.1,0.9,0.3,1.6,0.4c0.7,0.1,1.3,0.2,1.7,0.4
		c0.5,0.1,0.8,0.4,1.2,0.7c0.3,0.3,0.5,0.8,0.5,1.5c0,0.8-0.4,1.5-1.1,2s-1.7,0.7-2.9,0.7C313.2-341.7,312.5-341.8,311.8-342z"/>
	<path class="st5" d="M331.5-350.2c0.7,0.4,1.2,0.9,1.6,1.6c0.4,0.7,0.6,1.5,0.6,2.4s-0.2,1.7-0.6,2.4c-0.4,0.7-0.9,1.2-1.6,1.6
		c-0.7,0.4-1.5,0.6-2.3,0.6c-1.2,0-2.1-0.4-2.8-1.2v4.3h-2.1v-12.1h2v1.2c0.3-0.4,0.8-0.7,1.3-0.9c0.5-0.2,1.1-0.3,1.7-0.3
		C330.1-350.8,330.9-350.6,331.5-350.2z M330.9-344.2c0.5-0.5,0.7-1.2,0.7-2c0-0.8-0.2-1.5-0.7-2c-0.5-0.5-1.1-0.8-1.9-0.8
		c-0.5,0-0.9,0.1-1.3,0.3c-0.4,0.2-0.7,0.6-0.9,1c-0.2,0.4-0.3,0.9-0.3,1.5s0.1,1,0.3,1.5c0.2,0.4,0.5,0.7,0.9,1
		c0.4,0.2,0.8,0.3,1.3,0.3C329.7-343.5,330.4-343.7,330.9-344.2z"/>
	<path class="st5" d="M342-349.9c0.7,0.6,1,1.6,1,2.8v5.2h-2v-1.1c-0.3,0.4-0.6,0.7-1.1,0.9s-1,0.3-1.7,0.3c-0.7,0-1.2-0.1-1.7-0.3
		c-0.5-0.2-0.9-0.5-1.2-0.9c-0.3-0.4-0.4-0.9-0.4-1.4c0-0.8,0.3-1.4,0.9-1.9c0.6-0.5,1.5-0.7,2.8-0.7h2.3v-0.1
		c0-0.6-0.2-1.1-0.6-1.4c-0.4-0.3-0.9-0.5-1.7-0.5c-0.5,0-1,0.1-1.5,0.2s-0.9,0.4-1.2,0.6l-0.8-1.5c0.5-0.4,1-0.6,1.7-0.8
		c0.7-0.2,1.3-0.3,2.1-0.3C340.3-350.8,341.3-350.5,342-349.9z M340.1-343.6c0.4-0.2,0.7-0.6,0.9-1v-1h-2.1c-1.2,0-1.8,0.4-1.8,1.2
		c0,0.4,0.1,0.7,0.4,0.9s0.7,0.3,1.2,0.3C339.2-343.2,339.7-343.3,340.1-343.6z"/>
	<path class="st5" d="M347.4-342.3c-0.7-0.4-1.3-0.9-1.7-1.6c-0.4-0.7-0.6-1.5-0.6-2.4s0.2-1.7,0.6-2.3c0.4-0.7,1-1.2,1.7-1.6
		c0.7-0.4,1.6-0.6,2.5-0.6c0.9,0,1.6,0.2,2.3,0.5s1.2,0.9,1.5,1.5l-1.6,0.9c-0.3-0.4-0.6-0.7-1-0.9c-0.4-0.2-0.8-0.3-1.3-0.3
		c-0.8,0-1.4,0.3-1.9,0.8c-0.5,0.5-0.8,1.2-0.8,2s0.3,1.5,0.8,2c0.5,0.5,1.1,0.8,1.9,0.8c0.5,0,0.9-0.1,1.3-0.3
		c0.4-0.2,0.7-0.5,1-0.9l1.6,0.9c-0.3,0.7-0.8,1.2-1.5,1.5s-1.4,0.5-2.3,0.5C348.9-341.7,348.1-341.9,347.4-342.3z"/>
	<path class="st5" d="M359-345.6l-1.5,1.5v2.3h-2.1v-12.3h2.1v7.5l4.3-4h2.5l-3.7,3.7l4.1,5.2H362L359-345.6z"/>
</g>
<g>
	<path class="st6" d="M261.4-330.9c0.5,0.4,0.7,1,0.7,1.7s-0.2,1.3-0.7,1.7s-1.2,0.6-2,0.6h-1.6v2h-0.9v-6.6h2.6
		C260.2-331.5,260.9-331.3,261.4-330.9z M260.7-328.1c0.3-0.3,0.5-0.6,0.5-1.1s-0.2-0.8-0.5-1.1c-0.3-0.3-0.8-0.4-1.4-0.4h-1.6v3
		h1.6C259.9-327.7,260.4-327.8,260.7-328.1z"/>
	<path class="st6" d="M264.2-325.2c-0.4-0.2-0.7-0.5-0.9-0.9c-0.2-0.4-0.3-0.8-0.3-1.3s0.1-0.9,0.3-1.3c0.2-0.4,0.5-0.7,0.9-0.9
		s0.8-0.3,1.3-0.3s0.9,0.1,1.3,0.3s0.7,0.5,0.9,0.9c0.2,0.4,0.3,0.8,0.3,1.3s-0.1,0.9-0.3,1.3c-0.2,0.4-0.5,0.7-0.9,0.9
		s-0.8,0.3-1.3,0.3S264.6-324.9,264.2-325.2z M266.4-325.8c0.3-0.1,0.5-0.4,0.6-0.6c0.1-0.3,0.2-0.6,0.2-0.9c0-0.3-0.1-0.7-0.2-0.9
		c-0.1-0.3-0.3-0.5-0.6-0.6c-0.3-0.1-0.5-0.2-0.9-0.2s-0.6,0.1-0.9,0.2c-0.3,0.1-0.5,0.4-0.6,0.6c-0.1,0.3-0.2,0.6-0.2,0.9
		c0,0.3,0.1,0.7,0.2,0.9c0.1,0.3,0.4,0.5,0.6,0.6c0.3,0.1,0.5,0.2,0.9,0.2S266.1-325.7,266.4-325.8z"/>
	<path class="st6" d="M269.6-325c-0.4-0.1-0.7-0.3-0.9-0.4l0.4-0.7c0.2,0.2,0.5,0.3,0.8,0.4c0.3,0.1,0.6,0.1,1,0.1
		c0.8,0,1.2-0.2,1.2-0.7c0-0.2-0.1-0.3-0.2-0.4c-0.1-0.1-0.2-0.2-0.4-0.2c-0.2,0-0.4-0.1-0.7-0.1c-0.4-0.1-0.7-0.1-1-0.2
		c-0.3-0.1-0.5-0.2-0.7-0.4s-0.3-0.5-0.3-0.8c0-0.5,0.2-0.8,0.6-1.1s0.9-0.4,1.5-0.4c0.3,0,0.7,0,1,0.1c0.3,0.1,0.6,0.2,0.8,0.3
		l-0.4,0.7c-0.4-0.3-0.9-0.4-1.4-0.4c-0.4,0-0.7,0.1-0.9,0.2c-0.2,0.1-0.3,0.3-0.3,0.5c0,0.2,0.1,0.3,0.2,0.4
		c0.1,0.1,0.3,0.2,0.4,0.2c0.2,0,0.4,0.1,0.7,0.2c0.4,0.1,0.7,0.1,1,0.2c0.2,0.1,0.5,0.2,0.6,0.4c0.2,0.2,0.3,0.5,0.3,0.8
		c0,0.5-0.2,0.8-0.6,1.1c-0.4,0.3-0.9,0.4-1.6,0.4C270.4-324.8,270-324.9,269.6-325z"/>
	<path class="st6" d="M276.9-325.2c-0.1,0.1-0.3,0.2-0.5,0.3c-0.2,0.1-0.4,0.1-0.6,0.1c-0.5,0-0.9-0.1-1.2-0.4
		c-0.3-0.3-0.4-0.7-0.4-1.2v-2.8h-0.9v-0.7h0.9v-1.1h0.9v1.1h1.4v0.7h-1.4v2.7c0,0.3,0.1,0.5,0.2,0.6c0.1,0.1,0.3,0.2,0.6,0.2
		c0.3,0,0.5-0.1,0.7-0.2L276.9-325.2z"/>
	<path class="st6" d="M282.4-327.1h-4.1c0.1,0.4,0.3,0.8,0.6,1.1c0.3,0.3,0.7,0.4,1.2,0.4c0.6,0,1.1-0.2,1.4-0.6l0.5,0.6
		c-0.2,0.3-0.5,0.5-0.8,0.6c-0.3,0.1-0.7,0.2-1.1,0.2c-0.5,0-1-0.1-1.4-0.3c-0.4-0.2-0.7-0.5-1-0.9c-0.2-0.4-0.3-0.8-0.3-1.3
		c0-0.5,0.1-0.9,0.3-1.3c0.2-0.4,0.5-0.7,0.9-0.9s0.8-0.3,1.3-0.3s0.9,0.1,1.3,0.3s0.7,0.5,0.9,0.9c0.2,0.4,0.3,0.8,0.3,1.3
		C282.4-327.3,282.4-327.2,282.4-327.1z M278.8-328.8c-0.3,0.3-0.5,0.6-0.5,1h3.2c-0.1-0.4-0.2-0.8-0.5-1c-0.3-0.3-0.7-0.4-1.1-0.4
		S279.1-329,278.8-328.8z"/>
	<path class="st6" d="M288.4-331.9v7h-0.9v-0.8c-0.2,0.3-0.5,0.5-0.8,0.6c-0.3,0.1-0.6,0.2-1,0.2c-0.5,0-0.9-0.1-1.3-0.3
		c-0.4-0.2-0.7-0.5-0.9-0.9c-0.2-0.4-0.3-0.8-0.3-1.3s0.1-1,0.3-1.3s0.5-0.7,0.9-0.9c0.4-0.2,0.8-0.3,1.3-0.3c0.4,0,0.7,0.1,1,0.2
		c0.3,0.1,0.6,0.3,0.8,0.6v-2.8H288.4z M286.7-325.8c0.3-0.1,0.5-0.4,0.6-0.6c0.1-0.3,0.2-0.6,0.2-0.9c0-0.3-0.1-0.7-0.2-0.9
		c-0.1-0.3-0.3-0.5-0.6-0.6c-0.3-0.1-0.5-0.2-0.9-0.2c-0.3,0-0.6,0.1-0.9,0.2c-0.3,0.1-0.5,0.4-0.6,0.6c-0.1,0.3-0.2,0.6-0.2,0.9
		c0,0.3,0.1,0.7,0.2,0.9c0.1,0.3,0.4,0.5,0.6,0.6c0.3,0.1,0.5,0.2,0.9,0.2C286.1-325.6,286.4-325.7,286.7-325.8z"/>
	<path class="st6" d="M296.2-328.3c0.4,0.4,0.7,0.8,0.7,1.5c0,0.4-0.1,0.7-0.3,1.1c-0.2,0.3-0.5,0.6-0.8,0.7
		c-0.4,0.2-0.8,0.3-1.4,0.3c-0.5,0-0.9-0.1-1.4-0.2c-0.4-0.1-0.8-0.3-1.1-0.6l0.4-0.7c0.2,0.2,0.5,0.4,0.9,0.5
		c0.4,0.1,0.7,0.2,1.1,0.2c0.5,0,0.9-0.1,1.2-0.3c0.3-0.2,0.4-0.5,0.4-0.9c0-0.4-0.2-0.7-0.5-0.9s-0.8-0.3-1.6-0.3h-1.5l0.4-3.5h3.7
		v0.8h-2.9l-0.2,1.8h0.7C295.1-328.9,295.8-328.7,296.2-328.3z"/>
	<path class="st6" d="M304.8-329.4c0.4,0.4,0.6,0.9,0.6,1.6v2.9h-0.9v-2.8c0-0.5-0.1-0.9-0.4-1.1s-0.6-0.4-1-0.4
		c-0.5,0-0.9,0.1-1.2,0.4c-0.3,0.3-0.4,0.7-0.4,1.2v2.6h-0.9v-7h0.9v2.7c0.2-0.2,0.4-0.4,0.7-0.6s0.6-0.2,1-0.2
		C304-329.9,304.5-329.8,304.8-329.4z"/>
	<path class="st6" d="M307.9-325.2c-0.4-0.2-0.7-0.5-0.9-0.9c-0.2-0.4-0.3-0.8-0.3-1.3s0.1-0.9,0.3-1.3c0.2-0.4,0.5-0.7,0.9-0.9
		s0.8-0.3,1.3-0.3s0.9,0.1,1.3,0.3s0.7,0.5,0.9,0.9c0.2,0.4,0.3,0.8,0.3,1.3s-0.1,0.9-0.3,1.3c-0.2,0.4-0.5,0.7-0.9,0.9
		s-0.8,0.3-1.3,0.3S308.3-324.9,307.9-325.2z M310.1-325.8c0.3-0.1,0.5-0.4,0.6-0.6c0.1-0.3,0.2-0.6,0.2-0.9c0-0.3-0.1-0.7-0.2-0.9
		c-0.1-0.3-0.3-0.5-0.6-0.6c-0.3-0.1-0.5-0.2-0.9-0.2s-0.6,0.1-0.9,0.2c-0.3,0.1-0.5,0.4-0.6,0.6c-0.1,0.3-0.2,0.6-0.2,0.9
		c0,0.3,0.1,0.7,0.2,0.9c0.1,0.3,0.4,0.5,0.6,0.6c0.3,0.1,0.5,0.2,0.9,0.2S309.9-325.7,310.1-325.8z"/>
	<path class="st6" d="M317.8-329.9v5h-0.9v-0.8c-0.2,0.3-0.4,0.5-0.7,0.6c-0.3,0.1-0.6,0.2-1,0.2c-0.7,0-1.2-0.2-1.6-0.6
		c-0.4-0.4-0.6-0.9-0.6-1.6v-2.9h0.9v2.8c0,0.5,0.1,0.9,0.4,1.1c0.2,0.2,0.6,0.4,1,0.4c0.5,0,0.9-0.1,1.1-0.4
		c0.3-0.3,0.4-0.7,0.4-1.2v-2.6H317.8z"/>
	<path class="st6" d="M321.1-329.7c0.3-0.2,0.7-0.2,1.1-0.2v0.9c-0.1,0-0.1,0-0.2,0c-0.5,0-0.9,0.1-1.2,0.4
		c-0.3,0.3-0.4,0.7-0.4,1.3v2.5h-0.9v-5h0.9v0.8C320.6-329.3,320.8-329.6,321.1-329.7z"/>
	<path class="st6" d="M323.6-325c-0.4-0.1-0.7-0.3-0.9-0.4l0.4-0.7c0.2,0.2,0.5,0.3,0.8,0.4c0.3,0.1,0.6,0.1,1,0.1
		c0.8,0,1.2-0.2,1.2-0.7c0-0.2-0.1-0.3-0.2-0.4c-0.1-0.1-0.2-0.2-0.4-0.2c-0.2,0-0.4-0.1-0.7-0.1c-0.4-0.1-0.7-0.1-1-0.2
		c-0.3-0.1-0.5-0.2-0.7-0.4s-0.3-0.5-0.3-0.8c0-0.5,0.2-0.8,0.6-1.1s0.9-0.4,1.5-0.4c0.3,0,0.7,0,1,0.1c0.3,0.1,0.6,0.2,0.8,0.3
		l-0.4,0.7c-0.4-0.3-0.9-0.4-1.4-0.4c-0.4,0-0.7,0.1-0.9,0.2c-0.2,0.1-0.3,0.3-0.3,0.5c0,0.2,0.1,0.3,0.2,0.4
		c0.1,0.1,0.3,0.2,0.4,0.2c0.2,0,0.4,0.1,0.7,0.2c0.4,0.1,0.7,0.1,1,0.2c0.2,0.1,0.5,0.2,0.6,0.4c0.2,0.2,0.3,0.5,0.3,0.8
		c0,0.5-0.2,0.8-0.6,1.1c-0.4,0.3-0.9,0.4-1.6,0.4C324.4-324.8,324-324.9,323.6-325z"/>
	<path class="st6" d="M334.1-329.4c0.4,0.3,0.6,0.8,0.6,1.5v3h-0.9v-0.7c-0.2,0.2-0.4,0.4-0.6,0.5s-0.6,0.2-1,0.2
		c-0.6,0-1-0.1-1.3-0.4c-0.3-0.3-0.5-0.6-0.5-1.1c0-0.4,0.2-0.8,0.5-1.1s0.8-0.4,1.5-0.4h1.4v-0.2c0-0.4-0.1-0.7-0.3-0.9
		c-0.2-0.2-0.6-0.3-1-0.3c-0.3,0-0.6,0-0.9,0.1s-0.5,0.2-0.7,0.4l-0.4-0.7c0.3-0.2,0.6-0.4,0.9-0.5s0.7-0.2,1.1-0.2
		C333.2-329.9,333.7-329.8,334.1-329.4z M333.2-325.8c0.3-0.2,0.4-0.4,0.5-0.7v-0.7h-1.4c-0.8,0-1.2,0.3-1.2,0.8
		c0,0.3,0.1,0.5,0.3,0.6c0.2,0.1,0.5,0.2,0.8,0.2S332.9-325.6,333.2-325.8z"/>
	<path class="st6" d="M341.2-329.9v4.3c0,0.9-0.2,1.5-0.7,1.9c-0.4,0.4-1.1,0.6-1.9,0.6c-0.5,0-0.9-0.1-1.4-0.2
		c-0.4-0.1-0.8-0.3-1-0.6l0.4-0.7c0.2,0.2,0.5,0.4,0.9,0.5c0.3,0.1,0.7,0.2,1.1,0.2c0.6,0,1-0.1,1.3-0.4s0.4-0.7,0.4-1.3v-0.4
		c-0.2,0.3-0.5,0.5-0.8,0.6c-0.3,0.1-0.7,0.2-1,0.2c-0.5,0-0.9-0.1-1.3-0.3c-0.4-0.2-0.7-0.5-0.9-0.9c-0.2-0.4-0.3-0.8-0.3-1.3
		s0.1-0.9,0.3-1.3c0.2-0.4,0.5-0.7,0.9-0.9c0.4-0.2,0.8-0.3,1.3-0.3c0.4,0,0.7,0.1,1.1,0.2c0.3,0.1,0.6,0.3,0.8,0.6v-0.8H341.2z
		 M339.4-326.1c0.3-0.1,0.5-0.3,0.6-0.6c0.1-0.2,0.2-0.5,0.2-0.8c0-0.5-0.2-0.9-0.5-1.2s-0.7-0.4-1.2-0.4c-0.5,0-0.9,0.1-1.2,0.4
		c-0.3,0.3-0.5,0.7-0.5,1.2c0,0.3,0.1,0.6,0.2,0.8c0.1,0.3,0.4,0.4,0.6,0.6c0.3,0.1,0.6,0.2,0.9,0.2
		C338.9-325.9,339.2-326,339.4-326.1z"/>
	<path class="st6" d="M343.7-325.2c-0.4-0.2-0.7-0.5-0.9-0.9c-0.2-0.4-0.3-0.8-0.3-1.3s0.1-0.9,0.3-1.3c0.2-0.4,0.5-0.7,0.9-0.9
		s0.8-0.3,1.3-0.3s0.9,0.1,1.3,0.3s0.7,0.5,0.9,0.9c0.2,0.4,0.3,0.8,0.3,1.3s-0.1,0.9-0.3,1.3c-0.2,0.4-0.5,0.7-0.9,0.9
		s-0.8,0.3-1.3,0.3S344.1-324.9,343.7-325.2z M345.9-325.8c0.3-0.1,0.5-0.4,0.6-0.6c0.1-0.3,0.2-0.6,0.2-0.9c0-0.3-0.1-0.7-0.2-0.9
		c-0.1-0.3-0.3-0.5-0.6-0.6c-0.3-0.1-0.5-0.2-0.9-0.2s-0.6,0.1-0.9,0.2c-0.3,0.1-0.5,0.4-0.6,0.6c-0.1,0.3-0.2,0.6-0.2,0.9
		c0,0.3,0.1,0.7,0.2,0.9c0.1,0.3,0.4,0.5,0.6,0.6c0.3,0.1,0.5,0.2,0.9,0.2S345.7-325.7,345.9-325.8z"/>
</g>
<g>
	
		<image style="overflow:visible;opacity:0.12;" width="623" height="152" xlink:href="B55C9353.png"  transform="matrix(1 0 0 1 133 -265)">
	</image>
	<g>
		<path class="st1" d="M723.4-134.1H160.8c-7.8,0-14.1-6.3-14.1-14.1v-91.9c0-7.8,6.3-14.1,14.1-14.1h562.7
			c7.8,0,14.1,6.3,14.1,14.1v91.9C737.6-140.4,731.3-134.1,723.4-134.1z"/>
		<path class="st2" d="M723.4-134.1H160.8c-7.8,0-14.1-6.3-14.1-14.1v-91.9c0-7.8,6.3-14.1,14.1-14.1h562.7
			c7.8,0,14.1,6.3,14.1,14.1v91.9C737.6-140.4,731.3-134.1,723.4-134.1z"/>
	</g>
</g>
<g>
	<path class="st5" d="M265-217.1v11.6h-2.2v-9.8h-2.5v-1.8H265z"/>
	<path class="st5" d="M275.8-207.2v1.8h-8.6v-1.4l4.6-4.4c0.5-0.5,0.9-0.9,1.1-1.3c0.2-0.4,0.3-0.7,0.3-1.1c0-0.5-0.2-1-0.5-1.2
		c-0.4-0.3-0.9-0.4-1.6-0.4c-1.2,0-2.1,0.4-2.7,1.2l-1.5-1.2c0.5-0.6,1.1-1.1,1.8-1.4c0.8-0.3,1.6-0.5,2.6-0.5c1.3,0,2.3,0.3,3,0.9
		c0.8,0.6,1.1,1.4,1.1,2.4c0,0.6-0.1,1.2-0.4,1.8c-0.3,0.6-0.8,1.2-1.5,1.9l-3.1,3H275.8z"/>
	<path class="st5" d="M282.5-217.1h5.1c1.2,0,2.3,0.2,3.3,0.7c1,0.5,1.7,1.2,2.2,2s0.8,1.9,0.8,3.1s-0.3,2.2-0.8,3.1
		c-0.5,0.9-1.3,1.6-2.2,2c-1,0.5-2.1,0.7-3.3,0.7h-5.1V-217.1z M287.4-207.2c0.9,0,1.6-0.2,2.3-0.5c0.6-0.3,1.1-0.8,1.5-1.4
		c0.3-0.6,0.5-1.3,0.5-2.1c0-0.8-0.2-1.5-0.5-2.1s-0.8-1.1-1.5-1.4c-0.6-0.3-1.4-0.5-2.3-0.5h-2.8v8H287.4z"/>
	<path class="st5" d="M296.1-216.1c-0.3-0.2-0.4-0.5-0.4-0.9c0-0.4,0.1-0.7,0.4-0.9c0.3-0.2,0.6-0.4,0.9-0.4s0.7,0.1,0.9,0.3
		c0.3,0.2,0.4,0.5,0.4,0.9c0,0.4-0.1,0.7-0.4,0.9c-0.2,0.2-0.6,0.4-1,0.4C296.7-215.8,296.3-215.9,296.1-216.1z M296-214.3h2.1v8.9
		H296V-214.3z"/>
	<path class="st5" d="M301.4-205.6c-0.7-0.2-1.2-0.4-1.6-0.7l0.8-1.6c0.4,0.3,0.9,0.5,1.4,0.6c0.6,0.2,1.1,0.2,1.7,0.2
		c1.2,0,1.9-0.3,1.9-1c0-0.3-0.2-0.5-0.5-0.6s-0.8-0.2-1.5-0.3c-0.7-0.1-1.3-0.2-1.8-0.4c-0.5-0.1-0.9-0.4-1.2-0.8s-0.5-0.9-0.5-1.5
		c0-0.8,0.4-1.5,1.1-2c0.7-0.5,1.7-0.8,2.9-0.8c0.6,0,1.2,0.1,1.8,0.2s1.1,0.3,1.5,0.6l-0.8,1.6c-0.8-0.4-1.6-0.7-2.5-0.7
		c-0.6,0-1.1,0.1-1.4,0.3c-0.3,0.2-0.5,0.4-0.5,0.7c0,0.3,0.2,0.6,0.5,0.7c0.3,0.1,0.9,0.3,1.6,0.4c0.7,0.1,1.3,0.2,1.7,0.4
		c0.5,0.1,0.8,0.4,1.2,0.7s0.5,0.8,0.5,1.5c0,0.8-0.4,1.5-1.1,2s-1.7,0.7-2.9,0.7C302.8-205.3,302.1-205.4,301.4-205.6z"/>
	<path class="st5" d="M311-205.9c-0.7-0.4-1.3-0.9-1.7-1.6c-0.4-0.7-0.6-1.5-0.6-2.4s0.2-1.7,0.6-2.3c0.4-0.7,1-1.2,1.7-1.6
		c0.7-0.4,1.6-0.6,2.5-0.6c0.9,0,1.6,0.2,2.3,0.5c0.7,0.4,1.2,0.9,1.5,1.5l-1.6,0.9c-0.3-0.4-0.6-0.7-1-0.9
		c-0.4-0.2-0.8-0.3-1.3-0.3c-0.8,0-1.4,0.3-1.9,0.8c-0.5,0.5-0.8,1.2-0.8,2s0.3,1.5,0.8,2c0.5,0.5,1.1,0.8,1.9,0.8
		c0.5,0,0.9-0.1,1.3-0.3c0.4-0.2,0.7-0.5,1-0.9l1.6,0.9c-0.3,0.7-0.8,1.2-1.5,1.5c-0.7,0.4-1.4,0.5-2.3,0.5
		C312.5-205.3,311.7-205.5,311-205.9z"/>
	<path class="st5" d="M320.5-205.9c-0.7-0.4-1.3-0.9-1.7-1.6c-0.4-0.7-0.6-1.5-0.6-2.4s0.2-1.7,0.6-2.3c0.4-0.7,1-1.2,1.7-1.6
		c0.7-0.4,1.5-0.6,2.4-0.6c0.9,0,1.7,0.2,2.4,0.6c0.7,0.4,1.3,0.9,1.7,1.6s0.6,1.5,0.6,2.3s-0.2,1.7-0.6,2.4c-0.4,0.7-1,1.2-1.7,1.6
		c-0.7,0.4-1.5,0.6-2.4,0.6C322-205.3,321.2-205.5,320.5-205.9z M324.8-207.8c0.5-0.5,0.7-1.2,0.7-2c0-0.8-0.2-1.5-0.7-2
		s-1.1-0.8-1.9-0.8s-1.4,0.3-1.9,0.8c-0.5,0.5-0.7,1.2-0.7,2c0,0.8,0.2,1.5,0.7,2c0.5,0.5,1.1,0.8,1.9,0.8S324.3-207.3,324.8-207.8z
		"/>
	<path class="st5" d="M338.2-214.3v8.9h-2v-1.1c-0.3,0.4-0.7,0.7-1.2,0.9c-0.5,0.2-1,0.3-1.6,0.3c-1.2,0-2.1-0.3-2.8-1
		c-0.7-0.7-1-1.6-1-2.9v-5.1h2.1v4.8c0,0.8,0.2,1.4,0.5,1.8s0.9,0.6,1.5,0.6c0.7,0,1.3-0.2,1.8-0.7c0.4-0.5,0.7-1.1,0.7-2v-4.5
		H338.2z"/>
	<path class="st5" d="M348.7-213.4c0.7,0.7,1,1.6,1,2.9v5.1h-2.1v-4.8c0-0.8-0.2-1.4-0.5-1.8c-0.4-0.4-0.9-0.6-1.6-0.6
		c-0.8,0-1.4,0.2-1.8,0.7c-0.4,0.5-0.7,1.1-0.7,2v4.5h-2.1v-8.9h2v1.1c0.3-0.4,0.8-0.7,1.3-0.9c0.5-0.2,1.1-0.3,1.8-0.3
		C347.1-214.4,348-214.1,348.7-213.4z"/>
	<path class="st5" d="M357.7-205.9c-0.2,0.2-0.5,0.3-0.9,0.4c-0.3,0.1-0.7,0.1-1.1,0.1c-1,0-1.7-0.3-2.3-0.8
		c-0.5-0.5-0.8-1.3-0.8-2.2v-4.3h-1.5v-1.7h1.5v-2h2.1v2h2.4v1.7h-2.4v4.2c0,0.4,0.1,0.8,0.3,1c0.2,0.2,0.5,0.3,0.9,0.3
		c0.5,0,0.9-0.1,1.2-0.4L357.7-205.9z"/>
	<path class="st5" d="M367.4-209.2h-7c0.1,0.7,0.4,1.2,1,1.6c0.5,0.4,1.2,0.6,1.9,0.6c1,0,1.8-0.3,2.4-1l1.1,1.3
		c-0.4,0.5-0.9,0.8-1.5,1.1c-0.6,0.2-1.3,0.4-2.1,0.4c-1,0-1.8-0.2-2.6-0.6c-0.7-0.4-1.3-0.9-1.7-1.6c-0.4-0.7-0.6-1.5-0.6-2.4
		c0-0.9,0.2-1.6,0.6-2.3c0.4-0.7,0.9-1.2,1.6-1.6c0.7-0.4,1.5-0.6,2.4-0.6c0.9,0,1.6,0.2,2.3,0.6c0.7,0.4,1.2,0.9,1.6,1.6
		c0.4,0.7,0.6,1.5,0.6,2.4C367.4-209.7,367.4-209.5,367.4-209.2z M361.3-212.1c-0.5,0.4-0.7,0.9-0.8,1.6h5c-0.1-0.6-0.4-1.2-0.8-1.6
		c-0.5-0.4-1-0.6-1.7-0.6C362.3-212.7,361.7-212.5,361.3-212.1z"/>
	<path class="st5" d="M378.1-217.8v12.3h-2v-1.1c-0.3,0.4-0.8,0.7-1.3,0.9c-0.5,0.2-1.1,0.3-1.7,0.3c-0.9,0-1.6-0.2-2.3-0.6
		c-0.7-0.4-1.2-0.9-1.6-1.6c-0.4-0.7-0.6-1.5-0.6-2.4c0-0.9,0.2-1.7,0.6-2.4s0.9-1.2,1.6-1.6c0.7-0.4,1.4-0.6,2.3-0.6
		c0.6,0,1.1,0.1,1.6,0.3c0.5,0.2,0.9,0.5,1.2,0.9v-4.6H378.1z M374.8-207.4c0.4-0.2,0.7-0.6,0.9-1c0.2-0.4,0.3-0.9,0.3-1.5
		c0-0.6-0.1-1-0.3-1.5c-0.2-0.4-0.5-0.7-0.9-1c-0.4-0.2-0.8-0.3-1.3-0.3s-0.9,0.1-1.3,0.3c-0.4,0.2-0.7,0.6-0.9,1
		c-0.2,0.4-0.3,0.9-0.3,1.5c0,0.6,0.1,1,0.3,1.5c0.2,0.4,0.5,0.7,0.9,1c0.4,0.2,0.8,0.3,1.3,0.3S374.4-207.2,374.8-207.4z"/>
	<path class="st5" d="M392.7-213.8c0.7,0.4,1.2,0.9,1.6,1.6c0.4,0.7,0.6,1.5,0.6,2.4c0,0.9-0.2,1.7-0.6,2.4
		c-0.4,0.7-0.9,1.2-1.6,1.6c-0.7,0.4-1.5,0.6-2.3,0.6c-1.2,0-2.1-0.4-2.8-1.2v4.3h-2.1v-12.1h2v1.2c0.3-0.4,0.8-0.7,1.3-0.9
		c0.5-0.2,1.1-0.3,1.7-0.3C391.2-214.4,392-214.2,392.7-213.8z M392-207.8c0.5-0.5,0.7-1.2,0.7-2c0-0.8-0.2-1.5-0.7-2
		s-1.1-0.8-1.9-0.8c-0.5,0-0.9,0.1-1.3,0.3c-0.4,0.2-0.7,0.6-0.9,1c-0.2,0.4-0.3,0.9-0.3,1.5c0,0.6,0.1,1,0.3,1.5
		c0.2,0.4,0.5,0.7,0.9,1c0.4,0.2,0.8,0.3,1.3,0.3C390.9-207.1,391.5-207.3,392-207.8z"/>
	<path class="st5" d="M396.9-217.8h2.1v12.3h-2.1V-217.8z"/>
	<path class="st5" d="M408.1-213.5c0.7,0.6,1,1.6,1,2.8v5.2h-2v-1.1c-0.3,0.4-0.6,0.7-1.1,0.9s-1,0.3-1.7,0.3
		c-0.7,0-1.2-0.1-1.7-0.3c-0.5-0.2-0.9-0.5-1.2-0.9c-0.3-0.4-0.4-0.9-0.4-1.4c0-0.8,0.3-1.4,0.9-1.9c0.6-0.5,1.5-0.7,2.8-0.7h2.3
		v-0.1c0-0.6-0.2-1.1-0.6-1.4c-0.4-0.3-0.9-0.5-1.7-0.5c-0.5,0-1,0.1-1.5,0.2s-0.9,0.4-1.2,0.6l-0.8-1.5c0.5-0.4,1-0.6,1.7-0.8
		c0.7-0.2,1.3-0.3,2.1-0.3C406.4-214.4,407.4-214.1,408.1-213.5z M406.2-207.2c0.4-0.2,0.7-0.6,0.9-1v-1h-2.1
		c-1.2,0-1.8,0.4-1.8,1.2c0,0.4,0.1,0.7,0.4,0.9s0.7,0.3,1.2,0.3C405.3-206.8,405.8-206.9,406.2-207.2z"/>
	<path class="st5" d="M419.5-213.4c0.7,0.7,1,1.6,1,2.9v5.1h-2.1v-4.8c0-0.8-0.2-1.4-0.5-1.8c-0.4-0.4-0.9-0.6-1.6-0.6
		c-0.8,0-1.4,0.2-1.8,0.7c-0.4,0.5-0.7,1.1-0.7,2v4.5h-2.1v-8.9h2v1.1c0.3-0.4,0.8-0.7,1.3-0.9c0.5-0.2,1.1-0.3,1.8-0.3
		C417.9-214.4,418.8-214.1,419.5-213.4z"/>
	<path class="st5" d="M431.6-209.2h-7c0.1,0.7,0.4,1.2,1,1.6c0.5,0.4,1.2,0.6,1.9,0.6c1,0,1.8-0.3,2.4-1l1.1,1.3
		c-0.4,0.5-0.9,0.8-1.5,1.1c-0.6,0.2-1.3,0.4-2.1,0.4c-1,0-1.8-0.2-2.6-0.6c-0.7-0.4-1.3-0.9-1.7-1.6c-0.4-0.7-0.6-1.5-0.6-2.4
		c0-0.9,0.2-1.6,0.6-2.3c0.4-0.7,0.9-1.2,1.6-1.6c0.7-0.4,1.5-0.6,2.4-0.6c0.9,0,1.6,0.2,2.3,0.6c0.7,0.4,1.2,0.9,1.6,1.6
		c0.4,0.7,0.6,1.5,0.6,2.4C431.6-209.7,431.6-209.5,431.6-209.2z M425.4-212.1c-0.5,0.4-0.7,0.9-0.8,1.6h5c-0.1-0.6-0.4-1.2-0.8-1.6
		c-0.5-0.4-1-0.6-1.7-0.6C426.4-212.7,425.9-212.5,425.4-212.1z"/>
	<path class="st5" d="M267-185.9c-0.2,0.2-0.5,0.3-0.9,0.4c-0.3,0.1-0.7,0.1-1.1,0.1c-1,0-1.7-0.3-2.3-0.8s-0.8-1.3-0.8-2.2v-4.3
		h-1.5v-1.7h1.5v-2h2.1v2h2.4v1.7H264v4.2c0,0.4,0.1,0.8,0.3,1c0.2,0.2,0.5,0.3,0.9,0.3c0.5,0,0.9-0.1,1.2-0.4L267-185.9z"/>
	<path class="st5" d="M268.8-196.2c-0.3-0.2-0.4-0.5-0.4-0.9s0.1-0.7,0.4-0.9s0.6-0.4,0.9-0.4s0.7,0.1,0.9,0.3s0.4,0.5,0.4,0.9
		c0,0.4-0.1,0.7-0.4,0.9s-0.6,0.4-1,0.4C269.4-195.8,269.1-195.9,268.8-196.2z M268.7-194.3h2.1v8.9h-2.1V-194.3z"/>
	<path class="st5" d="M275.1-185.9c-0.7-0.4-1.3-0.9-1.7-1.6c-0.4-0.7-0.6-1.5-0.6-2.4s0.2-1.7,0.6-2.3c0.4-0.7,1-1.2,1.7-1.6
		c0.7-0.4,1.6-0.6,2.5-0.6c0.9,0,1.6,0.2,2.3,0.5c0.7,0.4,1.2,0.9,1.5,1.5l-1.6,0.9c-0.3-0.4-0.6-0.7-1-0.9
		c-0.4-0.2-0.8-0.3-1.3-0.3c-0.8,0-1.4,0.3-1.9,0.8c-0.5,0.5-0.8,1.2-0.8,2s0.3,1.5,0.8,2c0.5,0.5,1.1,0.8,1.9,0.8
		c0.5,0,0.9-0.1,1.3-0.3c0.4-0.2,0.7-0.5,1-0.9l1.6,0.9c-0.3,0.7-0.8,1.2-1.5,1.5s-1.4,0.5-2.3,0.5
		C276.7-185.3,275.8-185.5,275.1-185.9z"/>
	<path class="st5" d="M286.7-189.3l-1.5,1.5v2.3h-2.1v-12.3h2.1v7.5l4.3-4h2.5l-3.7,3.7l4.1,5.2h-2.5L286.7-189.3z"/>
	<path class="st5" d="M301.6-189.2h-7c0.1,0.7,0.4,1.2,1,1.6c0.5,0.4,1.2,0.6,1.9,0.6c1,0,1.8-0.3,2.4-1l1.1,1.3
		c-0.4,0.5-0.9,0.8-1.5,1.1s-1.3,0.4-2.1,0.4c-1,0-1.8-0.2-2.6-0.6c-0.7-0.4-1.3-0.9-1.7-1.6c-0.4-0.7-0.6-1.5-0.6-2.4
		c0-0.9,0.2-1.6,0.6-2.3c0.4-0.7,0.9-1.2,1.6-1.6c0.7-0.4,1.5-0.6,2.4-0.6c0.9,0,1.6,0.2,2.3,0.6c0.7,0.4,1.2,0.9,1.6,1.6
		c0.4,0.7,0.6,1.5,0.6,2.4C301.6-189.7,301.6-189.5,301.6-189.2z M295.5-192.2c-0.5,0.4-0.7,0.9-0.8,1.6h5c-0.1-0.6-0.4-1.2-0.8-1.6
		s-1-0.6-1.7-0.6C296.5-192.8,295.9-192.6,295.5-192.2z"/>
	<path class="st5" d="M309-185.9c-0.2,0.2-0.5,0.3-0.9,0.4c-0.3,0.1-0.7,0.1-1.1,0.1c-1,0-1.7-0.3-2.3-0.8s-0.8-1.3-0.8-2.2v-4.3
		h-1.5v-1.7h1.5v-2h2.1v2h2.4v1.7H306v4.2c0,0.4,0.1,0.8,0.3,1c0.2,0.2,0.5,0.3,0.9,0.3c0.5,0,0.9-0.1,1.2-0.4L309-185.9z"/>
	<path class="st5" d="M311.3-185.6c-0.7-0.2-1.2-0.4-1.6-0.7l0.8-1.6c0.4,0.3,0.9,0.5,1.4,0.6c0.6,0.2,1.1,0.2,1.7,0.2
		c1.2,0,1.9-0.3,1.9-1c0-0.3-0.2-0.5-0.5-0.6c-0.3-0.1-0.8-0.2-1.5-0.3c-0.7-0.1-1.3-0.2-1.8-0.4c-0.5-0.1-0.9-0.4-1.2-0.8
		s-0.5-0.9-0.5-1.5c0-0.8,0.4-1.5,1.1-2c0.7-0.5,1.7-0.8,2.9-0.8c0.6,0,1.2,0.1,1.8,0.2s1.1,0.3,1.5,0.6l-0.8,1.6
		c-0.8-0.4-1.6-0.7-2.5-0.7c-0.6,0-1.1,0.1-1.4,0.3c-0.3,0.2-0.5,0.4-0.5,0.7c0,0.3,0.2,0.6,0.5,0.7c0.3,0.1,0.9,0.3,1.6,0.4
		c0.7,0.1,1.3,0.2,1.7,0.4c0.5,0.1,0.8,0.4,1.2,0.7s0.5,0.8,0.5,1.5c0,0.8-0.4,1.5-1.1,2s-1.7,0.7-2.9,0.7
		C312.7-185.3,312-185.4,311.3-185.6z"/>
</g>
<g>
	<path class="st6" d="M265.9-174.5c0.5,0.4,0.7,1,0.7,1.7c0,0.7-0.2,1.3-0.7,1.7s-1.2,0.6-2,0.6h-1.6v2h-0.9v-6.6h2.6
		C264.7-175.2,265.4-175,265.9-174.5z M265.2-171.7c0.3-0.3,0.5-0.6,0.5-1.1s-0.2-0.8-0.5-1.1c-0.3-0.3-0.8-0.4-1.4-0.4h-1.6v3h1.6
		C264.4-171.4,264.9-171.5,265.2-171.7z"/>
	<path class="st6" d="M268.7-168.8c-0.4-0.2-0.7-0.5-0.9-0.9c-0.2-0.4-0.3-0.8-0.3-1.3s0.1-0.9,0.3-1.3c0.2-0.4,0.5-0.7,0.9-0.9
		s0.8-0.3,1.3-0.3s0.9,0.1,1.3,0.3s0.7,0.5,0.9,0.9c0.2,0.4,0.3,0.8,0.3,1.3s-0.1,0.9-0.3,1.3c-0.2,0.4-0.5,0.7-0.9,0.9
		s-0.8,0.3-1.3,0.3S269.1-168.6,268.7-168.8z M270.9-169.5c0.3-0.1,0.5-0.4,0.6-0.6c0.1-0.3,0.2-0.6,0.2-0.9c0-0.3-0.1-0.7-0.2-0.9
		c-0.1-0.3-0.3-0.5-0.6-0.6c-0.3-0.1-0.5-0.2-0.9-0.2s-0.6,0.1-0.9,0.2s-0.5,0.4-0.6,0.6s-0.2,0.6-0.2,0.9c0,0.3,0.1,0.7,0.2,0.9
		c0.1,0.3,0.4,0.5,0.6,0.6s0.5,0.2,0.9,0.2S270.6-169.3,270.9-169.5z"/>
	<path class="st6" d="M274.1-168.6c-0.4-0.1-0.7-0.3-0.9-0.4l0.4-0.7c0.2,0.2,0.5,0.3,0.8,0.4c0.3,0.1,0.6,0.1,1,0.1
		c0.8,0,1.2-0.2,1.2-0.7c0-0.2-0.1-0.3-0.2-0.4c-0.1-0.1-0.2-0.2-0.4-0.2c-0.2,0-0.4-0.1-0.7-0.1c-0.4-0.1-0.7-0.1-1-0.2
		c-0.3-0.1-0.5-0.2-0.7-0.4c-0.2-0.2-0.3-0.5-0.3-0.8c0-0.5,0.2-0.8,0.6-1.1c0.4-0.3,0.9-0.4,1.5-0.4c0.3,0,0.7,0,1,0.1
		s0.6,0.2,0.8,0.3l-0.4,0.7c-0.4-0.3-0.9-0.4-1.4-0.4c-0.4,0-0.7,0.1-0.9,0.2c-0.2,0.1-0.3,0.3-0.3,0.5c0,0.2,0.1,0.3,0.2,0.4
		c0.1,0.1,0.3,0.2,0.4,0.2s0.4,0.1,0.7,0.2c0.4,0.1,0.7,0.1,1,0.2c0.2,0.1,0.5,0.2,0.6,0.4c0.2,0.2,0.3,0.5,0.3,0.8
		c0,0.5-0.2,0.8-0.6,1.1s-0.9,0.4-1.6,0.4C274.9-168.5,274.5-168.5,274.1-168.6z"/>
	<path class="st6" d="M281.4-168.8c-0.1,0.1-0.3,0.2-0.5,0.3c-0.2,0.1-0.4,0.1-0.6,0.1c-0.5,0-0.9-0.1-1.2-0.4
		c-0.3-0.3-0.4-0.7-0.4-1.2v-2.8h-0.9v-0.7h0.9v-1.1h0.9v1.1h1.4v0.7h-1.4v2.7c0,0.3,0.1,0.5,0.2,0.6s0.3,0.2,0.6,0.2
		c0.3,0,0.5-0.1,0.7-0.2L281.4-168.8z"/>
	<path class="st6" d="M286.9-170.7h-4.1c0.1,0.4,0.3,0.8,0.6,1.1c0.3,0.3,0.7,0.4,1.2,0.4c0.6,0,1.1-0.2,1.4-0.6l0.5,0.6
		c-0.2,0.3-0.5,0.5-0.8,0.6c-0.3,0.1-0.7,0.2-1.1,0.2c-0.5,0-1-0.1-1.4-0.3c-0.4-0.2-0.7-0.5-1-0.9c-0.2-0.4-0.3-0.8-0.3-1.3
		c0-0.5,0.1-0.9,0.3-1.3c0.2-0.4,0.5-0.7,0.9-0.9s0.8-0.3,1.3-0.3s0.9,0.1,1.3,0.3s0.7,0.5,0.9,0.9c0.2,0.4,0.3,0.8,0.3,1.3
		C286.9-170.9,286.9-170.9,286.9-170.7z M283.3-172.4c-0.3,0.3-0.5,0.6-0.5,1h3.2c-0.1-0.4-0.2-0.8-0.5-1s-0.7-0.4-1.1-0.4
		S283.6-172.7,283.3-172.4z"/>
	<path class="st6" d="M292.9-175.6v7H292v-0.8c-0.2,0.3-0.5,0.5-0.8,0.6c-0.3,0.1-0.6,0.2-1,0.2c-0.5,0-0.9-0.1-1.3-0.3
		c-0.4-0.2-0.7-0.5-0.9-0.9c-0.2-0.4-0.3-0.8-0.3-1.3s0.1-0.9,0.3-1.3c0.2-0.4,0.5-0.7,0.9-0.9c0.4-0.2,0.8-0.3,1.3-0.3
		c0.4,0,0.7,0.1,1,0.2c0.3,0.1,0.6,0.3,0.8,0.6v-2.8H292.9z M291.2-169.5c0.3-0.1,0.5-0.4,0.6-0.6c0.1-0.3,0.2-0.6,0.2-0.9
		c0-0.3-0.1-0.7-0.2-0.9c-0.1-0.3-0.3-0.5-0.6-0.6s-0.5-0.2-0.9-0.2c-0.3,0-0.6,0.1-0.9,0.2s-0.5,0.4-0.6,0.6s-0.2,0.6-0.2,0.9
		c0,0.3,0.1,0.7,0.2,0.9c0.1,0.3,0.4,0.5,0.6,0.6s0.5,0.2,0.9,0.2C290.6-169.3,290.9-169.3,291.2-169.5z"/>
	<path class="st6" d="M299.8-170.8v2.3h-0.9v-2.3l-2.6-4.3h1l2.1,3.5l2.1-3.5h0.9L299.8-170.8z"/>
	<path class="st6" d="M307.2-170.7h-4.1c0.1,0.4,0.3,0.8,0.6,1.1c0.3,0.3,0.7,0.4,1.2,0.4c0.6,0,1.1-0.2,1.4-0.6l0.5,0.6
		c-0.2,0.3-0.5,0.5-0.8,0.6c-0.3,0.1-0.7,0.2-1.1,0.2c-0.5,0-1-0.1-1.4-0.3c-0.4-0.2-0.7-0.5-1-0.9c-0.2-0.4-0.3-0.8-0.3-1.3
		c0-0.5,0.1-0.9,0.3-1.3c0.2-0.4,0.5-0.7,0.9-0.9s0.8-0.3,1.3-0.3s0.9,0.1,1.3,0.3s0.7,0.5,0.9,0.9c0.2,0.4,0.3,0.8,0.3,1.3
		C307.3-170.9,307.2-170.9,307.2-170.7z M303.7-172.4c-0.3,0.3-0.5,0.6-0.5,1h3.2c-0.1-0.4-0.2-0.8-0.5-1s-0.7-0.4-1.1-0.4
		S304-172.7,303.7-172.4z"/>
	<path class="st6" d="M308.8-168.6c-0.4-0.1-0.7-0.3-0.9-0.4l0.4-0.7c0.2,0.2,0.5,0.3,0.8,0.4c0.3,0.1,0.6,0.1,1,0.1
		c0.8,0,1.2-0.2,1.2-0.7c0-0.2-0.1-0.3-0.2-0.4c-0.1-0.1-0.2-0.2-0.4-0.2c-0.2,0-0.4-0.1-0.7-0.1c-0.4-0.1-0.7-0.1-1-0.2
		c-0.3-0.1-0.5-0.2-0.7-0.4c-0.2-0.2-0.3-0.5-0.3-0.8c0-0.5,0.2-0.8,0.6-1.1c0.4-0.3,0.9-0.4,1.5-0.4c0.3,0,0.7,0,1,0.1
		s0.6,0.2,0.8,0.3l-0.4,0.7c-0.4-0.3-0.9-0.4-1.4-0.4c-0.4,0-0.7,0.1-0.9,0.2c-0.2,0.1-0.3,0.3-0.3,0.5c0,0.2,0.1,0.3,0.2,0.4
		c0.1,0.1,0.3,0.2,0.4,0.2s0.4,0.1,0.7,0.2c0.4,0.1,0.7,0.1,1,0.2c0.2,0.1,0.5,0.2,0.6,0.4c0.2,0.2,0.3,0.5,0.3,0.8
		c0,0.5-0.2,0.8-0.6,1.1s-0.9,0.4-1.6,0.4C309.5-168.5,309.1-168.5,308.8-168.6z"/>
	<path class="st6" d="M316.1-168.8c-0.1,0.1-0.3,0.2-0.5,0.3c-0.2,0.1-0.4,0.1-0.6,0.1c-0.5,0-0.9-0.1-1.2-0.4
		c-0.3-0.3-0.4-0.7-0.4-1.2v-2.8h-0.9v-0.7h0.9v-1.1h0.9v1.1h1.4v0.7h-1.4v2.7c0,0.3,0.1,0.5,0.2,0.6s0.3,0.2,0.6,0.2
		c0.3,0,0.5-0.1,0.7-0.2L316.1-168.8z"/>
	<path class="st6" d="M321.5-170.7h-4.1c0.1,0.4,0.3,0.8,0.6,1.1c0.3,0.3,0.7,0.4,1.2,0.4c0.6,0,1.1-0.2,1.4-0.6l0.5,0.6
		c-0.2,0.3-0.5,0.5-0.8,0.6c-0.3,0.1-0.7,0.2-1.1,0.2c-0.5,0-1-0.1-1.4-0.3c-0.4-0.2-0.7-0.5-1-0.9c-0.2-0.4-0.3-0.8-0.3-1.3
		c0-0.5,0.1-0.9,0.3-1.3c0.2-0.4,0.5-0.7,0.9-0.9s0.8-0.3,1.3-0.3s0.9,0.1,1.3,0.3s0.7,0.5,0.9,0.9c0.2,0.4,0.3,0.8,0.3,1.3
		C321.5-170.9,321.5-170.9,321.5-170.7z M318-172.4c-0.3,0.3-0.5,0.6-0.5,1h3.2c-0.1-0.4-0.2-0.8-0.5-1s-0.7-0.4-1.1-0.4
		S318.3-172.7,318-172.4z"/>
	<path class="st6" d="M324.4-173.4c0.3-0.2,0.7-0.2,1.1-0.2v0.9c-0.1,0-0.1,0-0.2,0c-0.5,0-0.9,0.1-1.2,0.4
		c-0.3,0.3-0.4,0.7-0.4,1.3v2.5h-0.9v-5h0.9v0.8C323.8-173,324.1-173.2,324.4-173.4z"/>
	<path class="st6" d="M331.3-175.6v7h-0.9v-0.8c-0.2,0.3-0.5,0.5-0.8,0.6c-0.3,0.1-0.6,0.2-1,0.2c-0.5,0-0.9-0.1-1.3-0.3
		c-0.4-0.2-0.7-0.5-0.9-0.9c-0.2-0.4-0.3-0.8-0.3-1.3s0.1-0.9,0.3-1.3c0.2-0.4,0.5-0.7,0.9-0.9c0.4-0.2,0.8-0.3,1.3-0.3
		c0.4,0,0.7,0.1,1,0.2c0.3,0.1,0.6,0.3,0.8,0.6v-2.8H331.3z M329.6-169.5c0.3-0.1,0.5-0.4,0.6-0.6c0.1-0.3,0.2-0.6,0.2-0.9
		c0-0.3-0.1-0.7-0.2-0.9c-0.1-0.3-0.3-0.5-0.6-0.6s-0.5-0.2-0.9-0.2c-0.3,0-0.6,0.1-0.9,0.2s-0.5,0.4-0.6,0.6s-0.2,0.6-0.2,0.9
		c0,0.3,0.1,0.7,0.2,0.9c0.1,0.3,0.4,0.5,0.6,0.6s0.5,0.2,0.9,0.2C329-169.3,329.3-169.3,329.6-169.5z"/>
	<path class="st6" d="M336.4-173.1c0.4,0.3,0.6,0.8,0.6,1.5v3h-0.9v-0.7c-0.2,0.2-0.4,0.4-0.6,0.5s-0.6,0.2-1,0.2
		c-0.6,0-1-0.1-1.3-0.4c-0.3-0.3-0.5-0.6-0.5-1.1s0.2-0.8,0.5-1.1c0.3-0.3,0.8-0.4,1.5-0.4h1.4v-0.2c0-0.4-0.1-0.7-0.3-0.9
		c-0.2-0.2-0.6-0.3-1-0.3c-0.3,0-0.6,0-0.9,0.1s-0.5,0.2-0.7,0.4l-0.4-0.7c0.3-0.2,0.6-0.4,0.9-0.5s0.7-0.2,1.1-0.2
		C335.5-173.6,336.1-173.4,336.4-173.1z M335.5-169.4c0.3-0.2,0.4-0.4,0.5-0.7v-0.7h-1.4c-0.8,0-1.2,0.3-1.2,0.8
		c0,0.3,0.1,0.5,0.3,0.6c0.2,0.1,0.5,0.2,0.8,0.2S335.3-169.3,335.5-169.4z"/>
	<path class="st6" d="M343-173.6l-2.4,5.5c-0.2,0.5-0.5,0.9-0.8,1.1c-0.3,0.2-0.6,0.3-1,0.3c-0.2,0-0.5,0-0.7-0.1s-0.4-0.2-0.6-0.3
		l0.4-0.7c0.3,0.2,0.6,0.4,0.9,0.4c0.2,0,0.4-0.1,0.6-0.2c0.1-0.1,0.3-0.3,0.4-0.6l0.2-0.4l-2.2-5h0.9l1.8,4l1.7-4H343z"/>
</g>
<g>
	<g>
		<defs>
			<circle id="SVGID_1_" cx="202.1" cy="-347.4" r="34.4"/>
		</defs>
		<clipPath id="SVGID_2_">
			<use xlink:href="#SVGID_1_"  style="overflow:visible;"/>
		</clipPath>
		<g class="st7">
			
				<image style="overflow:visible;enable-background:new    ;" width="270" height="270" xlink:href="B55C9355.jpg"  transform="matrix(0.2543 0 0 0.2543 167.6393 -381.7582)">
			</image>
		</g>
	</g>
</g>
<g>
	<circle class="st8" cx="202.1" cy="-192.8" r="34.5"/>
	<g>
		<g>
			<path class="st9" d="M201.9-194.3c0,2.3-0.6,4.1-1.9,5.2c-1.3,1.3-3.2,1.8-5.7,1.8h-3.9v-13.9h4.3c2.3,0,4.1,0.6,5.3,1.8
				C201.3-198.1,201.9-196.5,201.9-194.3z M198.9-194.3c0-3-1.3-4.4-3.9-4.4h-1.5v9h1.3C197.5-189.6,198.9-191.2,198.9-194.3z"/>
			<path class="st9" d="M210.8-198.9c-1.1,0-2,0.4-2.5,1.3c-0.5,0.9-0.9,2-0.9,3.4c0,3,1.1,4.7,3.5,4.7c1,0,2.2-0.3,3.5-0.8v2.5
				c-1.1,0.5-2.4,0.8-3.8,0.8c-2,0-3.5-0.6-4.7-1.9c-1-1.3-1.6-3-1.6-5.3c0-1.4,0.3-2.7,0.8-3.8c0.5-1.1,1.3-1.9,2.3-2.5
				s2.2-0.9,3.4-0.9c1.4,0,2.7,0.4,4.1,1l-1,2.4c-0.5-0.3-1-0.5-1.5-0.6C211.8-198.8,211.3-198.9,210.8-198.9z"/>
		</g>
	</g>
</g>
<g>
	<circle class="st10" cx="507.3" cy="-492.1" r="9.8"/>
	<path class="st11" d="M511.7-493.3c0.2-1.3-0.8-2-2.1-2.4l0.4-1.7l-1-0.2l-0.4,1.7c-0.3-0.1-0.5-0.1-0.9-0.2l0.4-1.7l-1-0.2
		l-0.4,1.7c-0.2-0.1-0.4-0.1-0.7-0.2l0,0l-1.5-0.4l-0.3,1.1l0.8,0.2c0.4,0.1,0.5,0.4,0.5,0.6l-0.5,2c0,0,0.1,0,0.1,0.1H505l-0.7,2.7
		c-0.1,0.1-0.2,0.3-0.5,0.2l-0.8-0.2l-0.5,1.2l1.4,0.4c0.2,0.1,0.5,0.1,0.7,0.2l-0.4,1.8l1,0.2l0.4-1.7c0.3,0.1,0.5,0.1,0.9,0.2
		l-0.4,1.7l1,0.2l0.4-1.8c1.8,0.4,3.2,0.2,3.7-1.4c0.5-1.3,0-2.1-1-2.6C511-491.9,511.5-492.3,511.7-493.3z M509.3-489.9
		c-0.3,1.3-2.5,0.6-3.2,0.4l0.5-2.3C507.3-491.6,509.6-491.3,509.3-489.9z M509.6-493.3c-0.3,1.2-2.1,0.6-2.7,0.4l0.5-2.1
		C508-494.8,509.9-494.5,509.6-493.3z"/>
</g>
<g>
	<circle class="st12" cx="551.4" cy="-491.8" r="9.8"/>
	<path class="st11" d="M551.4-485.7c-0.4,0-0.8-0.1-1.1-0.3l-3.2-1.9c-0.7-0.4-1.2-1.2-1.2-2v-3.8c0-0.8,0.4-1.6,1.2-2l3.2-1.9
		c0.4-0.2,0.7-0.3,1.2-0.3c0.4,0,0.8,0.1,1.1,0.3l3.2,1.9c0.7,0.4,1.2,1.2,1.2,2v3.8c0,0.8-0.4,1.6-1.2,2l-3.2,1.9
		C552.2-485.8,551.8-485.7,551.4-485.7z M549.5-489.6l-0.6,0.6c0.3,0.3,0.7,0.5,1.2,0.5c0.9,0,1.7-0.8,1.7-1.7v-0.5
		c0.2,0.1,0.5,0.2,0.9,0.2c0.4,0,0.9-0.2,1.2-0.5l-0.6-0.6c-0.2,0.2-0.4,0.2-0.6,0.2c-0.5,0-0.9-0.4-0.9-0.9v-2.9H551v4.9
		c0,0.5-0.4,0.9-0.9,0.9C550-489.4,549.7-489.5,549.5-489.6z"/>
</g>
<g>
	<circle class="st11" cx="529.2" cy="-491.8" r="9.8"/>
	<g>
		<path class="st10" d="M529.2-501.6c-5.4,0-9.8,4.4-9.8,9.8s4.4,9.8,9.8,9.8s9.8-4.4,9.8-9.8l0,0l0,0
			C539-497.2,534.6-501.4,529.2-501.6L529.2-501.6z M529.4-491.4l-1,3.4h5.4c0.2,0,0.2,0.1,0.2,0.2l0,0v0.1l-0.5,1.6
			c-0.1,0.2-0.2,0.2-0.3,0.2H525l1.4-4.7l-1.6,0.5l0.3-1.1l1.6-0.5l2-6.6c0.1-0.2,0.2-0.2,0.3-0.2h2.1c0.2,0,0.2,0.1,0.2,0.2l0,0
			v0.1l-1.6,5.6l1.6-0.5l-0.3,1.2L529.4-491.4z"/>
	</g>
</g>
<circle class="st1" cx="643.2" cy="-494.3" r="12.3"/>
<g>
	<g>
		<defs>
			<circle id="SVGID_3_" cx="643.2" cy="-494.3" r="11"/>
		</defs>
		<clipPath id="SVGID_4_">
			<use xlink:href="#SVGID_3_"  style="overflow:visible;"/>
		</clipPath>
		<g class="st13">
			
				<image style="overflow:visible;enable-background:new    ;" width="370" height="370" xlink:href="B55C9357.jpg"  transform="matrix(5.933359e-002 0 0 5.933359e-002 632.2557 -505.327)">
			</image>
		</g>
	</g>
</g>
<circle class="st1" cx="659" cy="-494.3" r="12.3"/>
<g>
	<path class="st6" d="M501.3-361.8h-2.7l-0.6,1.3h-0.5l2.2-4.8h0.5l2.2,4.8h-0.5L501.3-361.8z M501.2-362.2l-1.2-2.6l-1.2,2.6H501.2
		z"/>
	<path class="st6" d="M504-360.8c-0.4-0.2-0.7-0.5-0.9-0.9c-0.2-0.4-0.3-0.8-0.3-1.3s0.1-0.9,0.3-1.3c0.2-0.4,0.5-0.7,0.9-0.9
		c0.4-0.2,0.8-0.3,1.3-0.3c0.4,0,0.7,0.1,1,0.2c0.3,0.1,0.6,0.3,0.8,0.5l-0.3,0.3c-0.4-0.4-0.9-0.6-1.4-0.6c-0.4,0-0.7,0.1-1,0.3
		c-0.3,0.2-0.6,0.4-0.7,0.7c-0.2,0.3-0.3,0.6-0.3,1s0.1,0.7,0.3,1s0.4,0.5,0.7,0.7c0.3,0.2,0.7,0.3,1,0.3c0.6,0,1.1-0.2,1.4-0.6
		l0.3,0.3c-0.2,0.2-0.5,0.4-0.8,0.5s-0.6,0.2-1,0.2C504.8-360.5,504.4-360.6,504-360.8z"/>
	<path class="st6" d="M508.8-360.8c-0.4-0.2-0.7-0.5-0.9-0.9c-0.2-0.4-0.3-0.8-0.3-1.3s0.1-0.9,0.3-1.3c0.2-0.4,0.5-0.7,0.9-0.9
		c0.4-0.2,0.8-0.3,1.3-0.3c0.4,0,0.7,0.1,1,0.2c0.3,0.1,0.6,0.3,0.8,0.5l-0.3,0.3c-0.4-0.4-0.9-0.6-1.4-0.6c-0.4,0-0.7,0.1-1,0.3
		c-0.3,0.2-0.6,0.4-0.7,0.7c-0.2,0.3-0.3,0.6-0.3,1s0.1,0.7,0.3,1s0.4,0.5,0.7,0.7c0.3,0.2,0.7,0.3,1,0.3c0.6,0,1.1-0.2,1.4-0.6
		l0.3,0.3c-0.2,0.2-0.5,0.4-0.8,0.5s-0.6,0.2-1,0.2C509.7-360.5,509.2-360.6,508.8-360.8z"/>
	<path class="st6" d="M516.4-361v0.4H513v-4.8h3.3v0.4h-2.8v1.7h2.5v0.4h-2.5v1.8H516.4z"/>
	<path class="st6" d="M520.9-364.9c0.3,0.3,0.5,0.7,0.5,1.2s-0.2,0.9-0.5,1.2c-0.3,0.3-0.8,0.4-1.4,0.4h-1.3v1.5h-0.5v-4.8h1.8
		C520-365.3,520.5-365.2,520.9-364.9z M520.5-362.8c0.3-0.2,0.4-0.5,0.4-0.9c0-0.4-0.1-0.7-0.4-0.9s-0.6-0.3-1.1-0.3h-1.3v2.4h1.3
		C519.9-362.5,520.2-362.6,520.5-362.8z"/>
	<path class="st6" d="M523.3-364.9h-1.7v-0.4h3.9v0.4h-1.7v4.4h-0.5V-364.9z"/>
	<path class="st6" d="M529.7-361v0.4h-3.4v-4.8h3.3v0.4h-2.8v1.7h2.5v0.4h-2.5v1.8H529.7z"/>
	<path class="st6" d="M530.9-365.3h2c0.5,0,1,0.1,1.3,0.3c0.4,0.2,0.7,0.5,0.9,0.9s0.3,0.8,0.3,1.3c0,0.5-0.1,0.9-0.3,1.3
		c-0.2,0.4-0.5,0.6-0.9,0.9c-0.4,0.2-0.8,0.3-1.3,0.3h-2V-365.3z M532.8-361c0.4,0,0.8-0.1,1.1-0.3c0.3-0.2,0.6-0.4,0.7-0.7
		s0.3-0.6,0.3-1s-0.1-0.7-0.3-1c-0.2-0.3-0.4-0.5-0.7-0.7c-0.3-0.2-0.7-0.3-1.1-0.3h-1.4v3.9H532.8z"/>
</g>
<g>
	<path class="st6" d="M636.3-364.9c0.3,0.3,0.5,0.7,0.5,1.2s-0.2,0.9-0.5,1.2c-0.3,0.3-0.8,0.4-1.4,0.4h-1.3v1.5H633v-4.8h1.8
		C635.4-365.3,635.9-365.2,636.3-364.9z M635.9-362.8c0.3-0.2,0.4-0.5,0.4-0.9c0-0.4-0.1-0.7-0.4-0.9s-0.6-0.3-1.1-0.3h-1.3v2.4h1.3
		C635.3-362.5,635.6-362.6,635.9-362.8z"/>
	<path class="st6" d="M641.3-361v0.4h-3.4v-4.8h3.3v0.4h-2.8v1.7h2.5v0.4h-2.5v1.8H641.3z"/>
	<path class="st6" d="M643.3-360.8c-0.4-0.2-0.7-0.5-0.9-0.9c-0.2-0.4-0.3-0.8-0.3-1.3s0.1-0.9,0.3-1.3c0.2-0.4,0.5-0.7,0.9-0.9
		s0.8-0.3,1.3-0.3s0.9,0.1,1.3,0.3c0.4,0.2,0.7,0.5,0.9,0.9c0.2,0.4,0.3,0.8,0.3,1.3s-0.1,0.9-0.3,1.3c-0.2,0.4-0.5,0.7-0.9,0.9
		c-0.4,0.2-0.8,0.3-1.3,0.3S643.7-360.6,643.3-360.8z M645.6-361.2c0.3-0.2,0.5-0.4,0.7-0.7c0.2-0.3,0.3-0.6,0.3-1s-0.1-0.7-0.3-1
		c-0.2-0.3-0.4-0.5-0.7-0.7c-0.3-0.2-0.7-0.3-1-0.3c-0.4,0-0.7,0.1-1,0.3c-0.3,0.2-0.6,0.4-0.7,0.7c-0.2,0.3-0.3,0.6-0.3,1
		s0.1,0.7,0.3,1c0.2,0.3,0.4,0.5,0.7,0.7c0.3,0.2,0.7,0.3,1,0.3C645-360.9,645.3-361,645.6-361.2z"/>
	<path class="st6" d="M651.5-364.9c0.3,0.3,0.5,0.7,0.5,1.2s-0.2,0.9-0.5,1.2c-0.3,0.3-0.8,0.4-1.4,0.4h-1.3v1.5h-0.5v-4.8h1.8
		C650.7-365.3,651.1-365.2,651.5-364.9z M651.1-362.8c0.3-0.2,0.4-0.5,0.4-0.9c0-0.4-0.1-0.7-0.4-0.9s-0.6-0.3-1.1-0.3h-1.3v2.4h1.3
		C650.5-362.5,650.9-362.6,651.1-362.8z"/>
	<path class="st6" d="M653.1-365.3h0.5v4.4h2.7v0.4h-3.2V-365.3z"/>
	<path class="st6" d="M660.6-361v0.4h-3.4v-4.8h3.3v0.4h-2.8v1.7h2.5v0.4h-2.5v1.8H660.6z"/>
</g>
<g>
	<circle class="st10" cx="507.3" cy="-342.4" r="9.8"/>
	<path class="st11" d="M511.7-343.7c0.2-1.3-0.8-2-2.1-2.4l0.4-1.7l-1-0.2l-0.4,1.7c-0.3-0.1-0.5-0.1-0.9-0.2l0.4-1.7l-1-0.2
		l-0.4,1.7c-0.2-0.1-0.4-0.1-0.7-0.2l0,0l-1.5-0.4l-0.3,1.1l0.8,0.2c0.4,0.1,0.5,0.4,0.5,0.6l-0.5,2c0,0,0.1,0,0.1,0.1H505l-0.7,2.7
		c-0.1,0.1-0.2,0.3-0.5,0.2l-0.8-0.2l-0.5,1.2l1.4,0.4c0.2,0.1,0.5,0.1,0.7,0.2l-0.4,1.8l1,0.2l0.4-1.7c0.3,0.1,0.5,0.1,0.9,0.2
		l-0.4,1.7l1,0.2l0.4-1.8c1.8,0.4,3.2,0.2,3.7-1.4c0.5-1.3,0-2.1-1-2.6C511-342.3,511.5-342.7,511.7-343.7z M509.3-340.3
		c-0.3,1.3-2.5,0.6-3.2,0.4l0.5-2.3C507.3-342,509.6-341.7,509.3-340.3z M509.6-343.7c-0.3,1.2-2.1,0.6-2.7,0.4l0.5-2.1
		C508-345.2,509.9-344.9,509.6-343.7z"/>
</g>
<g>
	<circle class="st12" cx="551.4" cy="-342.1" r="9.8"/>
	<path class="st11" d="M551.4-336c-0.4,0-0.8-0.1-1.1-0.3l-3.2-1.9c-0.7-0.4-1.2-1.2-1.2-2v-3.8c0-0.8,0.4-1.6,1.2-2l3.2-1.9
		c0.4-0.2,0.7-0.3,1.2-0.3c0.4,0,0.8,0.1,1.1,0.3l3.2,1.9c0.7,0.4,1.2,1.2,1.2,2v3.8c0,0.8-0.4,1.6-1.2,2l-3.2,1.9
		C552.2-336.2,551.8-336,551.4-336z M549.5-339.9l-0.6,0.6c0.3,0.3,0.7,0.5,1.2,0.5c0.9,0,1.7-0.8,1.7-1.7v-0.5
		c0.2,0.1,0.5,0.2,0.9,0.2c0.4,0,0.9-0.2,1.2-0.5l-0.6-0.6c-0.2,0.2-0.4,0.2-0.6,0.2c-0.5,0-0.9-0.4-0.9-0.9v-2.9H551v4.9
		c0,0.5-0.4,0.9-0.9,0.9C550-339.7,549.7-339.8,549.5-339.9z"/>
</g>
<g>
	<circle class="st11" cx="529.2" cy="-342.1" r="9.8"/>
	<g>
		<path class="st10" d="M529.2-351.9c-5.4,0-9.8,4.4-9.8,9.8s4.4,9.8,9.8,9.8s9.8-4.4,9.8-9.8l0,0l0,0
			C539-347.5,534.6-351.8,529.2-351.9L529.2-351.9z M529.4-341.8l-1,3.4h5.4c0.2,0,0.2,0.1,0.2,0.2l0,0v0.1l-0.5,1.6
			c-0.1,0.2-0.2,0.2-0.3,0.2H525l1.4-4.7l-1.6,0.5l0.3-1.1l1.6-0.5l2-6.6c0.1-0.2,0.2-0.2,0.3-0.2h2.1c0.2,0,0.2,0.1,0.2,0.2l0,0
			v0.1l-1.6,5.6l1.6-0.5l-0.3,1.2L529.4-341.8z"/>
	</g>
</g>
<circle class="st14" cx="643.2" cy="-344.7" r="12.3"/>
<g>
	<path class="st6" d="M501.3-205.1h-2.7l-0.6,1.3h-0.5l2.2-4.8h0.5l2.2,4.8h-0.5L501.3-205.1z M501.2-205.5l-1.2-2.6l-1.2,2.6H501.2
		z"/>
	<path class="st6" d="M504-204.1c-0.4-0.2-0.7-0.5-0.9-0.9c-0.2-0.4-0.3-0.8-0.3-1.3s0.1-0.9,0.3-1.3c0.2-0.4,0.5-0.7,0.9-0.9
		s0.8-0.3,1.3-0.3c0.4,0,0.7,0.1,1,0.2c0.3,0.1,0.6,0.3,0.8,0.5l-0.3,0.3c-0.4-0.4-0.9-0.6-1.4-0.6c-0.4,0-0.7,0.1-1,0.3
		c-0.3,0.2-0.6,0.4-0.7,0.7c-0.2,0.3-0.3,0.6-0.3,1c0,0.4,0.1,0.7,0.3,1c0.2,0.3,0.4,0.5,0.7,0.7c0.3,0.2,0.7,0.3,1,0.3
		c0.6,0,1.1-0.2,1.4-0.6l0.3,0.3c-0.2,0.2-0.5,0.4-0.8,0.5c-0.3,0.1-0.6,0.2-1,0.2C504.8-203.8,504.4-203.9,504-204.1z"/>
	<path class="st6" d="M508.8-204.1c-0.4-0.2-0.7-0.5-0.9-0.9c-0.2-0.4-0.3-0.8-0.3-1.3s0.1-0.9,0.3-1.3c0.2-0.4,0.5-0.7,0.9-0.9
		s0.8-0.3,1.3-0.3c0.4,0,0.7,0.1,1,0.2c0.3,0.1,0.6,0.3,0.8,0.5l-0.3,0.3c-0.4-0.4-0.9-0.6-1.4-0.6c-0.4,0-0.7,0.1-1,0.3
		c-0.3,0.2-0.6,0.4-0.7,0.7c-0.2,0.3-0.3,0.6-0.3,1c0,0.4,0.1,0.7,0.3,1c0.2,0.3,0.4,0.5,0.7,0.7c0.3,0.2,0.7,0.3,1,0.3
		c0.6,0,1.1-0.2,1.4-0.6l0.3,0.3c-0.2,0.2-0.5,0.4-0.8,0.5c-0.3,0.1-0.6,0.2-1,0.2C509.7-203.8,509.2-203.9,508.8-204.1z"/>
	<path class="st6" d="M516.4-204.3v0.4H513v-4.8h3.3v0.4h-2.8v1.7h2.5v0.4h-2.5v1.8H516.4z"/>
	<path class="st6" d="M520.9-208.2c0.3,0.3,0.5,0.7,0.5,1.2c0,0.5-0.2,0.9-0.5,1.2c-0.3,0.3-0.8,0.4-1.4,0.4h-1.3v1.5h-0.5v-4.8h1.8
		C520-208.6,520.5-208.5,520.9-208.2z M520.5-206.1c0.3-0.2,0.4-0.5,0.4-0.9c0-0.4-0.1-0.7-0.4-0.9s-0.6-0.3-1.1-0.3h-1.3v2.4h1.3
		C519.9-205.8,520.2-205.9,520.5-206.1z"/>
	<path class="st6" d="M523.3-208.2h-1.7v-0.4h3.9v0.4h-1.7v4.4h-0.5V-208.2z"/>
	<path class="st6" d="M529.7-204.3v0.4h-3.4v-4.8h3.3v0.4h-2.8v1.7h2.5v0.4h-2.5v1.8H529.7z"/>
	<path class="st6" d="M530.9-208.6h2c0.5,0,1,0.1,1.3,0.3c0.4,0.2,0.7,0.5,0.9,0.9s0.3,0.8,0.3,1.3c0,0.5-0.1,0.9-0.3,1.3
		s-0.5,0.7-0.9,0.9c-0.4,0.2-0.8,0.3-1.3,0.3h-2V-208.6z M532.8-204.3c0.4,0,0.8-0.1,1.1-0.3c0.3-0.2,0.6-0.4,0.7-0.7
		c0.2-0.3,0.3-0.6,0.3-1s-0.1-0.7-0.3-1s-0.4-0.5-0.7-0.7c-0.3-0.2-0.7-0.3-1.1-0.3h-1.4v3.9H532.8z"/>
</g>
<g>
	<path class="st6" d="M636.3-208.2c0.3,0.3,0.5,0.7,0.5,1.2c0,0.5-0.2,0.9-0.5,1.2c-0.3,0.3-0.8,0.4-1.4,0.4h-1.3v1.5H633v-4.8h1.8
		C635.4-208.6,635.9-208.5,636.3-208.2z M635.9-206.1c0.3-0.2,0.4-0.5,0.4-0.9c0-0.4-0.1-0.7-0.4-0.9s-0.6-0.3-1.1-0.3h-1.3v2.4h1.3
		C635.3-205.8,635.6-205.9,635.9-206.1z"/>
	<path class="st6" d="M641.3-204.3v0.4h-3.4v-4.8h3.3v0.4h-2.8v1.7h2.5v0.4h-2.5v1.8H641.3z"/>
	<path class="st6" d="M643.3-204.1c-0.4-0.2-0.7-0.5-0.9-0.9c-0.2-0.4-0.3-0.8-0.3-1.3s0.1-0.9,0.3-1.3c0.2-0.4,0.5-0.7,0.9-0.9
		c0.4-0.2,0.8-0.3,1.3-0.3s0.9,0.1,1.3,0.3c0.4,0.2,0.7,0.5,0.9,0.9c0.2,0.4,0.3,0.8,0.3,1.3s-0.1,0.9-0.3,1.3
		c-0.2,0.4-0.5,0.7-0.9,0.9c-0.4,0.2-0.8,0.3-1.3,0.3S643.7-203.9,643.3-204.1z M645.6-204.5c0.3-0.2,0.5-0.4,0.7-0.7
		c0.2-0.3,0.3-0.6,0.3-1c0-0.4-0.1-0.7-0.3-1c-0.2-0.3-0.4-0.5-0.7-0.7c-0.3-0.2-0.7-0.3-1-0.3c-0.4,0-0.7,0.1-1,0.3
		c-0.3,0.2-0.6,0.4-0.7,0.7s-0.3,0.6-0.3,1c0,0.4,0.1,0.7,0.3,1c0.2,0.3,0.4,0.5,0.7,0.7c0.3,0.2,0.7,0.3,1,0.3
		C645-204.2,645.3-204.3,645.6-204.5z"/>
	<path class="st6" d="M651.5-208.2c0.3,0.3,0.5,0.7,0.5,1.2c0,0.5-0.2,0.9-0.5,1.2c-0.3,0.3-0.8,0.4-1.4,0.4h-1.3v1.5h-0.5v-4.8h1.8
		C650.7-208.6,651.1-208.5,651.5-208.2z M651.1-206.1c0.3-0.2,0.4-0.5,0.4-0.9c0-0.4-0.1-0.7-0.4-0.9s-0.6-0.3-1.1-0.3h-1.3v2.4h1.3
		C650.5-205.8,650.9-205.9,651.1-206.1z"/>
	<path class="st6" d="M653.1-208.6h0.5v4.4h2.7v0.4h-3.2V-208.6z"/>
	<path class="st6" d="M660.6-204.3v0.4h-3.4v-4.8h3.3v0.4h-2.8v1.7h2.5v0.4h-2.5v1.8H660.6z"/>
</g>
<g>
	<circle class="st10" cx="507.3" cy="-185.8" r="9.8"/>
	<path class="st11" d="M511.7-187c0.2-1.3-0.8-2-2.1-2.4l0.4-1.7l-1-0.2l-0.4,1.7c-0.3-0.1-0.5-0.1-0.9-0.2l0.4-1.7l-1-0.2l-0.4,1.7
		c-0.2-0.1-0.4-0.1-0.7-0.2l0,0l-1.5-0.4l-0.3,1.1l0.8,0.2c0.4,0.1,0.5,0.4,0.5,0.6l-0.5,2c0,0,0.1,0,0.1,0.1H505l-0.7,2.7
		c-0.1,0.1-0.2,0.3-0.5,0.2l-0.8-0.2l-0.5,1.2l1.4,0.4c0.2,0.1,0.5,0.1,0.7,0.2l-0.4,1.8l1,0.2l0.4-1.7c0.3,0.1,0.5,0.1,0.9,0.2
		l-0.4,1.7l1,0.2l0.4-1.8c1.8,0.4,3.2,0.2,3.7-1.4c0.5-1.3,0-2.1-1-2.6C511-185.6,511.5-186,511.7-187z M509.3-183.6
		c-0.3,1.3-2.5,0.6-3.2,0.4l0.5-2.3C507.3-185.3,509.6-185,509.3-183.6z M509.6-187c-0.3,1.2-2.1,0.6-2.7,0.4l0.5-2.1
		C508-188.5,509.9-188.2,509.6-187z"/>
</g>
<g>
	<circle class="st12" cx="551.4" cy="-185.5" r="9.8"/>
	<path class="st11" d="M551.4-179.3c-0.4,0-0.8-0.1-1.1-0.3l-3.2-1.9c-0.7-0.4-1.2-1.2-1.2-2v-3.8c0-0.8,0.4-1.6,1.2-2l3.2-1.9
		c0.4-0.2,0.7-0.3,1.2-0.3c0.4,0,0.8,0.1,1.1,0.3l3.2,1.9c0.7,0.4,1.2,1.2,1.2,2v3.8c0,0.8-0.4,1.6-1.2,2l-3.2,1.9
		C552.2-179.5,551.8-179.3,551.4-179.3z M549.5-183.3l-0.6,0.6c0.3,0.3,0.7,0.5,1.2,0.5c0.9,0,1.7-0.8,1.7-1.7v-0.5
		c0.2,0.1,0.5,0.2,0.9,0.2c0.4,0,0.9-0.2,1.2-0.5l-0.6-0.6c-0.2,0.2-0.4,0.2-0.6,0.2c-0.5,0-0.9-0.4-0.9-0.9v-2.9H551v4.9
		c0,0.5-0.4,0.9-0.9,0.9C550-183,549.7-183.1,549.5-183.3z"/>
</g>
<g>
	<circle class="st11" cx="529.2" cy="-185.5" r="9.8"/>
	<g>
		<path class="st10" d="M529.2-195.2c-5.4,0-9.8,4.4-9.8,9.8c0,5.4,4.4,9.8,9.8,9.8s9.8-4.4,9.8-9.8l0,0l0,0
			C539-190.8,534.6-195.1,529.2-195.2L529.2-195.2z M529.4-185.1l-1,3.4h5.4c0.2,0,0.2,0.1,0.2,0.2l0,0v0.1l-0.5,1.6
			c-0.1,0.2-0.2,0.2-0.3,0.2H525l1.4-4.7l-1.6,0.5l0.3-1.1l1.6-0.5l2-6.6c0.1-0.2,0.2-0.2,0.3-0.2h2.1c0.2,0,0.2,0.1,0.2,0.2l0,0
			v0.1l-1.6,5.6l1.6-0.5l-0.3,1.2L529.4-185.1z"/>
	</g>
</g>
<circle class="st14" cx="643.2" cy="-188" r="12.3"/>
<g>
	<g>
		<defs>
			<circle id="SVGID_5_" cx="643.2" cy="-188" r="11"/>
		</defs>
		<clipPath id="SVGID_6_">
			<use xlink:href="#SVGID_5_"  style="overflow:visible;"/>
		</clipPath>
		<g class="st15">
			
				<image style="overflow:visible;enable-background:new    ;" width="370" height="370" xlink:href="B55C9354.jpg"  transform="matrix(5.933359e-002 0 0 5.933359e-002 632.2557 -198.9875)">
			</image>
		</g>
	</g>
</g>
<circle class="st14" cx="659" cy="-188" r="12.3"/>
<g>
	<g>
		<defs>
			<circle id="SVGID_7_" cx="659" cy="-494.3" r="11"/>
		</defs>
		<clipPath id="SVGID_8_">
			<use xlink:href="#SVGID_7_"  style="overflow:visible;"/>
		</clipPath>
		<g class="st16">
			
				<image style="overflow:visible;enable-background:new    ;" width="200" height="200" xlink:href="B55C9353.jpg"  transform="matrix(0.11 0 0 0.11 648.0364 -505.349)">
			</image>
		</g>
	</g>
</g>
<circle class="st1" cx="678.6" cy="-494.3" r="12.3"/>
<g>
	<circle class="st17" cx="678.6" cy="-494.3" r="11"/>
	<g>
		<g>
			<path class="st18" d="M676.2-491.5c-0.2,0-0.4,0-0.6-0.1v-0.8c0.2,0,0.3,0,0.4,0c0.2,0,0.4-0.1,0.4-0.2c0.1-0.1,0.1-0.3,0.1-0.6
				v-4.2h0.9v4.2c0,0.5-0.1,0.9-0.4,1.2S676.6-491.5,676.2-491.5z"/>
			<path class="st18" d="M680.4-492.8h-0.9v-3.6h-1.2v-0.8h3.4v0.8h-1.2V-492.8z"/>
		</g>
	</g>
</g>
<g>
	<g>
		<defs>
			<circle id="SVGID_9_" cx="643.2" cy="-344.7" r="11"/>
		</defs>
		<clipPath id="SVGID_10_">
			<use xlink:href="#SVGID_9_"  style="overflow:visible;"/>
		</clipPath>
		<g class="st19">
			
				<image style="overflow:visible;enable-background:new    ;" width="300" height="300" xlink:href="B55C935D.jpg"  transform="matrix(7.352054e-002 0 0 7.352054e-002 632.1704 -355.7521)">
			</image>
		</g>
	</g>
</g>
<circle class="st14" cx="659" cy="-344.7" r="12.3"/>
<g>
	<circle class="st3" cx="659" cy="-344.7" r="11"/>
	<g>
		<g>
			<path class="st4" d="M656.6-341.8c-0.2,0-0.4,0-0.6-0.1v-0.8c0.2,0,0.3,0,0.4,0c0.2,0,0.4-0.1,0.4-0.2c0.1-0.1,0.1-0.3,0.1-0.6
				v-4.2h0.9v4.2c0,0.5-0.1,0.9-0.4,1.2C657.4-342,657.1-341.8,656.6-341.8z"/>
			<path class="st4" d="M660.8-343.1h-0.9v-3.6h-1.2v-0.8h3.4v0.8h-1.2V-343.1z"/>
		</g>
	</g>
</g>
<circle class="st14" cx="678.6" cy="-344.7" r="12.3"/>
<g>
	<g>
		<defs>
			<circle id="SVGID_11_" cx="659" cy="-188" r="11.1"/>
		</defs>
		<clipPath id="SVGID_12_">
			<use xlink:href="#SVGID_11_"  style="overflow:visible;"/>
		</clipPath>
		<g class="st20">
			
				<image style="overflow:visible;enable-background:new    ;" width="225" height="225" xlink:href="B55C935F.jpg"  transform="matrix(9.861059e-002 0 0 9.861059e-002 647.9399 -199.0898)">
			</image>
		</g>
	</g>
</g>
<g>
	<g>
		<defs>
			<circle id="SVGID_13_" cx="678.6" cy="-344.7" r="11.1"/>
		</defs>
		<clipPath id="SVGID_14_">
			<use xlink:href="#SVGID_13_"  style="overflow:visible;"/>
		</clipPath>
		<g class="st21">
			
				<image style="overflow:visible;enable-background:new    ;" width="225" height="225" xlink:href="36614A7C.jpg"  transform="matrix(9.861059e-002 0 0 9.861059e-002 667.514 -355.7821)">
			</image>
		</g>
	</g>
</g>
<circle class="st14" cx="678.6" cy="-188" r="12.3"/>
<g>
	<g>
		<defs>
			<circle id="SVGID_15_" cx="678.6" cy="-188" r="11"/>
		</defs>
		<clipPath id="SVGID_16_">
			<use xlink:href="#SVGID_15_"  style="overflow:visible;"/>
		</clipPath>
		<g class="st22">
			
				<image style="overflow:visible;enable-background:new    ;" width="270" height="270" xlink:href="36614A7B.jpg"  transform="matrix(8.130055e-002 0 0 8.130055e-002 667.5995 -198.9886)">
			</image>
		</g>
	</g>
</g>
<circle class="st14" cx="695" cy="-188" r="12.3"/>
<circle class="st12" cx="695" cy="-188" r="11"/>
<g>
	<text transform="matrix(1 0 0 1 689.7217 -185.5202)" class="st5 st23 st24">+5</text>
</g>
</svg>
