<?xml version="1.0" encoding="utf-8"?>
<!-- Generator: Adobe Illustrator 19.0.0, SVG Export Plug-In . SVG Version: 6.00 Build 0)  -->
<svg version="1.1" id="Calque_1" xmlns="http://www.w3.org/2000/svg" xmlns:xlink="http://www.w3.org/1999/xlink" x="0px" y="0px"
	 viewBox="68 50.1 748.2 692.9" style="enable-background:new 68 50.1 748.2 692.9;" xml:space="preserve">
<style type="text/css">
	.st0{fill:none;stroke:#FAFAFA;stroke-width:2;stroke-miterlimit:10;}
	.st1{fill:#FFFFFF;}
	.st2{fill:none;stroke:#DDDDDD;stroke-miterlimit:10;}
	.st3{fill:#FEEBE2;}
	.st4{fill:#F9BAA0;}
	.st5{fill:#3B1C60;}
	.st6{fill:#87838C;}
	.st7{fill:#999999;}
	.st8{clip-path:url(#SVGID_2_);}
	.st9{fill:#E0DEFF;}
	.st10{fill:#8C8CF4;}
	.st11{fill:#6D30ED;}
	.st12{fill:#767DFF;}
	.st13{clip-path:url(#SVGID_4_);}
	.st14{clip-path:url(#SVGID_6_);}
	.st15{clip-path:url(#SVGID_8_);}
	.st16{fill:#D5F2F5;}
	.st17{fill:#52E8E8;}
	.st18{clip-path:url(#SVGID_10_);}
	.st19{clip-path:url(#SVGID_12_);}
	.st20{clip-path:url(#SVGID_14_);}
	.st21{clip-path:url(#SVGID_16_);}
	.st22{fill:#FAFAFA;}
	.st23{font-family:'Montserrat-SemiBold';}
	.st24{font-size:8.1244px;}
</style>
<g id="BG">
</g>
<g id="section1">
</g>
<g id="section2">
</g>
<g id="section3">
</g>
<g id="section4">
</g>
<g id="Hero">
	<path class="st0" d="M1903.5,81.4"/>
</g>
<g id="Hero_1_">
	<path class="st0" d="M-62.3,150.5"/>
</g>
<g>
	<g>
		
			<image style="overflow:visible;opacity:0.12;" width="623" height="152" xlink:href="260FA8E7.png"  transform="matrix(1 0 0 1 133 173)">
		</image>
		<g>
			<path class="st1" d="M723.4,304.4H160.8c-7.8,0-14.1-6.3-14.1-14.1v-91.9c0-7.8,6.3-14.1,14.1-14.1h562.7
				c7.8,0,14.1,6.3,14.1,14.1v91.9C737.6,298.1,731.3,304.4,723.4,304.4z"/>
			<path class="st2" d="M723.4,304.4H160.8c-7.8,0-14.1-6.3-14.1-14.1v-91.9c0-7.8,6.3-14.1,14.1-14.1h562.7
				c7.8,0,14.1,6.3,14.1,14.1v91.9C737.6,298.1,731.3,304.4,723.4,304.4z"/>
		</g>
	</g>
	<g>
		<circle class="st3" cx="202.1" cy="243.2" r="34.4"/>
		<g>
			<g>
				<path class="st4" d="M194.7,250.2l-3.3-10.9h-0.1c0.1,2.3,0.1,3.7,0.1,4.4v6.5h-2.7v-13.9h4l3.3,10.6l0,0l3.5-10.6h4v13.9h-2.8
					v-6.6c0-0.3,0-0.6,0-1s0-1.5,0.1-3.3h-0.1l-3.5,10.9H194.7z"/>
				<path class="st4" d="M215.3,246.4c0,1.3-0.5,2.3-1.4,2.9c-0.9,0.8-2.2,1.1-3.8,1.1c-1.5,0-2.8-0.3-3.9-0.9v-2.8
					c0.9,0.4,1.8,0.8,2.4,0.9c0.6,0.1,1.3,0.3,1.8,0.3c0.6,0,1.1-0.1,1.5-0.4c0.4-0.3,0.5-0.6,0.5-1.1c0-0.3-0.1-0.5-0.3-0.8
					s-0.4-0.4-0.6-0.6s-0.9-0.5-1.8-0.9c-0.9-0.4-1.5-0.8-1.9-1.1c-0.4-0.4-0.8-0.8-1-1.3c-0.3-0.5-0.4-1-0.4-1.6
					c0-1.3,0.4-2.2,1.3-2.9c0.9-0.8,2-1,3.4-1c0.8,0,1.4,0.1,2,0.3c0.6,0.1,1.4,0.4,2,0.8l-1,2.3c-0.8-0.3-1.4-0.5-1.9-0.6
					c-0.5-0.1-1-0.1-1.4-0.1c-0.5,0-1,0.1-1.3,0.4c-0.3,0.3-0.5,0.6-0.5,1c0,0.3,0,0.5,0.1,0.6c0.1,0.3,0.3,0.4,0.6,0.5
					c0.3,0.1,0.9,0.5,1.9,1c1.3,0.6,2.2,1.3,2.7,1.9C215.1,244.6,215.3,245.4,215.3,246.4z"/>
			</g>
		</g>
	</g>
	<g>
		<path class="st5" d="M260.2,229.3h-5.8l-1.1,2.7H251l5.2-11.6h2.1l5.3,11.6h-2.3L260.2,229.3z M259.5,227.6l-2.2-5.1l-2.2,5.1
			H259.5z"/>
		<path class="st5" d="M278.3,223.1l-3.3,8.9h-2l-2.3-6.1l-2.3,6.1h-2l-3.3-8.9h2l2.3,6.6l2.4-6.6h1.7l2.4,6.6l2.4-6.6H278.3z"/>
		<path class="st5" d="M287.8,228.2h-7c0.1,0.7,0.4,1.2,1,1.6c0.5,0.4,1.2,0.6,1.9,0.6c1,0,1.8-0.3,2.4-1l1.1,1.3
			c-0.4,0.5-0.9,0.8-1.5,1.1c-0.6,0.2-1.3,0.4-2.1,0.4c-1,0-1.8-0.2-2.6-0.6c-0.7-0.4-1.3-0.9-1.7-1.6c-0.4-0.7-0.6-1.5-0.6-2.4
			c0-0.9,0.2-1.6,0.6-2.3s0.9-1.2,1.6-1.6c0.7-0.4,1.5-0.6,2.4-0.6c0.9,0,1.6,0.2,2.3,0.6c0.7,0.4,1.2,0.9,1.6,1.6
			c0.4,0.7,0.6,1.5,0.6,2.4C287.9,227.8,287.9,228,287.8,228.2z M281.7,225.3c-0.5,0.4-0.7,0.9-0.8,1.6h5c-0.1-0.6-0.4-1.2-0.8-1.6
			c-0.5-0.4-1-0.6-1.7-0.6C282.7,224.7,282.2,224.9,281.7,225.3z"/>
		<path class="st5" d="M290.5,231.8c-0.7-0.2-1.2-0.4-1.6-0.7l0.8-1.6c0.4,0.3,0.9,0.5,1.4,0.6c0.6,0.2,1.1,0.2,1.7,0.2
			c1.2,0,1.9-0.3,1.9-1c0-0.3-0.2-0.5-0.5-0.6c-0.3-0.1-0.8-0.2-1.5-0.3c-0.7-0.1-1.3-0.2-1.8-0.4c-0.5-0.1-0.9-0.4-1.2-0.8
			s-0.5-0.9-0.5-1.5c0-0.8,0.4-1.5,1.1-2s1.7-0.8,2.9-0.8c0.6,0,1.2,0.1,1.8,0.2s1.1,0.3,1.5,0.6l-0.8,1.6c-0.8-0.4-1.6-0.7-2.5-0.7
			c-0.6,0-1.1,0.1-1.4,0.3c-0.3,0.2-0.5,0.4-0.5,0.7c0,0.3,0.2,0.6,0.5,0.7c0.3,0.1,0.9,0.3,1.6,0.4c0.7,0.1,1.3,0.2,1.7,0.4
			c0.5,0.1,0.8,0.4,1.2,0.7s0.5,0.8,0.5,1.5c0,0.8-0.4,1.5-1.1,2s-1.7,0.7-2.9,0.7C291.9,232.1,291.2,232,290.5,231.8z"/>
		<path class="st5" d="M300,231.5c-0.7-0.4-1.3-0.9-1.7-1.6c-0.4-0.7-0.6-1.5-0.6-2.4s0.2-1.7,0.6-2.3c0.4-0.7,1-1.2,1.7-1.6
			c0.7-0.4,1.5-0.6,2.4-0.6c0.9,0,1.7,0.2,2.4,0.6c0.7,0.4,1.3,0.9,1.7,1.6s0.6,1.5,0.6,2.3s-0.2,1.7-0.6,2.4
			c-0.4,0.7-1,1.2-1.7,1.6c-0.7,0.4-1.5,0.6-2.4,0.6C301.5,232.1,300.7,231.9,300,231.5z M304.3,229.6c0.5-0.5,0.7-1.2,0.7-2
			s-0.2-1.5-0.7-2c-0.5-0.5-1.1-0.8-1.9-0.8s-1.4,0.3-1.9,0.8c-0.5,0.5-0.7,1.2-0.7,2s0.2,1.5,0.7,2c0.5,0.5,1.1,0.8,1.9,0.8
			S303.8,230.1,304.3,229.6z"/>
		<path class="st5" d="M323,224c0.7,0.6,1,1.6,1,2.9v5.1h-2.1v-4.8c0-0.8-0.2-1.4-0.5-1.8s-0.8-0.6-1.5-0.6c-0.7,0-1.3,0.2-1.7,0.7
			c-0.4,0.5-0.6,1.1-0.6,2v4.5h-2.1v-4.8c0-0.8-0.2-1.4-0.5-1.8c-0.3-0.4-0.8-0.6-1.5-0.6c-0.7,0-1.3,0.2-1.7,0.7
			c-0.4,0.5-0.6,1.1-0.6,2v4.5h-2.1v-8.9h2v1.1c0.3-0.4,0.7-0.7,1.2-0.9c0.5-0.2,1.1-0.3,1.7-0.3c0.7,0,1.3,0.1,1.8,0.4
			c0.5,0.2,0.9,0.6,1.2,1.1c0.4-0.5,0.8-0.8,1.4-1.1c0.6-0.3,1.2-0.4,1.9-0.4C321.5,223,322.4,223.4,323,224z"/>
		<path class="st5" d="M335.1,228.2h-7c0.1,0.7,0.4,1.2,1,1.6c0.5,0.4,1.2,0.6,1.9,0.6c1,0,1.8-0.3,2.4-1l1.1,1.3
			c-0.4,0.5-0.9,0.8-1.5,1.1c-0.6,0.2-1.3,0.4-2.1,0.4c-1,0-1.8-0.2-2.6-0.6c-0.7-0.4-1.3-0.9-1.7-1.6c-0.4-0.7-0.6-1.5-0.6-2.4
			c0-0.9,0.2-1.6,0.6-2.3s0.9-1.2,1.6-1.6c0.7-0.4,1.5-0.6,2.4-0.6c0.9,0,1.6,0.2,2.3,0.6c0.7,0.4,1.2,0.9,1.6,1.6
			c0.4,0.7,0.6,1.5,0.6,2.4C335.1,227.8,335.1,228,335.1,228.2z M328.9,225.3c-0.5,0.4-0.7,0.9-0.8,1.6h5c-0.1-0.6-0.4-1.2-0.8-1.6
			c-0.5-0.4-1-0.6-1.7-0.6C330,224.7,329.4,224.9,328.9,225.3z"/>
		<path class="st5" d="M352.6,232l0-7.7l-3.8,6.4h-1l-3.8-6.3v7.6h-2.1v-11.6h1.8l4.6,7.7l4.5-7.7h1.8l0,11.6H352.6z"/>
		<path class="st5" d="M364,224c0.7,0.6,1,1.6,1,2.8v5.2h-2v-1.1c-0.3,0.4-0.6,0.7-1.1,0.9s-1,0.3-1.7,0.3c-0.7,0-1.2-0.1-1.7-0.3
			c-0.5-0.2-0.9-0.5-1.2-0.9s-0.4-0.9-0.4-1.4c0-0.8,0.3-1.4,0.9-1.9c0.6-0.5,1.5-0.7,2.8-0.7h2.3v-0.1c0-0.6-0.2-1.1-0.6-1.4
			c-0.4-0.3-0.9-0.5-1.7-0.5c-0.5,0-1,0.1-1.5,0.2s-0.9,0.4-1.2,0.6l-0.8-1.5c0.5-0.4,1-0.6,1.7-0.8c0.7-0.2,1.3-0.3,2.1-0.3
			C362.3,223,363.3,223.3,364,224z M362.1,230.3c0.4-0.2,0.7-0.6,0.9-1v-1h-2.1c-1.2,0-1.8,0.4-1.8,1.2c0,0.4,0.1,0.7,0.4,0.9
			s0.7,0.3,1.2,0.3C361.2,230.6,361.7,230.5,362.1,230.3z"/>
		<path class="st5" d="M375.4,224c0.7,0.7,1,1.6,1,2.9v5.1h-2.1v-4.8c0-0.8-0.2-1.4-0.5-1.8c-0.4-0.4-0.9-0.6-1.6-0.6
			c-0.8,0-1.4,0.2-1.8,0.7c-0.4,0.5-0.7,1.1-0.7,2v4.5h-2.1v-8.9h2v1.1c0.3-0.4,0.8-0.7,1.3-0.9c0.5-0.2,1.1-0.3,1.8-0.3
			C373.8,223,374.7,223.4,375.4,224z"/>
		<path class="st5" d="M386.8,224c0.7,0.7,1,1.6,1,2.9v5.1h-2.1v-4.8c0-0.8-0.2-1.4-0.5-1.8c-0.4-0.4-0.9-0.6-1.6-0.6
			c-0.8,0-1.4,0.2-1.8,0.7c-0.4,0.5-0.7,1.1-0.7,2v4.5h-2.1v-12.3h2.1v4.5c0.3-0.4,0.8-0.6,1.3-0.8c0.5-0.2,1.1-0.3,1.7-0.3
			C385.2,223,386.1,223.4,386.8,224z"/>
		<path class="st5" d="M396.9,224c0.7,0.6,1,1.6,1,2.8v5.2h-2v-1.1c-0.3,0.4-0.6,0.7-1.1,0.9s-1,0.3-1.7,0.3c-0.7,0-1.2-0.1-1.7-0.3
			c-0.5-0.2-0.9-0.5-1.2-0.9s-0.4-0.9-0.4-1.4c0-0.8,0.3-1.4,0.9-1.9c0.6-0.5,1.5-0.7,2.8-0.7h2.3v-0.1c0-0.6-0.2-1.1-0.6-1.4
			c-0.4-0.3-0.9-0.5-1.7-0.5c-0.5,0-1,0.1-1.5,0.2s-0.9,0.4-1.2,0.6l-0.8-1.5c0.5-0.4,1-0.6,1.7-0.8c0.7-0.2,1.3-0.3,2.1-0.3
			C395.2,223,396.2,223.3,396.9,224z M395,230.3c0.4-0.2,0.7-0.6,0.9-1v-1h-2.1c-1.2,0-1.8,0.4-1.8,1.2c0,0.4,0.1,0.7,0.4,0.9
			s0.7,0.3,1.2,0.3C394.1,230.6,394.5,230.5,395,230.3z"/>
		<path class="st5" d="M405.9,231.5c-0.2,0.2-0.5,0.3-0.9,0.4c-0.3,0.1-0.7,0.1-1.1,0.1c-1,0-1.7-0.3-2.3-0.8
			c-0.5-0.5-0.8-1.3-0.8-2.2v-4.3h-1.5v-1.7h1.5v-2h2.1v2h2.4v1.7h-2.4v4.2c0,0.4,0.1,0.8,0.3,1c0.2,0.2,0.5,0.3,0.9,0.3
			c0.5,0,0.9-0.1,1.2-0.4L405.9,231.5z"/>
		<path class="st5" d="M412.7,231.5c-0.2,0.2-0.5,0.3-0.9,0.4c-0.3,0.1-0.7,0.1-1.1,0.1c-1,0-1.7-0.3-2.3-0.8
			c-0.5-0.5-0.8-1.3-0.8-2.2v-4.3h-1.5v-1.7h1.5v-2h2.1v2h2.4v1.7h-2.4v4.2c0,0.4,0.1,0.8,0.3,1c0.2,0.2,0.5,0.3,0.9,0.3
			c0.5,0,0.9-0.1,1.2-0.4L412.7,231.5z"/>
		<path class="st5" d="M420.8,224c0.7,0.6,1,1.6,1,2.8v5.2h-2v-1.1c-0.3,0.4-0.6,0.7-1.1,0.9c-0.5,0.2-1,0.3-1.7,0.3
			c-0.7,0-1.2-0.1-1.7-0.3c-0.5-0.2-0.9-0.5-1.2-0.9s-0.4-0.9-0.4-1.4c0-0.8,0.3-1.4,0.9-1.9c0.6-0.5,1.5-0.7,2.8-0.7h2.3v-0.1
			c0-0.6-0.2-1.1-0.6-1.4c-0.4-0.3-0.9-0.5-1.7-0.5c-0.5,0-1,0.1-1.5,0.2s-0.9,0.4-1.2,0.6l-0.8-1.5c0.5-0.4,1-0.6,1.7-0.8
			c0.7-0.2,1.3-0.3,2.1-0.3C419.1,223,420.1,223.3,420.8,224z M418.9,230.3c0.4-0.2,0.7-0.6,0.9-1v-1h-2.1c-1.2,0-1.8,0.4-1.8,1.2
			c0,0.4,0.1,0.7,0.4,0.9s0.7,0.3,1.2,0.3C418.1,230.6,418.5,230.5,418.9,230.3z"/>
		<path class="st5" d="M432.3,224c0.7,0.7,1,1.6,1,2.9v5.1h-2.1v-4.8c0-0.8-0.2-1.4-0.5-1.8c-0.4-0.4-0.9-0.6-1.6-0.6
			c-0.8,0-1.4,0.2-1.8,0.7c-0.4,0.5-0.7,1.1-0.7,2v4.5h-2.1v-8.9h2v1.1c0.3-0.4,0.8-0.7,1.3-0.9c0.5-0.2,1.1-0.3,1.8-0.3
			C430.7,223,431.6,223.4,432.3,224z"/>
		<path class="st5" d="M260.2,249.3h-5.8l-1.1,2.7H251l5.2-11.6h2.1l5.3,11.6h-2.3L260.2,249.3z M259.5,247.6l-2.2-5.1l-2.2,5.1
			H259.5z"/>
		<path class="st5" d="M272.2,243.6c0.7,0.4,1.2,0.9,1.6,1.6c0.4,0.7,0.6,1.5,0.6,2.4c0,0.9-0.2,1.7-0.6,2.4
			c-0.4,0.7-0.9,1.2-1.6,1.6c-0.7,0.4-1.5,0.6-2.3,0.6c-1.2,0-2.1-0.4-2.8-1.2v4.3h-2.1v-12.1h2v1.2c0.3-0.4,0.8-0.7,1.3-0.9
			c0.5-0.2,1.1-0.3,1.7-0.3C270.7,243,271.5,243.2,272.2,243.6z M271.5,249.5c0.5-0.5,0.7-1.2,0.7-2s-0.2-1.5-0.7-2
			c-0.5-0.5-1.1-0.8-1.9-0.8c-0.5,0-0.9,0.1-1.3,0.3c-0.4,0.2-0.7,0.6-0.9,1c-0.2,0.4-0.3,0.9-0.3,1.5c0,0.6,0.1,1,0.3,1.5
			s0.5,0.7,0.9,1c0.4,0.2,0.8,0.3,1.3,0.3C270.4,250.3,271,250,271.5,249.5z"/>
		<path class="st5" d="M283.6,243.6c0.7,0.4,1.2,0.9,1.6,1.6c0.4,0.7,0.6,1.5,0.6,2.4c0,0.9-0.2,1.7-0.6,2.4
			c-0.4,0.7-0.9,1.2-1.6,1.6c-0.7,0.4-1.5,0.6-2.3,0.6c-1.2,0-2.1-0.4-2.8-1.2v4.3h-2.1v-12.1h2v1.2c0.3-0.4,0.8-0.7,1.3-0.9
			c0.5-0.2,1.1-0.3,1.7-0.3C282.1,243,282.9,243.2,283.6,243.6z M282.9,249.5c0.5-0.5,0.7-1.2,0.7-2s-0.2-1.5-0.7-2
			c-0.5-0.5-1.1-0.8-1.9-0.8c-0.5,0-0.9,0.1-1.3,0.3c-0.4,0.2-0.7,0.6-0.9,1c-0.2,0.4-0.3,0.9-0.3,1.5c0,0.6,0.1,1,0.3,1.5
			s0.5,0.7,0.9,1c0.4,0.2,0.8,0.3,1.3,0.3C281.8,250.3,282.4,250,282.9,249.5z"/>
		<path class="st5" d="M294,243.9c0.7,0.6,1,1.6,1,2.8v5.2h-2v-1.1c-0.3,0.4-0.6,0.7-1.1,0.9s-1,0.3-1.7,0.3c-0.7,0-1.2-0.1-1.7-0.3
			c-0.5-0.2-0.9-0.5-1.2-0.9s-0.4-0.9-0.4-1.4c0-0.8,0.3-1.4,0.9-1.9c0.6-0.5,1.5-0.7,2.8-0.7h2.3v-0.1c0-0.6-0.2-1.1-0.6-1.4
			c-0.4-0.3-0.9-0.5-1.7-0.5c-0.5,0-1,0.1-1.5,0.2s-0.9,0.4-1.2,0.6l-0.8-1.5c0.5-0.4,1-0.6,1.7-0.8c0.7-0.2,1.3-0.3,2.1-0.3
			C292.3,243,293.3,243.3,294,243.9z M292.1,250.2c0.4-0.2,0.7-0.6,0.9-1v-1h-2.1c-1.2,0-1.8,0.4-1.8,1.2c0,0.4,0.1,0.7,0.4,0.9
			s0.7,0.3,1.2,0.3C291.3,250.6,291.7,250.5,292.1,250.2z"/>
		<path class="st5" d="M302.9,243v2c-0.2,0-0.3,0-0.5,0c-0.8,0-1.4,0.2-1.9,0.7s-0.7,1.2-0.7,2v4.3h-2.1v-8.9h2v1.3
			C300.3,243.5,301.4,243,302.9,243z"/>
		<path class="st5" d="M310.3,251.5c-0.2,0.2-0.5,0.3-0.9,0.4c-0.3,0.1-0.7,0.1-1.1,0.1c-1,0-1.7-0.3-2.3-0.8
			c-0.5-0.5-0.8-1.3-0.8-2.2v-4.3h-1.5v-1.7h1.5v-2h2.1v2h2.4v1.7h-2.4v4.2c0,0.4,0.1,0.8,0.3,1c0.2,0.2,0.5,0.3,0.9,0.3
			c0.5,0,0.9-0.1,1.2-0.4L310.3,251.5z"/>
		<path class="st5" d="M325.9,244c0.7,0.6,1,1.6,1,2.9v5.1h-2.1v-4.8c0-0.8-0.2-1.4-0.5-1.8s-0.8-0.6-1.5-0.6
			c-0.7,0-1.3,0.2-1.7,0.7c-0.4,0.5-0.6,1.1-0.6,2v4.5h-2.1v-4.8c0-0.8-0.2-1.4-0.5-1.8c-0.3-0.4-0.8-0.6-1.5-0.6
			c-0.7,0-1.3,0.2-1.7,0.7c-0.4,0.5-0.6,1.1-0.6,2v4.5H312v-8.9h2v1.1c0.3-0.4,0.7-0.7,1.2-0.9c0.5-0.2,1.1-0.3,1.7-0.3
			c0.7,0,1.3,0.1,1.8,0.4c0.5,0.2,0.9,0.6,1.2,1.1c0.4-0.5,0.8-0.8,1.4-1.1c0.6-0.3,1.2-0.4,1.9-0.4
			C324.4,243,325.2,243.3,325.9,244z"/>
		<path class="st5" d="M337.9,248.2h-7c0.1,0.7,0.4,1.2,1,1.6c0.5,0.4,1.2,0.6,1.9,0.6c1,0,1.8-0.3,2.4-1l1.1,1.3
			c-0.4,0.5-0.9,0.8-1.5,1.1c-0.6,0.2-1.3,0.4-2.1,0.4c-1,0-1.8-0.2-2.6-0.6c-0.7-0.4-1.3-0.9-1.7-1.6c-0.4-0.7-0.6-1.5-0.6-2.4
			c0-0.9,0.2-1.6,0.6-2.3s0.9-1.2,1.6-1.6c0.7-0.4,1.5-0.6,2.4-0.6c0.9,0,1.6,0.2,2.3,0.6c0.7,0.4,1.2,0.9,1.6,1.6
			c0.4,0.7,0.6,1.5,0.6,2.4C338,247.7,338,247.9,337.9,248.2z M331.8,245.2c-0.5,0.4-0.7,0.9-0.8,1.6h5c-0.1-0.6-0.4-1.2-0.8-1.6
			c-0.5-0.4-1-0.6-1.7-0.6C332.8,244.6,332.2,244.8,331.8,245.2z"/>
		<path class="st5" d="M347.7,244c0.7,0.7,1,1.6,1,2.9v5.1h-2.1v-4.8c0-0.8-0.2-1.4-0.5-1.8c-0.4-0.4-0.9-0.6-1.6-0.6
			c-0.8,0-1.4,0.2-1.8,0.7c-0.4,0.5-0.7,1.1-0.7,2v4.5H340v-8.9h2v1.1c0.3-0.4,0.8-0.7,1.3-0.9c0.5-0.2,1.1-0.3,1.8-0.3
			C346.1,243,347,243.3,347.7,244z"/>
		<path class="st5" d="M356.7,251.5c-0.2,0.2-0.5,0.3-0.9,0.4c-0.3,0.1-0.7,0.1-1.1,0.1c-1,0-1.7-0.3-2.3-0.8
			c-0.5-0.5-0.8-1.3-0.8-2.2v-4.3h-1.5v-1.7h1.5v-2h2.1v2h2.4v1.7h-2.4v4.2c0,0.4,0.1,0.8,0.3,1c0.2,0.2,0.5,0.3,0.9,0.3
			c0.5,0,0.9-0.1,1.2-0.4L356.7,251.5z"/>
	</g>
	<g>
		<path class="st6" d="M501.3,231.5h-2.7l-0.6,1.3h-0.5l2.2-4.8h0.5l2.2,4.8h-0.5L501.3,231.5z M501.2,231.1l-1.2-2.6l-1.2,2.6
			H501.2z"/>
		<path class="st6" d="M504,232.6c-0.4-0.2-0.7-0.5-0.9-0.9c-0.2-0.4-0.3-0.8-0.3-1.3s0.1-0.9,0.3-1.3c0.2-0.4,0.5-0.7,0.9-0.9
			c0.4-0.2,0.8-0.3,1.3-0.3c0.4,0,0.7,0.1,1,0.2c0.3,0.1,0.6,0.3,0.8,0.5l-0.3,0.3c-0.4-0.4-0.9-0.6-1.4-0.6c-0.4,0-0.7,0.1-1,0.3
			c-0.3,0.2-0.6,0.4-0.7,0.7c-0.2,0.3-0.3,0.6-0.3,1s0.1,0.7,0.3,1s0.4,0.5,0.7,0.7c0.3,0.2,0.7,0.3,1,0.3c0.6,0,1.1-0.2,1.4-0.6
			l0.3,0.3c-0.2,0.2-0.5,0.4-0.8,0.5s-0.6,0.2-1,0.2C504.8,232.9,504.4,232.8,504,232.6z"/>
		<path class="st6" d="M508.8,232.6c-0.4-0.2-0.7-0.5-0.9-0.9c-0.2-0.4-0.3-0.8-0.3-1.3s0.1-0.9,0.3-1.3c0.2-0.4,0.5-0.7,0.9-0.9
			c0.4-0.2,0.8-0.3,1.3-0.3c0.4,0,0.7,0.1,1,0.2c0.3,0.1,0.6,0.3,0.8,0.5l-0.3,0.3c-0.4-0.4-0.9-0.6-1.4-0.6c-0.4,0-0.7,0.1-1,0.3
			c-0.3,0.2-0.6,0.4-0.7,0.7c-0.2,0.3-0.3,0.6-0.3,1s0.1,0.7,0.3,1s0.4,0.5,0.7,0.7c0.3,0.2,0.7,0.3,1,0.3c0.6,0,1.1-0.2,1.4-0.6
			l0.3,0.3c-0.2,0.2-0.5,0.4-0.8,0.5s-0.6,0.2-1,0.2C509.7,232.9,509.2,232.8,508.8,232.6z"/>
		<path class="st6" d="M516.4,232.4v0.4H513V228h3.3v0.4h-2.8v1.7h2.5v0.4h-2.5v1.8H516.4z"/>
		<path class="st6" d="M520.9,228.5c0.3,0.3,0.5,0.7,0.5,1.2s-0.2,0.9-0.5,1.2c-0.3,0.3-0.8,0.4-1.4,0.4h-1.3v1.5h-0.5V228h1.8
			C520,228,520.5,228.2,520.9,228.5z M520.5,230.6c0.3-0.2,0.4-0.5,0.4-0.9c0-0.4-0.1-0.7-0.4-0.9s-0.6-0.3-1.1-0.3h-1.3v2.4h1.3
			C519.9,230.9,520.2,230.8,520.5,230.6z"/>
		<path class="st6" d="M523.3,228.5h-1.7V228h3.9v0.4h-1.7v4.4h-0.5V228.5z"/>
		<path class="st6" d="M529.7,232.4v0.4h-3.4V228h3.3v0.4h-2.8v1.7h2.5v0.4h-2.5v1.8H529.7z"/>
		<path class="st6" d="M530.9,228h2c0.5,0,1,0.1,1.3,0.3c0.4,0.2,0.7,0.5,0.9,0.9s0.3,0.8,0.3,1.3c0,0.5-0.1,0.9-0.3,1.3
			c-0.2,0.4-0.5,0.6-0.9,0.9c-0.4,0.2-0.8,0.3-1.3,0.3h-2V228z M532.8,232.4c0.4,0,0.8-0.1,1.1-0.3c0.3-0.2,0.6-0.4,0.7-0.7
			s0.3-0.6,0.3-1s-0.1-0.7-0.3-1c-0.2-0.3-0.4-0.5-0.7-0.7c-0.3-0.2-0.7-0.3-1.1-0.3h-1.4v3.9H532.8z"/>
	</g>
	<g>
		<path class="st6" d="M636.3,228.5c0.3,0.3,0.5,0.7,0.5,1.2s-0.2,0.9-0.5,1.2c-0.3,0.3-0.8,0.4-1.4,0.4h-1.3v1.5H633V228h1.8
			C635.4,228,635.9,228.2,636.3,228.5z M635.9,230.5c0.3-0.2,0.4-0.5,0.4-0.9c0-0.4-0.1-0.7-0.4-0.9s-0.6-0.3-1.1-0.3h-1.3v2.4h1.3
			C635.3,230.9,635.6,230.8,635.9,230.5z"/>
		<path class="st6" d="M641.3,232.4v0.4h-3.4V228h3.3v0.4h-2.8v1.7h2.5v0.4h-2.5v1.8H641.3z"/>
		<path class="st6" d="M643.3,232.6c-0.4-0.2-0.7-0.5-0.9-0.9c-0.2-0.4-0.3-0.8-0.3-1.3s0.1-0.9,0.3-1.3c0.2-0.4,0.5-0.7,0.9-0.9
			s0.8-0.3,1.3-0.3s0.9,0.1,1.3,0.3c0.4,0.2,0.7,0.5,0.9,0.9c0.2,0.4,0.3,0.8,0.3,1.3s-0.1,0.9-0.3,1.3c-0.2,0.4-0.5,0.7-0.9,0.9
			c-0.4,0.2-0.8,0.3-1.3,0.3S643.7,232.8,643.3,232.6z M645.6,232.2c0.3-0.2,0.5-0.4,0.7-0.7c0.2-0.3,0.3-0.6,0.3-1s-0.1-0.7-0.3-1
			c-0.2-0.3-0.4-0.5-0.7-0.7c-0.3-0.2-0.7-0.3-1-0.3c-0.4,0-0.7,0.1-1,0.3c-0.3,0.2-0.6,0.4-0.7,0.7c-0.2,0.3-0.3,0.6-0.3,1
			s0.1,0.7,0.3,1c0.2,0.3,0.4,0.5,0.7,0.7c0.3,0.2,0.7,0.3,1,0.3C645,232.4,645.3,232.3,645.6,232.2z"/>
		<path class="st6" d="M651.5,228.5c0.3,0.3,0.5,0.7,0.5,1.2s-0.2,0.9-0.5,1.2c-0.3,0.3-0.8,0.4-1.4,0.4h-1.3v1.5h-0.5V228h1.8
			C650.7,228,651.1,228.2,651.5,228.5z M651.1,230.5c0.3-0.2,0.4-0.5,0.4-0.9c0-0.4-0.1-0.7-0.4-0.9s-0.6-0.3-1.1-0.3h-1.3v2.4h1.3
			C650.5,230.9,650.9,230.8,651.1,230.5z"/>
		<path class="st6" d="M653.1,228h0.5v4.4h2.7v0.4h-3.2V228z"/>
		<path class="st6" d="M660.6,232.4v0.4h-3.4V228h3.3v0.4h-2.8v1.7h2.5v0.4h-2.5v1.8H660.6z"/>
	</g>
	<g>
		<path class="st7" d="M256.7,262.9c0.5,0.4,0.7,1,0.7,1.7c0,0.7-0.2,1.3-0.7,1.7s-1.2,0.6-2,0.6h-1.6v2h-0.9v-6.6h2.6
			C255.6,262.3,256.2,262.5,256.7,262.9z M256,265.7c0.3-0.3,0.5-0.6,0.5-1.1s-0.2-0.8-0.5-1.1c-0.3-0.3-0.8-0.4-1.4-0.4h-1.6v3h1.6
			C255.3,266.1,255.7,265.9,256,265.7z"/>
		<path class="st7" d="M259.5,268.6c-0.4-0.2-0.7-0.5-0.9-0.9c-0.2-0.4-0.3-0.8-0.3-1.3s0.1-0.9,0.3-1.3c0.2-0.4,0.5-0.7,0.9-0.9
			s0.8-0.3,1.3-0.3s0.9,0.1,1.3,0.3s0.7,0.5,0.9,0.9c0.2,0.4,0.3,0.8,0.3,1.3s-0.1,0.9-0.3,1.3c-0.2,0.4-0.5,0.7-0.9,0.9
			s-0.8,0.3-1.3,0.3S259.9,268.8,259.5,268.6z M261.7,267.9c0.3-0.1,0.5-0.4,0.6-0.6c0.1-0.3,0.2-0.6,0.2-0.9s-0.1-0.7-0.2-0.9
			c-0.1-0.3-0.3-0.5-0.6-0.6c-0.3-0.1-0.5-0.2-0.9-0.2s-0.6,0.1-0.9,0.2c-0.3,0.1-0.5,0.4-0.6,0.6c-0.1,0.3-0.2,0.6-0.2,0.9
			s0.1,0.7,0.2,0.9s0.4,0.5,0.6,0.6c0.3,0.1,0.5,0.2,0.9,0.2S261.5,268.1,261.7,267.9z"/>
		<path class="st7" d="M265,268.8c-0.4-0.1-0.7-0.3-0.9-0.4l0.4-0.7c0.2,0.2,0.5,0.3,0.8,0.4c0.3,0.1,0.6,0.1,1,0.1
			c0.8,0,1.2-0.2,1.2-0.7c0-0.2-0.1-0.3-0.2-0.4c-0.1-0.1-0.2-0.2-0.4-0.2c-0.2,0-0.4-0.1-0.7-0.1c-0.4-0.1-0.7-0.1-1-0.2
			c-0.3-0.1-0.5-0.2-0.7-0.4c-0.2-0.2-0.3-0.5-0.3-0.8c0-0.5,0.2-0.8,0.6-1.1c0.4-0.3,0.9-0.4,1.5-0.4c0.3,0,0.7,0,1,0.1
			c0.3,0.1,0.6,0.2,0.8,0.3l-0.4,0.7c-0.4-0.3-0.9-0.4-1.4-0.4c-0.4,0-0.7,0.1-0.9,0.2c-0.2,0.1-0.3,0.3-0.3,0.5
			c0,0.2,0.1,0.3,0.2,0.4c0.1,0.1,0.3,0.2,0.4,0.2c0.2,0,0.4,0.1,0.7,0.2c0.4,0.1,0.7,0.1,1,0.2c0.2,0.1,0.5,0.2,0.6,0.4
			c0.2,0.2,0.3,0.5,0.3,0.8c0,0.5-0.2,0.8-0.6,1.1c-0.4,0.3-0.9,0.4-1.6,0.4C265.7,268.9,265.3,268.9,265,268.8z"/>
		<path class="st7" d="M272.3,268.6c-0.1,0.1-0.3,0.2-0.5,0.3s-0.4,0.1-0.6,0.1c-0.5,0-0.9-0.1-1.2-0.4c-0.3-0.3-0.4-0.7-0.4-1.2
			v-2.8h-0.9v-0.7h0.9v-1.1h0.9v1.1h1.4v0.7h-1.4v2.7c0,0.3,0.1,0.5,0.2,0.6c0.1,0.1,0.3,0.2,0.6,0.2c0.3,0,0.5-0.1,0.7-0.2
			L272.3,268.6z"/>
		<path class="st7" d="M277.7,266.7h-4.1c0.1,0.4,0.3,0.8,0.6,1.1c0.3,0.3,0.7,0.4,1.2,0.4c0.6,0,1.1-0.2,1.4-0.6l0.5,0.6
			c-0.2,0.3-0.5,0.5-0.8,0.6c-0.3,0.1-0.7,0.2-1.1,0.2c-0.5,0-1-0.1-1.4-0.3c-0.4-0.2-0.7-0.5-1-0.9c-0.2-0.4-0.3-0.8-0.3-1.3
			c0-0.5,0.1-0.9,0.3-1.3s0.5-0.7,0.9-0.9s0.8-0.3,1.3-0.3s0.9,0.1,1.3,0.3s0.7,0.5,0.9,0.9s0.3,0.8,0.3,1.3
			C277.7,266.5,277.7,266.6,277.7,266.7z M274.2,265c-0.3,0.3-0.5,0.6-0.5,1h3.2c-0.1-0.4-0.2-0.8-0.5-1c-0.3-0.3-0.7-0.4-1.1-0.4
			S274.5,264.7,274.2,265z"/>
		<path class="st7" d="M283.7,261.9v7h-0.9v-0.8c-0.2,0.3-0.5,0.5-0.8,0.6c-0.3,0.1-0.6,0.2-1,0.2c-0.5,0-0.9-0.1-1.3-0.3
			c-0.4-0.2-0.7-0.5-0.9-0.9s-0.3-0.8-0.3-1.3s0.1-0.9,0.3-1.3c0.2-0.4,0.5-0.7,0.9-0.9c0.4-0.2,0.8-0.3,1.3-0.3
			c0.4,0,0.7,0.1,1,0.2c0.3,0.1,0.6,0.3,0.8,0.6v-2.8H283.7z M282,267.9c0.3-0.1,0.5-0.4,0.6-0.6c0.1-0.3,0.2-0.6,0.2-0.9
			s-0.1-0.7-0.2-0.9c-0.1-0.3-0.3-0.5-0.6-0.6c-0.3-0.1-0.5-0.2-0.9-0.2c-0.3,0-0.6,0.1-0.9,0.2c-0.3,0.1-0.5,0.4-0.6,0.6
			c-0.1,0.3-0.2,0.6-0.2,0.9s0.1,0.7,0.2,0.9s0.4,0.5,0.6,0.6c0.3,0.1,0.5,0.2,0.9,0.2C281.5,268.2,281.7,268.1,282,267.9z"/>
		<path class="st7" d="M292.2,268.1v0.8h-4.8v-0.6l2.7-2.6c0.3-0.3,0.5-0.6,0.7-0.8c0.1-0.2,0.2-0.5,0.2-0.7c0-0.3-0.1-0.6-0.4-0.8
			c-0.2-0.2-0.6-0.3-1-0.3c-0.7,0-1.3,0.2-1.7,0.7l-0.6-0.6c0.3-0.3,0.6-0.6,1-0.7c0.4-0.2,0.9-0.3,1.4-0.3c0.7,0,1.2,0.2,1.7,0.5
			c0.4,0.3,0.6,0.8,0.6,1.3c0,0.4-0.1,0.7-0.2,1s-0.4,0.7-0.9,1.1l-2,1.9H292.2z"/>
		<path class="st7" d="M300.2,264.4c0.4,0.4,0.6,0.9,0.6,1.6v2.9h-0.9v-2.8c0-0.5-0.1-0.9-0.4-1.1s-0.6-0.4-1-0.4
			c-0.5,0-0.9,0.1-1.2,0.4c-0.3,0.3-0.4,0.7-0.4,1.2v2.6H296v-7h0.9v2.7c0.2-0.2,0.4-0.4,0.7-0.6c0.3-0.1,0.6-0.2,1-0.2
			C299.3,263.8,299.8,264,300.2,264.4z"/>
		<path class="st7" d="M303.3,268.6c-0.4-0.2-0.7-0.5-0.9-0.9c-0.2-0.4-0.3-0.8-0.3-1.3s0.1-0.9,0.3-1.3c0.2-0.4,0.5-0.7,0.9-0.9
			s0.8-0.3,1.3-0.3s0.9,0.1,1.3,0.3s0.7,0.5,0.9,0.9c0.2,0.4,0.3,0.8,0.3,1.3s-0.1,0.9-0.3,1.3c-0.2,0.4-0.5,0.7-0.9,0.9
			s-0.8,0.3-1.3,0.3S303.7,268.8,303.3,268.6z M305.5,267.9c0.3-0.1,0.5-0.4,0.6-0.6c0.1-0.3,0.2-0.6,0.2-0.9s-0.1-0.7-0.2-0.9
			c-0.1-0.3-0.3-0.5-0.6-0.6c-0.3-0.1-0.5-0.2-0.9-0.2s-0.6,0.1-0.9,0.2c-0.3,0.1-0.5,0.4-0.6,0.6c-0.1,0.3-0.2,0.6-0.2,0.9
			s0.1,0.7,0.2,0.9s0.4,0.5,0.6,0.6c0.3,0.1,0.5,0.2,0.9,0.2S305.2,268.1,305.5,267.9z"/>
		<path class="st7" d="M313.1,263.9v5h-0.9v-0.8c-0.2,0.3-0.4,0.5-0.7,0.6c-0.3,0.1-0.6,0.2-1,0.2c-0.7,0-1.2-0.2-1.6-0.6
			c-0.4-0.4-0.6-0.9-0.6-1.6v-2.9h0.9v2.8c0,0.5,0.1,0.9,0.4,1.1c0.2,0.2,0.6,0.4,1,0.4c0.5,0,0.9-0.1,1.1-0.4
			c0.3-0.3,0.4-0.7,0.4-1.2v-2.6H313.1z"/>
		<path class="st7" d="M316.4,264.1c0.3-0.2,0.7-0.2,1.1-0.2v0.9c-0.1,0-0.1,0-0.2,0c-0.5,0-0.9,0.1-1.2,0.4s-0.4,0.7-0.4,1.3v2.5
			h-0.9v-5h0.9v0.8C315.9,264.4,316.1,264.2,316.4,264.1z"/>
		<path class="st7" d="M319,268.8c-0.4-0.1-0.7-0.3-0.9-0.4l0.4-0.7c0.2,0.2,0.5,0.3,0.8,0.4c0.3,0.1,0.6,0.1,1,0.1
			c0.8,0,1.2-0.2,1.2-0.7c0-0.2-0.1-0.3-0.2-0.4c-0.1-0.1-0.2-0.2-0.4-0.2c-0.2,0-0.4-0.1-0.7-0.1c-0.4-0.1-0.7-0.1-1-0.2
			c-0.3-0.1-0.5-0.2-0.7-0.4c-0.2-0.2-0.3-0.5-0.3-0.8c0-0.5,0.2-0.8,0.6-1.1c0.4-0.3,0.9-0.4,1.5-0.4c0.3,0,0.7,0,1,0.1
			c0.3,0.1,0.6,0.2,0.8,0.3l-0.4,0.7c-0.4-0.3-0.9-0.4-1.4-0.4c-0.4,0-0.7,0.1-0.9,0.2c-0.2,0.1-0.3,0.3-0.3,0.5
			c0,0.2,0.1,0.3,0.2,0.4c0.1,0.1,0.3,0.2,0.4,0.2c0.2,0,0.4,0.1,0.7,0.2c0.4,0.1,0.7,0.1,1,0.2c0.2,0.1,0.5,0.2,0.6,0.4
			c0.2,0.2,0.3,0.5,0.3,0.8c0,0.5-0.2,0.8-0.6,1.1c-0.4,0.3-0.9,0.4-1.6,0.4C319.8,268.9,319.4,268.9,319,268.8z"/>
		<path class="st7" d="M329.4,264.3c0.4,0.3,0.6,0.8,0.6,1.5v3h-0.9v-0.7c-0.2,0.2-0.4,0.4-0.6,0.5s-0.6,0.2-1,0.2
			c-0.6,0-1-0.1-1.3-0.4c-0.3-0.3-0.5-0.6-0.5-1.1c0-0.4,0.2-0.8,0.5-1.1c0.3-0.3,0.8-0.4,1.5-0.4h1.4v-0.2c0-0.4-0.1-0.7-0.3-0.9
			c-0.2-0.2-0.6-0.3-1-0.3c-0.3,0-0.6,0-0.9,0.1s-0.5,0.2-0.7,0.4l-0.4-0.7c0.3-0.2,0.6-0.4,0.9-0.5s0.7-0.2,1.1-0.2
			C328.5,263.8,329.1,264,329.4,264.3z M328.5,268c0.3-0.2,0.4-0.4,0.5-0.7v-0.7h-1.4c-0.8,0-1.2,0.3-1.2,0.8c0,0.3,0.1,0.5,0.3,0.6
			c0.2,0.1,0.5,0.2,0.8,0.2S328.3,268.2,328.5,268z"/>
		<path class="st7" d="M336.5,263.9v4.3c0,0.9-0.2,1.5-0.7,1.9c-0.4,0.4-1.1,0.6-1.9,0.6c-0.5,0-0.9-0.1-1.4-0.2
			c-0.4-0.1-0.8-0.3-1-0.6l0.4-0.7c0.2,0.2,0.5,0.4,0.9,0.5c0.3,0.1,0.7,0.2,1.1,0.2c0.6,0,1-0.1,1.3-0.4c0.3-0.3,0.4-0.7,0.4-1.3
			v-0.4c-0.2,0.3-0.5,0.5-0.8,0.6s-0.7,0.2-1,0.2c-0.5,0-0.9-0.1-1.3-0.3c-0.4-0.2-0.7-0.5-0.9-0.9c-0.2-0.4-0.3-0.8-0.3-1.3
			c0-0.5,0.1-0.9,0.3-1.3c0.2-0.4,0.5-0.7,0.9-0.9c0.4-0.2,0.8-0.3,1.3-0.3c0.4,0,0.7,0.1,1.1,0.2c0.3,0.1,0.6,0.3,0.8,0.6v-0.8
			H336.5z M334.8,267.7c0.3-0.1,0.5-0.3,0.6-0.6c0.1-0.2,0.2-0.5,0.2-0.8c0-0.5-0.2-0.9-0.5-1.2s-0.7-0.4-1.2-0.4
			c-0.5,0-0.9,0.1-1.2,0.4c-0.3,0.3-0.5,0.7-0.5,1.2c0,0.3,0.1,0.6,0.2,0.8c0.1,0.2,0.4,0.4,0.6,0.6c0.3,0.1,0.6,0.2,0.9,0.2
			C334.2,267.9,334.5,267.8,334.8,267.7z"/>
		<path class="st7" d="M339,268.6c-0.4-0.2-0.7-0.5-0.9-0.9c-0.2-0.4-0.3-0.8-0.3-1.3s0.1-0.9,0.3-1.3c0.2-0.4,0.5-0.7,0.9-0.9
			s0.8-0.3,1.3-0.3s0.9,0.1,1.3,0.3s0.7,0.5,0.9,0.9c0.2,0.4,0.3,0.8,0.3,1.3s-0.1,0.9-0.3,1.3c-0.2,0.4-0.5,0.7-0.9,0.9
			s-0.8,0.3-1.3,0.3S339.4,268.8,339,268.6z M341.2,267.9c0.3-0.1,0.5-0.4,0.6-0.6c0.1-0.3,0.2-0.6,0.2-0.9s-0.1-0.7-0.2-0.9
			c-0.1-0.3-0.3-0.5-0.6-0.6c-0.3-0.1-0.5-0.2-0.9-0.2s-0.6,0.1-0.9,0.2c-0.3,0.1-0.5,0.4-0.6,0.6c-0.1,0.3-0.2,0.6-0.2,0.9
			s0.1,0.7,0.2,0.9s0.4,0.5,0.6,0.6c0.3,0.1,0.5,0.2,0.9,0.2S341,268.1,341.2,267.9z"/>
	</g>
	<g>
		
			<image style="overflow:visible;opacity:0.12;" width="623" height="153" xlink:href="260FA8E5.png"  transform="matrix(1 0 0 1 133 324)">
		</image>
		<g>
			<path class="st1" d="M723.4,455.7H160.8c-7.8,0-14.1-6.3-14.1-14.1v-91.9c0-7.8,6.3-14.1,14.1-14.1h562.7
				c7.8,0,14.1,6.3,14.1,14.1v91.9C737.6,449.4,731.3,455.7,723.4,455.7z"/>
			<path class="st2" d="M723.4,455.7H160.8c-7.8,0-14.1-6.3-14.1-14.1v-91.9c0-7.8,6.3-14.1,14.1-14.1h562.7
				c7.8,0,14.1,6.3,14.1,14.1v91.9C737.6,449.4,731.3,455.7,723.4,455.7z"/>
		</g>
	</g>
	<g>
		<path class="st5" d="M258.4,381c-0.8-0.3-1.5-0.6-2-1l0.7-1.7c0.5,0.4,1.1,0.7,1.8,0.9s1.4,0.4,2.1,0.4c0.9,0,1.5-0.1,1.9-0.4
			c0.4-0.3,0.6-0.6,0.6-1.1c0-0.3-0.1-0.6-0.4-0.8c-0.2-0.2-0.5-0.4-0.9-0.5s-0.9-0.3-1.5-0.4c-0.9-0.2-1.6-0.4-2.2-0.6
			s-1-0.5-1.4-1s-0.6-1.1-0.6-1.8c0-0.6,0.2-1.2,0.5-1.8c0.3-0.5,0.9-0.9,1.6-1.3c0.7-0.3,1.6-0.5,2.6-0.5c0.7,0,1.4,0.1,2.1,0.3
			s1.3,0.4,1.8,0.8l-0.7,1.7c-0.5-0.3-1-0.5-1.6-0.7c-0.6-0.2-1.1-0.2-1.6-0.2c-0.9,0-1.5,0.1-1.9,0.4c-0.4,0.3-0.6,0.7-0.6,1.1
			c0,0.3,0.1,0.6,0.4,0.8c0.2,0.2,0.5,0.4,0.9,0.5c0.4,0.1,0.9,0.3,1.5,0.4c0.9,0.2,1.6,0.4,2.1,0.6c0.6,0.2,1,0.5,1.4,1
			c0.4,0.4,0.6,1,0.6,1.8c0,0.6-0.2,1.2-0.5,1.7c-0.3,0.5-0.9,0.9-1.6,1.2c-0.7,0.3-1.6,0.5-2.6,0.5
			C260.1,381.4,259.2,381.3,258.4,381z"/>
		<path class="st5" d="M275.9,377.5h-7c0.1,0.7,0.4,1.2,1,1.6c0.5,0.4,1.2,0.6,1.9,0.6c1,0,1.8-0.3,2.4-1l1.1,1.3
			c-0.4,0.5-0.9,0.8-1.5,1.1c-0.6,0.2-1.3,0.4-2.1,0.4c-1,0-1.8-0.2-2.6-0.6c-0.7-0.4-1.3-0.9-1.7-1.6c-0.4-0.7-0.6-1.5-0.6-2.4
			c0-0.9,0.2-1.6,0.6-2.3s0.9-1.2,1.6-1.6c0.7-0.4,1.5-0.6,2.4-0.6c0.9,0,1.6,0.2,2.3,0.6c0.7,0.4,1.2,0.9,1.6,1.6
			c0.4,0.7,0.6,1.5,0.6,2.4C276,377,275.9,377.2,275.9,377.5z M269.8,374.5c-0.5,0.4-0.7,0.9-0.8,1.6h5c-0.1-0.6-0.4-1.2-0.8-1.6
			c-0.5-0.4-1-0.6-1.7-0.6C270.8,373.9,270.2,374.1,269.8,374.5z"/>
		<path class="st5" d="M279.6,380.8c-0.7-0.4-1.3-0.9-1.7-1.6c-0.4-0.7-0.6-1.5-0.6-2.4s0.2-1.7,0.6-2.3c0.4-0.7,1-1.2,1.7-1.6
			c0.7-0.4,1.6-0.6,2.5-0.6c0.9,0,1.6,0.2,2.3,0.5s1.2,0.9,1.5,1.5l-1.6,0.9c-0.3-0.4-0.6-0.7-1-0.9c-0.4-0.2-0.8-0.3-1.3-0.3
			c-0.8,0-1.4,0.3-1.9,0.8c-0.5,0.5-0.8,1.2-0.8,2s0.3,1.5,0.8,2c0.5,0.5,1.1,0.8,1.9,0.8c0.5,0,0.9-0.1,1.3-0.3
			c0.4-0.2,0.7-0.5,1-0.9l1.6,0.9c-0.3,0.7-0.8,1.2-1.5,1.5c-0.7,0.4-1.4,0.5-2.3,0.5C281.1,381.3,280.3,381.2,279.6,380.8z"/>
		<path class="st5" d="M289,380.8c-0.7-0.4-1.3-0.9-1.7-1.6c-0.4-0.7-0.6-1.5-0.6-2.4s0.2-1.7,0.6-2.3c0.4-0.7,1-1.2,1.7-1.6
			c0.7-0.4,1.5-0.6,2.4-0.6c0.9,0,1.7,0.2,2.4,0.6c0.7,0.4,1.3,0.9,1.7,1.6s0.6,1.5,0.6,2.3s-0.2,1.7-0.6,2.4
			c-0.4,0.7-1,1.2-1.7,1.6c-0.7,0.4-1.5,0.6-2.4,0.6C290.6,381.3,289.8,381.2,289,380.8z M293.4,378.8c0.5-0.5,0.7-1.2,0.7-2
			s-0.2-1.5-0.7-2c-0.5-0.5-1.1-0.8-1.9-0.8s-1.4,0.3-1.9,0.8c-0.5,0.5-0.7,1.2-0.7,2s0.2,1.5,0.7,2c0.5,0.5,1.1,0.8,1.9,0.8
			S292.9,379.3,293.4,378.8z"/>
		<path class="st5" d="M305.9,373.2c0.7,0.7,1,1.6,1,2.9v5.1h-2.1v-4.8c0-0.8-0.2-1.4-0.5-1.8c-0.4-0.4-0.9-0.6-1.6-0.6
			c-0.8,0-1.4,0.2-1.8,0.7c-0.4,0.5-0.7,1.1-0.7,2v4.5h-2.1v-8.9h2v1.1c0.3-0.4,0.8-0.7,1.3-0.9c0.5-0.2,1.1-0.3,1.8-0.3
			C304.4,372.3,305.3,372.6,305.9,373.2z"/>
		<path class="st5" d="M318.4,368.9v12.3h-2v-1.1c-0.3,0.4-0.8,0.7-1.3,0.9c-0.5,0.2-1.1,0.3-1.7,0.3c-0.9,0-1.6-0.2-2.3-0.6
			c-0.7-0.4-1.2-0.9-1.6-1.6c-0.4-0.7-0.6-1.5-0.6-2.4c0-0.9,0.2-1.7,0.6-2.4s0.9-1.2,1.6-1.6c0.7-0.4,1.4-0.6,2.3-0.6
			c0.6,0,1.1,0.1,1.6,0.3c0.5,0.2,0.9,0.5,1.2,0.9v-4.6H318.4z M315,379.2c0.4-0.2,0.7-0.6,0.9-1s0.3-0.9,0.3-1.5
			c0-0.6-0.1-1-0.3-1.5c-0.2-0.4-0.5-0.7-0.9-1c-0.4-0.2-0.8-0.3-1.3-0.3s-0.9,0.1-1.3,0.3c-0.4,0.2-0.7,0.6-0.9,1
			c-0.2,0.4-0.3,0.9-0.3,1.5c0,0.6,0.1,1,0.3,1.5s0.5,0.7,0.9,1c0.4,0.2,0.8,0.3,1.3,0.3S314.6,379.5,315,379.2z"/>
		<path class="st5" d="M333.4,373.2c0.7,0.7,1,1.6,1,2.9v5.1h-2.1v-4.8c0-0.8-0.2-1.4-0.5-1.8c-0.4-0.4-0.9-0.6-1.6-0.6
			c-0.8,0-1.4,0.2-1.8,0.7c-0.4,0.5-0.7,1.1-0.7,2v4.5h-2.1v-12.3h2.1v4.5c0.3-0.4,0.8-0.6,1.3-0.8c0.5-0.2,1.1-0.3,1.7-0.3
			C331.9,372.3,332.8,372.6,333.4,373.2z"/>
		<path class="st5" d="M343.5,373.2c0.7,0.6,1,1.6,1,2.8v5.2h-2v-1.1c-0.3,0.4-0.6,0.7-1.1,0.9s-1,0.3-1.7,0.3
			c-0.7,0-1.2-0.1-1.7-0.3c-0.5-0.2-0.9-0.5-1.2-0.9s-0.4-0.9-0.4-1.4c0-0.8,0.3-1.4,0.9-1.9c0.6-0.5,1.5-0.7,2.8-0.7h2.3v-0.1
			c0-0.6-0.2-1.1-0.6-1.4c-0.4-0.3-0.9-0.5-1.7-0.5c-0.5,0-1,0.1-1.5,0.2s-0.9,0.4-1.2,0.6l-0.8-1.5c0.5-0.4,1-0.6,1.7-0.8
			c0.7-0.2,1.3-0.3,2.1-0.3C341.8,372.3,342.8,372.6,343.5,373.2z M341.6,379.5c0.4-0.2,0.7-0.6,0.9-1v-1h-2.1
			c-1.2,0-1.8,0.4-1.8,1.2c0,0.4,0.1,0.7,0.4,0.9s0.7,0.3,1.2,0.3C340.7,379.8,341.2,379.7,341.6,379.5z"/>
		<path class="st5" d="M354.9,373.2c0.7,0.7,1,1.6,1,2.9v5.1h-2.1v-4.8c0-0.8-0.2-1.4-0.5-1.8c-0.4-0.4-0.9-0.6-1.6-0.6
			c-0.8,0-1.4,0.2-1.8,0.7c-0.4,0.5-0.7,1.1-0.7,2v4.5h-2.1v-8.9h2v1.1c0.3-0.4,0.8-0.7,1.3-0.9c0.5-0.2,1.1-0.3,1.8-0.3
			C353.4,372.3,354.2,372.6,354.9,373.2z"/>
		<path class="st5" d="M367.4,368.9v12.3h-2v-1.1c-0.3,0.4-0.8,0.7-1.3,0.9c-0.5,0.2-1.1,0.3-1.7,0.3c-0.9,0-1.6-0.2-2.3-0.6
			c-0.7-0.4-1.2-0.9-1.6-1.6c-0.4-0.7-0.6-1.5-0.6-2.4c0-0.9,0.2-1.7,0.6-2.4s0.9-1.2,1.6-1.6c0.7-0.4,1.4-0.6,2.3-0.6
			c0.6,0,1.1,0.1,1.6,0.3c0.5,0.2,0.9,0.5,1.2,0.9v-4.6H367.4z M364,379.2c0.4-0.2,0.7-0.6,0.9-1s0.3-0.9,0.3-1.5
			c0-0.6-0.1-1-0.3-1.5c-0.2-0.4-0.5-0.7-0.9-1c-0.4-0.2-0.8-0.3-1.3-0.3s-0.9,0.1-1.3,0.3c-0.4,0.2-0.7,0.6-0.9,1
			c-0.2,0.4-0.3,0.9-0.3,1.5c0,0.6,0.1,1,0.3,1.5s0.5,0.7,0.9,1c0.4,0.2,0.8,0.3,1.3,0.3S363.6,379.5,364,379.2z"/>
		<path class="st5" d="M375.3,381.1c-0.7-0.2-1.2-0.4-1.6-0.7l0.8-1.6c0.4,0.3,0.9,0.5,1.4,0.6c0.6,0.2,1.1,0.2,1.7,0.2
			c1.2,0,1.9-0.3,1.9-1c0-0.3-0.2-0.5-0.5-0.6c-0.3-0.1-0.8-0.2-1.5-0.3c-0.7-0.1-1.3-0.2-1.8-0.4c-0.5-0.1-0.9-0.4-1.2-0.8
			s-0.5-0.9-0.5-1.5c0-0.8,0.4-1.5,1.1-2s1.7-0.8,2.9-0.8c0.6,0,1.2,0.1,1.8,0.2s1.1,0.3,1.5,0.6l-0.8,1.6c-0.8-0.4-1.6-0.7-2.5-0.7
			c-0.6,0-1.1,0.1-1.4,0.3c-0.3,0.2-0.5,0.4-0.5,0.7c0,0.3,0.2,0.6,0.5,0.7c0.3,0.1,0.9,0.3,1.6,0.4c0.7,0.1,1.3,0.2,1.7,0.4
			c0.5,0.1,0.8,0.4,1.2,0.7s0.5,0.8,0.5,1.5c0,0.8-0.4,1.5-1.1,2s-1.7,0.7-2.9,0.7C376.7,381.3,376,381.3,375.3,381.1z"/>
		<path class="st5" d="M383.3,370.5c-0.3-0.2-0.4-0.5-0.4-0.9c0-0.4,0.1-0.7,0.4-0.9c0.3-0.2,0.6-0.4,0.9-0.4s0.7,0.1,0.9,0.3
			c0.3,0.2,0.4,0.5,0.4,0.9c0,0.4-0.1,0.7-0.4,0.9c-0.2,0.2-0.6,0.4-1,0.4C383.9,370.9,383.6,370.8,383.3,370.5z M383.2,372.4h2.1
			v8.9h-2.1V372.4z"/>
		<path class="st5" d="M396.9,372.4v7.5c0,3.1-1.6,4.7-4.8,4.7c-0.9,0-1.7-0.1-2.4-0.3s-1.4-0.5-1.9-0.9l0.9-1.6
			c0.4,0.3,0.9,0.6,1.5,0.8c0.6,0.2,1.2,0.3,1.8,0.3c1,0,1.7-0.2,2.1-0.7s0.7-1.1,0.7-2v-0.5c-0.4,0.4-0.8,0.7-1.3,0.9
			c-0.5,0.2-1.1,0.3-1.7,0.3c-0.8,0-1.6-0.2-2.3-0.5c-0.7-0.4-1.2-0.9-1.6-1.5s-0.6-1.4-0.6-2.2s0.2-1.6,0.6-2.2
			c0.4-0.6,0.9-1.1,1.6-1.5c0.7-0.4,1.4-0.5,2.3-0.5c0.6,0,1.2,0.1,1.8,0.3c0.5,0.2,1,0.5,1.3,1v-1.2H396.9z M394.1,378.4
			c0.5-0.5,0.8-1.1,0.8-1.8c0-0.7-0.3-1.3-0.8-1.8s-1.2-0.7-1.9-0.7c-0.8,0-1.4,0.2-2,0.7c-0.5,0.5-0.8,1.1-0.8,1.8
			c0,0.8,0.3,1.4,0.8,1.8c0.5,0.5,1.2,0.7,2,0.7C392.9,379.1,393.6,378.8,394.1,378.4z"/>
		<path class="st5" d="M407.3,373.2c0.7,0.7,1,1.6,1,2.9v5.1h-2.1v-4.8c0-0.8-0.2-1.4-0.5-1.8c-0.4-0.4-0.9-0.6-1.6-0.6
			c-0.8,0-1.4,0.2-1.8,0.7c-0.4,0.5-0.7,1.1-0.7,2v4.5h-2.1v-8.9h2v1.1c0.3-0.4,0.8-0.7,1.3-0.9c0.5-0.2,1.1-0.3,1.8-0.3
			C405.8,372.3,406.7,372.6,407.3,373.2z"/>
		<path class="st5" d="M417.4,373.2c0.7,0.6,1,1.6,1,2.8v5.2h-2v-1.1c-0.3,0.4-0.6,0.7-1.1,0.9s-1,0.3-1.7,0.3
			c-0.7,0-1.2-0.1-1.7-0.3c-0.5-0.2-0.9-0.5-1.2-0.9s-0.4-0.9-0.4-1.4c0-0.8,0.3-1.4,0.9-1.9c0.6-0.5,1.5-0.7,2.8-0.7h2.3v-0.1
			c0-0.6-0.2-1.1-0.6-1.4c-0.4-0.3-0.9-0.5-1.7-0.5c-0.5,0-1,0.1-1.5,0.2s-0.9,0.4-1.2,0.6l-0.8-1.5c0.5-0.4,1-0.6,1.7-0.8
			c0.7-0.2,1.3-0.3,2.1-0.3C415.7,372.3,416.7,372.6,417.4,373.2z M415.5,379.5c0.4-0.2,0.7-0.6,0.9-1v-1h-2.1
			c-1.2,0-1.8,0.4-1.8,1.2c0,0.4,0.1,0.7,0.4,0.9s0.7,0.3,1.2,0.3C414.6,379.8,415.1,379.7,415.5,379.5z"/>
		<path class="st5" d="M426.4,380.8c-0.2,0.2-0.5,0.3-0.9,0.4c-0.3,0.1-0.7,0.1-1.1,0.1c-1,0-1.7-0.3-2.3-0.8
			c-0.5-0.5-0.8-1.3-0.8-2.2v-4.3h-1.5v-1.7h1.5v-2h2.1v2h2.4v1.7h-2.4v4.2c0,0.4,0.1,0.8,0.3,1c0.2,0.2,0.5,0.3,0.9,0.3
			c0.5,0,0.9-0.1,1.2-0.4L426.4,380.8z"/>
		<path class="st5" d="M436.7,372.4v8.9h-2v-1.1c-0.3,0.4-0.7,0.7-1.2,0.9s-1,0.3-1.6,0.3c-1.2,0-2.1-0.3-2.8-1s-1-1.6-1-2.9v-5.1
			h2.1v4.8c0,0.8,0.2,1.4,0.5,1.8s0.9,0.6,1.5,0.6c0.7,0,1.3-0.2,1.8-0.7c0.4-0.5,0.7-1.1,0.7-2v-4.5H436.7z"/>
		<path class="st5" d="M444.6,372.3v2c-0.2,0-0.3,0-0.5,0c-0.8,0-1.4,0.2-1.9,0.7c-0.5,0.5-0.7,1.2-0.7,2v4.3h-2.1v-8.9h2v1.3
			C442,372.7,443.1,372.3,444.6,372.3z"/>
		<path class="st5" d="M454.6,377.5h-7c0.1,0.7,0.4,1.2,1,1.6c0.5,0.4,1.2,0.6,1.9,0.6c1,0,1.8-0.3,2.4-1l1.1,1.3
			c-0.4,0.5-0.9,0.8-1.5,1.1c-0.6,0.2-1.3,0.4-2.1,0.4c-1,0-1.8-0.2-2.6-0.6c-0.7-0.4-1.3-0.9-1.7-1.6c-0.4-0.7-0.6-1.5-0.6-2.4
			c0-0.9,0.2-1.6,0.6-2.3s0.9-1.2,1.6-1.6c0.7-0.4,1.5-0.6,2.4-0.6c0.9,0,1.6,0.2,2.3,0.6c0.7,0.4,1.2,0.9,1.6,1.6
			c0.4,0.7,0.6,1.5,0.6,2.4C454.6,377,454.6,377.2,454.6,377.5z M448.5,374.5c-0.5,0.4-0.7,0.9-0.8,1.6h5c-0.1-0.6-0.4-1.2-0.8-1.6
			c-0.5-0.4-1-0.6-1.7-0.6C449.5,373.9,448.9,374.1,448.5,374.5z"/>
		<path class="st5" d="M258.7,400.7c-0.7-0.4-1.3-0.9-1.7-1.6c-0.4-0.7-0.6-1.5-0.6-2.4s0.2-1.7,0.6-2.3c0.4-0.7,1-1.2,1.7-1.6
			c0.7-0.4,1.6-0.6,2.5-0.6c0.9,0,1.6,0.2,2.3,0.5s1.2,0.9,1.5,1.5l-1.6,0.9c-0.3-0.4-0.6-0.7-1-0.9c-0.4-0.2-0.8-0.3-1.3-0.3
			c-0.8,0-1.4,0.3-1.9,0.8c-0.5,0.5-0.8,1.2-0.8,2s0.3,1.5,0.8,2c0.5,0.5,1.1,0.8,1.9,0.8c0.5,0,0.9-0.1,1.3-0.3
			c0.4-0.2,0.7-0.5,1-0.9l1.6,0.9c-0.3,0.7-0.8,1.2-1.5,1.5s-1.4,0.5-2.3,0.5C260.3,401.3,259.5,401.1,258.7,400.7z"/>
		<path class="st5" d="M266.7,388.9h2.1v12.3h-2.1V388.9z"/>
		<path class="st5" d="M273.1,400.7c-0.7-0.4-1.3-0.9-1.7-1.6c-0.4-0.7-0.6-1.5-0.6-2.4s0.2-1.7,0.6-2.3c0.4-0.7,1-1.2,1.7-1.6
			c0.7-0.4,1.5-0.6,2.4-0.6c0.9,0,1.7,0.2,2.4,0.6c0.7,0.4,1.3,0.9,1.7,1.6s0.6,1.5,0.6,2.3s-0.2,1.7-0.6,2.4s-1,1.2-1.7,1.6
			c-0.7,0.4-1.5,0.6-2.4,0.6C274.6,401.3,273.8,401.1,273.1,400.7z M277.4,398.8c0.5-0.5,0.7-1.2,0.7-2c0-0.8-0.2-1.5-0.7-2
			c-0.5-0.5-1.1-0.8-1.9-0.8s-1.4,0.3-1.9,0.8c-0.5,0.5-0.7,1.2-0.7,2c0,0.8,0.2,1.5,0.7,2c0.5,0.5,1.1,0.8,1.9,0.8
			S276.9,399.3,277.4,398.8z"/>
		<path class="st5" d="M287.6,400.7c-0.2,0.2-0.5,0.3-0.9,0.4c-0.3,0.1-0.7,0.1-1.1,0.1c-1,0-1.7-0.3-2.3-0.8s-0.8-1.3-0.8-2.2V394
			h-1.5v-1.7h1.5v-2h2.1v2h2.4v1.7h-2.4v4.2c0,0.4,0.1,0.8,0.3,1c0.2,0.2,0.5,0.3,0.9,0.3c0.5,0,0.9-0.1,1.2-0.4L287.6,400.7z"/>
		<path class="st5" d="M297,393.2c0.7,0.7,1,1.6,1,2.9v5.1H296v-4.8c0-0.8-0.2-1.4-0.5-1.8c-0.4-0.4-0.9-0.6-1.6-0.6
			c-0.8,0-1.4,0.2-1.8,0.7c-0.4,0.5-0.7,1.1-0.7,2v4.5h-2.1v-12.3h2.1v4.5c0.3-0.4,0.8-0.6,1.3-0.8c0.5-0.2,1.1-0.3,1.7-0.3
			C295.5,392.2,296.4,392.5,297,393.2z"/>
		<path class="st5" d="M309.1,397.4h-7c0.1,0.7,0.4,1.2,1,1.6c0.5,0.4,1.2,0.6,1.9,0.6c1,0,1.8-0.3,2.4-1l1.1,1.3
			c-0.4,0.5-0.9,0.8-1.5,1.1s-1.3,0.4-2.1,0.4c-1,0-1.8-0.2-2.6-0.6c-0.7-0.4-1.3-0.9-1.7-1.6c-0.4-0.7-0.6-1.5-0.6-2.4
			c0-0.9,0.2-1.6,0.6-2.3s0.9-1.2,1.6-1.6c0.7-0.4,1.5-0.6,2.4-0.6c0.9,0,1.6,0.2,2.3,0.6c0.7,0.4,1.2,0.9,1.6,1.6
			c0.4,0.7,0.6,1.5,0.6,2.4C309.1,396.9,309.1,397.1,309.1,397.4z M303,394.5c-0.5,0.4-0.7,0.9-0.8,1.6h5c-0.1-0.6-0.4-1.2-0.8-1.6
			c-0.5-0.4-1-0.6-1.7-0.6C304,393.9,303.4,394.1,303,394.5z"/>
		<path class="st5" d="M311.8,401c-0.7-0.2-1.2-0.4-1.6-0.7l0.8-1.6c0.4,0.3,0.9,0.5,1.4,0.6c0.6,0.2,1.1,0.2,1.7,0.2
			c1.2,0,1.9-0.3,1.9-1c0-0.3-0.2-0.5-0.5-0.6c-0.3-0.1-0.8-0.2-1.5-0.3c-0.7-0.1-1.3-0.2-1.8-0.4c-0.5-0.1-0.9-0.4-1.2-0.8
			s-0.5-0.9-0.5-1.5c0-0.8,0.4-1.5,1.1-2s1.7-0.8,2.9-0.8c0.6,0,1.2,0.1,1.8,0.2s1.1,0.3,1.5,0.6l-0.8,1.6c-0.8-0.4-1.6-0.7-2.5-0.7
			c-0.6,0-1.1,0.1-1.4,0.3c-0.3,0.2-0.5,0.4-0.5,0.7c0,0.3,0.2,0.6,0.5,0.7c0.3,0.1,0.9,0.3,1.6,0.4c0.7,0.1,1.3,0.2,1.7,0.4
			c0.5,0.1,0.8,0.4,1.2,0.7c0.3,0.3,0.5,0.8,0.5,1.5c0,0.8-0.4,1.5-1.1,2s-1.7,0.7-2.9,0.7C313.2,401.3,312.5,401.2,311.8,401z"/>
		<path class="st5" d="M331.5,392.8c0.7,0.4,1.2,0.9,1.6,1.6c0.4,0.7,0.6,1.5,0.6,2.4s-0.2,1.7-0.6,2.4c-0.4,0.7-0.9,1.2-1.6,1.6
			c-0.7,0.4-1.5,0.6-2.3,0.6c-1.2,0-2.1-0.4-2.8-1.2v4.3h-2.1v-12.1h2v1.2c0.3-0.4,0.8-0.7,1.3-0.9c0.5-0.2,1.1-0.3,1.7-0.3
			C330.1,392.2,330.9,392.4,331.5,392.8z M330.9,398.8c0.5-0.5,0.7-1.2,0.7-2c0-0.8-0.2-1.5-0.7-2c-0.5-0.5-1.1-0.8-1.9-0.8
			c-0.5,0-0.9,0.1-1.3,0.3c-0.4,0.2-0.7,0.6-0.9,1c-0.2,0.4-0.3,0.9-0.3,1.5s0.1,1,0.3,1.5c0.2,0.4,0.5,0.7,0.9,1
			c0.4,0.2,0.8,0.3,1.3,0.3C329.7,399.5,330.4,399.3,330.9,398.8z"/>
		<path class="st5" d="M342,393.1c0.7,0.6,1,1.6,1,2.8v5.2h-2v-1.1c-0.3,0.4-0.6,0.7-1.1,0.9s-1,0.3-1.7,0.3c-0.7,0-1.2-0.1-1.7-0.3
			c-0.5-0.2-0.9-0.5-1.2-0.9c-0.3-0.4-0.4-0.9-0.4-1.4c0-0.8,0.3-1.4,0.9-1.9c0.6-0.5,1.5-0.7,2.8-0.7h2.3v-0.1
			c0-0.6-0.2-1.1-0.6-1.4c-0.4-0.3-0.9-0.5-1.7-0.5c-0.5,0-1,0.1-1.5,0.2s-0.9,0.4-1.2,0.6l-0.8-1.5c0.5-0.4,1-0.6,1.7-0.8
			c0.7-0.2,1.3-0.3,2.1-0.3C340.3,392.2,341.3,392.5,342,393.1z M340.1,399.4c0.4-0.2,0.7-0.6,0.9-1v-1h-2.1c-1.2,0-1.8,0.4-1.8,1.2
			c0,0.4,0.1,0.7,0.4,0.9s0.7,0.3,1.2,0.3C339.2,399.8,339.7,399.7,340.1,399.4z"/>
		<path class="st5" d="M347.4,400.7c-0.7-0.4-1.3-0.9-1.7-1.6c-0.4-0.7-0.6-1.5-0.6-2.4s0.2-1.7,0.6-2.3c0.4-0.7,1-1.2,1.7-1.6
			c0.7-0.4,1.6-0.6,2.5-0.6c0.9,0,1.6,0.2,2.3,0.5s1.2,0.9,1.5,1.5l-1.6,0.9c-0.3-0.4-0.6-0.7-1-0.9c-0.4-0.2-0.8-0.3-1.3-0.3
			c-0.8,0-1.4,0.3-1.9,0.8c-0.5,0.5-0.8,1.2-0.8,2s0.3,1.5,0.8,2c0.5,0.5,1.1,0.8,1.9,0.8c0.5,0,0.9-0.1,1.3-0.3
			c0.4-0.2,0.7-0.5,1-0.9l1.6,0.9c-0.3,0.7-0.8,1.2-1.5,1.5s-1.4,0.5-2.3,0.5C348.9,401.3,348.1,401.1,347.4,400.7z"/>
		<path class="st5" d="M359,397.4l-1.5,1.5v2.3h-2.1v-12.3h2.1v7.5l4.3-4h2.5l-3.7,3.7l4.1,5.2H362L359,397.4z"/>
	</g>
	<g>
		<path class="st7" d="M261.4,412.1c0.5,0.4,0.7,1,0.7,1.7s-0.2,1.3-0.7,1.7s-1.2,0.6-2,0.6h-1.6v2h-0.9v-6.6h2.6
			C260.2,411.5,260.9,411.7,261.4,412.1z M260.7,414.9c0.3-0.3,0.5-0.6,0.5-1.1s-0.2-0.8-0.5-1.1c-0.3-0.3-0.8-0.4-1.4-0.4h-1.6v3
			h1.6C259.9,415.3,260.4,415.2,260.7,414.9z"/>
		<path class="st7" d="M264.2,417.8c-0.4-0.2-0.7-0.5-0.9-0.9c-0.2-0.4-0.3-0.8-0.3-1.3s0.1-0.9,0.3-1.3c0.2-0.4,0.5-0.7,0.9-0.9
			s0.8-0.3,1.3-0.3s0.9,0.1,1.3,0.3s0.7,0.5,0.9,0.9c0.2,0.4,0.3,0.8,0.3,1.3s-0.1,0.9-0.3,1.3c-0.2,0.4-0.5,0.7-0.9,0.9
			s-0.8,0.3-1.3,0.3S264.6,418.1,264.2,417.8z M266.4,417.2c0.3-0.1,0.5-0.4,0.6-0.6c0.1-0.3,0.2-0.6,0.2-0.9c0-0.3-0.1-0.7-0.2-0.9
			c-0.1-0.3-0.3-0.5-0.6-0.6c-0.3-0.1-0.5-0.2-0.9-0.2s-0.6,0.1-0.9,0.2c-0.3,0.1-0.5,0.4-0.6,0.6c-0.1,0.3-0.2,0.6-0.2,0.9
			c0,0.3,0.1,0.7,0.2,0.9c0.1,0.3,0.4,0.5,0.6,0.6c0.3,0.1,0.5,0.2,0.9,0.2S266.1,417.3,266.4,417.2z"/>
		<path class="st7" d="M269.6,418c-0.4-0.1-0.7-0.3-0.9-0.4l0.4-0.7c0.2,0.2,0.5,0.3,0.8,0.4c0.3,0.1,0.6,0.1,1,0.1
			c0.8,0,1.2-0.2,1.2-0.7c0-0.2-0.1-0.3-0.2-0.4c-0.1-0.1-0.2-0.2-0.4-0.2c-0.2,0-0.4-0.1-0.7-0.1c-0.4-0.1-0.7-0.1-1-0.2
			c-0.3-0.1-0.5-0.2-0.7-0.4s-0.3-0.5-0.3-0.8c0-0.5,0.2-0.8,0.6-1.1s0.9-0.4,1.5-0.4c0.3,0,0.7,0,1,0.1c0.3,0.1,0.6,0.2,0.8,0.3
			l-0.4,0.7c-0.4-0.3-0.9-0.4-1.4-0.4c-0.4,0-0.7,0.1-0.9,0.2c-0.2,0.1-0.3,0.3-0.3,0.5c0,0.2,0.1,0.3,0.2,0.4
			c0.1,0.1,0.3,0.2,0.4,0.2c0.2,0,0.4,0.1,0.7,0.2c0.4,0.1,0.7,0.1,1,0.2c0.2,0.1,0.5,0.2,0.6,0.4c0.2,0.2,0.3,0.5,0.3,0.8
			c0,0.5-0.2,0.8-0.6,1.1c-0.4,0.3-0.9,0.4-1.6,0.4C270.4,418.2,270,418.1,269.6,418z"/>
		<path class="st7" d="M276.9,417.8c-0.1,0.1-0.3,0.2-0.5,0.3c-0.2,0.1-0.4,0.1-0.6,0.1c-0.5,0-0.9-0.1-1.2-0.4
			c-0.3-0.3-0.4-0.7-0.4-1.2v-2.8h-0.9v-0.7h0.9V412h0.9v1.1h1.4v0.7h-1.4v2.7c0,0.3,0.1,0.5,0.2,0.6c0.1,0.1,0.3,0.2,0.6,0.2
			c0.3,0,0.5-0.1,0.7-0.2L276.9,417.8z"/>
		<path class="st7" d="M282.4,415.9h-4.1c0.1,0.4,0.3,0.8,0.6,1.1c0.3,0.3,0.7,0.4,1.2,0.4c0.6,0,1.1-0.2,1.4-0.6l0.5,0.6
			c-0.2,0.3-0.5,0.5-0.8,0.6c-0.3,0.1-0.7,0.2-1.1,0.2c-0.5,0-1-0.1-1.4-0.3c-0.4-0.2-0.7-0.5-1-0.9c-0.2-0.4-0.3-0.8-0.3-1.3
			c0-0.5,0.1-0.9,0.3-1.3c0.2-0.4,0.5-0.7,0.9-0.9s0.8-0.3,1.3-0.3s0.9,0.1,1.3,0.3s0.7,0.5,0.9,0.9c0.2,0.4,0.3,0.8,0.3,1.3
			C282.4,415.7,282.4,415.8,282.4,415.9z M278.8,414.2c-0.3,0.3-0.5,0.6-0.5,1h3.2c-0.1-0.4-0.2-0.8-0.5-1c-0.3-0.3-0.7-0.4-1.1-0.4
			S279.1,414,278.8,414.2z"/>
		<path class="st7" d="M288.4,411.1v7h-0.9v-0.8c-0.2,0.3-0.5,0.5-0.8,0.6c-0.3,0.1-0.6,0.2-1,0.2c-0.5,0-0.9-0.1-1.3-0.3
			c-0.4-0.2-0.7-0.5-0.9-0.9c-0.2-0.4-0.3-0.8-0.3-1.3s0.1-1,0.3-1.3s0.5-0.7,0.9-0.9c0.4-0.2,0.8-0.3,1.3-0.3c0.4,0,0.7,0.1,1,0.2
			c0.3,0.1,0.6,0.3,0.8,0.6v-2.8H288.4z M286.7,417.2c0.3-0.1,0.5-0.4,0.6-0.6c0.1-0.3,0.2-0.6,0.2-0.9c0-0.3-0.1-0.7-0.2-0.9
			c-0.1-0.3-0.3-0.5-0.6-0.6c-0.3-0.1-0.5-0.2-0.9-0.2c-0.3,0-0.6,0.1-0.9,0.2c-0.3,0.1-0.5,0.4-0.6,0.6c-0.1,0.3-0.2,0.6-0.2,0.9
			c0,0.3,0.1,0.7,0.2,0.9c0.1,0.3,0.4,0.5,0.6,0.6c0.3,0.1,0.5,0.2,0.9,0.2C286.1,417.4,286.4,417.3,286.7,417.2z"/>
		<path class="st7" d="M296.2,414.7c0.4,0.4,0.7,0.8,0.7,1.5c0,0.4-0.1,0.7-0.3,1.1c-0.2,0.3-0.5,0.6-0.8,0.7
			c-0.4,0.2-0.8,0.3-1.4,0.3c-0.5,0-0.9-0.1-1.4-0.2c-0.4-0.1-0.8-0.3-1.1-0.6l0.4-0.7c0.2,0.2,0.5,0.4,0.9,0.5
			c0.4,0.1,0.7,0.2,1.1,0.2c0.5,0,0.9-0.1,1.2-0.3c0.3-0.2,0.4-0.5,0.4-0.9c0-0.4-0.2-0.7-0.5-0.9s-0.8-0.3-1.6-0.3h-1.5l0.4-3.5
			h3.7v0.8h-2.9l-0.2,1.8h0.7C295.1,414.1,295.8,414.3,296.2,414.7z"/>
		<path class="st7" d="M304.8,413.6c0.4,0.4,0.6,0.9,0.6,1.6v2.9h-0.9v-2.8c0-0.5-0.1-0.9-0.4-1.1s-0.6-0.4-1-0.4
			c-0.5,0-0.9,0.1-1.2,0.4c-0.3,0.3-0.4,0.7-0.4,1.2v2.6h-0.9v-7h0.9v2.7c0.2-0.2,0.4-0.4,0.7-0.6s0.6-0.2,1-0.2
			C304,413.1,304.5,413.2,304.8,413.6z"/>
		<path class="st7" d="M307.9,417.8c-0.4-0.2-0.7-0.5-0.9-0.9c-0.2-0.4-0.3-0.8-0.3-1.3s0.1-0.9,0.3-1.3c0.2-0.4,0.5-0.7,0.9-0.9
			s0.8-0.3,1.3-0.3s0.9,0.1,1.3,0.3s0.7,0.5,0.9,0.9c0.2,0.4,0.3,0.8,0.3,1.3s-0.1,0.9-0.3,1.3c-0.2,0.4-0.5,0.7-0.9,0.9
			s-0.8,0.3-1.3,0.3S308.3,418.1,307.9,417.8z M310.1,417.2c0.3-0.1,0.5-0.4,0.6-0.6c0.1-0.3,0.2-0.6,0.2-0.9c0-0.3-0.1-0.7-0.2-0.9
			c-0.1-0.3-0.3-0.5-0.6-0.6c-0.3-0.1-0.5-0.2-0.9-0.2s-0.6,0.1-0.9,0.2c-0.3,0.1-0.5,0.4-0.6,0.6c-0.1,0.3-0.2,0.6-0.2,0.9
			c0,0.3,0.1,0.7,0.2,0.9c0.1,0.3,0.4,0.5,0.6,0.6c0.3,0.1,0.5,0.2,0.9,0.2S309.9,417.3,310.1,417.2z"/>
		<path class="st7" d="M317.8,413.1v5h-0.9v-0.8c-0.2,0.3-0.4,0.5-0.7,0.6c-0.3,0.1-0.6,0.2-1,0.2c-0.7,0-1.2-0.2-1.6-0.6
			c-0.4-0.4-0.6-0.9-0.6-1.6v-2.9h0.9v2.8c0,0.5,0.1,0.9,0.4,1.1c0.2,0.2,0.6,0.4,1,0.4c0.5,0,0.9-0.1,1.1-0.4
			c0.3-0.3,0.4-0.7,0.4-1.2v-2.6H317.8z"/>
		<path class="st7" d="M321.1,413.3c0.3-0.2,0.7-0.2,1.1-0.2v0.9c-0.1,0-0.1,0-0.2,0c-0.5,0-0.9,0.1-1.2,0.4
			c-0.3,0.3-0.4,0.7-0.4,1.3v2.5h-0.9v-5h0.9v0.8C320.6,413.7,320.8,413.4,321.1,413.3z"/>
		<path class="st7" d="M323.6,418c-0.4-0.1-0.7-0.3-0.9-0.4l0.4-0.7c0.2,0.2,0.5,0.3,0.8,0.4c0.3,0.1,0.6,0.1,1,0.1
			c0.8,0,1.2-0.2,1.2-0.7c0-0.2-0.1-0.3-0.2-0.4c-0.1-0.1-0.2-0.2-0.4-0.2c-0.2,0-0.4-0.1-0.7-0.1c-0.4-0.1-0.7-0.1-1-0.2
			c-0.3-0.1-0.5-0.2-0.7-0.4s-0.3-0.5-0.3-0.8c0-0.5,0.2-0.8,0.6-1.1s0.9-0.4,1.5-0.4c0.3,0,0.7,0,1,0.1c0.3,0.1,0.6,0.2,0.8,0.3
			l-0.4,0.7c-0.4-0.3-0.9-0.4-1.4-0.4c-0.4,0-0.7,0.1-0.9,0.2c-0.2,0.1-0.3,0.3-0.3,0.5c0,0.2,0.1,0.3,0.2,0.4
			c0.1,0.1,0.3,0.2,0.4,0.2c0.2,0,0.4,0.1,0.7,0.2c0.4,0.1,0.7,0.1,1,0.2c0.2,0.1,0.5,0.2,0.6,0.4c0.2,0.2,0.3,0.5,0.3,0.8
			c0,0.5-0.2,0.8-0.6,1.1c-0.4,0.3-0.9,0.4-1.6,0.4C324.4,418.2,324,418.1,323.6,418z"/>
		<path class="st7" d="M334.1,413.6c0.4,0.3,0.6,0.8,0.6,1.5v3h-0.9v-0.7c-0.2,0.2-0.4,0.4-0.6,0.5s-0.6,0.2-1,0.2
			c-0.6,0-1-0.1-1.3-0.4c-0.3-0.3-0.5-0.6-0.5-1.1c0-0.4,0.2-0.8,0.5-1.1s0.8-0.4,1.5-0.4h1.4v-0.2c0-0.4-0.1-0.7-0.3-0.9
			c-0.2-0.2-0.6-0.3-1-0.3c-0.3,0-0.6,0-0.9,0.1s-0.5,0.2-0.7,0.4l-0.4-0.7c0.3-0.2,0.6-0.4,0.9-0.5s0.7-0.2,1.1-0.2
			C333.2,413.1,333.7,413.2,334.1,413.6z M333.2,417.2c0.3-0.2,0.4-0.4,0.5-0.7v-0.7h-1.4c-0.8,0-1.2,0.3-1.2,0.8
			c0,0.3,0.1,0.5,0.3,0.6c0.2,0.1,0.5,0.2,0.8,0.2S332.9,417.4,333.2,417.2z"/>
		<path class="st7" d="M341.2,413.1v4.3c0,0.9-0.2,1.5-0.7,1.9c-0.4,0.4-1.1,0.6-1.9,0.6c-0.5,0-0.9-0.1-1.4-0.2
			c-0.4-0.1-0.8-0.3-1-0.6l0.4-0.7c0.2,0.2,0.5,0.4,0.9,0.5c0.3,0.1,0.7,0.2,1.1,0.2c0.6,0,1-0.1,1.3-0.4s0.4-0.7,0.4-1.3v-0.4
			c-0.2,0.3-0.5,0.5-0.8,0.6c-0.3,0.1-0.7,0.2-1,0.2c-0.5,0-0.9-0.1-1.3-0.3c-0.4-0.2-0.7-0.5-0.9-0.9c-0.2-0.4-0.3-0.8-0.3-1.3
			s0.1-0.9,0.3-1.3c0.2-0.4,0.5-0.7,0.9-0.9c0.4-0.2,0.8-0.3,1.3-0.3c0.4,0,0.7,0.1,1.1,0.2c0.3,0.1,0.6,0.3,0.8,0.6v-0.8H341.2z
			 M339.4,416.9c0.3-0.1,0.5-0.3,0.6-0.6c0.1-0.2,0.2-0.5,0.2-0.8c0-0.5-0.2-0.9-0.5-1.2s-0.7-0.4-1.2-0.4c-0.5,0-0.9,0.1-1.2,0.4
			c-0.3,0.3-0.5,0.7-0.5,1.2c0,0.3,0.1,0.6,0.2,0.8c0.1,0.3,0.4,0.4,0.6,0.6c0.3,0.1,0.6,0.2,0.9,0.2
			C338.9,417.1,339.2,417,339.4,416.9z"/>
		<path class="st7" d="M343.7,417.8c-0.4-0.2-0.7-0.5-0.9-0.9c-0.2-0.4-0.3-0.8-0.3-1.3s0.1-0.9,0.3-1.3c0.2-0.4,0.5-0.7,0.9-0.9
			s0.8-0.3,1.3-0.3s0.9,0.1,1.3,0.3s0.7,0.5,0.9,0.9c0.2,0.4,0.3,0.8,0.3,1.3s-0.1,0.9-0.3,1.3c-0.2,0.4-0.5,0.7-0.9,0.9
			s-0.8,0.3-1.3,0.3S344.1,418.1,343.7,417.8z M345.9,417.2c0.3-0.1,0.5-0.4,0.6-0.6c0.1-0.3,0.2-0.6,0.2-0.9c0-0.3-0.1-0.7-0.2-0.9
			c-0.1-0.3-0.3-0.5-0.6-0.6c-0.3-0.1-0.5-0.2-0.9-0.2s-0.6,0.1-0.9,0.2c-0.3,0.1-0.5,0.4-0.6,0.6c-0.1,0.3-0.2,0.6-0.2,0.9
			c0,0.3,0.1,0.7,0.2,0.9c0.1,0.3,0.4,0.5,0.6,0.6c0.3,0.1,0.5,0.2,0.9,0.2S345.7,417.3,345.9,417.2z"/>
	</g>
	<g>
		
			<image style="overflow:visible;opacity:0.12;" width="623" height="152" xlink:href="260FA8EB.png"  transform="matrix(1 0 0 1 133 478)">
		</image>
		<g>
			<path class="st1" d="M723.4,608.9H160.8c-7.8,0-14.1-6.3-14.1-14.1v-91.9c0-7.8,6.3-14.1,14.1-14.1h562.7
				c7.8,0,14.1,6.3,14.1,14.1v91.9C737.6,602.6,731.3,608.9,723.4,608.9z"/>
			<path class="st2" d="M723.4,608.9H160.8c-7.8,0-14.1-6.3-14.1-14.1v-91.9c0-7.8,6.3-14.1,14.1-14.1h562.7
				c7.8,0,14.1,6.3,14.1,14.1v91.9C737.6,602.6,731.3,608.9,723.4,608.9z"/>
		</g>
	</g>
	<g>
		<path class="st5" d="M265,525.9v11.6h-2.2v-9.8h-2.5v-1.8H265z"/>
		<path class="st5" d="M275.8,535.8v1.8h-8.6v-1.4l4.6-4.4c0.5-0.5,0.9-0.9,1.1-1.3c0.2-0.4,0.3-0.7,0.3-1.1c0-0.5-0.2-1-0.5-1.2
			c-0.4-0.3-0.9-0.4-1.6-0.4c-1.2,0-2.1,0.4-2.7,1.2l-1.5-1.2c0.5-0.6,1.1-1.1,1.8-1.4c0.8-0.3,1.6-0.5,2.6-0.5c1.3,0,2.3,0.3,3,0.9
			c0.8,0.6,1.1,1.4,1.1,2.4c0,0.6-0.1,1.2-0.4,1.8c-0.3,0.6-0.8,1.2-1.5,1.9l-3.1,3H275.8z"/>
		<path class="st5" d="M282.5,525.9h5.1c1.2,0,2.3,0.2,3.3,0.7c1,0.5,1.7,1.2,2.2,2s0.8,1.9,0.8,3.1s-0.3,2.2-0.8,3.1
			c-0.5,0.9-1.3,1.6-2.2,2c-1,0.5-2.1,0.7-3.3,0.7h-5.1V525.9z M287.4,535.8c0.9,0,1.6-0.2,2.3-0.5c0.6-0.3,1.1-0.8,1.5-1.4
			c0.3-0.6,0.5-1.3,0.5-2.1c0-0.8-0.2-1.5-0.5-2.1s-0.8-1.1-1.5-1.4c-0.6-0.3-1.4-0.5-2.3-0.5h-2.8v8H287.4z"/>
		<path class="st5" d="M296.1,526.9c-0.3-0.2-0.4-0.5-0.4-0.9c0-0.4,0.1-0.7,0.4-0.9c0.3-0.2,0.6-0.4,0.9-0.4s0.7,0.1,0.9,0.3
			c0.3,0.2,0.4,0.5,0.4,0.9c0,0.4-0.1,0.7-0.4,0.9c-0.2,0.2-0.6,0.4-1,0.4C296.7,527.2,296.3,527.1,296.1,526.9z M296,528.7h2.1v8.9
			H296V528.7z"/>
		<path class="st5" d="M301.4,537.4c-0.7-0.2-1.2-0.4-1.6-0.7l0.8-1.6c0.4,0.3,0.9,0.5,1.4,0.6c0.6,0.2,1.1,0.2,1.7,0.2
			c1.2,0,1.9-0.3,1.9-1c0-0.3-0.2-0.5-0.5-0.6s-0.8-0.2-1.5-0.3c-0.7-0.1-1.3-0.2-1.8-0.4c-0.5-0.1-0.9-0.4-1.2-0.8
			s-0.5-0.9-0.5-1.5c0-0.8,0.4-1.5,1.1-2c0.7-0.5,1.7-0.8,2.9-0.8c0.6,0,1.2,0.1,1.8,0.2s1.1,0.3,1.5,0.6l-0.8,1.6
			c-0.8-0.4-1.6-0.7-2.5-0.7c-0.6,0-1.1,0.1-1.4,0.3c-0.3,0.2-0.5,0.4-0.5,0.7c0,0.3,0.2,0.6,0.5,0.7c0.3,0.1,0.9,0.3,1.6,0.4
			c0.7,0.1,1.3,0.2,1.7,0.4c0.5,0.1,0.8,0.4,1.2,0.7s0.5,0.8,0.5,1.5c0,0.8-0.4,1.5-1.1,2s-1.7,0.7-2.9,0.7
			C302.8,537.7,302.1,537.6,301.4,537.4z"/>
		<path class="st5" d="M311,537.1c-0.7-0.4-1.3-0.9-1.7-1.6c-0.4-0.7-0.6-1.5-0.6-2.4s0.2-1.7,0.6-2.3c0.4-0.7,1-1.2,1.7-1.6
			c0.7-0.4,1.6-0.6,2.5-0.6c0.9,0,1.6,0.2,2.3,0.5c0.7,0.4,1.2,0.9,1.5,1.5l-1.6,0.9c-0.3-0.4-0.6-0.7-1-0.9
			c-0.4-0.2-0.8-0.3-1.3-0.3c-0.8,0-1.4,0.3-1.9,0.8c-0.5,0.5-0.8,1.2-0.8,2s0.3,1.5,0.8,2c0.5,0.5,1.1,0.8,1.9,0.8
			c0.5,0,0.9-0.1,1.3-0.3c0.4-0.2,0.7-0.5,1-0.9l1.6,0.9c-0.3,0.7-0.8,1.2-1.5,1.5c-0.7,0.4-1.4,0.5-2.3,0.5
			C312.5,537.7,311.7,537.5,311,537.1z"/>
		<path class="st5" d="M320.5,537.1c-0.7-0.4-1.3-0.9-1.7-1.6c-0.4-0.7-0.6-1.5-0.6-2.4s0.2-1.7,0.6-2.3c0.4-0.7,1-1.2,1.7-1.6
			c0.7-0.4,1.5-0.6,2.4-0.6c0.9,0,1.7,0.2,2.4,0.6c0.7,0.4,1.3,0.9,1.7,1.6s0.6,1.5,0.6,2.3s-0.2,1.7-0.6,2.4
			c-0.4,0.7-1,1.2-1.7,1.6c-0.7,0.4-1.5,0.6-2.4,0.6C322,537.7,321.2,537.5,320.5,537.1z M324.8,535.2c0.5-0.5,0.7-1.2,0.7-2
			c0-0.8-0.2-1.5-0.7-2s-1.1-0.8-1.9-0.8s-1.4,0.3-1.9,0.8c-0.5,0.5-0.7,1.2-0.7,2c0,0.8,0.2,1.5,0.7,2c0.5,0.5,1.1,0.8,1.9,0.8
			S324.3,535.7,324.8,535.2z"/>
		<path class="st5" d="M338.2,528.7v8.9h-2v-1.1c-0.3,0.4-0.7,0.7-1.2,0.9c-0.5,0.2-1,0.3-1.6,0.3c-1.2,0-2.1-0.3-2.8-1
			c-0.7-0.7-1-1.6-1-2.9v-5.1h2.1v4.8c0,0.8,0.2,1.4,0.5,1.8s0.9,0.6,1.5,0.6c0.7,0,1.3-0.2,1.8-0.7c0.4-0.5,0.7-1.1,0.7-2v-4.5
			H338.2z"/>
		<path class="st5" d="M348.7,529.6c0.7,0.7,1,1.6,1,2.9v5.1h-2.1v-4.8c0-0.8-0.2-1.4-0.5-1.8c-0.4-0.4-0.9-0.6-1.6-0.6
			c-0.8,0-1.4,0.2-1.8,0.7c-0.4,0.5-0.7,1.1-0.7,2v4.5h-2.1v-8.9h2v1.1c0.3-0.4,0.8-0.7,1.3-0.9c0.5-0.2,1.1-0.3,1.8-0.3
			C347.1,528.6,348,528.9,348.7,529.6z"/>
		<path class="st5" d="M357.7,537.1c-0.2,0.2-0.5,0.3-0.9,0.4c-0.3,0.1-0.7,0.1-1.1,0.1c-1,0-1.7-0.3-2.3-0.8
			c-0.5-0.5-0.8-1.3-0.8-2.2v-4.3h-1.5v-1.7h1.5v-2h2.1v2h2.4v1.7h-2.4v4.2c0,0.4,0.1,0.8,0.3,1c0.2,0.2,0.5,0.3,0.9,0.3
			c0.5,0,0.9-0.1,1.2-0.4L357.7,537.1z"/>
		<path class="st5" d="M367.4,533.8h-7c0.1,0.7,0.4,1.2,1,1.6c0.5,0.4,1.2,0.6,1.9,0.6c1,0,1.8-0.3,2.4-1l1.1,1.3
			c-0.4,0.5-0.9,0.8-1.5,1.1c-0.6,0.2-1.3,0.4-2.1,0.4c-1,0-1.8-0.2-2.6-0.6c-0.7-0.4-1.3-0.9-1.7-1.6c-0.4-0.7-0.6-1.5-0.6-2.4
			c0-0.9,0.2-1.6,0.6-2.3c0.4-0.7,0.9-1.2,1.6-1.6c0.7-0.4,1.5-0.6,2.4-0.6c0.9,0,1.6,0.2,2.3,0.6c0.7,0.4,1.2,0.9,1.6,1.6
			c0.4,0.7,0.6,1.5,0.6,2.4C367.4,533.3,367.4,533.5,367.4,533.8z M361.3,530.9c-0.5,0.4-0.7,0.9-0.8,1.6h5
			c-0.1-0.6-0.4-1.2-0.8-1.6c-0.5-0.4-1-0.6-1.7-0.6C362.3,530.3,361.7,530.5,361.3,530.9z"/>
		<path class="st5" d="M378.1,525.2v12.3h-2v-1.1c-0.3,0.4-0.8,0.7-1.3,0.9c-0.5,0.2-1.1,0.3-1.7,0.3c-0.9,0-1.6-0.2-2.3-0.6
			c-0.7-0.4-1.2-0.9-1.6-1.6c-0.4-0.7-0.6-1.5-0.6-2.4c0-0.9,0.2-1.7,0.6-2.4s0.9-1.2,1.6-1.6c0.7-0.4,1.4-0.6,2.3-0.6
			c0.6,0,1.1,0.1,1.6,0.3c0.5,0.2,0.9,0.5,1.2,0.9v-4.6H378.1z M374.8,535.6c0.4-0.2,0.7-0.6,0.9-1c0.2-0.4,0.3-0.9,0.3-1.5
			c0-0.6-0.1-1-0.3-1.5c-0.2-0.4-0.5-0.7-0.9-1c-0.4-0.2-0.8-0.3-1.3-0.3s-0.9,0.1-1.3,0.3c-0.4,0.2-0.7,0.6-0.9,1
			c-0.2,0.4-0.3,0.9-0.3,1.5c0,0.6,0.1,1,0.3,1.5c0.2,0.4,0.5,0.7,0.9,1c0.4,0.2,0.8,0.3,1.3,0.3S374.4,535.8,374.8,535.6z"/>
		<path class="st5" d="M392.7,529.2c0.7,0.4,1.2,0.9,1.6,1.6c0.4,0.7,0.6,1.5,0.6,2.4c0,0.9-0.2,1.7-0.6,2.4
			c-0.4,0.7-0.9,1.2-1.6,1.6c-0.7,0.4-1.5,0.6-2.3,0.6c-1.2,0-2.1-0.4-2.8-1.2v4.3h-2.1v-12.1h2v1.2c0.3-0.4,0.8-0.7,1.3-0.9
			c0.5-0.2,1.1-0.3,1.7-0.3C391.2,528.6,392,528.8,392.7,529.2z M392,535.2c0.5-0.5,0.7-1.2,0.7-2c0-0.8-0.2-1.5-0.7-2
			s-1.1-0.8-1.9-0.8c-0.5,0-0.9,0.1-1.3,0.3c-0.4,0.2-0.7,0.6-0.9,1c-0.2,0.4-0.3,0.9-0.3,1.5c0,0.6,0.1,1,0.3,1.5
			c0.2,0.4,0.5,0.7,0.9,1c0.4,0.2,0.8,0.3,1.3,0.3C390.9,535.9,391.5,535.7,392,535.2z"/>
		<path class="st5" d="M396.9,525.2h2.1v12.3h-2.1V525.2z"/>
		<path class="st5" d="M408.1,529.5c0.7,0.6,1,1.6,1,2.8v5.2h-2v-1.1c-0.3,0.4-0.6,0.7-1.1,0.9s-1,0.3-1.7,0.3
			c-0.7,0-1.2-0.1-1.7-0.3c-0.5-0.2-0.9-0.5-1.2-0.9c-0.3-0.4-0.4-0.9-0.4-1.4c0-0.8,0.3-1.4,0.9-1.9c0.6-0.5,1.5-0.7,2.8-0.7h2.3
			v-0.1c0-0.6-0.2-1.1-0.6-1.4c-0.4-0.3-0.9-0.5-1.7-0.5c-0.5,0-1,0.1-1.5,0.2s-0.9,0.4-1.2,0.6l-0.8-1.5c0.5-0.4,1-0.6,1.7-0.8
			c0.7-0.2,1.3-0.3,2.1-0.3C406.4,528.6,407.4,528.9,408.1,529.5z M406.2,535.8c0.4-0.2,0.7-0.6,0.9-1v-1h-2.1
			c-1.2,0-1.8,0.4-1.8,1.2c0,0.4,0.1,0.7,0.4,0.9s0.7,0.3,1.2,0.3C405.3,536.2,405.8,536.1,406.2,535.8z"/>
		<path class="st5" d="M419.5,529.6c0.7,0.7,1,1.6,1,2.9v5.1h-2.1v-4.8c0-0.8-0.2-1.4-0.5-1.8c-0.4-0.4-0.9-0.6-1.6-0.6
			c-0.8,0-1.4,0.2-1.8,0.7c-0.4,0.5-0.7,1.1-0.7,2v4.5h-2.1v-8.9h2v1.1c0.3-0.4,0.8-0.7,1.3-0.9c0.5-0.2,1.1-0.3,1.8-0.3
			C417.9,528.6,418.8,528.9,419.5,529.6z"/>
		<path class="st5" d="M431.6,533.8h-7c0.1,0.7,0.4,1.2,1,1.6c0.5,0.4,1.2,0.6,1.9,0.6c1,0,1.8-0.3,2.4-1l1.1,1.3
			c-0.4,0.5-0.9,0.8-1.5,1.1c-0.6,0.2-1.3,0.4-2.1,0.4c-1,0-1.8-0.2-2.6-0.6c-0.7-0.4-1.3-0.9-1.7-1.6c-0.4-0.7-0.6-1.5-0.6-2.4
			c0-0.9,0.2-1.6,0.6-2.3c0.4-0.7,0.9-1.2,1.6-1.6c0.7-0.4,1.5-0.6,2.4-0.6c0.9,0,1.6,0.2,2.3,0.6c0.7,0.4,1.2,0.9,1.6,1.6
			c0.4,0.7,0.6,1.5,0.6,2.4C431.6,533.3,431.6,533.5,431.6,533.8z M425.4,530.9c-0.5,0.4-0.7,0.9-0.8,1.6h5
			c-0.1-0.6-0.4-1.2-0.8-1.6c-0.5-0.4-1-0.6-1.7-0.6C426.4,530.3,425.9,530.5,425.4,530.9z"/>
		<path class="st5" d="M267,557.1c-0.2,0.2-0.5,0.3-0.9,0.4c-0.3,0.1-0.7,0.1-1.1,0.1c-1,0-1.7-0.3-2.3-0.8s-0.8-1.3-0.8-2.2v-4.3
			h-1.5v-1.7h1.5v-2h2.1v2h2.4v1.7H264v4.2c0,0.4,0.1,0.8,0.3,1c0.2,0.2,0.5,0.3,0.9,0.3c0.5,0,0.9-0.1,1.2-0.4L267,557.1z"/>
		<path class="st5" d="M268.8,546.8c-0.3-0.2-0.4-0.5-0.4-0.9s0.1-0.7,0.4-0.9s0.6-0.4,0.9-0.4s0.7,0.1,0.9,0.3s0.4,0.5,0.4,0.9
			c0,0.4-0.1,0.7-0.4,0.9s-0.6,0.4-1,0.4C269.4,547.2,269.1,547.1,268.8,546.8z M268.7,548.7h2.1v8.9h-2.1V548.7z"/>
		<path class="st5" d="M275.1,557.1c-0.7-0.4-1.3-0.9-1.7-1.6c-0.4-0.7-0.6-1.5-0.6-2.4s0.2-1.7,0.6-2.3c0.4-0.7,1-1.2,1.7-1.6
			c0.7-0.4,1.6-0.6,2.5-0.6c0.9,0,1.6,0.2,2.3,0.5c0.7,0.4,1.2,0.9,1.5,1.5l-1.6,0.9c-0.3-0.4-0.6-0.7-1-0.9
			c-0.4-0.2-0.8-0.3-1.3-0.3c-0.8,0-1.4,0.3-1.9,0.8c-0.5,0.5-0.8,1.2-0.8,2s0.3,1.5,0.8,2c0.5,0.5,1.1,0.8,1.9,0.8
			c0.5,0,0.9-0.1,1.3-0.3c0.4-0.2,0.7-0.5,1-0.9l1.6,0.9c-0.3,0.7-0.8,1.2-1.5,1.5s-1.4,0.5-2.3,0.5
			C276.7,557.7,275.8,557.5,275.1,557.1z"/>
		<path class="st5" d="M286.7,553.7l-1.5,1.5v2.3h-2.1v-12.3h2.1v7.5l4.3-4h2.5l-3.7,3.7l4.1,5.2h-2.5L286.7,553.7z"/>
		<path class="st5" d="M301.6,553.8h-7c0.1,0.7,0.4,1.2,1,1.6c0.5,0.4,1.2,0.6,1.9,0.6c1,0,1.8-0.3,2.4-1l1.1,1.3
			c-0.4,0.5-0.9,0.8-1.5,1.1s-1.3,0.4-2.1,0.4c-1,0-1.8-0.2-2.6-0.6c-0.7-0.4-1.3-0.9-1.7-1.6c-0.4-0.7-0.6-1.5-0.6-2.4
			c0-0.9,0.2-1.6,0.6-2.3c0.4-0.7,0.9-1.2,1.6-1.6c0.7-0.4,1.5-0.6,2.4-0.6c0.9,0,1.6,0.2,2.3,0.6c0.7,0.4,1.2,0.9,1.6,1.6
			c0.4,0.7,0.6,1.5,0.6,2.4C301.6,553.3,301.6,553.5,301.6,553.8z M295.5,550.8c-0.5,0.4-0.7,0.9-0.8,1.6h5
			c-0.1-0.6-0.4-1.2-0.8-1.6s-1-0.6-1.7-0.6C296.5,550.2,295.9,550.4,295.5,550.8z"/>
		<path class="st5" d="M309,557.1c-0.2,0.2-0.5,0.3-0.9,0.4c-0.3,0.1-0.7,0.1-1.1,0.1c-1,0-1.7-0.3-2.3-0.8s-0.8-1.3-0.8-2.2v-4.3
			h-1.5v-1.7h1.5v-2h2.1v2h2.4v1.7H306v4.2c0,0.4,0.1,0.8,0.3,1c0.2,0.2,0.5,0.3,0.9,0.3c0.5,0,0.9-0.1,1.2-0.4L309,557.1z"/>
		<path class="st5" d="M311.3,557.4c-0.7-0.2-1.2-0.4-1.6-0.7l0.8-1.6c0.4,0.3,0.9,0.5,1.4,0.6c0.6,0.2,1.1,0.2,1.7,0.2
			c1.2,0,1.9-0.3,1.9-1c0-0.3-0.2-0.5-0.5-0.6c-0.3-0.1-0.8-0.2-1.5-0.3c-0.7-0.1-1.3-0.2-1.8-0.4c-0.5-0.1-0.9-0.4-1.2-0.8
			s-0.5-0.9-0.5-1.5c0-0.8,0.4-1.5,1.1-2c0.7-0.5,1.7-0.8,2.9-0.8c0.6,0,1.2,0.1,1.8,0.2s1.1,0.3,1.5,0.6l-0.8,1.6
			c-0.8-0.4-1.6-0.7-2.5-0.7c-0.6,0-1.1,0.1-1.4,0.3c-0.3,0.2-0.5,0.4-0.5,0.7c0,0.3,0.2,0.6,0.5,0.7c0.3,0.1,0.9,0.3,1.6,0.4
			c0.7,0.1,1.3,0.2,1.7,0.4c0.5,0.1,0.8,0.4,1.2,0.7s0.5,0.8,0.5,1.5c0,0.8-0.4,1.5-1.1,2s-1.7,0.7-2.9,0.7
			C312.7,557.7,312,557.6,311.3,557.4z"/>
	</g>
	<g>
		<path class="st7" d="M265.9,568.5c0.5,0.4,0.7,1,0.7,1.7c0,0.7-0.2,1.3-0.7,1.7s-1.2,0.6-2,0.6h-1.6v2h-0.9v-6.6h2.6
			C264.7,567.8,265.4,568,265.9,568.5z M265.2,571.3c0.3-0.3,0.5-0.6,0.5-1.1s-0.2-0.8-0.5-1.1c-0.3-0.3-0.8-0.4-1.4-0.4h-1.6v3h1.6
			C264.4,571.6,264.9,571.5,265.2,571.3z"/>
		<path class="st7" d="M268.7,574.2c-0.4-0.2-0.7-0.5-0.9-0.9c-0.2-0.4-0.3-0.8-0.3-1.3s0.1-0.9,0.3-1.3c0.2-0.4,0.5-0.7,0.9-0.9
			s0.8-0.3,1.3-0.3s0.9,0.1,1.3,0.3s0.7,0.5,0.9,0.9c0.2,0.4,0.3,0.8,0.3,1.3s-0.1,0.9-0.3,1.3c-0.2,0.4-0.5,0.7-0.9,0.9
			s-0.8,0.3-1.3,0.3S269.1,574.4,268.7,574.2z M270.9,573.5c0.3-0.1,0.5-0.4,0.6-0.6c0.1-0.3,0.2-0.6,0.2-0.9c0-0.3-0.1-0.7-0.2-0.9
			c-0.1-0.3-0.3-0.5-0.6-0.6c-0.3-0.1-0.5-0.2-0.9-0.2s-0.6,0.1-0.9,0.2s-0.5,0.4-0.6,0.6s-0.2,0.6-0.2,0.9c0,0.3,0.1,0.7,0.2,0.9
			c0.1,0.3,0.4,0.5,0.6,0.6s0.5,0.2,0.9,0.2S270.6,573.7,270.9,573.5z"/>
		<path class="st7" d="M274.1,574.4c-0.4-0.1-0.7-0.3-0.9-0.4l0.4-0.7c0.2,0.2,0.5,0.3,0.8,0.4c0.3,0.1,0.6,0.1,1,0.1
			c0.8,0,1.2-0.2,1.2-0.7c0-0.2-0.1-0.3-0.2-0.4c-0.1-0.1-0.2-0.2-0.4-0.2c-0.2,0-0.4-0.1-0.7-0.1c-0.4-0.1-0.7-0.1-1-0.2
			c-0.3-0.1-0.5-0.2-0.7-0.4c-0.2-0.2-0.3-0.5-0.3-0.8c0-0.5,0.2-0.8,0.6-1.1c0.4-0.3,0.9-0.4,1.5-0.4c0.3,0,0.7,0,1,0.1
			s0.6,0.2,0.8,0.3l-0.4,0.7c-0.4-0.3-0.9-0.4-1.4-0.4c-0.4,0-0.7,0.1-0.9,0.2c-0.2,0.1-0.3,0.3-0.3,0.5c0,0.2,0.1,0.3,0.2,0.4
			c0.1,0.1,0.3,0.2,0.4,0.2s0.4,0.1,0.7,0.2c0.4,0.1,0.7,0.1,1,0.2c0.2,0.1,0.5,0.2,0.6,0.4c0.2,0.2,0.3,0.5,0.3,0.8
			c0,0.5-0.2,0.8-0.6,1.1s-0.9,0.4-1.6,0.4C274.9,574.5,274.5,574.5,274.1,574.4z"/>
		<path class="st7" d="M281.4,574.2c-0.1,0.1-0.3,0.2-0.5,0.3c-0.2,0.1-0.4,0.1-0.6,0.1c-0.5,0-0.9-0.1-1.2-0.4
			c-0.3-0.3-0.4-0.7-0.4-1.2v-2.8h-0.9v-0.7h0.9v-1.1h0.9v1.1h1.4v0.7h-1.4v2.7c0,0.3,0.1,0.5,0.2,0.6s0.3,0.2,0.6,0.2
			c0.3,0,0.5-0.1,0.7-0.2L281.4,574.2z"/>
		<path class="st7" d="M286.9,572.3h-4.1c0.1,0.4,0.3,0.8,0.6,1.1c0.3,0.3,0.7,0.4,1.2,0.4c0.6,0,1.1-0.2,1.4-0.6l0.5,0.6
			c-0.2,0.3-0.5,0.5-0.8,0.6c-0.3,0.1-0.7,0.2-1.1,0.2c-0.5,0-1-0.1-1.4-0.3c-0.4-0.2-0.7-0.5-1-0.9c-0.2-0.4-0.3-0.8-0.3-1.3
			c0-0.5,0.1-0.9,0.3-1.3c0.2-0.4,0.5-0.7,0.9-0.9s0.8-0.3,1.3-0.3s0.9,0.1,1.3,0.3s0.7,0.5,0.9,0.9c0.2,0.4,0.3,0.8,0.3,1.3
			C286.9,572.1,286.9,572.1,286.9,572.3z M283.3,570.6c-0.3,0.3-0.5,0.6-0.5,1h3.2c-0.1-0.4-0.2-0.8-0.5-1s-0.7-0.4-1.1-0.4
			S283.6,570.3,283.3,570.6z"/>
		<path class="st7" d="M292.9,567.4v7H292v-0.8c-0.2,0.3-0.5,0.5-0.8,0.6c-0.3,0.1-0.6,0.2-1,0.2c-0.5,0-0.9-0.1-1.3-0.3
			c-0.4-0.2-0.7-0.5-0.9-0.9c-0.2-0.4-0.3-0.8-0.3-1.3s0.1-0.9,0.3-1.3c0.2-0.4,0.5-0.7,0.9-0.9c0.4-0.2,0.8-0.3,1.3-0.3
			c0.4,0,0.7,0.1,1,0.2c0.3,0.1,0.6,0.3,0.8,0.6v-2.8H292.9z M291.2,573.5c0.3-0.1,0.5-0.4,0.6-0.6c0.1-0.3,0.2-0.6,0.2-0.9
			c0-0.3-0.1-0.7-0.2-0.9c-0.1-0.3-0.3-0.5-0.6-0.6s-0.5-0.2-0.9-0.2c-0.3,0-0.6,0.1-0.9,0.2s-0.5,0.4-0.6,0.6s-0.2,0.6-0.2,0.9
			c0,0.3,0.1,0.7,0.2,0.9c0.1,0.3,0.4,0.5,0.6,0.6s0.5,0.2,0.9,0.2C290.6,573.7,290.9,573.7,291.2,573.5z"/>
		<path class="st7" d="M299.8,572.2v2.3h-0.9v-2.3l-2.6-4.3h1l2.1,3.5l2.1-3.5h0.9L299.8,572.2z"/>
		<path class="st7" d="M307.2,572.3h-4.1c0.1,0.4,0.3,0.8,0.6,1.1c0.3,0.3,0.7,0.4,1.2,0.4c0.6,0,1.1-0.2,1.4-0.6l0.5,0.6
			c-0.2,0.3-0.5,0.5-0.8,0.6c-0.3,0.1-0.7,0.2-1.1,0.2c-0.5,0-1-0.1-1.4-0.3c-0.4-0.2-0.7-0.5-1-0.9c-0.2-0.4-0.3-0.8-0.3-1.3
			c0-0.5,0.1-0.9,0.3-1.3c0.2-0.4,0.5-0.7,0.9-0.9s0.8-0.3,1.3-0.3s0.9,0.1,1.3,0.3s0.7,0.5,0.9,0.9c0.2,0.4,0.3,0.8,0.3,1.3
			C307.3,572.1,307.2,572.1,307.2,572.3z M303.7,570.6c-0.3,0.3-0.5,0.6-0.5,1h3.2c-0.1-0.4-0.2-0.8-0.5-1s-0.7-0.4-1.1-0.4
			S304,570.3,303.7,570.6z"/>
		<path class="st7" d="M308.8,574.4c-0.4-0.1-0.7-0.3-0.9-0.4l0.4-0.7c0.2,0.2,0.5,0.3,0.8,0.4c0.3,0.1,0.6,0.1,1,0.1
			c0.8,0,1.2-0.2,1.2-0.7c0-0.2-0.1-0.3-0.2-0.4c-0.1-0.1-0.2-0.2-0.4-0.2c-0.2,0-0.4-0.1-0.7-0.1c-0.4-0.1-0.7-0.1-1-0.2
			c-0.3-0.1-0.5-0.2-0.7-0.4c-0.2-0.2-0.3-0.5-0.3-0.8c0-0.5,0.2-0.8,0.6-1.1c0.4-0.3,0.9-0.4,1.5-0.4c0.3,0,0.7,0,1,0.1
			s0.6,0.2,0.8,0.3l-0.4,0.7c-0.4-0.3-0.9-0.4-1.4-0.4c-0.4,0-0.7,0.1-0.9,0.2c-0.2,0.1-0.3,0.3-0.3,0.5c0,0.2,0.1,0.3,0.2,0.4
			c0.1,0.1,0.3,0.2,0.4,0.2s0.4,0.1,0.7,0.2c0.4,0.1,0.7,0.1,1,0.2c0.2,0.1,0.5,0.2,0.6,0.4c0.2,0.2,0.3,0.5,0.3,0.8
			c0,0.5-0.2,0.8-0.6,1.1s-0.9,0.4-1.6,0.4C309.5,574.5,309.1,574.5,308.8,574.4z"/>
		<path class="st7" d="M316.1,574.2c-0.1,0.1-0.3,0.2-0.5,0.3c-0.2,0.1-0.4,0.1-0.6,0.1c-0.5,0-0.9-0.1-1.2-0.4
			c-0.3-0.3-0.4-0.7-0.4-1.2v-2.8h-0.9v-0.7h0.9v-1.1h0.9v1.1h1.4v0.7h-1.4v2.7c0,0.3,0.1,0.5,0.2,0.6s0.3,0.2,0.6,0.2
			c0.3,0,0.5-0.1,0.7-0.2L316.1,574.2z"/>
		<path class="st7" d="M321.5,572.3h-4.1c0.1,0.4,0.3,0.8,0.6,1.1c0.3,0.3,0.7,0.4,1.2,0.4c0.6,0,1.1-0.2,1.4-0.6l0.5,0.6
			c-0.2,0.3-0.5,0.5-0.8,0.6c-0.3,0.1-0.7,0.2-1.1,0.2c-0.5,0-1-0.1-1.4-0.3c-0.4-0.2-0.7-0.5-1-0.9c-0.2-0.4-0.3-0.8-0.3-1.3
			c0-0.5,0.1-0.9,0.3-1.3c0.2-0.4,0.5-0.7,0.9-0.9s0.8-0.3,1.3-0.3s0.9,0.1,1.3,0.3s0.7,0.5,0.9,0.9c0.2,0.4,0.3,0.8,0.3,1.3
			C321.5,572.1,321.5,572.1,321.5,572.3z M318,570.6c-0.3,0.3-0.5,0.6-0.5,1h3.2c-0.1-0.4-0.2-0.8-0.5-1s-0.7-0.4-1.1-0.4
			S318.3,570.3,318,570.6z"/>
		<path class="st7" d="M324.4,569.6c0.3-0.2,0.7-0.2,1.1-0.2v0.9c-0.1,0-0.1,0-0.2,0c-0.5,0-0.9,0.1-1.2,0.4
			c-0.3,0.3-0.4,0.7-0.4,1.3v2.5h-0.9v-5h0.9v0.8C323.8,570,324.1,569.8,324.4,569.6z"/>
		<path class="st7" d="M331.3,567.4v7h-0.9v-0.8c-0.2,0.3-0.5,0.5-0.8,0.6c-0.3,0.1-0.6,0.2-1,0.2c-0.5,0-0.9-0.1-1.3-0.3
			c-0.4-0.2-0.7-0.5-0.9-0.9c-0.2-0.4-0.3-0.8-0.3-1.3s0.1-0.9,0.3-1.3c0.2-0.4,0.5-0.7,0.9-0.9c0.4-0.2,0.8-0.3,1.3-0.3
			c0.4,0,0.7,0.1,1,0.2c0.3,0.1,0.6,0.3,0.8,0.6v-2.8H331.3z M329.6,573.5c0.3-0.1,0.5-0.4,0.6-0.6c0.1-0.3,0.2-0.6,0.2-0.9
			c0-0.3-0.1-0.7-0.2-0.9c-0.1-0.3-0.3-0.5-0.6-0.6s-0.5-0.2-0.9-0.2c-0.3,0-0.6,0.1-0.9,0.2s-0.5,0.4-0.6,0.6s-0.2,0.6-0.2,0.9
			c0,0.3,0.1,0.7,0.2,0.9c0.1,0.3,0.4,0.5,0.6,0.6s0.5,0.2,0.9,0.2C329,573.7,329.3,573.7,329.6,573.5z"/>
		<path class="st7" d="M336.4,569.9c0.4,0.3,0.6,0.8,0.6,1.5v3h-0.9v-0.7c-0.2,0.2-0.4,0.4-0.6,0.5s-0.6,0.2-1,0.2
			c-0.6,0-1-0.1-1.3-0.4c-0.3-0.3-0.5-0.6-0.5-1.1s0.2-0.8,0.5-1.1c0.3-0.3,0.8-0.4,1.5-0.4h1.4v-0.2c0-0.4-0.1-0.7-0.3-0.9
			c-0.2-0.2-0.6-0.3-1-0.3c-0.3,0-0.6,0-0.9,0.1s-0.5,0.2-0.7,0.4l-0.4-0.7c0.3-0.2,0.6-0.4,0.9-0.5s0.7-0.2,1.1-0.2
			C335.5,569.4,336.1,569.6,336.4,569.9z M335.5,573.6c0.3-0.2,0.4-0.4,0.5-0.7v-0.7h-1.4c-0.8,0-1.2,0.3-1.2,0.8
			c0,0.3,0.1,0.5,0.3,0.6c0.2,0.1,0.5,0.2,0.8,0.2S335.3,573.7,335.5,573.6z"/>
		<path class="st7" d="M343,569.4l-2.4,5.5c-0.2,0.5-0.5,0.9-0.8,1.1c-0.3,0.2-0.6,0.3-1,0.3c-0.2,0-0.5,0-0.7-0.1s-0.4-0.2-0.6-0.3
			l0.4-0.7c0.3,0.2,0.6,0.4,0.9,0.4c0.2,0,0.4-0.1,0.6-0.2c0.1-0.1,0.3-0.3,0.4-0.6l0.2-0.4l-2.2-5h0.9l1.8,4l1.7-4H343z"/>
	</g>
	<g>
		<g>
			<defs>
				<circle id="SVGID_1_" cx="202.1" cy="395.6" r="34.4"/>
			</defs>
			<clipPath id="SVGID_2_">
				<use xlink:href="#SVGID_1_"  style="overflow:visible;"/>
			</clipPath>
			<g class="st8">
				
					<image style="overflow:visible;enable-background:new    ;" width="270" height="270" xlink:href="260FA8ED.jpg"  transform="matrix(0.2543 0 0 0.2543 167.6393 361.2418)">
				</image>
			</g>
		</g>
	</g>
	<g>
		<circle class="st9" cx="202.1" cy="550.2" r="34.5"/>
		<g>
			<g>
				<path class="st10" d="M201.9,548.7c0,2.3-0.6,4.1-1.9,5.2c-1.3,1.3-3.2,1.8-5.7,1.8h-3.9v-13.9h4.3c2.3,0,4.1,0.6,5.3,1.8
					C201.3,544.9,201.9,546.5,201.9,548.7z M198.9,548.7c0-3-1.3-4.4-3.9-4.4h-1.5v9h1.3C197.5,553.4,198.9,551.8,198.9,548.7z"/>
				<path class="st10" d="M210.8,544.1c-1.1,0-2,0.4-2.5,1.3c-0.5,0.9-0.9,2-0.9,3.4c0,3,1.1,4.7,3.5,4.7c1,0,2.2-0.3,3.5-0.8v2.5
					c-1.1,0.5-2.4,0.8-3.8,0.8c-2,0-3.5-0.6-4.7-1.9c-1-1.3-1.6-3-1.6-5.3c0-1.4,0.3-2.7,0.8-3.8c0.5-1.1,1.3-1.9,2.3-2.5
					s2.2-0.9,3.4-0.9c1.4,0,2.7,0.4,4.1,1l-1,2.4c-0.5-0.3-1-0.5-1.5-0.6C211.8,544.2,211.3,544.1,210.8,544.1z"/>
			</g>
		</g>
	</g>
	<g>
		<circle class="st11" cx="507.3" cy="250.9" r="9.8"/>
		<path class="st1" d="M511.7,249.7c0.2-1.3-0.8-2-2.1-2.4l0.4-1.7l-1-0.2l-0.4,1.7c-0.3-0.1-0.5-0.1-0.9-0.2l0.4-1.7l-1-0.2
			l-0.4,1.7c-0.2-0.1-0.4-0.1-0.7-0.2l0,0l-1.5-0.4l-0.3,1.1l0.8,0.2c0.4,0.1,0.5,0.4,0.5,0.6l-0.5,2c0,0,0.1,0,0.1,0.1H505
			l-0.7,2.7c-0.1,0.1-0.2,0.3-0.5,0.2l-0.8-0.2l-0.5,1.2l1.4,0.4c0.2,0.1,0.5,0.1,0.7,0.2l-0.4,1.8l1,0.2l0.4-1.7
			c0.3,0.1,0.5,0.1,0.9,0.2l-0.4,1.7l1,0.2l0.4-1.8c1.8,0.4,3.2,0.2,3.7-1.4c0.5-1.3,0-2.1-1-2.6C511,251.1,511.5,250.7,511.7,249.7
			z M509.3,253.1c-0.3,1.3-2.5,0.6-3.2,0.4l0.5-2.3C507.3,251.4,509.6,251.7,509.3,253.1z M509.6,249.7c-0.3,1.2-2.1,0.6-2.7,0.4
			l0.5-2.1C508,248.2,509.9,248.5,509.6,249.7z"/>
	</g>
	<g>
		<circle class="st12" cx="551.4" cy="251.2" r="9.8"/>
		<path class="st1" d="M551.4,257.3c-0.4,0-0.8-0.1-1.1-0.3l-3.2-1.9c-0.7-0.4-1.2-1.2-1.2-2v-3.8c0-0.8,0.4-1.6,1.2-2l3.2-1.9
			c0.4-0.2,0.7-0.3,1.2-0.3c0.4,0,0.8,0.1,1.1,0.3l3.2,1.9c0.7,0.4,1.2,1.2,1.2,2v3.8c0,0.8-0.4,1.6-1.2,2l-3.2,1.9
			C552.2,257.2,551.8,257.3,551.4,257.3z M549.5,253.4l-0.6,0.6c0.3,0.3,0.7,0.5,1.2,0.5c0.9,0,1.7-0.8,1.7-1.7v-0.5
			c0.2,0.1,0.5,0.2,0.9,0.2c0.4,0,0.9-0.2,1.2-0.5l-0.6-0.6c-0.2,0.2-0.4,0.2-0.6,0.2c-0.5,0-0.9-0.4-0.9-0.9v-2.9H551v4.9
			c0,0.5-0.4,0.9-0.9,0.9C550,253.6,549.7,253.5,549.5,253.4z"/>
	</g>
	<g>
		<circle class="st1" cx="529.2" cy="251.2" r="9.8"/>
		<g>
			<path class="st11" d="M529.2,241.4c-5.4,0-9.8,4.4-9.8,9.8c0,5.4,4.4,9.8,9.8,9.8s9.8-4.4,9.8-9.8l0,0l0,0
				C539,245.8,534.6,241.6,529.2,241.4L529.2,241.4z M529.4,251.6l-1,3.4h5.4c0.2,0,0.2,0.1,0.2,0.2l0,0v0.1l-0.5,1.6
				c-0.1,0.2-0.2,0.2-0.3,0.2H525l1.4-4.7l-1.6,0.5l0.3-1.1l1.6-0.5l2-6.6c0.1-0.2,0.2-0.2,0.3-0.2h2.1c0.2,0,0.2,0.1,0.2,0.2l0,0
				v0.1l-1.6,5.6l1.6-0.5l-0.3,1.2L529.4,251.6z"/>
		</g>
	</g>
	<circle class="st1" cx="643.2" cy="248.7" r="12.3"/>
	<g>
		<g>
			<defs>
				<circle id="SVGID_3_" cx="643.2" cy="248.7" r="11"/>
			</defs>
			<clipPath id="SVGID_4_">
				<use xlink:href="#SVGID_3_"  style="overflow:visible;"/>
			</clipPath>
			<g class="st13">
				
					<image style="overflow:visible;enable-background:new    ;" width="370" height="370" xlink:href="260FA8EF.jpg"  transform="matrix(5.933359e-002 0 0 5.933359e-002 632.2557 237.673)">
				</image>
			</g>
		</g>
	</g>
	<circle class="st1" cx="659" cy="248.7" r="12.3"/>
	<g>
		<path class="st6" d="M501.3,381.2h-2.7l-0.6,1.3h-0.5l2.2-4.8h0.5l2.2,4.8h-0.5L501.3,381.2z M501.2,380.8l-1.2-2.6l-1.2,2.6
			H501.2z"/>
		<path class="st6" d="M504,382.2c-0.4-0.2-0.7-0.5-0.9-0.9c-0.2-0.4-0.3-0.8-0.3-1.3s0.1-0.9,0.3-1.3c0.2-0.4,0.5-0.7,0.9-0.9
			c0.4-0.2,0.8-0.3,1.3-0.3c0.4,0,0.7,0.1,1,0.2c0.3,0.1,0.6,0.3,0.8,0.5l-0.3,0.3c-0.4-0.4-0.9-0.6-1.4-0.6c-0.4,0-0.7,0.1-1,0.3
			c-0.3,0.2-0.6,0.4-0.7,0.7c-0.2,0.3-0.3,0.6-0.3,1s0.1,0.7,0.3,1s0.4,0.5,0.7,0.7c0.3,0.2,0.7,0.3,1,0.3c0.6,0,1.1-0.2,1.4-0.6
			l0.3,0.3c-0.2,0.2-0.5,0.4-0.8,0.5s-0.6,0.2-1,0.2C504.8,382.5,504.4,382.4,504,382.2z"/>
		<path class="st6" d="M508.8,382.2c-0.4-0.2-0.7-0.5-0.9-0.9c-0.2-0.4-0.3-0.8-0.3-1.3s0.1-0.9,0.3-1.3c0.2-0.4,0.5-0.7,0.9-0.9
			c0.4-0.2,0.8-0.3,1.3-0.3c0.4,0,0.7,0.1,1,0.2c0.3,0.1,0.6,0.3,0.8,0.5l-0.3,0.3c-0.4-0.4-0.9-0.6-1.4-0.6c-0.4,0-0.7,0.1-1,0.3
			c-0.3,0.2-0.6,0.4-0.7,0.7c-0.2,0.3-0.3,0.6-0.3,1s0.1,0.7,0.3,1s0.4,0.5,0.7,0.7c0.3,0.2,0.7,0.3,1,0.3c0.6,0,1.1-0.2,1.4-0.6
			l0.3,0.3c-0.2,0.2-0.5,0.4-0.8,0.5s-0.6,0.2-1,0.2C509.7,382.5,509.2,382.4,508.8,382.2z"/>
		<path class="st6" d="M516.4,382v0.4H513v-4.8h3.3v0.4h-2.8v1.7h2.5v0.4h-2.5v1.8H516.4z"/>
		<path class="st6" d="M520.9,378.1c0.3,0.3,0.5,0.7,0.5,1.2s-0.2,0.9-0.5,1.2c-0.3,0.3-0.8,0.4-1.4,0.4h-1.3v1.5h-0.5v-4.8h1.8
			C520,377.7,520.5,377.8,520.9,378.1z M520.5,380.2c0.3-0.2,0.4-0.5,0.4-0.9c0-0.4-0.1-0.7-0.4-0.9s-0.6-0.3-1.1-0.3h-1.3v2.4h1.3
			C519.9,380.5,520.2,380.4,520.5,380.2z"/>
		<path class="st6" d="M523.3,378.1h-1.7v-0.4h3.9v0.4h-1.7v4.4h-0.5V378.1z"/>
		<path class="st6" d="M529.7,382v0.4h-3.4v-4.8h3.3v0.4h-2.8v1.7h2.5v0.4h-2.5v1.8H529.7z"/>
		<path class="st6" d="M530.9,377.7h2c0.5,0,1,0.1,1.3,0.3c0.4,0.2,0.7,0.5,0.9,0.9s0.3,0.8,0.3,1.3c0,0.5-0.1,0.9-0.3,1.3
			c-0.2,0.4-0.5,0.6-0.9,0.9c-0.4,0.2-0.8,0.3-1.3,0.3h-2V377.7z M532.8,382c0.4,0,0.8-0.1,1.1-0.3c0.3-0.2,0.6-0.4,0.7-0.7
			s0.3-0.6,0.3-1s-0.1-0.7-0.3-1c-0.2-0.3-0.4-0.5-0.7-0.7c-0.3-0.2-0.7-0.3-1.1-0.3h-1.4v3.9H532.8z"/>
	</g>
	<g>
		<path class="st6" d="M636.3,378.1c0.3,0.3,0.5,0.7,0.5,1.2s-0.2,0.9-0.5,1.2c-0.3,0.3-0.8,0.4-1.4,0.4h-1.3v1.5H633v-4.8h1.8
			C635.4,377.7,635.9,377.8,636.3,378.1z M635.9,380.2c0.3-0.2,0.4-0.5,0.4-0.9c0-0.4-0.1-0.7-0.4-0.9s-0.6-0.3-1.1-0.3h-1.3v2.4
			h1.3C635.3,380.5,635.6,380.4,635.9,380.2z"/>
		<path class="st6" d="M641.3,382v0.4h-3.4v-4.8h3.3v0.4h-2.8v1.7h2.5v0.4h-2.5v1.8H641.3z"/>
		<path class="st6" d="M643.3,382.2c-0.4-0.2-0.7-0.5-0.9-0.9c-0.2-0.4-0.3-0.8-0.3-1.3s0.1-0.9,0.3-1.3c0.2-0.4,0.5-0.7,0.9-0.9
			s0.8-0.3,1.3-0.3s0.9,0.1,1.3,0.3c0.4,0.2,0.7,0.5,0.9,0.9c0.2,0.4,0.3,0.8,0.3,1.3s-0.1,0.9-0.3,1.3c-0.2,0.4-0.5,0.7-0.9,0.9
			c-0.4,0.2-0.8,0.3-1.3,0.3S643.7,382.4,643.3,382.2z M645.6,381.8c0.3-0.2,0.5-0.4,0.7-0.7c0.2-0.3,0.3-0.6,0.3-1s-0.1-0.7-0.3-1
			c-0.2-0.3-0.4-0.5-0.7-0.7c-0.3-0.2-0.7-0.3-1-0.3c-0.4,0-0.7,0.1-1,0.3c-0.3,0.2-0.6,0.4-0.7,0.7c-0.2,0.3-0.3,0.6-0.3,1
			s0.1,0.7,0.3,1c0.2,0.3,0.4,0.5,0.7,0.7c0.3,0.2,0.7,0.3,1,0.3C645,382.1,645.3,382,645.6,381.8z"/>
		<path class="st6" d="M651.5,378.1c0.3,0.3,0.5,0.7,0.5,1.2s-0.2,0.9-0.5,1.2c-0.3,0.3-0.8,0.4-1.4,0.4h-1.3v1.5h-0.5v-4.8h1.8
			C650.7,377.7,651.1,377.8,651.5,378.1z M651.1,380.2c0.3-0.2,0.4-0.5,0.4-0.9c0-0.4-0.1-0.7-0.4-0.9s-0.6-0.3-1.1-0.3h-1.3v2.4
			h1.3C650.5,380.5,650.9,380.4,651.1,380.2z"/>
		<path class="st6" d="M653.1,377.7h0.5v4.4h2.7v0.4h-3.2V377.7z"/>
		<path class="st6" d="M660.6,382v0.4h-3.4v-4.8h3.3v0.4h-2.8v1.7h2.5v0.4h-2.5v1.8H660.6z"/>
	</g>
	<g>
		<circle class="st11" cx="507.3" cy="400.6" r="9.8"/>
		<path class="st1" d="M511.7,399.3c0.2-1.3-0.8-2-2.1-2.4l0.4-1.7l-1-0.2l-0.4,1.7c-0.3-0.1-0.5-0.1-0.9-0.2l0.4-1.7l-1-0.2
			l-0.4,1.7c-0.2-0.1-0.4-0.1-0.7-0.2l0,0l-1.5-0.4l-0.3,1.1l0.8,0.2c0.4,0.1,0.5,0.4,0.5,0.6l-0.5,2c0,0,0.1,0,0.1,0.1H505
			l-0.7,2.7c-0.1,0.1-0.2,0.3-0.5,0.2l-0.8-0.2l-0.5,1.2l1.4,0.4c0.2,0.1,0.5,0.1,0.7,0.2l-0.4,1.8l1,0.2l0.4-1.7
			c0.3,0.1,0.5,0.1,0.9,0.2l-0.4,1.7l1,0.2l0.4-1.8c1.8,0.4,3.2,0.2,3.7-1.4c0.5-1.3,0-2.1-1-2.6C511,400.7,511.5,400.3,511.7,399.3
			z M509.3,402.7c-0.3,1.3-2.5,0.6-3.2,0.4l0.5-2.3C507.3,401,509.6,401.3,509.3,402.7z M509.6,399.3c-0.3,1.2-2.1,0.6-2.7,0.4
			l0.5-2.1C508,397.8,509.9,398.1,509.6,399.3z"/>
	</g>
	<g>
		<circle class="st12" cx="551.4" cy="400.9" r="9.8"/>
		<path class="st1" d="M551.4,407c-0.4,0-0.8-0.1-1.1-0.3l-3.2-1.9c-0.7-0.4-1.2-1.2-1.2-2V399c0-0.8,0.4-1.6,1.2-2l3.2-1.9
			c0.4-0.2,0.7-0.3,1.2-0.3c0.4,0,0.8,0.1,1.1,0.3l3.2,1.9c0.7,0.4,1.2,1.2,1.2,2v3.8c0,0.8-0.4,1.6-1.2,2l-3.2,1.9
			C552.2,406.8,551.8,407,551.4,407z M549.5,403.1l-0.6,0.6c0.3,0.3,0.7,0.5,1.2,0.5c0.9,0,1.7-0.8,1.7-1.7v-0.5
			c0.2,0.1,0.5,0.2,0.9,0.2c0.4,0,0.9-0.2,1.2-0.5l-0.6-0.6c-0.2,0.2-0.4,0.2-0.6,0.2c-0.5,0-0.9-0.4-0.9-0.9v-2.9H551v4.9
			c0,0.5-0.4,0.9-0.9,0.9C550,403.3,549.7,403.2,549.5,403.1z"/>
	</g>
	<g>
		<circle class="st1" cx="529.2" cy="400.9" r="9.8"/>
		<g>
			<path class="st11" d="M529.2,391.1c-5.4,0-9.8,4.4-9.8,9.8s4.4,9.8,9.8,9.8s9.8-4.4,9.8-9.8l0,0l0,0
				C539,395.5,534.6,391.2,529.2,391.1L529.2,391.1z M529.4,401.2l-1,3.4h5.4c0.2,0,0.2,0.1,0.2,0.2l0,0v0.1l-0.5,1.6
				c-0.1,0.2-0.2,0.2-0.3,0.2H525l1.4-4.7l-1.6,0.5l0.3-1.1l1.6-0.5l2-6.6c0.1-0.2,0.2-0.2,0.3-0.2h2.1c0.2,0,0.2,0.1,0.2,0.2l0,0
				v0.1l-1.6,5.6l1.6-0.5l-0.3,1.2L529.4,401.2z"/>
		</g>
	</g>
	<circle class="st1" cx="643.2" cy="398.3" r="12.3"/>
	<g>
		<path class="st6" d="M501.3,537.9h-2.7l-0.6,1.3h-0.5l2.2-4.8h0.5l2.2,4.8h-0.5L501.3,537.9z M501.2,537.5l-1.2-2.6l-1.2,2.6
			H501.2z"/>
		<path class="st6" d="M504,538.9c-0.4-0.2-0.7-0.5-0.9-0.9c-0.2-0.4-0.3-0.8-0.3-1.3s0.1-0.9,0.3-1.3c0.2-0.4,0.5-0.7,0.9-0.9
			s0.8-0.3,1.3-0.3c0.4,0,0.7,0.1,1,0.2c0.3,0.1,0.6,0.3,0.8,0.5l-0.3,0.3c-0.4-0.4-0.9-0.6-1.4-0.6c-0.4,0-0.7,0.1-1,0.3
			c-0.3,0.2-0.6,0.4-0.7,0.7c-0.2,0.3-0.3,0.6-0.3,1c0,0.4,0.1,0.7,0.3,1c0.2,0.3,0.4,0.5,0.7,0.7c0.3,0.2,0.7,0.3,1,0.3
			c0.6,0,1.1-0.2,1.4-0.6l0.3,0.3c-0.2,0.2-0.5,0.4-0.8,0.5c-0.3,0.1-0.6,0.2-1,0.2C504.8,539.2,504.4,539.1,504,538.9z"/>
		<path class="st6" d="M508.8,538.9c-0.4-0.2-0.7-0.5-0.9-0.9c-0.2-0.4-0.3-0.8-0.3-1.3s0.1-0.9,0.3-1.3c0.2-0.4,0.5-0.7,0.9-0.9
			s0.8-0.3,1.3-0.3c0.4,0,0.7,0.1,1,0.2c0.3,0.1,0.6,0.3,0.8,0.5l-0.3,0.3c-0.4-0.4-0.9-0.6-1.4-0.6c-0.4,0-0.7,0.1-1,0.3
			c-0.3,0.2-0.6,0.4-0.7,0.7c-0.2,0.3-0.3,0.6-0.3,1c0,0.4,0.1,0.7,0.3,1c0.2,0.3,0.4,0.5,0.7,0.7c0.3,0.2,0.7,0.3,1,0.3
			c0.6,0,1.1-0.2,1.4-0.6l0.3,0.3c-0.2,0.2-0.5,0.4-0.8,0.5c-0.3,0.1-0.6,0.2-1,0.2C509.7,539.2,509.2,539.1,508.8,538.9z"/>
		<path class="st6" d="M516.4,538.7v0.4H513v-4.8h3.3v0.4h-2.8v1.7h2.5v0.4h-2.5v1.8H516.4z"/>
		<path class="st6" d="M520.9,534.8c0.3,0.3,0.5,0.7,0.5,1.2c0,0.5-0.2,0.9-0.5,1.2c-0.3,0.3-0.8,0.4-1.4,0.4h-1.3v1.5h-0.5v-4.8
			h1.8C520,534.4,520.5,534.5,520.9,534.8z M520.5,536.9c0.3-0.2,0.4-0.5,0.4-0.9c0-0.4-0.1-0.7-0.4-0.9s-0.6-0.3-1.1-0.3h-1.3v2.4
			h1.3C519.9,537.2,520.2,537.1,520.5,536.9z"/>
		<path class="st6" d="M523.3,534.8h-1.7v-0.4h3.9v0.4h-1.7v4.4h-0.5V534.8z"/>
		<path class="st6" d="M529.7,538.7v0.4h-3.4v-4.8h3.3v0.4h-2.8v1.7h2.5v0.4h-2.5v1.8H529.7z"/>
		<path class="st6" d="M530.9,534.4h2c0.5,0,1,0.1,1.3,0.3c0.4,0.2,0.7,0.5,0.9,0.9s0.3,0.8,0.3,1.3c0,0.5-0.1,0.9-0.3,1.3
			s-0.5,0.7-0.9,0.9c-0.4,0.2-0.8,0.3-1.3,0.3h-2V534.4z M532.8,538.7c0.4,0,0.8-0.1,1.1-0.3c0.3-0.2,0.6-0.4,0.7-0.7
			c0.2-0.3,0.3-0.6,0.3-1s-0.1-0.7-0.3-1s-0.4-0.5-0.7-0.7c-0.3-0.2-0.7-0.3-1.1-0.3h-1.4v3.9H532.8z"/>
	</g>
	<g>
		<path class="st6" d="M636.3,534.8c0.3,0.3,0.5,0.7,0.5,1.2c0,0.5-0.2,0.9-0.5,1.2c-0.3,0.3-0.8,0.4-1.4,0.4h-1.3v1.5H633v-4.8h1.8
			C635.4,534.4,635.9,534.5,636.3,534.8z M635.9,536.9c0.3-0.2,0.4-0.5,0.4-0.9c0-0.4-0.1-0.7-0.4-0.9s-0.6-0.3-1.1-0.3h-1.3v2.4
			h1.3C635.3,537.2,635.6,537.1,635.9,536.9z"/>
		<path class="st6" d="M641.3,538.7v0.4h-3.4v-4.8h3.3v0.4h-2.8v1.7h2.5v0.4h-2.5v1.8H641.3z"/>
		<path class="st6" d="M643.3,538.9c-0.4-0.2-0.7-0.5-0.9-0.9c-0.2-0.4-0.3-0.8-0.3-1.3s0.1-0.9,0.3-1.3c0.2-0.4,0.5-0.7,0.9-0.9
			c0.4-0.2,0.8-0.3,1.3-0.3s0.9,0.1,1.3,0.3c0.4,0.2,0.7,0.5,0.9,0.9c0.2,0.4,0.3,0.8,0.3,1.3s-0.1,0.9-0.3,1.3
			c-0.2,0.4-0.5,0.7-0.9,0.9c-0.4,0.2-0.8,0.3-1.3,0.3S643.7,539.1,643.3,538.9z M645.6,538.5c0.3-0.2,0.5-0.4,0.7-0.7
			c0.2-0.3,0.3-0.6,0.3-1c0-0.4-0.1-0.7-0.3-1c-0.2-0.3-0.4-0.5-0.7-0.7c-0.3-0.2-0.7-0.3-1-0.3c-0.4,0-0.7,0.1-1,0.3
			c-0.3,0.2-0.6,0.4-0.7,0.7s-0.3,0.6-0.3,1c0,0.4,0.1,0.7,0.3,1c0.2,0.3,0.4,0.5,0.7,0.7c0.3,0.2,0.7,0.3,1,0.3
			C645,538.8,645.3,538.7,645.6,538.5z"/>
		<path class="st6" d="M651.5,534.8c0.3,0.3,0.5,0.7,0.5,1.2c0,0.5-0.2,0.9-0.5,1.2c-0.3,0.3-0.8,0.4-1.4,0.4h-1.3v1.5h-0.5v-4.8
			h1.8C650.7,534.4,651.1,534.5,651.5,534.8z M651.1,536.9c0.3-0.2,0.4-0.5,0.4-0.9c0-0.4-0.1-0.7-0.4-0.9s-0.6-0.3-1.1-0.3h-1.3
			v2.4h1.3C650.5,537.2,650.9,537.1,651.1,536.9z"/>
		<path class="st6" d="M653.1,534.4h0.5v4.4h2.7v0.4h-3.2V534.4z"/>
		<path class="st6" d="M660.6,538.7v0.4h-3.4v-4.8h3.3v0.4h-2.8v1.7h2.5v0.4h-2.5v1.8H660.6z"/>
	</g>
	<g>
		<circle class="st11" cx="507.3" cy="557.2" r="9.8"/>
		<path class="st1" d="M511.7,556c0.2-1.3-0.8-2-2.1-2.4l0.4-1.7l-1-0.2l-0.4,1.7c-0.3-0.1-0.5-0.1-0.9-0.2l0.4-1.7l-1-0.2l-0.4,1.7
			c-0.2-0.1-0.4-0.1-0.7-0.2l0,0l-1.5-0.4l-0.3,1.1l0.8,0.2c0.4,0.1,0.5,0.4,0.5,0.6l-0.5,2c0,0,0.1,0,0.1,0.1H505l-0.7,2.7
			c-0.1,0.1-0.2,0.3-0.5,0.2l-0.8-0.2l-0.5,1.2l1.4,0.4c0.2,0.1,0.5,0.1,0.7,0.2l-0.4,1.8l1,0.2l0.4-1.7c0.3,0.1,0.5,0.1,0.9,0.2
			l-0.4,1.7l1,0.2l0.4-1.8c1.8,0.4,3.2,0.2,3.7-1.4c0.5-1.3,0-2.1-1-2.6C511,557.4,511.5,557,511.7,556z M509.3,559.4
			c-0.3,1.3-2.5,0.6-3.2,0.4l0.5-2.3C507.3,557.7,509.6,558,509.3,559.4z M509.6,556c-0.3,1.2-2.1,0.6-2.7,0.4l0.5-2.1
			C508,554.5,509.9,554.8,509.6,556z"/>
	</g>
	<g>
		<circle class="st12" cx="551.4" cy="557.5" r="9.8"/>
		<path class="st1" d="M551.4,563.7c-0.4,0-0.8-0.1-1.1-0.3l-3.2-1.9c-0.7-0.4-1.2-1.2-1.2-2v-3.8c0-0.8,0.4-1.6,1.2-2l3.2-1.9
			c0.4-0.2,0.7-0.3,1.2-0.3c0.4,0,0.8,0.1,1.1,0.3l3.2,1.9c0.7,0.4,1.2,1.2,1.2,2v3.8c0,0.8-0.4,1.6-1.2,2l-3.2,1.9
			C552.2,563.5,551.8,563.7,551.4,563.7z M549.5,559.7l-0.6,0.6c0.3,0.3,0.7,0.5,1.2,0.5c0.9,0,1.7-0.8,1.7-1.7v-0.5
			c0.2,0.1,0.5,0.2,0.9,0.2c0.4,0,0.9-0.2,1.2-0.5l-0.6-0.6c-0.2,0.2-0.4,0.2-0.6,0.2c-0.5,0-0.9-0.4-0.9-0.9v-2.9H551v4.9
			c0,0.5-0.4,0.9-0.9,0.9C550,560,549.7,559.9,549.5,559.7z"/>
	</g>
	<g>
		<circle class="st1" cx="529.2" cy="557.5" r="9.8"/>
		<g>
			<path class="st11" d="M529.2,547.8c-5.4,0-9.8,4.4-9.8,9.8s4.4,9.8,9.8,9.8s9.8-4.4,9.8-9.8l0,0l0,0
				C539,552.2,534.6,547.9,529.2,547.8L529.2,547.8z M529.4,557.9l-1,3.4h5.4c0.2,0,0.2,0.1,0.2,0.2l0,0v0.1l-0.5,1.6
				c-0.1,0.2-0.2,0.2-0.3,0.2H525l1.4-4.7l-1.6,0.5l0.3-1.1l1.6-0.5l2-6.6c0.1-0.2,0.2-0.2,0.3-0.2h2.1c0.2,0,0.2,0.1,0.2,0.2l0,0
				v0.1l-1.6,5.6l1.6-0.5l-0.3,1.2L529.4,557.9z"/>
		</g>
	</g>
	<circle class="st1" cx="643.2" cy="555" r="12.3"/>
	<g>
		<g>
			<defs>
				<circle id="SVGID_5_" cx="643.2" cy="555" r="11"/>
			</defs>
			<clipPath id="SVGID_6_">
				<use xlink:href="#SVGID_5_"  style="overflow:visible;"/>
			</clipPath>
			<g class="st14">
				
					<image style="overflow:visible;enable-background:new    ;" width="370" height="370" xlink:href="260FA8EC.jpg"  transform="matrix(5.933359e-002 0 0 5.933359e-002 632.2557 544.0125)">
				</image>
			</g>
		</g>
	</g>
	<circle class="st1" cx="659" cy="555" r="12.3"/>
	<g>
		<g>
			<defs>
				<circle id="SVGID_7_" cx="659" cy="248.7" r="11"/>
			</defs>
			<clipPath id="SVGID_8_">
				<use xlink:href="#SVGID_7_"  style="overflow:visible;"/>
			</clipPath>
			<g class="st15">
				
					<image style="overflow:visible;enable-background:new    ;" width="200" height="200" xlink:href="260FA8EB.jpg"  transform="matrix(0.11 0 0 0.11 648.0364 237.651)">
				</image>
			</g>
		</g>
	</g>
	<circle class="st1" cx="678.6" cy="248.7" r="12.3"/>
	<g>
		<circle class="st16" cx="678.6" cy="248.7" r="11"/>
		<g>
			<g>
				<path class="st17" d="M676.2,251.5c-0.2,0-0.4,0-0.6-0.1v-0.8c0.2,0,0.3,0,0.4,0c0.2,0,0.4-0.1,0.4-0.2c0.1-0.1,0.1-0.3,0.1-0.6
					v-4.2h0.9v4.2c0,0.5-0.1,0.9-0.4,1.2C676.9,251.3,676.6,251.5,676.2,251.5z"/>
				<path class="st17" d="M680.4,250.2h-0.9v-3.6h-1.2v-0.8h3.4v0.8h-1.2V250.2z"/>
			</g>
		</g>
	</g>
	<g>
		<g>
			<defs>
				<circle id="SVGID_9_" cx="643.2" cy="398.3" r="11"/>
			</defs>
			<clipPath id="SVGID_10_">
				<use xlink:href="#SVGID_9_"  style="overflow:visible;"/>
			</clipPath>
			<g class="st18">
				
					<image style="overflow:visible;enable-background:new    ;" width="300" height="300" xlink:href="260FA8E5.jpg"  transform="matrix(7.352054e-002 0 0 7.352054e-002 632.1704 387.2479)">
				</image>
			</g>
		</g>
	</g>
	<circle class="st1" cx="659" cy="398.3" r="12.3"/>
	<g>
		<circle class="st3" cx="659" cy="398.3" r="11"/>
		<g>
			<g>
				<path class="st4" d="M656.6,401.2c-0.2,0-0.4,0-0.6-0.1v-0.8c0.2,0,0.3,0,0.4,0c0.2,0,0.4-0.1,0.4-0.2c0.1-0.1,0.1-0.3,0.1-0.6
					v-4.2h0.9v4.2c0,0.5-0.1,0.9-0.4,1.2C657.4,401,657.1,401.2,656.6,401.2z"/>
				<path class="st4" d="M660.8,399.9h-0.9v-3.6h-1.2v-0.8h3.4v0.8h-1.2V399.9z"/>
			</g>
		</g>
	</g>
	<circle class="st1" cx="678.6" cy="398.3" r="12.3"/>
	<g>
		<g>
			<defs>
				<circle id="SVGID_11_" cx="659" cy="555" r="11.1"/>
			</defs>
			<clipPath id="SVGID_12_">
				<use xlink:href="#SVGID_11_"  style="overflow:visible;"/>
			</clipPath>
			<g class="st19">
				
					<image style="overflow:visible;enable-background:new    ;" width="225" height="225" xlink:href="260FA8E7.jpg"  transform="matrix(9.861059e-002 0 0 9.861059e-002 647.9399 543.9102)">
				</image>
			</g>
		</g>
	</g>
	<g>
		<g>
			<defs>
				<circle id="SVGID_13_" cx="678.6" cy="398.3" r="11.1"/>
			</defs>
			<clipPath id="SVGID_14_">
				<use xlink:href="#SVGID_13_"  style="overflow:visible;"/>
			</clipPath>
			<g class="st20">
				
					<image style="overflow:visible;enable-background:new    ;" width="225" height="225" xlink:href="80436964.jpg"  transform="matrix(9.861059e-002 0 0 9.861059e-002 667.514 387.2179)">
				</image>
			</g>
		</g>
	</g>
	<circle class="st1" cx="678.6" cy="555" r="12.3"/>
	<g>
		<g>
			<defs>
				<circle id="SVGID_15_" cx="678.6" cy="555" r="11"/>
			</defs>
			<clipPath id="SVGID_16_">
				<use xlink:href="#SVGID_15_"  style="overflow:visible;"/>
			</clipPath>
			<g class="st21">
				
					<image style="overflow:visible;enable-background:new    ;" width="270" height="270" xlink:href="80436963.jpg"  transform="matrix(8.130055e-002 0 0 8.130055e-002 667.5995 544.0114)">
				</image>
			</g>
		</g>
	</g>
	<circle class="st1" cx="695" cy="555" r="12.3"/>
	<circle class="st12" cx="695" cy="555" r="11"/>
	<g>
		<text transform="matrix(1 0 0 1 689.7217 557.4798)" class="st22 st23 st24">+5</text>
	</g>
</g>
</svg>
