<?xml version="1.0" encoding="utf-8"?>
<!-- Generator: Adobe Illustrator 19.0.0, SVG Export Plug-In . SVG Version: 6.00 Build 0)  -->
<svg version="1.1" id="Calque_1" xmlns="http://www.w3.org/2000/svg" xmlns:xlink="http://www.w3.org/1999/xlink" x="0px" y="0px"
	 viewBox="68 50.1 748.2 692.9" style="enable-background:new 68 50.1 748.2 692.9;" xml:space="preserve">
<style type="text/css">
	.st0{fill:url(#SVGID_1_);}
	.st1{fill:#1B1B49;}
	.st2{opacity:0.35;enable-background:new    ;}
	.st3{clip-path:url(#SVGID_3_);fill:#A47FF8;}
	.st4{fill:#FAFAFA;}
	.st5{fill:#6D30ED;}
	.st6{clip-path:url(#SVGID_5_);}
	.st7{fill:#6D30ED;stroke:#FFFFFF;stroke-width:2;stroke-miterlimit:10;}
	.st8{fill:none;stroke:#FFFFFF;stroke-width:2;stroke-linecap:round;stroke-linejoin:round;stroke-miterlimit:10;}
	.st9{fill:#C5C4C6;}
	.st10{fill:none;stroke:#FAFAFA;stroke-miterlimit:10;}
	.st11{clip-path:url(#SVGID_7_);}
	.st12{fill:#FFFFFF;}
	.st13{fill:none;stroke:#FAFAFA;stroke-width:2;stroke-miterlimit:10;}
</style>
<g id="BG">
</g>
<g id="section1">
</g>
<g id="section2">
</g>
<g id="section3">
</g>
<g id="section4">
</g>
<linearGradient id="SVGID_1_" gradientUnits="userSpaceOnUse" x1="460.7" y1="16782.4629" x2="794.6" y2="16782.4629" gradientTransform="matrix(1 0 0 1 0 -16381.7998)">
	<stop  offset="0" style="stop-color:#6A00E5"/>
	<stop  offset="1" style="stop-color:#5D66E5"/>
</linearGradient>
<path class="st0" d="M788.3,590.2H467c-3.5,0-6.3-2.8-6.3-6.3V217.4c0-3.5,2.8-6.3,6.3-6.3h321.3c3.5,0,6.3,2.8,6.3,6.3v366.5
	C794.6,587.4,791.8,590.2,788.3,590.2z"/>
<g>
	
		<image style="overflow:visible;opacity:0.12;enable-background:new    ;" width="365" height="411" xlink:href="85018658.png"  transform="matrix(1 0 0 0.9976 79.6 197.85)">
	</image>
	<g>
		<path class="st1" d="M420.4,590.2H99.1c-3.5,0-6.3-2.8-6.3-6.3V217.4c0-3.5,2.8-6.3,6.3-6.3h321.3c3.5,0,6.3,2.8,6.3,6.3v366.5
			C426.8,587.4,423.9,590.2,420.4,590.2z"/>
	</g>
</g>
<g class="st2">
	<g>
		<defs>
			<circle id="SVGID_2_" cx="534.5" cy="264.1" r="157.6"/>
		</defs>
		<clipPath id="SVGID_3_">
			<use xlink:href="#SVGID_2_"  style="overflow:visible;"/>
		</clipPath>
		<path class="st3" d="M789.3,590.2H468c-3.5,0-6.3-2.8-6.3-6.3V217.4c0-3.5,2.8-6.3,6.3-6.3h321.3c3.5,0,6.3,2.8,6.3,6.3v366.5
			C795.6,587.4,792.8,590.2,789.3,590.2z"/>
	</g>
</g>
<g>
	<path class="st4" d="M140.8,264.3c0,1.7-0.6,3.1-1.9,4.2c-1.2,1.1-3,1.8-5.4,2v3.8h-2.3v-3.7c-2.9,0-5.3-0.5-7.2-1.3v-3.7
		c1,0.5,2.2,0.9,3.5,1.2s2.6,0.5,3.6,0.5v-6.6l-1.5-0.5c-1.9-0.7-3.3-1.6-4.2-2.7c-0.9-1-1.3-2.3-1.3-3.8c0-1.6,0.6-3,1.9-4
		s3-1.7,5.1-1.9v-3h2.3v2.9c2.4,0.1,4.7,0.6,6.8,1.4l-1.3,3.2c-1.8-0.7-3.7-1.2-5.5-1.3v6.4l1.3,0.5c2.2,0.9,3.8,1.8,4.6,2.7
		S140.8,262.9,140.8,264.3z M128.3,253.7c0,0.7,0.2,1.2,0.6,1.7c0.4,0.4,1.2,0.9,2.3,1.3v-5.5c-0.9,0.1-1.7,0.4-2.2,0.9
		C128.5,252.5,128.3,253,128.3,253.7z M136.6,264.5c0-0.7-0.2-1.2-0.7-1.7c-0.5-0.4-1.3-0.9-2.4-1.3v5.6
		C135.6,266.9,136.6,266,136.6,264.5z"/>
	<path class="st4" d="M162.7,266.6h-3.5v5.6h-4v-5.6h-11.8v-3.2l11.8-17.1h4v16.8h3.5V266.6z M155.1,263.2v-6.5
		c0-2.3,0.1-4.2,0.2-5.7h-0.1c-0.3,0.8-0.8,1.7-1.6,2.8l-6.4,9.3h7.9V263.2z"/>
	<path class="st4" d="M182.4,259.4c0,4.5-0.7,7.8-2.2,10c-1.4,2.2-3.6,3.3-6.6,3.3c-2.9,0-5.1-1.1-6.5-3.4c-1.5-2.2-2.2-5.5-2.2-9.9
		c0-4.6,0.7-7.9,2.2-10.1c1.4-2.2,3.6-3.2,6.6-3.2c2.9,0,5.1,1.1,6.6,3.4C181.6,251.7,182.4,255,182.4,259.4z M169,259.4
		c0,3.5,0.4,6,1.1,7.5c0.7,1.5,1.9,2.3,3.5,2.3s2.8-0.8,3.5-2.3s1.1-4,1.1-7.5c0-3.5-0.4-6-1.1-7.5c-0.7-1.5-1.9-2.3-3.5-2.3
		s-2.7,0.8-3.5,2.3C169.4,253.3,169,255.8,169,259.4z"/>
	<path class="st4" d="M191.2,268.5c-0.6,2.2-1.6,5-3.1,8.5H185c0.8-3.2,1.4-6.1,1.8-8.9h4.1L191.2,268.5z"/>
	<path class="st4" d="M212.7,259.4c0,4.5-0.7,7.8-2.2,10c-1.4,2.2-3.6,3.3-6.6,3.3c-2.9,0-5.1-1.1-6.5-3.4c-1.5-2.2-2.2-5.5-2.2-9.9
		c0-4.6,0.7-7.9,2.2-10.1c1.4-2.2,3.6-3.2,6.6-3.2c2.9,0,5.1,1.1,6.6,3.4C211.9,251.7,212.7,255,212.7,259.4z M199.4,259.4
		c0,3.5,0.4,6,1.1,7.5c0.7,1.5,1.9,2.3,3.5,2.3s2.8-0.8,3.5-2.3s1.1-4,1.1-7.5c0-3.5-0.4-6-1.1-7.5c-0.7-1.5-1.9-2.3-3.5-2.3
		s-2.7,0.8-3.5,2.3C199.7,253.3,199.4,255.8,199.4,259.4z"/>
	<path class="st4" d="M233.3,259.4c0,4.5-0.7,7.8-2.2,10c-1.4,2.2-3.6,3.3-6.6,3.3c-2.9,0-5.1-1.1-6.5-3.4c-1.5-2.2-2.2-5.5-2.2-9.9
		c0-4.6,0.7-7.9,2.2-10.1c1.4-2.2,3.6-3.2,6.6-3.2c2.9,0,5.1,1.1,6.6,3.4C232.6,251.7,233.3,255,233.3,259.4z M220,259.4
		c0,3.5,0.4,6,1.1,7.5c0.7,1.5,1.9,2.3,3.5,2.3s2.8-0.8,3.5-2.3s1.1-4,1.1-7.5c0-3.5-0.4-6-1.1-7.5c-0.7-1.5-1.9-2.3-3.5-2.3
		s-2.7,0.8-3.5,2.3C220.4,253.3,220,255.8,220,259.4z"/>
	<path class="st4" d="M254,259.4c0,4.5-0.7,7.8-2.2,10c-1.4,2.2-3.6,3.3-6.6,3.3c-2.9,0-5.1-1.1-6.5-3.4c-1.5-2.2-2.2-5.5-2.2-9.9
		c0-4.6,0.7-7.9,2.2-10.1c1.4-2.2,3.6-3.2,6.6-3.2c2.9,0,5.1,1.1,6.6,3.4C253.2,251.7,254,255,254,259.4z M240.6,259.4
		c0,3.5,0.4,6,1.1,7.5c0.7,1.5,1.9,2.3,3.5,2.3s2.8-0.8,3.5-2.3s1.1-4,1.1-7.5c0-3.5-0.4-6-1.1-7.5c-0.7-1.5-1.9-2.3-3.5-2.3
		s-2.7,0.8-3.5,2.3C241,253.3,240.6,255.8,240.6,259.4z"/>
</g>
<g>
	<path class="st4" d="M507.1,264.3c0,1.7-0.6,3.1-1.9,4.2c-1.2,1.1-3,1.8-5.4,2v3.8h-2.3v-3.7c-2.9,0-5.3-0.5-7.2-1.3v-3.7
		c1,0.5,2.2,0.9,3.5,1.2s2.6,0.5,3.6,0.5v-6.6l-1.5-0.5c-1.9-0.7-3.3-1.6-4.2-2.7c-0.9-1-1.3-2.3-1.3-3.8c0-1.6,0.6-3,1.9-4
		s3-1.7,5.1-1.9v-3h2.3v2.9c2.4,0.1,4.7,0.6,6.8,1.4l-1.3,3.2c-1.8-0.7-3.7-1.2-5.5-1.3v6.4l1.3,0.5c2.2,0.9,3.8,1.8,4.6,2.7
		S507.1,262.9,507.1,264.3z M494.6,253.7c0,0.7,0.2,1.2,0.6,1.7c0.4,0.4,1.2,0.9,2.3,1.3v-5.5c-0.9,0.1-1.7,0.4-2.2,0.9
		C494.9,252.5,494.6,253,494.6,253.7z M503,264.5c0-0.7-0.2-1.2-0.7-1.7c-0.5-0.4-1.3-0.9-2.4-1.3v5.6
		C501.9,266.9,503,266,503,264.5z"/>
	<path class="st4" d="M529,266.6h-3.5v5.6h-4v-5.6h-11.8v-3.2l11.8-17.1h4v16.8h3.5V266.6z M521.5,263.2v-6.5c0-2.3,0.1-4.2,0.2-5.7
		h-0.1c-0.3,0.8-0.8,1.7-1.6,2.8l-6.4,9.3h7.9V263.2z"/>
	<path class="st4" d="M547.8,252.4c0,1.6-0.5,3-1.4,4.1c-1,1.1-2.3,1.8-4,2.2v0.1c2.1,0.3,3.6,0.9,4.7,1.9s1.6,2.4,1.6,4.1
		c0,2.5-0.9,4.4-2.6,5.7c-1.8,1.3-4.3,2-7.5,2c-2.9,0-5.3-0.5-7.2-1.4v-3.7c1.1,0.5,2.3,1,3.5,1.3s2.4,0.4,3.5,0.4
		c2,0,3.5-0.4,4.5-1.1s1.5-1.9,1.5-3.4c0-1.4-0.5-2.4-1.6-3s-2.8-1-5.2-1h-2.2v-3.4h2.3c4.1,0,6.2-1.4,6.2-4.3c0-1.1-0.4-2-1.1-2.6
		c-0.7-0.6-1.8-0.9-3.2-0.9c-1,0-1.9,0.1-2.8,0.4c-0.9,0.3-2,0.8-3.2,1.6l-2-2.9c2.4-1.7,5.1-2.6,8.2-2.6c2.6,0,4.6,0.6,6.1,1.7
		C547,248.9,547.8,250.4,547.8,252.4z"/>
	<path class="st4" d="M557.6,268.5c-0.6,2.2-1.6,5-3.1,8.5h-3.1c0.8-3.2,1.4-6.1,1.8-8.9h4.1L557.6,268.5z"/>
	<path class="st4" d="M570.3,256.2c2.6,0,4.7,0.7,6.2,2.1s2.3,3.3,2.3,5.6c0,2.8-0.9,4.9-2.6,6.5c-1.7,1.5-4.2,2.3-7.4,2.3
		c-2.9,0-5.2-0.5-6.8-1.4v-3.8c1,0.5,2,1,3.3,1.3c1.2,0.3,2.4,0.4,3.4,0.4c1.9,0,3.3-0.4,4.3-1.3s1.5-2.1,1.5-3.7
		c0-3.1-2-4.6-5.9-4.6c-0.6,0-1.2,0.1-2,0.2s-1.5,0.2-2.1,0.4l-1.9-1.1l1-12.6H577v3.7h-9.8l-0.6,6.4c0.4-0.1,0.9-0.2,1.5-0.2
		C568.7,256.2,569.5,256.2,570.3,256.2z"/>
	<path class="st4" d="M591,256.2c2.6,0,4.7,0.7,6.2,2.1s2.3,3.3,2.3,5.6c0,2.8-0.9,4.9-2.6,6.5c-1.7,1.5-4.2,2.3-7.4,2.3
		c-2.9,0-5.2-0.5-6.8-1.4v-3.8c1,0.5,2,1,3.3,1.3c1.2,0.3,2.4,0.4,3.4,0.4c1.9,0,3.3-0.4,4.3-1.3s1.5-2.1,1.5-3.7
		c0-3.1-2-4.6-5.9-4.6c-0.6,0-1.2,0.1-2,0.2s-1.5,0.2-2.1,0.4l-1.9-1.1l1-12.6h13.3v3.7h-9.8l-0.6,6.4c0.4-0.1,0.9-0.2,1.5-0.2
		C589.4,256.2,590.1,256.2,591,256.2z"/>
	<path class="st4" d="M620.3,259.4c0,4.5-0.7,7.8-2.2,10c-1.4,2.2-3.6,3.3-6.6,3.3c-2.9,0-5.1-1.1-6.5-3.4c-1.5-2.2-2.2-5.5-2.2-9.9
		c0-4.6,0.7-7.9,2.2-10.1c1.4-2.2,3.6-3.2,6.6-3.2c2.9,0,5.1,1.1,6.6,3.4C619.6,251.7,620.3,255,620.3,259.4z M607,259.4
		c0,3.5,0.4,6,1.1,7.5c0.7,1.5,1.9,2.3,3.5,2.3s2.8-0.8,3.5-2.3s1.1-4,1.1-7.5c0-3.5-0.4-6-1.1-7.5c-0.7-1.5-1.9-2.3-3.5-2.3
		s-2.7,0.8-3.5,2.3C607.4,253.3,607,255.8,607,259.4z"/>
</g>
<g>
	<g>
		<path class="st4" d="M394.2,264.3h-17.6l-1.8-7.8c-1.3-0.1-2.3-1.1-2.3-2.4s1.1-2.4,2.4-2.4s2.4,1.1,2.4,2.4
			c0,0.6-0.3,1.2-0.7,1.7c2.9,3.2,5.3,2.9,7.6-0.8c-0.6-0.4-0.9-1.1-0.9-1.9c0-1.3,1.1-2.4,2.4-2.4s2.4,1.1,2.4,2.4
			c0,0.8-0.4,1.5-1,2c1.9,3.7,4.4,3.9,7.6,0.8c-0.4-0.4-0.6-1-0.6-1.6c0-1.3,1.1-2.4,2.4-2.4s2.4,1.1,2.4,2.4s-1.1,2.4-2.4,2.4
			L394.2,264.3z M377.4,263.2h15.9l1.8-6.6c-3.9,3.7-7.2,3.1-9.5-1.6l-0.2-0.4l-0.2,0.4c-2.6,4.7-5.9,5.3-9.4,1.6L377.4,263.2z
			 M395.8,255.4h0.2c0.8,0.2,1.6-0.5,1.6-1.3c0-0.7-0.6-1.3-1.3-1.3c-0.7,0-1.3,0.6-1.3,1.3c0,0.5,0.2,0.9,0.6,1.1L395.8,255.4z
			 M374.9,252.7c-0.7,0-1.3,0.6-1.3,1.3c0,0.7,0.6,1.3,1.3,1.3c0.1,0,0.2,0,0.2,0h0.2l0.2-0.1c0.4-0.2,0.7-0.7,0.7-1.1
			C376.2,253.3,375.6,252.7,374.9,252.7z M385.6,251.7c-0.7,0-1.3,0.6-1.3,1.3c0,0.5,0.3,1,0.8,1.2l0.5,0.2l0.5-0.2
			c0.5-0.2,0.9-0.7,0.9-1.2C386.9,252.3,386.3,251.7,385.6,251.7z"/>
		<path class="st4" d="M393.6,266.4h-16.4c-0.3,0-0.5-0.2-0.5-0.5l0,0c0-0.3,0.2-0.5,0.5-0.5h16.4c0.3,0,0.5,0.2,0.5,0.5l0,0
			C394.1,266.2,393.9,266.4,393.6,266.4z"/>
	</g>
</g>
<g>
	<path class="st5" d="M322.4,559.6H197.2c-1.2,0-2.1-1-2.1-2.1v-31.3c0-1.2,1-2.1,2.1-2.1h125.2c1.2,0,2.1,1,2.1,2.1v31.3
		C324.5,558.6,323.6,559.6,322.4,559.6z"/>
	<g>
		<path class="st4" d="M234.2,538.2c-0.9,0-1.6,0.3-2.1,0.9s-0.8,1.5-0.8,2.6c0,1.2,0.2,2,0.7,2.6s1.2,0.9,2.1,0.9
			c0.4,0,0.8,0,1.2-0.1s0.8-0.2,1.2-0.3v1.3c-0.7,0.3-1.6,0.4-2.5,0.4c-1.4,0-2.4-0.4-3.2-1.3s-1.1-2-1.1-3.6c0-1,0.2-1.8,0.5-2.6
			c0.4-0.7,0.9-1.3,1.6-1.7s1.5-0.6,2.4-0.6c1,0,1.9,0.2,2.7,0.6l-0.6,1.3c-0.3-0.2-0.7-0.3-1-0.4
			C235,538.2,234.6,538.2,234.2,538.2z"/>
		<path class="st4" d="M244.7,546.4h-1.5V542c0-0.6-0.1-1-0.3-1.2s-0.6-0.4-1.1-0.4c-0.6,0-1.1,0.2-1.4,0.6s-0.4,1-0.4,1.9v3.6h-1.5
			v-10.1h1.5v2.6c0,0.4,0,0.8-0.1,1.3h0.1c0.2-0.3,0.5-0.6,0.9-0.8s0.8-0.3,1.3-0.3c1.7,0,2.6,0.9,2.6,2.6v4.6H244.7z"/>
		<path class="st4" d="M253.2,542.8c0,1.2-0.3,2.1-0.9,2.7c-0.6,0.7-1.4,1-2.5,1c-0.7,0-1.3-0.2-1.8-0.5s-0.9-0.7-1.2-1.3
			s-0.4-1.2-0.4-2c0-1.2,0.3-2.1,0.9-2.7s1.4-1,2.5-1c1,0,1.9,0.3,2.5,1C252.9,540.8,253.2,541.7,253.2,542.8z M248,542.8
			c0,1.7,0.6,2.5,1.8,2.5s1.8-0.8,1.8-2.5c0-1.6-0.6-2.5-1.8-2.5c-0.6,0-1.1,0.2-1.4,0.6C248.1,541.5,248,542.1,248,542.8z"/>
		<path class="st4" d="M261.3,542.8c0,1.2-0.3,2.1-0.9,2.7c-0.6,0.7-1.4,1-2.5,1c-0.7,0-1.3-0.2-1.8-0.5c-0.5-0.3-0.9-0.7-1.2-1.3
			s-0.4-1.2-0.4-2c0-1.2,0.3-2.1,0.9-2.7c0.6-0.6,1.4-1,2.5-1c1,0,1.9,0.3,2.5,1C261,540.8,261.3,541.7,261.3,542.8z M256.1,542.8
			c0,1.7,0.6,2.5,1.8,2.5c1.2,0,1.8-0.8,1.8-2.5c0-1.6-0.6-2.5-1.8-2.5c-0.6,0-1.1,0.2-1.4,0.6C256.2,541.5,256.1,542.1,256.1,542.8
			z"/>
		<path class="st4" d="M267.8,544.4c0,0.7-0.3,1.2-0.8,1.6c-0.5,0.4-1.2,0.6-2.2,0.6s-1.7-0.1-2.3-0.4v-1.3c0.8,0.4,1.6,0.6,2.3,0.6
			c0.9,0,1.4-0.3,1.4-0.8c0-0.2-0.1-0.3-0.2-0.5c-0.1-0.1-0.3-0.2-0.5-0.4c-0.2-0.1-0.6-0.3-1-0.4c-0.8-0.3-1.4-0.6-1.7-1
			c-0.3-0.3-0.4-0.7-0.4-1.2c0-0.6,0.2-1.1,0.7-1.4c0.5-0.3,1.2-0.5,2-0.5s1.6,0.2,2.4,0.5l-0.5,1.1c-0.8-0.3-1.4-0.5-1.9-0.5
			c-0.8,0-1.2,0.2-1.2,0.7c0,0.2,0.1,0.4,0.3,0.6c0.2,0.2,0.7,0.4,1.4,0.6c0.6,0.2,1,0.4,1.3,0.6c0.3,0.2,0.5,0.4,0.6,0.7
			S267.8,544.1,267.8,544.4z"/>
		<path class="st4" d="M272.6,546.6c-1.1,0-2-0.3-2.6-1c-0.6-0.6-0.9-1.5-0.9-2.7s0.3-2.1,0.9-2.8s1.4-1,2.4-1
			c0.9,0,1.7,0.3,2.2,0.9c0.5,0.6,0.8,1.4,0.8,2.4v0.8h-4.8c0,0.7,0.2,1.2,0.6,1.6s0.9,0.6,1.5,0.6c0.4,0,0.8,0,1.2-0.1
			c0.4-0.1,0.8-0.2,1.2-0.4v1.2c-0.4,0.2-0.7,0.3-1.1,0.4S273.1,546.6,272.6,546.6z M272.3,540.3c-0.5,0-0.9,0.2-1.2,0.5
			c-0.3,0.3-0.5,0.8-0.5,1.3h3.2c0-0.6-0.2-1-0.4-1.3S272.8,540.3,272.3,540.3z"/>
	</g>
	<path class="st4" d="M290.8,539c-0.3-0.3-0.8-0.3-1.2,0c-0.3,0.3-0.3,0.8,0,1.2l1.6,1.6h-7.8c-0.5,0-0.8,0.4-0.8,0.8
		c0,0.5,0.4,0.8,0.8,0.8h7.8l-1.6,1.6c-0.3,0.3-0.3,0.8,0,1.2c0.2,0.2,0.4,0.2,0.6,0.2s0.4-0.1,0.6-0.2l3.6-3.6L290.8,539z"/>
</g>
<g>
	<g>
		<g>
			<defs>
				<circle id="SVGID_4_" cx="259.8" cy="357.2" r="39.4"/>
			</defs>
			<clipPath id="SVGID_5_">
				<use xlink:href="#SVGID_4_"  style="overflow:visible;"/>
			</clipPath>
			<g class="st6">
				
					<image style="overflow:visible;enable-background:new    ;" width="300" height="300" xlink:href="85018658.jpg"  transform="matrix(0.2623 0 0 0.2623 220.3627 317.8361)">
				</image>
			</g>
		</g>
	</g>
	<circle class="st7" cx="286.6" cy="385" r="12.5"/>
	<polyline class="st8" points="282.6,385 285.5,387.6 291.5,382.2 	"/>
</g>
<g>
	<g>
		<path class="st9" d="M181.9,453.6h-1.8l-1.7-6c-0.1-0.3-0.2-0.6-0.3-1.1s-0.2-0.8-0.2-1c0,0.3-0.1,0.7-0.2,1.1
			c-0.1,0.5-0.2,0.8-0.3,1l-1.7,5.9h-1.8l-1.3-5l-1.3-5h1.7l1.4,5.8c0.2,0.9,0.4,1.8,0.5,2.5c0.1-0.4,0.1-0.8,0.2-1.3
			s0.2-0.9,0.3-1.2l1.6-5.9h1.6l1.7,5.9c0.2,0.5,0.3,1.4,0.5,2.4c0.1-0.7,0.2-1.5,0.5-2.5l1.4-5.8h1.7L181.9,453.6z"/>
		<path class="st9" d="M190.5,453.6l-0.3-1.1h-0.1c-0.4,0.5-0.7,0.8-1.1,0.9c-0.4,0.2-0.8,0.3-1.4,0.3c-0.7,0-1.3-0.2-1.7-0.6
			s-0.6-1-0.6-1.7c0-0.8,0.3-1.4,0.9-1.8s1.5-0.6,2.7-0.7h1.3v-0.4c0-0.5-0.1-0.8-0.3-1.1c-0.2-0.2-0.6-0.4-1.1-0.4
			c-0.4,0-0.8,0.1-1.1,0.2s-0.7,0.2-1,0.4l-0.5-1.2c0.4-0.2,0.9-0.4,1.3-0.5c0.5-0.1,1-0.2,1.4-0.2c1,0,1.7,0.2,2.2,0.6
			s0.7,1.1,0.7,2v5.1h-1.3V453.6z M188.1,452.5c0.6,0,1.1-0.2,1.4-0.5c0.4-0.3,0.5-0.8,0.5-1.4v-0.7h-1c-0.8,0-1.3,0.2-1.7,0.4
			c-0.3,0.2-0.5,0.6-0.5,1c0,0.3,0.1,0.6,0.3,0.8C187.4,452.4,187.7,452.5,188.1,452.5z"/>
		<path class="st9" d="M199,451.4c0,0.7-0.3,1.3-0.8,1.7c-0.5,0.4-1.3,0.6-2.3,0.6s-1.8-0.2-2.4-0.5v-1.3c0.9,0.4,1.7,0.6,2.5,0.6
			c1,0,1.5-0.3,1.5-0.9c0-0.2-0.1-0.4-0.2-0.5c-0.1-0.1-0.3-0.3-0.5-0.4c-0.3-0.1-0.6-0.3-1-0.5c-0.9-0.3-1.5-0.7-1.8-1
			s-0.5-0.8-0.5-1.3c0-0.6,0.3-1.2,0.8-1.5c0.5-0.4,1.2-0.5,2.1-0.5c0.9,0,1.7,0.2,2.5,0.5l-0.5,1.2c-0.8-0.3-1.5-0.5-2.1-0.5
			c-0.8,0-1.3,0.2-1.3,0.7c0,0.2,0.1,0.4,0.3,0.6s0.7,0.4,1.4,0.7c0.6,0.2,1.1,0.5,1.4,0.7s0.5,0.4,0.6,0.7
			C198.9,450.8,199,451.1,199,451.4z"/>
		<path class="st9" d="M207.2,452.4c0.4,0,0.8-0.1,1.2-0.2v1.2c-0.2,0.1-0.4,0.1-0.7,0.2s-0.6,0.1-0.9,0.1c-1.5,0-2.3-0.8-2.3-2.4
			v-4.1h-1v-0.7l1.1-0.6l0.5-1.6h1v1.7h2.2v1.2h-2.2v4.1c0,0.4,0.1,0.7,0.3,0.9C206.6,452.3,206.9,452.4,207.2,452.4z"/>
		<path class="st9" d="M216.5,453.6h-1.6v-4.7c0-0.6-0.1-1-0.4-1.3c-0.2-0.3-0.6-0.4-1.1-0.4c-0.7,0-1.2,0.2-1.5,0.6s-0.5,1.1-0.5,2
			v3.8h-1.6v-10.7h1.6v2.7c0,0.4,0,0.9-0.1,1.4h0.1c0.2-0.4,0.5-0.6,0.9-0.8c0.4-0.2,0.8-0.3,1.4-0.3c1.8,0,2.8,0.9,2.8,2.8
			L216.5,453.6L216.5,453.6z"/>
		<path class="st9" d="M222.1,453.7c-1.2,0-2.1-0.3-2.8-1s-1-1.6-1-2.8c0-1.2,0.3-2.2,0.9-2.9s1.5-1.1,2.5-1.1s1.8,0.3,2.4,0.9
			s0.9,1.4,0.9,2.5v0.9h-5c0,0.7,0.2,1.3,0.6,1.7c0.4,0.4,0.9,0.6,1.6,0.6c0.4,0,0.9,0,1.3-0.1c0.4-0.1,0.8-0.2,1.2-0.4v1.3
			c-0.4,0.2-0.8,0.3-1.2,0.4C223.1,453.7,222.6,453.7,222.1,453.7z M221.8,447.1c-0.5,0-0.9,0.2-1.2,0.5s-0.5,0.8-0.6,1.4h3.4
			c0-0.6-0.2-1.1-0.5-1.4C222.7,447.3,222.3,447.1,221.8,447.1z"/>
		<path class="st9" d="M235.6,451.4c0,0.7-0.3,1.3-0.8,1.7c-0.5,0.4-1.3,0.6-2.3,0.6s-1.8-0.2-2.4-0.5v-1.3c0.9,0.4,1.7,0.6,2.5,0.6
			c1,0,1.5-0.3,1.5-0.9c0-0.2-0.1-0.4-0.2-0.5c-0.1-0.1-0.3-0.3-0.5-0.4c-0.3-0.1-0.6-0.3-1-0.5c-0.9-0.3-1.5-0.7-1.8-1
			s-0.5-0.8-0.5-1.3c0-0.6,0.3-1.2,0.8-1.5c0.5-0.4,1.2-0.5,2.1-0.5c0.9,0,1.7,0.2,2.5,0.5l-0.5,1.2c-0.8-0.3-1.5-0.5-2.1-0.5
			c-0.8,0-1.3,0.2-1.3,0.7c0,0.2,0.1,0.4,0.3,0.6s0.7,0.4,1.4,0.7c0.6,0.2,1.1,0.5,1.4,0.7s0.5,0.4,0.6,0.7
			C235.5,450.8,235.6,451.1,235.6,451.4z"/>
		<path class="st9" d="M240.6,453.7c-1.2,0-2.1-0.3-2.8-1s-1-1.6-1-2.8c0-1.2,0.3-2.2,0.9-2.9s1.5-1.1,2.5-1.1s1.8,0.3,2.4,0.9
			s0.9,1.4,0.9,2.5v0.9h-5c0,0.7,0.2,1.3,0.6,1.7c0.4,0.4,0.9,0.6,1.6,0.6c0.4,0,0.9,0,1.3-0.1c0.4-0.1,0.8-0.2,1.2-0.4v1.3
			c-0.4,0.2-0.8,0.3-1.2,0.4C241.6,453.7,241.2,453.7,240.6,453.7z M240.3,447.1c-0.5,0-0.9,0.2-1.2,0.5s-0.5,0.8-0.6,1.4h3.4
			c0-0.6-0.2-1.1-0.5-1.4C241.3,447.3,240.9,447.1,240.3,447.1z"/>
		<path class="st9" d="M248.5,453.7c-1.1,0-2-0.3-2.6-1s-0.9-1.6-0.9-2.9s0.3-2.3,0.9-2.9c0.6-0.7,1.5-1,2.7-1
			c0.8,0,1.5,0.1,2.2,0.4l-0.5,1.3c-0.7-0.3-1.2-0.4-1.7-0.4c-1.3,0-2,0.9-2,2.6c0,0.8,0.2,1.5,0.5,1.9s0.8,0.6,1.4,0.6
			c0.7,0,1.4-0.2,2-0.5v1.4c-0.3,0.2-0.6,0.3-0.9,0.4S248.9,453.7,248.5,453.7z"/>
		<path class="st9" d="M259.1,449.8c0,1.2-0.3,2.2-1,2.9c-0.6,0.7-1.5,1-2.7,1c-0.7,0-1.3-0.2-1.9-0.5c-0.5-0.3-1-0.8-1.3-1.4
			s-0.4-1.3-0.4-2.1c0-1.2,0.3-2.2,0.9-2.9c0.6-0.7,1.5-1,2.7-1c1.1,0,2,0.4,2.6,1.1C258.8,447.6,259.1,448.6,259.1,449.8z
			 M253.6,449.8c0,1.8,0.6,2.6,1.9,2.6s1.9-0.9,1.9-2.6s-0.6-2.6-1.9-2.6c-0.7,0-1.2,0.2-1.5,0.7C253.7,448.3,253.6,449,253.6,449.8
			z"/>
		<path class="st9" d="M267.6,453.6H266v-4.7c0-0.6-0.1-1-0.4-1.3c-0.2-0.3-0.6-0.4-1.1-0.4c-0.7,0-1.2,0.2-1.5,0.6s-0.5,1.1-0.5,2
			v3.8h-1.6V446h1.3l0.2,1h0.1c0.2-0.4,0.6-0.6,1-0.8c0.4-0.2,0.9-0.3,1.4-0.3c1.8,0,2.7,0.9,2.7,2.8V453.6z"/>
		<path class="st9" d="M272.4,453.7c-0.9,0-1.7-0.3-2.2-1s-0.8-1.6-0.8-2.9c0-1.2,0.3-2.2,0.8-2.9c0.5-0.7,1.3-1,2.2-1
			c1,0,1.8,0.4,2.3,1.1h0.1c-0.1-0.5-0.1-1-0.1-1.3v-2.8h1.6v10.7H275l-0.3-1h-0.1C274.2,453.4,273.4,453.7,272.4,453.7z
			 M272.8,452.4c0.7,0,1.1-0.2,1.4-0.6s0.5-1,0.5-1.8v-0.2c0-1-0.2-1.6-0.5-2s-0.8-0.6-1.5-0.6c-0.6,0-1,0.2-1.3,0.7s-0.5,1.1-0.5,2
			c0,0.8,0.1,1.5,0.4,1.9C271.8,452.2,272.2,452.4,272.8,452.4z"/>
		<path class="st9" d="M288.9,453.6h-1.6v-4.7c0-0.6-0.1-1-0.4-1.3c-0.2-0.3-0.6-0.4-1.1-0.4c-0.7,0-1.2,0.2-1.5,0.6s-0.5,1.1-0.5,2
			v3.8h-1.6v-10.7h1.6v2.7c0,0.4,0,0.9-0.1,1.4h0.1c0.2-0.4,0.5-0.6,0.9-0.8c0.4-0.2,0.8-0.3,1.4-0.3c1.8,0,2.8,0.9,2.8,2.8
			L288.9,453.6L288.9,453.6z"/>
		<path class="st9" d="M291,444c0-0.3,0.1-0.5,0.2-0.7s0.4-0.2,0.7-0.2c0.3,0,0.5,0.1,0.7,0.2c0.2,0.2,0.2,0.4,0.2,0.7
			c0,0.3-0.1,0.5-0.2,0.6c-0.2,0.2-0.4,0.2-0.7,0.2c-0.3,0-0.5-0.1-0.7-0.2C291.1,444.5,291,444.3,291,444z M292.8,453.6h-1.6V446
			h1.6V453.6z"/>
		<path class="st9" d="M301.5,446v0.9l-1.3,0.2c0.1,0.2,0.2,0.4,0.3,0.6c0.1,0.2,0.1,0.5,0.1,0.7c0,0.8-0.3,1.4-0.8,1.8
			s-1.3,0.7-2.2,0.7c-0.2,0-0.5,0-0.7-0.1c-0.3,0.2-0.5,0.5-0.5,0.8c0,0.2,0.1,0.3,0.2,0.4c0.2,0.1,0.5,0.1,0.9,0.1h1.3
			c0.8,0,1.5,0.2,1.9,0.5s0.7,0.9,0.7,1.5c0,0.9-0.4,1.5-1.1,2s-1.7,0.7-3.1,0.7c-1,0-1.8-0.2-2.4-0.5c-0.5-0.4-0.8-0.9-0.8-1.6
			c0-0.5,0.1-0.9,0.4-1.2c0.3-0.3,0.7-0.5,1.2-0.7c-0.2-0.1-0.4-0.2-0.5-0.4s-0.2-0.4-0.2-0.6c0-0.3,0.1-0.5,0.2-0.7
			c0.2-0.2,0.4-0.4,0.7-0.6c-0.4-0.2-0.7-0.4-1-0.8c-0.2-0.4-0.4-0.8-0.4-1.3c0-0.8,0.3-1.5,0.8-1.9s1.3-0.7,2.2-0.7
			c0.2,0,0.4,0,0.7,0c0.2,0,0.4,0.1,0.5,0.1h2.9V446z M295.5,454.8c0,0.3,0.2,0.6,0.5,0.8c0.3,0.2,0.8,0.3,1.3,0.3
			c0.9,0,1.5-0.1,2-0.4c0.4-0.3,0.6-0.6,0.6-1c0-0.3-0.1-0.6-0.4-0.7c-0.2-0.1-0.7-0.2-1.3-0.2H297c-0.5,0-0.8,0.1-1.1,0.3
			C295.6,454.1,295.5,454.4,295.5,454.8z M296.2,448.5c0,0.5,0.1,0.8,0.4,1.1c0.2,0.3,0.6,0.4,1.1,0.4c0.9,0,1.4-0.5,1.4-1.5
			c0-0.5-0.1-0.9-0.3-1.1c-0.2-0.3-0.6-0.4-1.1-0.4s-0.8,0.1-1.1,0.4C296.3,447.6,296.2,448,296.2,448.5z"/>
		<path class="st9" d="M309.5,453.6h-1.6v-4.7c0-0.6-0.1-1-0.4-1.3c-0.2-0.3-0.6-0.4-1.1-0.4c-0.7,0-1.2,0.2-1.5,0.6s-0.5,1.1-0.5,2
			v3.8h-1.6v-10.7h1.6v2.7c0,0.4,0,0.9-0.1,1.4h0.1c0.2-0.4,0.5-0.6,0.9-0.8c0.4-0.2,0.8-0.3,1.4-0.3c1.8,0,2.8,0.9,2.8,2.8
			L309.5,453.6L309.5,453.6z"/>
		<path class="st9" d="M315.1,453.7c-1.2,0-2.1-0.3-2.8-1s-1-1.6-1-2.8c0-1.2,0.3-2.2,0.9-2.9s1.5-1.1,2.5-1.1s1.8,0.3,2.4,0.9
			s0.9,1.4,0.9,2.5v0.9h-5c0,0.7,0.2,1.3,0.6,1.7c0.4,0.4,0.9,0.6,1.6,0.6c0.4,0,0.9,0,1.3-0.1s0.8-0.2,1.2-0.4v1.3
			c-0.4,0.2-0.8,0.3-1.2,0.4C316,453.7,315.6,453.7,315.1,453.7z M314.8,447.1c-0.5,0-0.9,0.2-1.2,0.5c-0.3,0.3-0.5,0.8-0.6,1.4h3.4
			c0-0.6-0.2-1.1-0.5-1.4C315.7,447.3,315.3,447.1,314.8,447.1z"/>
		<path class="st9" d="M324.9,451.4c0,0.7-0.3,1.3-0.8,1.7c-0.5,0.4-1.3,0.6-2.3,0.6s-1.8-0.2-2.4-0.5v-1.3c0.9,0.4,1.7,0.6,2.5,0.6
			c1,0,1.5-0.3,1.5-0.9c0-0.2-0.1-0.4-0.2-0.5s-0.3-0.3-0.5-0.4c-0.3-0.1-0.6-0.3-1-0.5c-0.9-0.3-1.5-0.7-1.8-1s-0.5-0.8-0.5-1.3
			c0-0.6,0.3-1.2,0.8-1.5c0.5-0.4,1.2-0.5,2.1-0.5s1.7,0.2,2.5,0.5l-0.5,1.2c-0.8-0.3-1.5-0.5-2.1-0.5c-0.8,0-1.3,0.2-1.3,0.7
			c0,0.2,0.1,0.4,0.3,0.6c0.2,0.2,0.7,0.4,1.4,0.7c0.6,0.2,1.1,0.5,1.4,0.7s0.5,0.4,0.6,0.7C324.9,450.8,324.9,451.1,324.9,451.4z"
			/>
		<path class="st9" d="M329.5,452.4c0.4,0,0.8-0.1,1.2-0.2v1.2c-0.2,0.1-0.4,0.1-0.7,0.2c-0.3,0.1-0.6,0.1-0.9,0.1
			c-1.5,0-2.3-0.8-2.3-2.4v-4.1h-1v-0.7l1.1-0.6l0.5-1.6h1v1.7h2.2v1.2h-2.2v4.1c0,0.4,0.1,0.7,0.3,0.9
			C328.9,452.3,329.2,452.4,329.5,452.4z"/>
		<path class="st9" d="M339.7,445.9c0.9,0,1.7,0.3,2.2,1s0.8,1.6,0.8,2.9c0,1.2-0.3,2.2-0.8,2.9c-0.5,0.7-1.3,1-2.2,1
			c-1,0-1.7-0.3-2.2-1h-0.1l-0.3,0.9h-1.2v-10.7h1.6v2.5c0,0.2,0,0.5,0,0.8c0,0.4,0,0.6,0,0.7h0.1
			C338,446.3,338.7,445.9,339.7,445.9z M339.3,447.2c-0.6,0-1.1,0.2-1.4,0.6s-0.4,1-0.4,1.9v0.1c0,0.9,0.1,1.6,0.4,2
			s0.8,0.6,1.4,0.6s1-0.2,1.3-0.7s0.4-1.1,0.4-2C341.1,448.1,340.5,447.2,339.3,447.2z"/>
		<path class="st9" d="M344.5,444c0-0.3,0.1-0.5,0.2-0.7s0.4-0.2,0.7-0.2c0.3,0,0.5,0.1,0.7,0.2c0.2,0.2,0.2,0.4,0.2,0.7
			c0,0.3-0.1,0.5-0.2,0.6c-0.2,0.2-0.4,0.2-0.7,0.2c-0.3,0-0.5-0.1-0.7-0.2C344.6,444.5,344.5,444.3,344.5,444z M346.2,453.6h-1.6
			V446h1.6V453.6z"/>
		<path class="st9" d="M351.1,453.7c-0.9,0-1.7-0.3-2.2-1s-0.8-1.6-0.8-2.9c0-1.2,0.3-2.2,0.8-2.9c0.5-0.7,1.3-1,2.2-1
			c1,0,1.8,0.4,2.3,1.1h0.1c-0.1-0.5-0.1-1-0.1-1.3v-2.8h1.6v10.7h-1.3l-0.3-1h-0.1C352.8,453.4,352,453.7,351.1,453.7z
			 M351.5,452.4c0.7,0,1.1-0.2,1.4-0.6s0.5-1,0.5-1.8v-0.2c0-1-0.2-1.6-0.5-2s-0.8-0.6-1.5-0.6c-0.6,0-1,0.2-1.3,0.7s-0.5,1.1-0.5,2
			c0,0.8,0.1,1.5,0.4,1.9C350.4,452.2,350.9,452.4,351.5,452.4z"/>
		<path class="st9" d="M178,470.8h-1.8v6.4h-1.6v-6.4h-1.2V470l1.2-0.5V469c0-0.9,0.2-1.6,0.6-2s1.1-0.6,1.9-0.6
			c0.6,0,1.1,0.1,1.7,0.3l-0.4,1.2c-0.4-0.1-0.8-0.2-1.1-0.2c-0.4,0-0.6,0.1-0.8,0.3c-0.2,0.2-0.3,0.6-0.3,1v0.5h1.8L178,470.8
			L178,470.8z"/>
		<path class="st9" d="M186,473.3c0,1.2-0.3,2.2-1,2.9c-0.6,0.7-1.5,1-2.7,1c-0.7,0-1.3-0.2-1.9-0.5c-0.5-0.3-1-0.8-1.3-1.4
			s-0.4-1.3-0.4-2.1c0-1.2,0.3-2.2,0.9-2.9c0.6-0.7,1.5-1,2.7-1c1.1,0,2,0.4,2.6,1.1C185.7,471.2,186,472.2,186,473.3z M180.5,473.3
			c0,1.8,0.6,2.6,1.9,2.6c1.3,0,1.9-0.9,1.9-2.6s-0.6-2.6-1.9-2.6c-0.7,0-1.2,0.2-1.5,0.7C180.6,471.9,180.5,472.5,180.5,473.3z"/>
		<path class="st9" d="M191.7,469.4c0.3,0,0.6,0,0.8,0.1l-0.2,1.5c-0.2-0.1-0.5-0.1-0.7-0.1c-0.6,0-1.2,0.2-1.6,0.6
			c-0.4,0.4-0.6,1-0.6,1.6v4h-1.6v-7.6h1.3l0.2,1.3h0.1c0.3-0.5,0.6-0.8,1-1.1S191.2,469.4,191.7,469.4z"/>
		<path class="st9" d="M200.4,476c0.4,0,0.8-0.1,1.2-0.2v1.2c-0.2,0.1-0.4,0.1-0.7,0.2s-0.6,0.1-0.9,0.1c-1.5,0-2.3-0.8-2.3-2.4
			v-4.1h-1v-0.7l1.1-0.6l0.5-1.6h1v1.7h2.2v1.2h-2.2v4.1c0,0.4,0.1,0.7,0.3,0.9C199.8,475.9,200.1,476,200.4,476z"/>
		<path class="st9" d="M209.7,477.2h-1.6v-4.7c0-0.6-0.1-1-0.4-1.3c-0.2-0.3-0.6-0.4-1.1-0.4c-0.7,0-1.2,0.2-1.5,0.6s-0.5,1.1-0.5,2
			v3.8H203v-10.7h1.6v2.7c0,0.4,0,0.9-0.1,1.4h0.1c0.2-0.4,0.5-0.6,0.9-0.8c0.4-0.2,0.8-0.3,1.4-0.3c1.8,0,2.8,0.9,2.8,2.8
			L209.7,477.2L209.7,477.2z"/>
		<path class="st9" d="M215.3,477.3c-1.2,0-2.1-0.3-2.8-1s-1-1.6-1-2.8c0-1.2,0.3-2.2,0.9-2.9s1.5-1.1,2.5-1.1s1.8,0.3,2.4,0.9
			s0.9,1.4,0.9,2.5v0.9h-5c0,0.7,0.2,1.3,0.6,1.7c0.4,0.4,0.9,0.6,1.6,0.6c0.4,0,0.9,0,1.3-0.1c0.4-0.1,0.8-0.2,1.2-0.4v1.3
			c-0.4,0.2-0.8,0.3-1.2,0.4C216.3,477.2,215.8,477.3,215.3,477.3z M215,470.7c-0.5,0-0.9,0.2-1.2,0.5s-0.5,0.8-0.6,1.4h3.4
			c0-0.6-0.2-1.1-0.5-1.4C215.9,470.8,215.5,470.7,215,470.7z"/>
		<path class="st9" d="M226.3,477.3c-0.9,0-1.7-0.3-2.2-1s-0.8-1.6-0.8-2.9c0-1.2,0.3-2.2,0.8-2.9c0.5-0.7,1.3-1,2.2-1
			c1,0,1.8,0.4,2.3,1.1h0.1c-0.1-0.5-0.1-1-0.1-1.3v-2.8h1.6v10.7h-1.3l-0.3-1h-0.1C228,476.9,227.3,477.3,226.3,477.3z M226.7,476
			c0.7,0,1.1-0.2,1.4-0.6c0.3-0.4,0.5-1,0.5-1.8v-0.2c0-1-0.2-1.6-0.5-2s-0.8-0.6-1.5-0.6c-0.6,0-1,0.2-1.3,0.7s-0.5,1.1-0.5,2
			c0,0.8,0.1,1.5,0.4,1.9C225.6,475.8,226.1,476,226.7,476z"/>
		<path class="st9" d="M235.8,477.3c-1.2,0-2.1-0.3-2.8-1s-1-1.6-1-2.8c0-1.2,0.3-2.2,0.9-2.9s1.5-1.1,2.5-1.1s1.8,0.3,2.4,0.9
			s0.9,1.4,0.9,2.5v0.9h-5c0,0.7,0.2,1.3,0.6,1.7c0.4,0.4,0.9,0.6,1.6,0.6c0.4,0,0.9,0,1.3-0.1c0.4-0.1,0.8-0.2,1.2-0.4v1.3
			c-0.4,0.2-0.8,0.3-1.2,0.4C236.7,477.2,236.3,477.3,235.8,477.3z M235.5,470.7c-0.5,0-0.9,0.2-1.2,0.5s-0.5,0.8-0.6,1.4h3.4
			c0-0.6-0.2-1.1-0.5-1.4C236.4,470.8,236,470.7,235.5,470.7z"/>
		<path class="st9" d="M245.3,477.2l-0.3-1.1h-0.1c-0.4,0.5-0.7,0.8-1.1,0.9c-0.4,0.2-0.8,0.3-1.4,0.3c-0.7,0-1.3-0.2-1.7-0.6
			s-0.6-1-0.6-1.7c0-0.8,0.3-1.4,0.9-1.8s1.5-0.6,2.7-0.7h1.3v-0.4c0-0.5-0.1-0.8-0.3-1.1c-0.2-0.2-0.6-0.4-1.1-0.4
			c-0.4,0-0.8,0.1-1.1,0.2s-0.7,0.2-1,0.4L241,470c0.4-0.2,0.9-0.4,1.3-0.5c0.5-0.1,1-0.2,1.4-0.2c1,0,1.7,0.2,2.2,0.6
			s0.7,1.1,0.7,2v5.1h-1.3V477.2z M242.9,476.1c0.6,0,1.1-0.2,1.4-0.5c0.4-0.3,0.5-0.8,0.5-1.4v-0.7h-1c-0.8,0-1.3,0.2-1.7,0.4
			c-0.3,0.2-0.5,0.6-0.5,1c0,0.3,0.1,0.6,0.3,0.8C242.2,476,242.5,476.1,242.9,476.1z"/>
		<path class="st9" d="M250.3,477.2h-1.6v-10.7h1.6V477.2z"/>
		<path class="st9" d="M255.1,469.6h1.8l1.5,4.3c0.2,0.6,0.4,1.2,0.5,1.7h0.1c0-0.3,0.1-0.6,0.2-0.9c0.1-0.4,0.7-2.1,1.7-5.1h1.7
			l-3.2,8.6c-0.6,1.6-1.6,2.4-2.9,2.4c-0.4,0-0.7,0-1-0.1v-1.3c0.2,0.1,0.5,0.1,0.8,0.1c0.8,0,1.3-0.5,1.6-1.3l0.3-0.7L255.1,469.6z
			"/>
		<path class="st9" d="M270.5,473.3c0,1.2-0.3,2.2-1,2.9c-0.6,0.7-1.5,1-2.7,1c-0.7,0-1.3-0.2-1.9-0.5c-0.5-0.3-1-0.8-1.3-1.4
			s-0.4-1.3-0.4-2.1c0-1.2,0.3-2.2,0.9-2.9c0.6-0.7,1.5-1,2.7-1c1.1,0,2,0.4,2.6,1.1C270.1,471.2,270.5,472.2,270.5,473.3z
			 M265,473.3c0,1.8,0.6,2.6,1.9,2.6s1.9-0.9,1.9-2.6s-0.6-2.6-1.9-2.6c-0.7,0-1.2,0.2-1.5,0.7S265,472.5,265,473.3z"/>
		<path class="st9" d="M277.7,477.2l-0.2-1h-0.1c-0.2,0.4-0.5,0.6-1,0.8c-0.4,0.2-0.9,0.3-1.4,0.3c-0.9,0-1.6-0.2-2.1-0.7
			s-0.7-1.1-0.7-2.1v-5h1.6v4.7c0,0.6,0.1,1,0.4,1.3c0.2,0.3,0.6,0.4,1.1,0.4c0.7,0,1.2-0.2,1.5-0.6s0.5-1.1,0.5-2v-3.8h1.6v7.6
			h-1.2V477.2z"/>
		<path class="st9" d="M288.7,477.3c-1,0-1.7-0.3-2.2-1h-0.1c0.1,0.6,0.1,1,0.1,1.2v3.1h-1.6v-10.9h1.3c0,0.1,0.1,0.5,0.2,1h0.1
			c0.5-0.8,1.3-1.2,2.3-1.2c0.9,0,1.7,0.3,2.2,1s0.8,1.6,0.8,2.9c0,1.2-0.3,2.2-0.8,2.9S289.7,477.3,288.7,477.3z M288.3,470.8
			c-0.6,0-1.1,0.2-1.4,0.6s-0.4,1-0.4,1.8v0.2c0,0.9,0.1,1.6,0.4,2s0.8,0.6,1.4,0.6s1-0.2,1.3-0.7s0.5-1.1,0.5-2
			c0-0.8-0.1-1.5-0.4-1.9S288.9,470.8,288.3,470.8z"/>
		<path class="st9" d="M299,477.2l-0.2-1h-0.1c-0.2,0.4-0.5,0.6-1,0.8c-0.4,0.2-0.9,0.3-1.4,0.3c-0.9,0-1.6-0.2-2.1-0.7
			s-0.7-1.1-0.7-2.1v-5h1.6v4.7c0,0.6,0.1,1,0.4,1.3c0.2,0.3,0.6,0.4,1.1,0.4c0.7,0,1.2-0.2,1.5-0.6s0.5-1.1,0.5-2v-3.8h1.6v7.6H299
			V477.2z"/>
		<path class="st9" d="M306.4,469.4c0.9,0,1.7,0.3,2.2,1s0.8,1.6,0.8,2.9c0,1.2-0.3,2.2-0.8,2.9c-0.5,0.7-1.3,1-2.2,1
			c-1,0-1.7-0.3-2.2-1h-0.1l-0.3,0.9h-1.2v-10.7h1.6v2.5c0,0.2,0,0.5,0,0.8c0,0.4,0,0.6,0,0.7h0.1
			C304.6,469.8,305.4,469.4,306.4,469.4z M306,470.8c-0.6,0-1.1,0.2-1.4,0.6s-0.4,1-0.4,1.9v0.1c0,0.9,0.1,1.6,0.4,2
			s0.8,0.6,1.4,0.6s1-0.2,1.3-0.7s0.4-1.1,0.4-2C307.7,471.6,307.2,470.8,306,470.8z"/>
		<path class="st9" d="M312.9,477.2h-1.6v-10.7h1.6V477.2z"/>
		<path class="st9" d="M315.1,467.6c0-0.3,0.1-0.5,0.2-0.7s0.4-0.2,0.7-0.2c0.3,0,0.5,0.1,0.7,0.2c0.2,0.2,0.2,0.4,0.2,0.7
			c0,0.3-0.1,0.5-0.2,0.6c-0.2,0.2-0.4,0.2-0.7,0.2c-0.3,0-0.5-0.1-0.7-0.2C315.2,468.1,315.1,467.8,315.1,467.6z M316.8,477.2h-1.6
			v-7.6h1.6V477.2z"/>
		<path class="st9" d="M324.2,475c0,0.7-0.3,1.3-0.8,1.7c-0.5,0.4-1.3,0.6-2.3,0.6s-1.8-0.2-2.4-0.5v-1.4c0.9,0.4,1.7,0.6,2.5,0.6
			c1,0,1.5-0.3,1.5-0.9c0-0.2-0.1-0.4-0.2-0.5s-0.3-0.3-0.5-0.4c-0.3-0.1-0.6-0.3-1-0.5c-0.9-0.3-1.5-0.7-1.8-1s-0.5-0.8-0.5-1.3
			c0-0.6,0.3-1.2,0.8-1.5c0.5-0.4,1.2-0.5,2.1-0.5s1.7,0.2,2.5,0.5l-0.5,1.2c-0.8-0.3-1.5-0.5-2.1-0.5c-0.8,0-1.3,0.2-1.3,0.7
			c0,0.2,0.1,0.4,0.3,0.6c0.2,0.2,0.7,0.4,1.4,0.7c0.6,0.2,1.1,0.5,1.4,0.7s0.5,0.4,0.6,0.7C324.1,474.3,324.2,474.6,324.2,475z"/>
		<path class="st9" d="M332.6,477.2H331v-4.7c0-0.6-0.1-1-0.4-1.3c-0.2-0.3-0.6-0.4-1.1-0.4c-0.7,0-1.2,0.2-1.5,0.6s-0.5,1.1-0.5,2
			v3.8h-1.6v-10.7h1.6v2.7c0,0.4,0,0.9-0.1,1.4h0.1c0.2-0.4,0.5-0.6,0.9-0.8c0.4-0.2,0.8-0.3,1.4-0.3c1.8,0,2.8,0.9,2.8,2.8
			L332.6,477.2L332.6,477.2z"/>
		<path class="st9" d="M338.1,477.3c-1.2,0-2.1-0.3-2.8-1s-1-1.6-1-2.8c0-1.2,0.3-2.2,0.9-2.9s1.5-1.1,2.5-1.1s1.8,0.3,2.4,0.9
			s0.9,1.4,0.9,2.5v0.9h-5c0,0.7,0.2,1.3,0.6,1.7c0.4,0.4,0.9,0.6,1.6,0.6c0.4,0,0.9,0,1.3-0.1s0.8-0.2,1.2-0.4v1.3
			c-0.4,0.2-0.8,0.3-1.2,0.4C339.1,477.2,338.7,477.3,338.1,477.3z M337.8,470.7c-0.5,0-0.9,0.2-1.2,0.5c-0.3,0.3-0.5,0.8-0.6,1.4
			h3.4c0-0.6-0.2-1.1-0.5-1.4C338.8,470.8,338.4,470.7,337.8,470.7z"/>
		<path class="st9" d="M345.5,477.3c-0.9,0-1.7-0.3-2.2-1s-0.8-1.6-0.8-2.9c0-1.2,0.3-2.2,0.8-2.9c0.5-0.7,1.3-1,2.2-1
			c1,0,1.8,0.4,2.3,1.1h0.1c-0.1-0.5-0.1-1-0.1-1.3v-2.8h1.6v10.7h-1.3l-0.3-1h-0.1C347.2,476.9,346.5,477.3,345.5,477.3z
			 M345.9,476c0.7,0,1.1-0.2,1.4-0.6s0.5-1,0.5-1.8v-0.2c0-1-0.2-1.6-0.5-2s-0.8-0.6-1.5-0.6c-0.6,0-1,0.2-1.3,0.7s-0.5,1.1-0.5,2
			c0,0.8,0.1,1.5,0.4,1.9C344.9,475.8,345.3,476,345.9,476z"/>
		<path class="st9" d="M351.4,476.3c0-0.3,0.1-0.6,0.3-0.8c0.2-0.2,0.4-0.3,0.8-0.3c0.3,0,0.6,0.1,0.8,0.3c0.2,0.2,0.3,0.4,0.3,0.8
			c0,0.3-0.1,0.6-0.3,0.8c-0.2,0.2-0.4,0.3-0.8,0.3c-0.3,0-0.6-0.1-0.8-0.3S351.4,476.6,351.4,476.3z"/>
	</g>
</g>
<path class="st10" d="M688.5,559.6H563.3c-1.2,0-2.1-1-2.1-2.1v-31.3c0-1.2,1-2.1,2.1-2.1h125.2c1.2,0,2.1,1,2.1,2.1v31.3
	C690.6,558.6,689.7,559.6,688.5,559.6z"/>
<g>
	<path class="st4" d="M600.3,538.2c-0.9,0-1.6,0.3-2.1,0.9c-0.5,0.6-0.8,1.5-0.8,2.6c0,1.2,0.2,2,0.7,2.6s1.2,0.9,2.1,0.9
		c0.4,0,0.8,0,1.2-0.1s0.8-0.2,1.2-0.3v1.3c-0.7,0.3-1.6,0.4-2.5,0.4c-1.4,0-2.4-0.4-3.2-1.3s-1.1-2-1.1-3.6c0-1,0.2-1.8,0.5-2.6
		c0.4-0.7,0.9-1.3,1.6-1.7c0.7-0.4,1.5-0.6,2.4-0.6c1,0,1.9,0.2,2.7,0.6l-0.6,1.3c-0.3-0.2-0.7-0.3-1-0.4
		C601.1,538.2,600.7,538.2,600.3,538.2z"/>
	<path class="st4" d="M610.8,546.4h-1.5V542c0-0.6-0.1-1-0.3-1.2s-0.6-0.4-1.1-0.4c-0.6,0-1.1,0.2-1.4,0.6s-0.4,1-0.4,1.9v3.6h-1.5
		v-10.1h1.5v2.6c0,0.4,0,0.8-0.1,1.3h0.1c0.2-0.3,0.5-0.6,0.9-0.8s0.8-0.3,1.3-0.3c1.7,0,2.6,0.9,2.6,2.6L610.8,546.4L610.8,546.4z"
		/>
	<path class="st4" d="M619.3,542.8c0,1.2-0.3,2.1-0.9,2.7c-0.6,0.7-1.4,1-2.5,1c-0.7,0-1.3-0.2-1.8-0.5s-0.9-0.7-1.2-1.3
		s-0.4-1.2-0.4-2c0-1.2,0.3-2.1,0.9-2.7c0.6-0.7,1.4-1,2.5-1c1,0,1.9,0.3,2.5,1C619,540.8,619.3,541.7,619.3,542.8z M614.1,542.8
		c0,1.7,0.6,2.5,1.8,2.5s1.8-0.8,1.8-2.5c0-1.6-0.6-2.5-1.8-2.5c-0.6,0-1.1,0.2-1.4,0.6C614.2,541.5,614.1,542.1,614.1,542.8z"/>
	<path class="st4" d="M627.4,542.8c0,1.2-0.3,2.1-0.9,2.7c-0.6,0.7-1.4,1-2.5,1c-0.7,0-1.3-0.2-1.8-0.5s-0.9-0.7-1.2-1.3
		s-0.4-1.2-0.4-2c0-1.2,0.3-2.1,0.9-2.7c0.6-0.7,1.4-1,2.5-1c1,0,1.9,0.3,2.5,1C627.1,540.8,627.4,541.7,627.4,542.8z M622.2,542.8
		c0,1.7,0.6,2.5,1.8,2.5s1.8-0.8,1.8-2.5c0-1.6-0.6-2.5-1.8-2.5c-0.6,0-1.1,0.2-1.4,0.6C622.3,541.5,622.2,542.1,622.2,542.8z"/>
	<path class="st4" d="M633.9,544.4c0,0.7-0.3,1.2-0.8,1.6c-0.5,0.4-1.2,0.6-2.2,0.6s-1.7-0.1-2.3-0.4v-1.3c0.8,0.4,1.6,0.6,2.3,0.6
		c0.9,0,1.4-0.3,1.4-0.8c0-0.2-0.1-0.3-0.2-0.5c-0.1-0.1-0.3-0.2-0.5-0.4c-0.2-0.1-0.6-0.3-1-0.4c-0.8-0.3-1.4-0.6-1.7-1
		c-0.3-0.3-0.4-0.7-0.4-1.2c0-0.6,0.2-1.1,0.7-1.4c0.5-0.3,1.2-0.5,2-0.5s1.6,0.2,2.4,0.5l-0.5,1.1c-0.8-0.3-1.4-0.5-1.9-0.5
		c-0.8,0-1.2,0.2-1.2,0.7c0,0.2,0.1,0.4,0.3,0.6c0.2,0.2,0.7,0.4,1.4,0.6c0.6,0.2,1,0.4,1.3,0.6s0.5,0.4,0.6,0.7
		C633.9,543.8,633.9,544.1,633.9,544.4z"/>
	<path class="st4" d="M638.7,546.6c-1.1,0-2-0.3-2.6-1c-0.6-0.6-0.9-1.5-0.9-2.7s0.3-2.1,0.9-2.8c0.6-0.7,1.4-1,2.4-1
		c0.9,0,1.7,0.3,2.2,0.9s0.8,1.4,0.8,2.4v0.8h-4.8c0,0.7,0.2,1.2,0.6,1.6s0.9,0.6,1.5,0.6c0.4,0,0.8,0,1.2-0.1s0.8-0.2,1.2-0.4v1.2
		c-0.4,0.2-0.7,0.3-1.1,0.4S639.2,546.6,638.7,546.6z M638.4,540.3c-0.5,0-0.9,0.2-1.2,0.5s-0.5,0.8-0.5,1.3h3.2
		c0-0.6-0.2-1-0.4-1.3C639.3,540.5,638.9,540.3,638.4,540.3z"/>
</g>
<path class="st4" d="M656.9,539c-0.3-0.3-0.8-0.3-1.2,0c-0.3,0.3-0.3,0.8,0,1.2l1.6,1.6h-7.8c-0.5,0-0.8,0.4-0.8,0.8
	c0,0.5,0.4,0.8,0.8,0.8h7.8l-1.6,1.6c-0.3,0.3-0.3,0.8,0,1.2c0.2,0.2,0.4,0.2,0.6,0.2s0.4-0.1,0.6-0.2l3.6-3.6L656.9,539z"/>
<g>
	<g>
		<path class="st4" d="M592.4,426.1l-0.8-1.9h-4.8l-0.8,1.9h-1.9l4.1-10.3h1.9l4.1,10.3H592.4z M590.9,422.3l-1.7-4.4l-1.7,4.4
			H590.9z"/>
		<path class="st4" d="M601.1,426.1h-1.6v-3.8c0-0.6-0.1-1-0.4-1.4c-0.3-0.4-0.7-0.5-1.2-0.5s-0.9,0.2-1.2,0.6s-0.5,0.9-0.5,1.4v3.7
			h-1.6v-7.3h1.4l0.1,1c0.7-0.7,1.4-1.1,2.1-1.1c0.8,0,1.4,0.3,2,1c0.5,0.6,0.8,1.5,0.8,2.6v3.8H601.1z"/>
		<path class="st4" d="M608.8,426.1h-1.6v-3.8c0-0.6-0.1-1-0.4-1.4c-0.3-0.4-0.7-0.5-1.2-0.5s-0.9,0.2-1.2,0.6s-0.5,0.9-0.5,1.4v3.7
			h-1.6v-7.3h1.4l0.1,1c0.7-0.7,1.4-1.1,2.1-1.1c0.8,0,1.4,0.3,2,1c0.5,0.6,0.8,1.5,0.8,2.6v3.8H608.8z"/>
		<path class="st4" d="M615.3,419.8l0.1-1h1.5v7.3h-1.5l-0.1-1.1c-0.2,0.4-0.5,0.7-0.9,0.9c-0.4,0.2-0.8,0.3-1.2,0.4
			c-1,0-1.8-0.3-2.4-1c-0.6-0.7-0.9-1.6-0.9-2.9c0-1.2,0.3-2.1,1-2.8c0.6-0.7,1.4-1,2.4-1c0.4,0,0.8,0.1,1.2,0.3
			S615.1,419.5,615.3,419.8z M613.4,420.2c-0.5,0-1,0.2-1.4,0.6s-0.5,0.9-0.5,1.6s0.2,1.2,0.5,1.6c0.4,0.4,0.8,0.6,1.4,0.6
			c0.5,0,0.9-0.2,1.2-0.5s0.5-0.7,0.6-1.1s0.1-0.9,0-1.3s-0.3-0.8-0.6-1.1S613.9,420.2,613.4,420.2z"/>
		<path class="st4" d="M621,415.8h1.7v8.5h4.7v1.8H621V415.8z"/>
		<path class="st4" d="M633.9,419.8l0.1-1h1.5v7.3H634l-0.1-1.1c-0.2,0.4-0.5,0.7-0.9,0.9c-0.4,0.2-0.8,0.3-1.2,0.4
			c-1,0-1.8-0.3-2.4-1c-0.6-0.7-0.9-1.6-0.9-2.9c0-1.2,0.3-2.1,1-2.8c0.6-0.7,1.4-1,2.4-1c0.4,0,0.8,0.1,1.2,0.3
			S633.7,419.5,633.9,419.8z M631.9,420.2c-0.5,0-1,0.2-1.4,0.6s-0.5,0.9-0.5,1.6s0.2,1.2,0.5,1.6c0.4,0.4,0.8,0.6,1.4,0.6
			c0.5,0,0.9-0.2,1.2-0.5s0.5-0.7,0.6-1.1s0.1-0.9,0-1.3s-0.3-0.8-0.6-1.1S632.4,420.2,631.9,420.2z"/>
		<path class="st4" d="M636.5,418.8h1.6v3.8c0,0.6,0.1,1,0.4,1.4s0.7,0.5,1.2,0.5s0.9-0.2,1.2-0.6s0.5-0.9,0.5-1.4v-3.7h1.6v7.3
			h-1.4l-0.1-1c-0.7,0.7-1.4,1.1-2.2,1.1s-1.4-0.3-1.9-1s-0.7-1.5-0.7-2.6v-3.8H636.5z"/>
		<path class="st4" d="M644.3,418.8h1.5l0.1,0.8c0.2-0.4,0.5-0.7,0.8-0.8s0.6-0.2,1-0.2c0.7,0,1.3,0.2,1.7,0.7l-0.7,1.6
			c-0.3-0.3-0.7-0.5-1.2-0.5s-0.8,0.2-1.2,0.4c-0.3,0.3-0.5,0.8-0.5,1.4v3.8h-1.6v-7.2H644.3z"/>
		<path class="st4" d="M656.4,423.1h-5c0.1,0.5,0.2,0.8,0.6,1.1c0.3,0.3,0.8,0.4,1.3,0.4c0.3,0,0.6-0.1,1-0.2
			c0.3-0.1,0.6-0.3,0.8-0.5l1,1.1c-0.3,0.4-0.7,0.7-1.2,0.9c-0.5,0.2-1,0.3-1.5,0.3c-1.1,0-2-0.4-2.6-1.1s-1-1.6-1-2.8
			c0-1.1,0.3-2,0.9-2.7s1.5-1.1,2.5-1.1c1.1,0,2,0.4,2.6,1.2S656.5,421.6,656.4,423.1z M651.4,421.6h3.5c-0.1-0.5-0.2-0.8-0.5-1.1
			c-0.3-0.2-0.7-0.4-1.2-0.4c-0.4,0-0.8,0.1-1.2,0.4C651.7,420.8,651.5,421.1,651.4,421.6z"/>
		<path class="st4" d="M664,426.1h-1.6v-3.8c0-0.6-0.1-1-0.4-1.4c-0.3-0.4-0.7-0.5-1.2-0.5s-0.9,0.2-1.2,0.6s-0.5,0.9-0.5,1.4v3.7
			h-1.5v-7.3h1.4l0.1,1c0.7-0.7,1.4-1.1,2.1-1.1c0.8,0,1.4,0.3,2,1c0.5,0.6,0.8,1.5,0.8,2.6L664,426.1L664,426.1z"/>
		<path class="st4" d="M665.2,418.8h5.2v0.9l-3,4.6h3v1.8H665v-0.8l3.1-4.9h-2.9L665.2,418.8L665.2,418.8z"/>
	</g>
</g>
<g>
	<g>
		<path class="st4" d="M227.7,426.1v-7.5l-3,4.5h-0.3l-2.9-4.5v7.5h-1.7v-10.3h2l2.9,4.4l2.9-4.4h2v10.3H227.7z"/>
		<path class="st4" d="M231.1,417.5c-0.2-0.2-0.3-0.4-0.3-0.8s0.1-0.6,0.3-0.8c0.2-0.2,0.4-0.3,0.6-0.3c0.2,0,0.5,0.1,0.6,0.3
			s0.3,0.4,0.3,0.8s-0.1,0.6-0.3,0.8s-0.4,0.3-0.6,0.3S231.3,417.7,231.1,417.5z M232.6,418.8H231v7.3h1.6V418.8z"/>
		<path class="st4" d="M234,415.8h1.6v6l2.2-2.9h1.9v0.1l-2.6,3.3l3,3.7v0.1h-1.9l-2.5-3.3v3.3h-1.6L234,415.8L234,415.8z"/>
		<path class="st4" d="M247.2,423.1h-5c0.1,0.5,0.2,0.8,0.6,1.1c0.3,0.3,0.8,0.4,1.3,0.4c0.3,0,0.6-0.1,1-0.2
			c0.3-0.1,0.6-0.3,0.8-0.5l1,1.1c-0.3,0.4-0.7,0.7-1.2,0.9c-0.5,0.2-1,0.3-1.5,0.3c-1.1,0-2-0.4-2.6-1.1s-1-1.6-1-2.8
			c0-1.1,0.3-2,0.9-2.7s1.5-1.1,2.5-1.1c1.1,0,2,0.4,2.6,1.2S247.3,421.6,247.2,423.1z M242.1,421.6h3.5c-0.1-0.5-0.2-0.8-0.5-1.1
			c-0.3-0.2-0.7-0.4-1.2-0.4c-0.4,0-0.8,0.1-1.2,0.4C242.5,420.8,242.3,421.1,242.1,421.6z"/>
		<path class="st4" d="M259.3,425.9v0.1h-2.1l-2.7-3.4h-1.7v3.4h-1.7v-10.3c0.5,0,1.2,0,2.2,0s1.7,0,2.2,0c1,0,1.8,0.3,2.4,1
			s0.9,1.5,0.9,2.4c0,0.8-0.2,1.5-0.6,2.1s-1,1-1.8,1.2L259.3,425.9z M255.5,417.6h-2.6v3.3h2.6c0.5,0,0.9-0.2,1.2-0.5
			c0.3-0.3,0.4-0.7,0.4-1.2s-0.1-0.8-0.4-1.2S256,417.6,255.5,417.6z"/>
		<path class="st4" d="M260.5,419.7c0.6-0.7,1.4-1.1,2.4-1.1s1.8,0.4,2.4,1.1s0.9,1.6,0.9,2.7s-0.3,2-0.9,2.7s-1.4,1.1-2.4,1.1
			s-1.8-0.4-2.4-1.1s-0.9-1.6-0.9-2.7C259.6,421.4,259.9,420.5,260.5,419.7z M262.9,420.3c-0.5,0-1,0.2-1.3,0.6s-0.5,0.9-0.5,1.5
			s0.2,1.1,0.5,1.5s0.7,0.6,1.3,0.6s1-0.2,1.3-0.6s0.5-0.9,0.5-1.5s-0.2-1.1-0.5-1.5S263.4,420.3,262.9,420.3z"/>
		<path class="st4" d="M267.4,415.8h1.6v4c0.2-0.4,0.5-0.6,0.9-0.8c0.4-0.2,0.8-0.3,1.2-0.3c1,0,1.8,0.3,2.4,1s0.9,1.6,0.9,2.8
			c0,1.2-0.3,2.1-0.9,2.8c-0.6,0.7-1.4,1-2.4,1c-0.9,0-1.6-0.4-2.1-1.2l-0.1,1h-1.5V415.8z M271,420.3c-0.5,0-1,0.2-1.3,0.6
			c-0.4,0.4-0.5,0.9-0.5,1.5s0.2,1.2,0.5,1.5c0.4,0.4,0.8,0.6,1.3,0.6s1-0.2,1.3-0.6s0.5-0.9,0.5-1.5s-0.2-1.2-0.5-1.5
			C271.9,420.5,271.5,420.3,271,420.3z"/>
		<path class="st4" d="M282,423.1h-5c0.1,0.5,0.2,0.8,0.6,1.1c0.3,0.3,0.8,0.4,1.3,0.4c0.3,0,0.6-0.1,1-0.2c0.3-0.1,0.6-0.3,0.8-0.5
			l1,1.1c-0.3,0.4-0.7,0.7-1.2,0.9c-0.5,0.2-1,0.3-1.5,0.3c-1.1,0-2-0.4-2.6-1.1s-1-1.6-1-2.8c0-1.1,0.3-2,0.9-2.7s1.5-1.1,2.5-1.1
			c1.1,0,2,0.4,2.6,1.2S282.1,421.6,282,423.1z M277,421.6h3.5c-0.1-0.5-0.2-0.8-0.5-1.1c-0.3-0.2-0.7-0.4-1.2-0.4
			c-0.4,0-0.8,0.1-1.2,0.4C277.3,420.8,277.1,421.1,277,421.6z"/>
		<path class="st4" d="M283.2,418.8h1.5l0.1,0.8c0.2-0.4,0.5-0.7,0.8-0.8s0.6-0.2,1-0.2c0.7,0,1.3,0.2,1.7,0.7l-0.7,1.6
			c-0.3-0.3-0.7-0.5-1.2-0.5s-0.8,0.2-1.2,0.4c-0.3,0.3-0.5,0.8-0.5,1.4v3.8h-1.6v-7.2H283.2z"/>
		<path class="st4" d="M290,416.9l1.6-0.2v2.1h1.8v1.5h-1.8v3.1c0,0.3,0.1,0.6,0.2,0.8c0.2,0.2,0.4,0.3,0.6,0.3
			c0.3,0,0.5-0.1,0.8-0.2l0.4,1.5c-0.4,0.2-0.9,0.3-1.3,0.3c-0.7,0-1.3-0.2-1.7-0.6c-0.4-0.5-0.6-1.1-0.6-2v-3.1h-1.2v-1.5h1.2
			V416.9z"/>
		<path class="st4" d="M299.6,419.6l-0.9,1.2c-0.4-0.4-0.9-0.6-1.6-0.6c-0.8,0-1.2,0.2-1.2,0.7s0.4,0.7,1.2,0.8c0.3,0,0.5,0,0.8,0.1
			s0.5,0.1,0.7,0.2c0.3,0.1,0.5,0.2,0.7,0.4c0.2,0.2,0.3,0.4,0.4,0.7c0.1,0.3,0.2,0.6,0.2,1c0,0.7-0.2,1.2-0.7,1.7s-1.2,0.7-2,0.7
			c-0.6,0-1.1-0.1-1.6-0.3c-0.5-0.2-0.9-0.5-1.4-1l0.8-1.3c0.2,0.3,0.5,0.5,1,0.7c0.4,0.2,0.9,0.3,1.2,0.3c0.3,0,0.6-0.1,0.8-0.2
			s0.3-0.4,0.3-0.6s-0.1-0.4-0.3-0.5c-0.2-0.1-0.5-0.2-1-0.2c-0.3,0-0.7-0.1-0.9-0.2c-0.3-0.1-0.6-0.2-0.8-0.4
			c-0.3-0.2-0.5-0.4-0.6-0.7s-0.2-0.6-0.2-1s0.1-0.8,0.3-1.1c0.2-0.3,0.4-0.5,0.7-0.7c0.3-0.2,0.6-0.3,0.9-0.4s0.6-0.1,0.9-0.1
			C298.2,418.6,299,418.9,299.6,419.6z"/>
	</g>
</g>
<g>
	<g>
		<path class="st4" d="M550.9,453.6h-1.8l-1.7-6c-0.1-0.3-0.2-0.6-0.3-1.1s-0.2-0.8-0.2-1c0,0.3-0.1,0.7-0.2,1.1
			c-0.1,0.5-0.2,0.8-0.3,1l-1.7,5.9h-1.8l-1.3-5l-1.3-5h1.7l1.4,5.8c0.2,0.9,0.4,1.8,0.5,2.5c0-0.4,0.1-0.8,0.2-1.3s0.2-0.9,0.3-1.2
			l1.6-5.9h1.6l1.7,5.9c0.2,0.5,0.3,1.4,0.5,2.4c0.1-0.7,0.2-1.5,0.5-2.5l1.4-5.8h1.7L550.9,453.6z"/>
		<path class="st4" d="M561.4,449.8c0,1.2-0.3,2.2-1,2.9s-1.5,1-2.7,1c-0.7,0-1.3-0.2-1.9-0.5c-0.5-0.3-1-0.8-1.3-1.4
			s-0.4-1.3-0.4-2.1c0-1.2,0.3-2.2,0.9-2.9c0.6-0.7,1.5-1,2.7-1c1.1,0,2,0.4,2.6,1.1C561.1,447.6,561.4,448.6,561.4,449.8z
			 M555.9,449.8c0,1.8,0.6,2.6,1.9,2.6c1.3,0,1.9-0.9,1.9-2.6s-0.6-2.6-1.9-2.6c-0.7,0-1.2,0.2-1.5,0.7
			C556.1,448.3,555.9,449,555.9,449.8z"/>
		<path class="st4" d="M570,453.6h-1.6v-4.7c0-0.6-0.1-1-0.4-1.3s-0.6-0.4-1.1-0.4c-0.7,0-1.2,0.2-1.5,0.6s-0.5,1.1-0.5,2v3.8h-1.6
			V446h1.3l0.2,1h0.1c0.2-0.4,0.6-0.6,1-0.8c0.4-0.2,0.9-0.3,1.4-0.3c1.8,0,2.7,0.9,2.7,2.8L570,453.6L570,453.6z"/>
		<path class="st4" d="M578.7,452.4c0.4,0,0.8-0.1,1.2-0.2v1.2c-0.2,0.1-0.4,0.1-0.7,0.2s-0.6,0.1-0.9,0.1c-1.5,0-2.3-0.8-2.3-2.4
			v-4.1h-1v-0.7l1.1-0.6l0.5-1.6h1v1.7h2.2v1.2h-2.2v4.1c0,0.4,0.1,0.7,0.3,0.9C578.1,452.3,578.4,452.4,578.7,452.4z"/>
		<path class="st4" d="M588,453.6h-1.6v-4.7c0-0.6-0.1-1-0.4-1.3s-0.6-0.4-1.1-0.4c-0.7,0-1.2,0.2-1.5,0.6s-0.5,1.1-0.5,2v3.8h-1.6
			v-10.7h1.6v2.7c0,0.4,0,0.9-0.1,1.4h0.1c0.2-0.4,0.5-0.6,0.9-0.8c0.4-0.2,0.8-0.3,1.4-0.3c1.8,0,2.8,0.9,2.8,2.8L588,453.6
			L588,453.6z"/>
		<path class="st4" d="M593.6,453.7c-1.2,0-2.1-0.3-2.8-1s-1-1.6-1-2.8c0-1.2,0.3-2.2,0.9-2.9c0.6-0.7,1.5-1.1,2.5-1.1
			s1.8,0.3,2.4,0.9s0.9,1.4,0.9,2.5v0.9h-5c0,0.7,0.2,1.3,0.6,1.7c0.4,0.4,0.9,0.6,1.6,0.6c0.4,0,0.9,0,1.3-0.1
			c0.4-0.1,0.8-0.2,1.2-0.4v1.3c-0.4,0.2-0.8,0.3-1.2,0.4C594.6,453.7,594.1,453.7,593.6,453.7z M593.3,447.1
			c-0.5,0-0.9,0.2-1.2,0.5s-0.5,0.8-0.6,1.4h3.4c0-0.6-0.2-1.1-0.5-1.4C594.2,447.3,593.8,447.1,593.3,447.1z"/>
		<path class="st4" d="M606.7,453.6l-0.3-1.1h-0.1c-0.4,0.5-0.7,0.8-1.1,0.9c-0.4,0.2-0.8,0.3-1.4,0.3c-0.7,0-1.3-0.2-1.7-0.6
			s-0.6-1-0.6-1.7c0-0.8,0.3-1.4,0.9-1.8c0.6-0.4,1.5-0.6,2.7-0.7h1.3v-0.4c0-0.5-0.1-0.8-0.3-1.1c-0.2-0.2-0.6-0.4-1.1-0.4
			c-0.4,0-0.8,0.1-1.1,0.2s-0.7,0.2-1,0.4l-0.5-1.2c0.4-0.2,0.9-0.4,1.3-0.5c0.5-0.1,1-0.2,1.4-0.2c1,0,1.7,0.2,2.2,0.6
			s0.7,1.1,0.7,2v5.1h-1.3V453.6z M604.3,452.5c0.6,0,1.1-0.2,1.4-0.5c0.4-0.3,0.5-0.8,0.5-1.4v-0.7h-1c-0.8,0-1.3,0.2-1.7,0.4
			c-0.3,0.2-0.5,0.6-0.5,1c0,0.3,0.1,0.6,0.3,0.8C603.6,452.4,603.9,452.5,604.3,452.5z"/>
		<path class="st4" d="M615.5,453.6l-0.2-1h-0.1c-0.2,0.4-0.5,0.6-1,0.8c-0.4,0.2-0.9,0.3-1.4,0.3c-0.9,0-1.6-0.2-2.1-0.7
			s-0.7-1.1-0.7-2.1v-5h1.6v4.7c0,0.6,0.1,1,0.4,1.3s0.6,0.4,1.1,0.4c0.7,0,1.2-0.2,1.5-0.6s0.5-1.1,0.5-2v-3.8h1.6v7.6h-1.2V453.6z
			"/>
		<path class="st4" d="M622.1,453.7c-1.1,0-2-0.3-2.6-1s-0.9-1.6-0.9-2.9s0.3-2.3,0.9-2.9c0.6-0.7,1.5-1,2.7-1
			c0.8,0,1.5,0.1,2.2,0.4l-0.5,1.3c-0.7-0.3-1.2-0.4-1.7-0.4c-1.3,0-2,0.9-2,2.6c0,0.8,0.2,1.5,0.5,1.9s0.8,0.6,1.4,0.6
			c0.7,0,1.4-0.2,2-0.5v1.4c-0.3,0.2-0.6,0.3-0.9,0.4C623,453.7,622.6,453.7,622.1,453.7z"/>
		<path class="st4" d="M628.8,452.4c0.4,0,0.8-0.1,1.2-0.2v1.2c-0.2,0.1-0.4,0.1-0.7,0.2s-0.6,0.1-0.9,0.1c-1.5,0-2.3-0.8-2.3-2.4
			v-4.1h-1v-0.7l1.1-0.6l0.5-1.6h1v1.7h2.2v1.2h-2.2v4.1c0,0.4,0.1,0.7,0.3,0.9C628.2,452.3,628.5,452.4,628.8,452.4z"/>
		<path class="st4" d="M631.4,444c0-0.3,0.1-0.5,0.2-0.7c0.2-0.2,0.4-0.2,0.7-0.2s0.5,0.1,0.7,0.2c0.2,0.2,0.2,0.4,0.2,0.7
			c0,0.3-0.1,0.5-0.2,0.6c-0.2,0.2-0.4,0.2-0.7,0.2s-0.5-0.1-0.7-0.2C631.5,444.5,631.4,444.3,631.4,444z M633.1,453.6h-1.6V446h1.6
			V453.6z"/>
		<path class="st4" d="M642.1,449.8c0,1.2-0.3,2.2-1,2.9s-1.5,1-2.7,1c-0.7,0-1.3-0.2-1.9-0.5c-0.5-0.3-1-0.8-1.3-1.4
			s-0.4-1.3-0.4-2.1c0-1.2,0.3-2.2,0.9-2.9c0.6-0.7,1.5-1,2.7-1c1.1,0,2,0.4,2.6,1.1C641.8,447.6,642.1,448.6,642.1,449.8z
			 M636.6,449.8c0,1.8,0.6,2.6,1.9,2.6c1.3,0,1.9-0.9,1.9-2.6s-0.6-2.6-1.9-2.6c-0.7,0-1.2,0.2-1.5,0.7
			C636.8,448.3,636.6,449,636.6,449.8z"/>
		<path class="st4" d="M650.7,453.6h-1.6v-4.7c0-0.6-0.1-1-0.4-1.3s-0.6-0.4-1.1-0.4c-0.7,0-1.2,0.2-1.5,0.6s-0.5,1.1-0.5,2v3.8H644
			V446h1.3l0.2,1h0.1c0.2-0.4,0.6-0.6,1-0.8c0.4-0.2,0.9-0.3,1.4-0.3c1.8,0,2.7,0.9,2.7,2.8L650.7,453.6L650.7,453.6z"/>
		<path class="st4" d="M661.6,451.4c0,0.7-0.3,1.3-0.8,1.7c-0.5,0.4-1.3,0.6-2.3,0.6s-1.8-0.2-2.4-0.5v-1.3c0.9,0.4,1.7,0.6,2.5,0.6
			c1,0,1.5-0.3,1.5-0.9c0-0.2-0.1-0.4-0.2-0.5c-0.1-0.1-0.3-0.3-0.5-0.4c-0.3-0.1-0.6-0.3-1-0.5c-0.9-0.3-1.5-0.7-1.8-1
			s-0.5-0.8-0.5-1.3c0-0.6,0.3-1.2,0.8-1.5c0.5-0.4,1.2-0.5,2.1-0.5c0.9,0,1.7,0.2,2.5,0.5l-0.5,1.2c-0.8-0.3-1.5-0.5-2.1-0.5
			c-0.8,0-1.3,0.2-1.3,0.7c0,0.2,0.1,0.4,0.3,0.6s0.7,0.4,1.4,0.7c0.6,0.2,1.1,0.5,1.4,0.7s0.5,0.4,0.6,0.7
			C661.6,450.8,661.6,451.1,661.6,451.4z"/>
		<path class="st4" d="M668.1,453.6l-0.3-1.1h-0.1c-0.4,0.5-0.7,0.8-1.1,0.9c-0.4,0.2-0.8,0.3-1.4,0.3c-0.7,0-1.3-0.2-1.7-0.6
			s-0.6-1-0.6-1.7c0-0.8,0.3-1.4,0.9-1.8c0.6-0.4,1.5-0.6,2.7-0.7h1.3v-0.4c0-0.5-0.1-0.8-0.3-1.1c-0.2-0.2-0.6-0.4-1.1-0.4
			c-0.4,0-0.8,0.1-1.1,0.2s-0.7,0.2-1,0.4l-0.5-1.2c0.4-0.2,0.9-0.4,1.3-0.5c0.5-0.1,1-0.2,1.4-0.2c1,0,1.7,0.2,2.2,0.6
			s0.7,1.1,0.7,2v5.1h-1.3V453.6z M665.7,452.5c0.6,0,1.1-0.2,1.4-0.5c0.4-0.3,0.5-0.8,0.5-1.4v-0.7h-1c-0.8,0-1.3,0.2-1.7,0.4
			c-0.3,0.2-0.5,0.6-0.5,1c0,0.3,0.1,0.6,0.3,0.8C665,452.4,665.3,452.5,665.7,452.5z"/>
		<path class="st4" d="M673.1,453.6h-1.6v-10.7h1.6V453.6z"/>
		<path class="st4" d="M678.7,453.7c-1.2,0-2.1-0.3-2.8-1s-1-1.6-1-2.8c0-1.2,0.3-2.2,0.9-2.9c0.6-0.7,1.5-1.1,2.5-1.1
			s1.8,0.3,2.4,0.9s0.9,1.4,0.9,2.5v0.9h-5c0,0.7,0.2,1.3,0.6,1.7c0.4,0.4,0.9,0.6,1.6,0.6c0.4,0,0.9,0,1.3-0.1
			c0.4-0.1,0.8-0.2,1.2-0.4v1.3c-0.4,0.2-0.8,0.3-1.2,0.4C679.7,453.7,679.3,453.7,678.7,453.7z M678.4,447.1
			c-0.5,0-0.9,0.2-1.2,0.5s-0.5,0.8-0.6,1.4h3.4c0-0.6-0.2-1.1-0.5-1.4C679.4,447.3,679,447.1,678.4,447.1z"/>
		<path class="st4" d="M683.3,452.7c0-0.3,0.1-0.6,0.3-0.8c0.2-0.2,0.4-0.3,0.8-0.3c0.3,0,0.6,0.1,0.8,0.3c0.2,0.2,0.3,0.4,0.3,0.8
			c0,0.3-0.1,0.6-0.3,0.8s-0.4,0.3-0.8,0.3c-0.3,0-0.6-0.1-0.8-0.3S683.3,453.1,683.3,452.7z"/>
		<path class="st4" d="M694,448.2l2.4-4.6h1.8l-3.3,6.1v3.9h-1.6v-3.8l-3.3-6.2h1.8L694,448.2z"/>
		<path class="st4" d="M706,449.8c0,1.2-0.3,2.2-1,2.9s-1.5,1-2.7,1c-0.7,0-1.3-0.2-1.9-0.5c-0.5-0.3-1-0.8-1.3-1.4
			s-0.4-1.3-0.4-2.1c0-1.2,0.3-2.2,0.9-2.9c0.6-0.7,1.5-1,2.7-1c1.1,0,2,0.4,2.6,1.1C705.7,447.6,706,448.6,706,449.8z M700.5,449.8
			c0,1.8,0.6,2.6,1.9,2.6c1.3,0,1.9-0.9,1.9-2.6s-0.6-2.6-1.9-2.6c-0.7,0-1.2,0.2-1.5,0.7C700.7,448.3,700.5,449,700.5,449.8z"/>
		<path class="st4" d="M713.2,453.6l-0.2-1h-0.1c-0.2,0.4-0.5,0.6-1,0.8c-0.4,0.2-0.9,0.3-1.4,0.3c-0.9,0-1.6-0.2-2.1-0.7
			s-0.7-1.1-0.7-2.1v-5h1.6v4.7c0,0.6,0.1,1,0.4,1.3s0.6,0.4,1.1,0.4c0.7,0,1.2-0.2,1.5-0.6s0.5-1.1,0.5-2v-3.8h1.6v7.6h-1.2V453.6z
			"/>
		<path class="st4" d="M516.1,477.3c-1.1,0-2-0.3-2.6-1c-0.6-0.7-0.9-1.6-0.9-2.9s0.3-2.3,0.9-2.9c0.6-0.7,1.5-1,2.7-1
			c0.8,0,1.5,0.1,2.2,0.4l-0.5,1.3c-0.7-0.3-1.2-0.4-1.7-0.4c-1.3,0-2,0.9-2,2.6c0,0.8,0.2,1.5,0.5,1.9s0.8,0.6,1.4,0.6
			c0.7,0,1.4-0.2,2-0.5v1.4c-0.3,0.2-0.6,0.3-0.9,0.4C517,477.3,516.6,477.3,516.1,477.3z"/>
		<path class="st4" d="M524.7,477.2l-0.3-1.1h-0.1c-0.4,0.5-0.7,0.8-1.1,0.9c-0.4,0.2-0.8,0.3-1.4,0.3c-0.7,0-1.3-0.2-1.7-0.6
			s-0.6-1-0.6-1.7c0-0.8,0.3-1.4,0.9-1.8c0.6-0.4,1.5-0.6,2.7-0.7h1.3v-0.4c0-0.5-0.1-0.8-0.3-1.1c-0.2-0.2-0.6-0.4-1.1-0.4
			c-0.4,0-0.8,0.1-1.1,0.2s-0.7,0.2-1,0.4l-0.5-1.2c0.4-0.2,0.9-0.4,1.3-0.5c0.5-0.1,1-0.2,1.4-0.2c1,0,1.7,0.2,2.2,0.6
			s0.7,1.1,0.7,2v5.1h-1.3V477.2z M522.3,476.1c0.6,0,1.1-0.2,1.4-0.5c0.4-0.3,0.5-0.8,0.5-1.4v-0.7h-1c-0.8,0-1.3,0.2-1.7,0.4
			c-0.3,0.2-0.5,0.6-0.5,1c0,0.3,0.1,0.6,0.3,0.8C521.6,476,521.9,476.1,522.3,476.1z"/>
		<path class="st4" d="M534.8,477.2h-1.6v-4.7c0-0.6-0.1-1-0.4-1.3s-0.6-0.4-1.1-0.4c-0.7,0-1.2,0.2-1.5,0.6s-0.5,1.1-0.5,2v3.8
			h-1.6v-7.6h1.3l0.2,1h0.1c0.2-0.4,0.6-0.6,1-0.8c0.4-0.2,0.9-0.3,1.4-0.3c1.8,0,2.7,0.9,2.7,2.8L534.8,477.2L534.8,477.2z"/>
		<path class="st4" d="M540.6,467.6c0-0.3,0.1-0.5,0.2-0.7c0.2-0.2,0.4-0.2,0.7-0.2s0.5,0.1,0.7,0.2c0.2,0.2,0.2,0.4,0.2,0.7
			c0,0.3-0.1,0.5-0.2,0.6c-0.2,0.2-0.4,0.2-0.7,0.2s-0.5-0.1-0.7-0.2C540.7,468.1,540.6,467.8,540.6,467.6z M542.3,477.2h-1.6v-7.6
			h1.6V477.2z"/>
		<path class="st4" d="M551,477.2h-1.6v-4.7c0-0.6-0.1-1-0.3-1.3s-0.6-0.4-1-0.4c-0.6,0-1.1,0.2-1.4,0.6s-0.4,1.1-0.4,2v3.8h-1.7
			v-7.6h1.3l0.2,1h0.1c0.2-0.4,0.5-0.6,0.9-0.8c0.4-0.2,0.8-0.3,1.3-0.3c1.2,0,1.9,0.4,2.3,1.2h0.1c0.2-0.4,0.5-0.7,0.9-0.9
			c0.4-0.2,0.9-0.3,1.4-0.3c0.9,0,1.6,0.2,2,0.7s0.6,1.2,0.6,2.1v4.9h-1.6v-4.7c0-0.6-0.1-1-0.3-1.3s-0.6-0.4-1-0.4
			c-0.6,0-1.1,0.2-1.4,0.6s-0.4,1-0.4,1.8L551,477.2L551,477.2z"/>
		<path class="st4" d="M564.4,477.2h-1.6v-4.7c0-0.6-0.1-1-0.3-1.3s-0.6-0.4-1-0.4c-0.6,0-1.1,0.2-1.4,0.6s-0.4,1.1-0.4,2v3.8h-1.6
			v-7.6h1.3l0.2,1h0.1c0.2-0.4,0.5-0.6,0.9-0.8c0.4-0.2,0.8-0.3,1.3-0.3c1.2,0,1.9,0.4,2.3,1.2h0.1c0.2-0.4,0.5-0.7,0.9-0.9
			c0.4-0.2,0.9-0.3,1.4-0.3c0.9,0,1.6,0.2,2,0.7s0.6,1.2,0.6,2.1v4.9h-1.6v-4.7c0-0.6-0.1-1-0.3-1.3s-0.6-0.4-1-0.4
			c-0.6,0-1.1,0.2-1.4,0.6s-0.4,1-0.4,1.8L564.4,477.2L564.4,477.2z"/>
		<path class="st4" d="M574.7,477.3c-1.2,0-2.1-0.3-2.8-1s-1-1.6-1-2.8c0-1.2,0.3-2.2,0.9-2.9c0.6-0.7,1.5-1.1,2.5-1.1
			s1.8,0.3,2.4,0.9s0.9,1.4,0.9,2.5v0.9h-5c0,0.7,0.2,1.3,0.6,1.7c0.4,0.4,0.9,0.6,1.6,0.6c0.4,0,0.9,0,1.3-0.1
			c0.4-0.1,0.8-0.2,1.2-0.4v1.3c-0.4,0.2-0.8,0.3-1.2,0.4C575.7,477.2,575.2,477.3,574.7,477.3z M574.4,470.7
			c-0.5,0-0.9,0.2-1.2,0.5s-0.5,0.8-0.6,1.4h3.4c0-0.6-0.2-1.1-0.5-1.4C575.3,470.8,574.9,470.7,574.4,470.7z"/>
		<path class="st4" d="M582.1,477.3c-0.9,0-1.7-0.3-2.2-1s-0.8-1.6-0.8-2.9c0-1.2,0.3-2.2,0.8-2.9c0.5-0.7,1.3-1,2.2-1
			c1,0,1.8,0.4,2.3,1.1h0.1c-0.1-0.5-0.1-1-0.1-1.3v-2.8h1.6v10.7h-1.3l-0.3-1h-0.1C583.8,476.9,583.1,477.3,582.1,477.3z
			 M582.5,476c0.7,0,1.1-0.2,1.4-0.6c0.3-0.4,0.5-1,0.5-1.8v-0.2c0-1-0.2-1.6-0.5-2s-0.8-0.6-1.5-0.6c-0.6,0-1,0.2-1.3,0.7
			s-0.5,1.1-0.5,2c0,0.8,0.1,1.5,0.4,1.9C581.4,475.8,581.9,476,582.5,476z"/>
		<path class="st4" d="M588.1,467.6c0-0.3,0.1-0.5,0.2-0.7c0.2-0.2,0.4-0.2,0.7-0.2s0.5,0.1,0.7,0.2c0.2,0.2,0.2,0.4,0.2,0.7
			c0,0.3-0.1,0.5-0.2,0.6c-0.2,0.2-0.4,0.2-0.7,0.2s-0.5-0.1-0.7-0.2C588.2,468.1,588.1,467.8,588.1,467.6z M589.9,477.2h-1.6v-7.6
			h1.6V477.2z"/>
		<path class="st4" d="M596.9,477.2l-0.3-1.1h-0.1c-0.4,0.5-0.7,0.8-1.1,0.9c-0.4,0.2-0.8,0.3-1.4,0.3c-0.7,0-1.3-0.2-1.7-0.6
			s-0.6-1-0.6-1.7c0-0.8,0.3-1.4,0.9-1.8c0.6-0.4,1.5-0.6,2.7-0.7h1.3v-0.4c0-0.5-0.1-0.8-0.3-1.1c-0.2-0.2-0.6-0.4-1.1-0.4
			c-0.4,0-0.8,0.1-1.1,0.2s-0.7,0.2-1,0.4l-0.5-1.2c0.4-0.2,0.9-0.4,1.3-0.5c0.5-0.1,1-0.2,1.4-0.2c1,0,1.7,0.2,2.2,0.6
			s0.7,1.1,0.7,2v5.1h-1.3V477.2z M594.5,476.1c0.6,0,1.1-0.2,1.4-0.5c0.4-0.3,0.5-0.8,0.5-1.4v-0.7h-1c-0.8,0-1.3,0.2-1.7,0.4
			c-0.3,0.2-0.5,0.6-0.5,1c0,0.3,0.1,0.6,0.3,0.8C593.8,476,594.1,476.1,594.5,476.1z"/>
		<path class="st4" d="M603.1,476c0.4,0,0.8-0.1,1.2-0.2v1.2c-0.2,0.1-0.4,0.1-0.7,0.2s-0.6,0.1-0.9,0.1c-1.5,0-2.3-0.8-2.3-2.4
			v-4.1h-1v-0.7l1.1-0.6l0.5-1.6h1v1.7h2.2v1.2H602v4.1c0,0.4,0.1,0.7,0.3,0.9C602.5,475.9,602.8,476,603.1,476z"/>
		<path class="st4" d="M607.4,477.2h-1.6v-10.7h1.6V477.2z"/>
		<path class="st4" d="M608.6,469.6h1.8l1.5,4.3c0.2,0.6,0.4,1.2,0.5,1.7h0.1c0-0.3,0.1-0.6,0.2-0.9c0.1-0.4,0.7-2.1,1.7-5.1h1.7
			l-3.2,8.6c-0.6,1.6-1.6,2.4-2.9,2.4c-0.4,0-0.7,0-1-0.1v-1.3c0.2,0.1,0.5,0.1,0.8,0.1c0.8,0,1.3-0.5,1.6-1.3l0.3-0.7L608.6,469.6z
			"/>
		<path class="st4" d="M624.7,469.4c0.3,0,0.6,0,0.8,0.1l-0.2,1.5c-0.2-0.1-0.5-0.1-0.7-0.1c-0.6,0-1.2,0.2-1.6,0.6
			c-0.4,0.4-0.6,1-0.6,1.6v4h-1.6v-7.6h1.3l0.2,1.3h0.1c0.3-0.5,0.6-0.8,1-1.1S624.3,469.4,624.7,469.4z"/>
		<path class="st4" d="M630.3,477.3c-1.2,0-2.1-0.3-2.8-1s-1-1.6-1-2.8c0-1.2,0.3-2.2,0.9-2.9c0.6-0.7,1.5-1.1,2.5-1.1
			s1.8,0.3,2.4,0.9s0.9,1.4,0.9,2.5v0.9h-5c0,0.7,0.2,1.3,0.6,1.7c0.4,0.4,0.9,0.6,1.6,0.6c0.4,0,0.9,0,1.3-0.1
			c0.4-0.1,0.8-0.2,1.2-0.4v1.3c-0.4,0.2-0.8,0.3-1.2,0.4C631.2,477.2,630.8,477.3,630.3,477.3z M630,470.7c-0.5,0-0.9,0.2-1.2,0.5
			s-0.5,0.8-0.6,1.4h3.4c0-0.6-0.2-1.1-0.5-1.4C630.9,470.8,630.5,470.7,630,470.7z"/>
		<path class="st4" d="M637.6,477.3c-0.9,0-1.7-0.3-2.2-1s-0.8-1.6-0.8-2.9s0.3-2.2,0.8-2.9c0.5-0.7,1.3-1,2.2-1
			c0.5,0,0.9,0.1,1.3,0.3s0.7,0.5,1,0.9h0.1l0.2-1h1.3v10.9h-1.6v-3.2c0-0.2,0-0.4,0-0.6s0-0.4,0-0.5h-0.1
			C639.4,476.9,638.6,477.3,637.6,477.3z M638,476c0.7,0,1.2-0.2,1.5-0.6s0.4-1,0.4-1.8v-0.3c0-0.9-0.2-1.6-0.5-2s-0.8-0.6-1.5-0.6
			c-0.6,0-1,0.2-1.3,0.7s-0.5,1.1-0.5,2C636.2,475.1,636.8,476,638,476z"/>
		<path class="st4" d="M649.1,477.2l-0.2-1h-0.1c-0.2,0.4-0.5,0.6-1,0.8c-0.4,0.2-0.9,0.3-1.4,0.3c-0.9,0-1.6-0.2-2.1-0.7
			s-0.7-1.1-0.7-2.1v-5h1.6v4.7c0,0.6,0.1,1,0.4,1.3s0.6,0.4,1.1,0.4c0.7,0,1.2-0.2,1.5-0.6s0.5-1.1,0.5-2v-3.8h1.6v7.6h-1.2V477.2z
			"/>
		<path class="st4" d="M656,477.3c-1.2,0-2.1-0.3-2.8-1s-1-1.6-1-2.8c0-1.2,0.3-2.2,0.9-2.9c0.6-0.7,1.5-1.1,2.5-1.1
			s1.8,0.3,2.4,0.9s0.9,1.4,0.9,2.5v0.9h-5c0,0.7,0.2,1.3,0.6,1.7c0.4,0.4,0.9,0.6,1.6,0.6c0.4,0,0.9,0,1.3-0.1
			c0.4-0.1,0.8-0.2,1.2-0.4v1.3c-0.4,0.2-0.8,0.3-1.2,0.4C657,477.2,656.5,477.3,656,477.3z M655.7,470.7c-0.5,0-0.9,0.2-1.2,0.5
			s-0.5,0.8-0.6,1.4h3.4c0-0.6-0.2-1.1-0.5-1.4C656.6,470.8,656.2,470.7,655.7,470.7z"/>
		<path class="st4" d="M665.9,475c0,0.7-0.3,1.3-0.8,1.7c-0.5,0.4-1.3,0.6-2.3,0.6s-1.8-0.2-2.4-0.5v-1.4c0.9,0.4,1.7,0.6,2.5,0.6
			c1,0,1.5-0.3,1.5-0.9c0-0.2-0.1-0.4-0.2-0.5c-0.1-0.1-0.3-0.3-0.5-0.4c-0.3-0.1-0.6-0.3-1-0.5c-0.9-0.3-1.5-0.7-1.8-1
			s-0.5-0.8-0.5-1.3c0-0.6,0.3-1.2,0.8-1.5c0.5-0.4,1.2-0.5,2.1-0.5c0.9,0,1.7,0.2,2.5,0.5l-0.5,1.2c-0.8-0.3-1.5-0.5-2.1-0.5
			c-0.8,0-1.3,0.2-1.3,0.7c0,0.2,0.1,0.4,0.3,0.6s0.7,0.4,1.4,0.7c0.6,0.2,1.1,0.5,1.4,0.7s0.5,0.4,0.6,0.7
			C665.8,474.3,665.9,474.6,665.9,475z"/>
		<path class="st4" d="M670.4,476c0.4,0,0.8-0.1,1.2-0.2v1.2c-0.2,0.1-0.4,0.1-0.7,0.2s-0.6,0.1-0.9,0.1c-1.5,0-2.3-0.8-2.3-2.4
			v-4.1h-1v-0.7l1.1-0.6l0.5-1.6h1v1.7h2.2v1.2h-2.2v4.1c0,0.4,0.1,0.7,0.3,0.9C669.8,475.9,670.1,476,670.4,476z"/>
		<path class="st4" d="M681.5,477.2l-0.3-1.1h-0.1c-0.4,0.5-0.7,0.8-1.1,0.9c-0.4,0.2-0.8,0.3-1.4,0.3c-0.7,0-1.3-0.2-1.7-0.6
			s-0.6-1-0.6-1.7c0-0.8,0.3-1.4,0.9-1.8c0.6-0.4,1.5-0.6,2.7-0.7h1.3v-0.4c0-0.5-0.1-0.8-0.3-1.1c-0.2-0.2-0.6-0.4-1.1-0.4
			c-0.4,0-0.8,0.1-1.1,0.2s-0.7,0.2-1,0.4l-0.5-1.2c0.4-0.2,0.9-0.4,1.3-0.5c0.5-0.1,1-0.2,1.4-0.2c1,0,1.7,0.2,2.2,0.6
			s0.7,1.1,0.7,2v5.1h-1.3V477.2z M679.1,476.1c0.6,0,1.1-0.2,1.4-0.5c0.4-0.3,0.5-0.8,0.5-1.4v-0.7h-1c-0.8,0-1.3,0.2-1.7,0.4
			c-0.3,0.2-0.5,0.6-0.5,1c0,0.3,0.1,0.6,0.3,0.8C678.4,476,678.7,476.1,679.1,476.1z"/>
		<path class="st4" d="M692.4,477.3c-1,0-1.7-0.3-2.2-1h-0.1c0.1,0.6,0.1,1,0.1,1.2v3.1h-1.6v-10.9h1.3c0,0.1,0.1,0.5,0.2,1h0.1
			c0.5-0.8,1.3-1.2,2.3-1.2c0.9,0,1.7,0.3,2.2,1s0.8,1.6,0.8,2.9c0,1.2-0.3,2.2-0.8,2.9C694.1,476.9,693.3,477.3,692.4,477.3z
			 M692,470.8c-0.6,0-1.1,0.2-1.4,0.6c-0.3,0.4-0.4,1-0.4,1.8v0.2c0,0.9,0.1,1.6,0.4,2c0.3,0.4,0.8,0.6,1.4,0.6c0.6,0,1-0.2,1.3-0.7
			s0.5-1.1,0.5-2c0-0.8-0.1-1.5-0.4-1.9C693,471,692.6,470.8,692,470.8z"/>
		<path class="st4" d="M702,477.2l-0.3-1.1h-0.1c-0.4,0.5-0.7,0.8-1.1,0.9c-0.4,0.2-0.8,0.3-1.4,0.3c-0.7,0-1.3-0.2-1.7-0.6
			s-0.6-1-0.6-1.7c0-0.8,0.3-1.4,0.9-1.8c0.6-0.4,1.5-0.6,2.7-0.7h1.3v-0.4c0-0.5-0.1-0.8-0.3-1.1c-0.2-0.2-0.6-0.4-1.1-0.4
			c-0.4,0-0.8,0.1-1.1,0.2s-0.7,0.2-1,0.4l-0.5-1.2c0.4-0.2,0.9-0.4,1.3-0.5c0.5-0.1,1-0.2,1.4-0.2c1,0,1.7,0.2,2.2,0.6
			s0.7,1.1,0.7,2v5.1H702V477.2z M699.6,476.1c0.6,0,1.1-0.2,1.4-0.5c0.4-0.3,0.5-0.8,0.5-1.4v-0.7h-1c-0.8,0-1.3,0.2-1.7,0.4
			c-0.3,0.2-0.5,0.6-0.5,1c0,0.3,0.1,0.6,0.3,0.8C698.9,476,699.2,476.1,699.6,476.1z"/>
		<path class="st4" d="M704.3,469.6h1.8l1.5,4.3c0.2,0.6,0.4,1.2,0.5,1.7h0.1c0-0.3,0.1-0.6,0.2-0.9c0.1-0.4,0.7-2.1,1.7-5.1h1.7
			l-3.2,8.6c-0.6,1.6-1.6,2.4-2.9,2.4c-0.4,0-0.7,0-1-0.1v-1.3c0.2,0.1,0.5,0.1,0.8,0.1c0.8,0,1.3-0.5,1.6-1.3l0.3-0.7L704.3,469.6z
			"/>
		<path class="st4" d="M719.3,477.2h-1.6v-4.7c0-0.6-0.1-1-0.3-1.3s-0.6-0.4-1-0.4c-0.6,0-1.1,0.2-1.4,0.6s-0.4,1.1-0.4,2v3.8H713
			v-7.6h1.3l0.2,1h0.1c0.2-0.4,0.5-0.6,0.9-0.8c0.4-0.2,0.8-0.3,1.3-0.3c1.2,0,1.9,0.4,2.3,1.2h0.1c0.2-0.4,0.5-0.7,0.9-0.9
			c0.4-0.2,0.9-0.3,1.4-0.3c0.9,0,1.6,0.2,2,0.7s0.6,1.2,0.6,2.1v4.9h-1.6v-4.7c0-0.6-0.1-1-0.3-1.3s-0.6-0.4-1-0.4
			c-0.6,0-1.1,0.2-1.4,0.6s-0.4,1-0.4,1.8L719.3,477.2L719.3,477.2z"/>
		<path class="st4" d="M729.7,477.3c-1.2,0-2.1-0.3-2.8-1s-1-1.6-1-2.8c0-1.2,0.3-2.2,0.9-2.9c0.6-0.7,1.5-1.1,2.5-1.1
			s1.8,0.3,2.4,0.9s0.9,1.4,0.9,2.5v0.9h-5c0,0.7,0.2,1.3,0.6,1.7c0.4,0.4,0.9,0.6,1.6,0.6c0.4,0,0.9,0,1.3-0.1
			c0.4-0.1,0.8-0.2,1.2-0.4v1.3c-0.4,0.2-0.8,0.3-1.2,0.4C730.6,477.2,730.2,477.3,729.7,477.3z M729.4,470.7
			c-0.5,0-0.9,0.2-1.2,0.5s-0.5,0.8-0.6,1.4h3.4c0-0.6-0.2-1.1-0.5-1.4C730.3,470.8,729.9,470.7,729.4,470.7z"/>
		<path class="st4" d="M741.1,477.2h-1.6v-4.7c0-0.6-0.1-1-0.4-1.3s-0.6-0.4-1.1-0.4c-0.7,0-1.2,0.2-1.5,0.6s-0.5,1.1-0.5,2v3.8
			h-1.6v-7.6h1.3l0.2,1h0.1c0.2-0.4,0.6-0.6,1-0.8c0.4-0.2,0.9-0.3,1.4-0.3c1.8,0,2.7,0.9,2.7,2.8L741.1,477.2L741.1,477.2z"/>
		<path class="st4" d="M746.2,476c0.4,0,0.8-0.1,1.2-0.2v1.2c-0.2,0.1-0.4,0.1-0.7,0.2s-0.6,0.1-0.9,0.1c-1.5,0-2.3-0.8-2.3-2.4
			v-4.1h-1v-0.7l1.1-0.6l0.5-1.6h1v1.7h2.2v1.2h-2.2v4.1c0,0.4,0.1,0.7,0.3,0.9C745.6,475.9,745.9,476,746.2,476z"/>
	</g>
</g>
<g>
	<g>
		<defs>
			<circle id="SVGID_6_" cx="625.9" cy="357.2" r="39.4"/>
		</defs>
		<clipPath id="SVGID_7_">
			<use xlink:href="#SVGID_6_"  style="overflow:visible;"/>
		</clipPath>
		<g class="st11">
			
				<image style="overflow:visible;enable-background:new    ;" width="225" height="225" xlink:href="8501865F.jpg"  transform="matrix(0.3503 0 0 0.3503 586.4619 317.8358)">
			</image>
		</g>
	</g>
</g>
<circle class="st7" cx="652.7" cy="385" r="12.5"/>
<path class="st12" d="M653.4,380.9l0.9,1.8c0.1,0.2,0.3,0.4,0.6,0.4l2,0.3c0.6,0.1,0.9,0.9,0.4,1.3l-1.5,1.4
	c-0.2,0.2-0.3,0.4-0.2,0.7l0.3,2c0.1,0.6-0.5,1.1-1.1,0.8l-1.8-1c-0.2-0.1-0.5-0.1-0.7,0l-1.8,1c-0.6,0.3-1.2-0.2-1.1-0.8l0.3-2
	c0-0.2,0-0.5-0.2-0.7l-1.5-1.4c-0.5-0.4-0.2-1.2,0.4-1.3l2-0.3c0.2,0,0.5-0.2,0.6-0.4l0.9-1.8C652.3,380.3,653.2,380.3,653.4,380.9z
	"/>
<g id="Hero">
	<path class="st13" d="M1675.1,14.3"/>
</g>
</svg>
