<?xml version="1.0" encoding="utf-8"?>
<!-- Generator: Adobe Illustrator 19.0.0, SVG Export Plug-In . SVG Version: 6.00 Build 0)  -->
<svg version="1.1" id="Calque_1" xmlns="http://www.w3.org/2000/svg" xmlns:xlink="http://www.w3.org/1999/xlink" x="0px" y="0px"
	 viewBox="68 50.1 748.2 692.9" style="enable-background:new 68 50.1 748.2 692.9;" xml:space="preserve">
<style type="text/css">
	.st0{fill:none;stroke:#FAFAFA;stroke-width:2;stroke-miterlimit:10;}
	.st1{fill:#F8FAFF;}
	.st2{fill:#C4E1F1;}
	.st3{fill:#A8CDE4;}
	.st4{fill:#6AD779;}
	.st5{fill:#07FBEA;}
	.st6{fill:#FFFFFF;stroke:#1D1D1B;stroke-linejoin:round;stroke-miterlimit:10;}
	.st7{fill:#58C162;}
	.st8{fill:#31953A;}
	.st9{fill:#996F44;}
	.st10{fill:#8E6239;}
	.st11{fill:#724E30;}
	.st12{fill:#89613D;}
	.st13{fill:#616236;}
	.st14{enable-background:new    ;}
	.st15{fill:#629D1B;}
</style>
<g id="BG">
</g>
<g id="Hero">
	<path class="st0" d="M146.9-6319.6"/>
</g>
<g id="section1">
</g>
<g id="section2">
</g>
<g id="section3">
</g>
<g id="section4">
</g>
<g id="footer">
	<g>
		<g>
			<g id="XMLID_71_">
				<polygon id="XMLID_167_" class="st1" points="525.5,476.6 552.3,461.1 578.5,476.6 552,492.3 				"/>
				<polygon id="XMLID_73_" class="st2" points="525.5,510.8 525.5,476.6 552,492.3 552,526.9 				"/>
				<polygon id="XMLID_72_" class="st3" points="552,492.3 578.5,476.6 578.5,511.4 552,526.9 				"/>
			</g>
			<g id="XMLID_50_">
				<polygon id="XMLID_53_" class="st1" points="560.4,497.4 587.2,481.8 613.5,497.4 586.9,513.1 				"/>
				<polygon id="XMLID_52_" class="st2" points="560.4,531.6 560.4,497.4 586.9,513.1 586.9,547.7 				"/>
				<polygon id="XMLID_51_" class="st3" points="586.9,513.1 613.5,497.4 613.5,532.1 586.9,547.7 				"/>
			</g>
			<g id="XMLID_46_">
				<polygon id="XMLID_49_" class="st1" points="595.8,518 622.5,502.4 648.8,518 622.3,533.6 				"/>
				<polygon id="XMLID_48_" class="st2" points="595.8,552.2 595.8,518 622.3,533.6 622.3,568.2 				"/>
				<polygon id="XMLID_47_" class="st3" points="622.3,533.6 648.8,518 648.8,552.7 622.3,568.2 				"/>
			</g>
			<g id="XMLID_42_">
				<polygon id="XMLID_45_" class="st1" points="630.8,539.1 657.5,523.6 683.8,539.1 657.3,554.8 				"/>
				<g id="XMLID_44_">
					
						<image style="overflow:visible;opacity:0.15;enable-background:new    ;" width="100" height="123" xlink:href="C28D10D9.png"  transform="matrix(1 0 0 1 601.15 509.9999)">
					</image>
					<g>
						<polygon class="st2" points="630.8,573.3 630.8,539.1 657.3,554.8 657.3,589.4 						"/>
					</g>
				</g>
				<g id="XMLID_43_">
					
						<image style="overflow:visible;opacity:0.15;enable-background:new    ;" width="99" height="123" xlink:href="C28D10DB.png"  transform="matrix(1 0 0 1 628.15 509.9999)">
					</image>
					<g>
						<polygon class="st3" points="657.3,554.8 683.8,539.1 683.8,573.9 657.3,589.4 						"/>
					</g>
				</g>
			</g>
			<g id="XMLID_38_">
				<polygon id="XMLID_41_" class="st1" points="489.9,496.3 516.9,480.7 543.2,496.3 516.5,512 				"/>
				<polygon id="XMLID_40_" class="st2" points="489.9,530.5 489.9,496.3 516.5,512 516.5,546.6 				"/>
				<polygon id="XMLID_39_" class="st3" points="516.5,512 543.2,496.3 543.2,531 516.5,546.6 				"/>
			</g>
			<g id="XMLID_34_">
				<polygon id="XMLID_37_" class="st1" points="524.9,517 551.7,501.5 578,517 551.5,532.7 				"/>
				<polygon id="XMLID_36_" class="st2" points="524.9,551.2 524.9,517 551.5,532.7 551.5,567.3 				"/>
				<polygon id="XMLID_35_" class="st3" points="551.5,532.7 578,517 578,551.8 551.5,567.3 				"/>
			</g>
			<g id="XMLID_30_">
				<polygon id="XMLID_33_" class="st1" points="560.3,537.6 587,522 613.5,537.6 586.9,553.3 				"/>
				<polygon id="XMLID_32_" class="st2" points="560.3,571.8 560.3,537.6 586.9,553.3 586.9,587.9 				"/>
				<polygon id="XMLID_31_" class="st3" points="586.9,553.3 613.5,537.6 613.5,572.4 586.9,587.9 				"/>
			</g>
			<g id="XMLID_26_">
				<polygon id="XMLID_29_" class="st1" points="595.3,558.8 622,543.2 648.5,558.8 621.9,574.5 				"/>
				<g id="XMLID_28_">
					
						<image style="overflow:visible;opacity:0.15;enable-background:new    ;" width="99" height="124" xlink:href="C28D10DE.png"  transform="matrix(1 0 0 1 566.15 528.9999)">
					</image>
					<g>
						<polygon class="st2" points="595.3,593 595.3,558.8 621.9,574.5 621.9,609.1 						"/>
					</g>
				</g>
				<g id="XMLID_27_">
					
						<image style="overflow:visible;opacity:0.15;enable-background:new    ;" width="100" height="124" xlink:href="C28D10DF.png"  transform="matrix(1 0 0 1 592.15 528.9999)">
					</image>
					<g>
						<polygon class="st3" points="621.9,574.5 648.5,558.8 648.5,593.5 621.9,609.1 						"/>
					</g>
				</g>
			</g>
			<g id="XMLID_22_">
				<polygon id="XMLID_25_" class="st1" points="455.1,517.5 481.9,501.9 508.3,517.5 481.6,533.1 				"/>
				<g id="XMLID_24_">
					
						<image style="overflow:visible;opacity:0.15;enable-background:new    ;" width="100" height="123" xlink:href="C28D10DA.png"  transform="matrix(1 0 0 1 425.15 487.9999)">
					</image>
					<g>
						<polygon class="st2" points="455.1,551.7 455.1,517.5 481.6,533.1 481.6,567.7 						"/>
					</g>
				</g>
				<g id="XMLID_23_">
					
						<image style="overflow:visible;opacity:0.15;enable-background:new    ;" width="100" height="123" xlink:href="C28D10D5.png"  transform="matrix(1 0 0 1 452.15 487.9999)">
					</image>
					<g>
						<polygon class="st3" points="481.6,533.1 508.3,517.5 508.3,552.2 481.6,567.7 						"/>
					</g>
				</g>
			</g>
			<g id="XMLID_18_">
				<polygon id="XMLID_21_" class="st1" points="489.9,538.2 516.9,522.6 543.2,538.2 516.5,553.9 				"/>
				<g id="XMLID_20_">
					
						<image style="overflow:visible;opacity:0.15;enable-background:new    ;" width="100" height="123" xlink:href="C28D10D6.png"  transform="matrix(1 0 0 1 460.15 508.9999)">
					</image>
					<g>
						<polygon class="st2" points="489.9,572.4 489.9,538.2 516.5,553.9 516.5,588.5 						"/>
					</g>
				</g>
				<g id="XMLID_19_">
					
						<image style="overflow:visible;opacity:0.15;enable-background:new    ;" width="100" height="123" xlink:href="C28D10D7.png"  transform="matrix(1 0 0 1 487.15 508.9999)">
					</image>
					<g>
						<polygon class="st3" points="516.5,553.9 543.2,538.2 543.2,573 516.5,588.5 						"/>
					</g>
				</g>
			</g>
			<g id="XMLID_14_">
				<polygon id="XMLID_17_" class="st1" points="525.4,558.8 552.3,543.2 578.5,558.8 552,574.5 				"/>
				<g id="XMLID_16_">
					
						<image style="overflow:visible;opacity:0.15;enable-background:new    ;" width="99" height="124" xlink:href="C28D10E9.png"  transform="matrix(1 0 0 1 496.15 528.9999)">
					</image>
					<g>
						<polygon class="st2" points="525.4,593 525.4,558.8 552,574.5 552,609.1 						"/>
					</g>
				</g>
				<g id="XMLID_15_">
					
						<image style="overflow:visible;opacity:0.15;enable-background:new    ;" width="100" height="124" xlink:href="1E636F62.png"  transform="matrix(1 0 0 1 522.15 528.9999)">
					</image>
					<g>
						<polygon class="st3" points="552,574.5 578.5,558.8 578.5,593.5 552,609.1 						"/>
					</g>
				</g>
			</g>
			<g id="XMLID_10_">
				<polygon id="XMLID_13_" class="st1" points="560.4,580 587.3,564.4 613.5,580 587,595.6 				"/>
				<g id="XMLID_12_">
					
						<image style="overflow:visible;opacity:0.15;enable-background:new    ;" width="99" height="124" xlink:href="1E636F65.png"  transform="matrix(1 0 0 1 531.15 549.9999)">
					</image>
					<g>
						<polygon class="st2" points="560.4,614.2 560.4,580 587,595.6 587,630.2 						"/>
					</g>
				</g>
				<g id="XMLID_11_">
					
						<image style="overflow:visible;opacity:0.15;enable-background:new    ;" width="100" height="124" xlink:href="1E636F66.png"  transform="matrix(1 0 0 1 557.15 549.9999)">
					</image>
					<g>
						<polygon class="st3" points="587,595.6 613.5,580 613.5,614.7 587,630.2 						"/>
					</g>
				</g>
			</g>
			<g id="XMLID_9_">
				
					<image style="overflow:visible;opacity:0.45;enable-background:new    ;" width="298" height="203" xlink:href="1E636F64.png"  transform="matrix(1 0 0 1 158.15 539.9999)">
				</image>
				<g>
					<polygon class="st4" points="269.1,699.8 187.7,651.8 330.7,569.8 412.4,617.5 					"/>
				</g>
			</g>
			<path id="XMLID_54_" class="st5" d="M317.4,633.9c0,0-4.6-2.5-21.6,4.1s-11.4-18.5-11.4-18.5s8-22.9,46.3-18.5
				c0,0,38.6,10,21.1,35.6c0,0-16.3,9-22.6,3.3S317.4,633.9,317.4,633.9z"/>
			<g id="XMLID_55_">
				
					<image style="overflow:visible;opacity:0.15;enable-background:new    ;" width="115" height="154" xlink:href="1E636F63.png"  transform="matrix(1 0 0 1 255.15 468.9999)">
				</image>
				<g>
					<polygon class="st3" points="326.2,556.8 284.9,580 284.9,517.5 326.2,498.5 					"/>
				</g>
			</g>
			<g id="XMLID_56_">
				
					<image style="overflow:visible;opacity:0.15;enable-background:new    ;" width="96" height="148" xlink:href="1E636F7D.png"  transform="matrix(1 0 0 1 232.15 474.9999)">
				</image>
				<g>
					<polygon class="st2" points="284.9,580 261.7,565.5 261.7,504.5 284.9,517.5 					"/>
				</g>
			</g>
			<g id="XMLID_57_">
				
					<image style="overflow:visible;opacity:0.15;enable-background:new    ;" width="112" height="150" xlink:href="1E636F7E.png"  transform="matrix(1 0 0 1 297.15 468.9999)">
				</image>
				<g>
					<polygon class="st2" points="326.2,556.8 365.7,575.8 365.7,518.8 326.2,498.5 					"/>
				</g>
			</g>
			<g id="XMLID_58_">
				
					<image style="overflow:visible;opacity:0.15;enable-background:new    ;" width="94" height="142" xlink:href="1E636F7C.png"  transform="matrix(1 0 0 1 336.15 476.9999)">
				</image>
				<g>
					<polygon class="st3" points="365.7,518.8 386.9,506 386.9,561 365.7,575.8 					"/>
				</g>
			</g>
			<polygon id="XMLID_59_" class="st1" points="261.7,504.5 326.2,474.6 386.9,506 365.7,518.8 326.2,498.5 284.9,517.5 			"/>
			<polygon id="XMLID_60_" class="st2" points="305.6,476.4 305.6,501.7 293.7,494.7 293.7,469.7 			"/>
			<polygon id="XMLID_61_" class="st3" points="326.2,467 305.6,476.4 305.6,501.7 326.2,491.9 			"/>
			<polygon id="XMLID_62_" class="st2" points="326.2,467 345.9,477 345.9,501.2 326.2,491.9 			"/>
			<polygon id="XMLID_63_" class="st3" points="345.9,501.2 357.9,494.7 357.9,469.7 345.9,477 			"/>
			<polygon id="XMLID_64_" class="st1" points="293.7,469.7 326.2,454.8 357.9,469.7 345.9,477 326.2,467 305.6,476.4 			"/>
			<g id="XMLID_104_">
				<polygon id="XMLID_110_" class="st2" points="700.8,265 700.8,412.7 734.8,434 734.8,284.5 				"/>
				<polygon id="XMLID_109_" class="st3" points="734.8,284.5 769,265 769,413.7 734.8,434 				"/>
				<polygon id="XMLID_108_" class="st1" points="700.8,265 734.8,244.7 769,265 734.8,284.5 				"/>
				<polygon id="XMLID_107_" class="st2" points="735.8,274.2 716.3,263.2 716.3,235.3 735.8,247 				"/>
				<polygon id="XMLID_106_" class="st3" points="735.8,274.2 755.5,262.8 755.5,235.3 735.8,247 				"/>
				<polygon id="XMLID_105_" class="st1" points="716.3,235.3 735.8,223.7 755.5,235.3 735.8,247 				"/>
			</g>
			<g id="XMLID_97_">
				<polygon id="XMLID_103_" class="st6" points="659.7,320.9 659.7,468.7 693.7,489.9 693.7,340.4 				"/>
				<polygon id="XMLID_102_" class="st3" points="693.7,340.4 727.8,320.9 727.8,469.7 693.7,489.9 				"/>
				<polygon id="XMLID_101_" class="st1" points="659.7,320.9 693.7,300.7 727.8,320.9 693.7,340.4 				"/>
				<polygon id="XMLID_100_" class="st6" points="694.7,330.2 675,319.2 675,291.3 694.7,302.9 				"/>
				<polygon id="XMLID_99_" class="st3" points="694.7,330.2 714.3,318.8 714.3,291.3 694.7,302.9 				"/>
				<polygon id="XMLID_98_" class="st1" points="675,291.3 694.7,279.7 714.3,291.3 694.7,302.9 				"/>
			</g>
			<g id="XMLID_121_">
				<polygon id="XMLID_111_" class="st2" points="570.8,191.5 570.8,404.1 593,421.5 593,204.1 				"/>
				<polygon id="XMLID_112_" class="st3" points="593,421.5 634,391.8 634,181.5 593,204.1 				"/>
				<polygon id="XMLID_113_" class="st2" points="634,181.5 672.3,204.8 672.3,414.1 634,391.8 				"/>
				<polygon id="XMLID_114_" class="st3" points="672.3,204.8 694.7,191.5 694.7,399.8 672.3,414.1 				"/>
				<polygon id="XMLID_115_" class="st1" points="570.8,191.5 634,153.8 694.7,191.5 672.3,204.8 634,181.5 593,204.1 				"/>
				<polygon id="XMLID_116_" class="st2" points="601.9,155.8 613.5,162 613.5,185.8 601.9,179.3 				"/>
				<polygon id="XMLID_118_" class="st3" points="613.5,162 634,150.1 634,173.8 613.5,185.8 				"/>
				<polygon id="XMLID_117_" class="st2" points="634,150.1 654.5,163.6 654.5,185.8 634,173.8 				"/>
				<polygon id="XMLID_119_" class="st3" points="654.5,163.6 665.8,156.6 665.8,179.3 654.5,185.8 				"/>
				<polygon id="XMLID_120_" class="st1" points="601.9,155.8 635,136.5 665.8,156.6 654.5,163.6 634,150.1 613.5,162 				"/>
			</g>
			<g id="XMLID_155_">
				<polygon id="XMLID_165_" class="st2" points="441.3,105.1 441.3,317.7 463.5,335.1 463.5,117.7 				"/>
				<polygon id="XMLID_164_" class="st3" points="463.5,335.1 504.5,305.4 504.5,95.1 463.5,117.7 				"/>
				<polygon id="XMLID_163_" class="st2" points="504.5,95.1 543,118.4 543,327.7 504.5,305.4 				"/>
				<polygon id="XMLID_162_" class="st3" points="543,118.4 565.2,105.1 565.2,313.4 543,327.7 				"/>
				<polygon id="XMLID_161_" class="st1" points="441.3,105.1 504.5,67.4 565.2,105.1 543,118.4 504.5,95.1 463.5,117.7 				"/>
				<polygon id="XMLID_160_" class="st2" points="472.4,69.4 484,75.6 484,99.4 472.4,92.9 				"/>
				<polygon id="XMLID_159_" class="st3" points="484,75.6 504.5,63.7 504.5,87.4 484,99.4 				"/>
				<polygon id="XMLID_158_" class="st2" points="504.5,63.7 525,77.2 525,99.4 504.5,87.4 				"/>
				<polygon id="XMLID_157_" class="st3" points="525,77.2 536.3,70.2 536.3,92.9 525,99.4 				"/>
				<polygon id="XMLID_156_" class="st1" points="472.4,69.4 505.5,50.1 536.3,70.2 525,77.2 504.5,63.7 484,75.6 				"/>
			</g>
			<g id="XMLID_148_">
				<g id="XMLID_154_">
					
						<image style="overflow:visible;opacity:0.15;enable-background:new    ;" width="107" height="242" xlink:href="1E636F67.png"  transform="matrix(1 0 0 1 355.15 157.9999)">
					</image>
					<g>
						<polygon class="st2" points="384.3,187.3 384.3,335 418.3,356.3 418.3,206.8 						"/>
					</g>
				</g>
				<g id="XMLID_153_">
					
						<image style="overflow:visible;opacity:0.15;enable-background:new    ;" width="107" height="242" xlink:href="1E636F69.png"  transform="matrix(1 0 0 1 389.15 157.9999)">
					</image>
					<g>
						<polygon class="st3" points="418.3,206.8 452.4,187.3 452.4,336 418.3,356.3 						"/>
					</g>
				</g>
				<polygon id="XMLID_152_" class="st1" points="384.3,187.3 418.3,167 452.4,187.3 418.3,206.8 				"/>
				<polygon id="XMLID_151_" class="st2" points="419.3,196.5 399.6,185.5 399.6,157.7 419.3,169.3 				"/>
				<polygon id="XMLID_150_" class="st3" points="419.3,196.5 438.9,185.2 438.9,157.7 419.3,169.3 				"/>
				<polygon id="XMLID_149_" class="st1" points="399.6,157.7 419.3,146 438.9,157.7 419.3,169.3 				"/>
			</g>
			<g id="XMLID_141_">
				<g id="XMLID_147_">
					
						<image style="overflow:visible;opacity:0.15;enable-background:new    ;" width="107" height="242" xlink:href="1E636F99.png"  transform="matrix(1 0 0 1 292.15 201.9999)">
					</image>
					<g>
						<polygon class="st2" points="321.9,231.7 321.9,379.4 355.9,400.7 355.9,251.2 						"/>
					</g>
				</g>
				<g id="XMLID_146_">
					
						<image style="overflow:visible;opacity:0.15;enable-background:new    ;" width="107" height="242" xlink:href="1E636F9B.png"  transform="matrix(1 0 0 1 326.15 201.9999)">
					</image>
					<g>
						<polygon class="st3" points="355.9,251.2 389.9,231.7 389.9,380.4 355.9,400.7 						"/>
					</g>
				</g>
				<polygon id="XMLID_145_" class="st1" points="321.9,231.7 355.9,211.4 389.9,231.7 355.9,251.2 				"/>
				<polygon id="XMLID_144_" class="st2" points="356.9,240.9 337.1,229.9 337.1,202 356.9,213.7 				"/>
				<polygon id="XMLID_143_" class="st3" points="356.9,240.9 376.4,229.5 376.4,202 356.9,213.7 				"/>
				<polygon id="XMLID_142_" class="st1" points="337.1,202 356.9,190.4 376.4,202 356.9,213.7 				"/>
			</g>
			<g id="XMLID_82_">
				<polygon id="XMLID_68_" class="st1" points="749.3,426.8 717.3,406.1 780.5,369.3 815,389.1 				"/>
				<g id="XMLID_69_">
					
						<image style="overflow:visible;opacity:0.15;enable-background:new    ;" width="105" height="145" xlink:href="1E636F98.png"  transform="matrix(1 0 0 1 688.15 376.9999)">
					</image>
					<g>
						<polygon class="st2" points="749.3,426.8 749.3,478.8 717.3,461.6 717.3,406.1 						"/>
					</g>
				</g>
				<g id="XMLID_70_">
					<g>
						<polygon class="st3" points="815,389.1 815,440.1 749.3,478.8 749.3,426.8 						"/>
					</g>
				</g>
			</g>
			<g id="XMLID_129_">
				<polygon id="XMLID_126_" class="st2" points="250.4,369.3 224.4,354.1 224.4,175.1 250.4,189.8 				"/>
				<polygon id="XMLID_127_" class="st3" points="250.4,369.3 274.2,358.2 274.2,176.5 250.4,189.8 				"/>
				<polygon id="XMLID_128_" class="st1" points="224.4,175.1 250.9,161.9 274.2,176.5 250.4,189.8 				"/>
			</g>
			<g id="XMLID_125_">
				<polygon id="XMLID_122_" class="st3" points="206.7,181.5 206.7,395.5 242.1,372.8 241.1,162.8 				"/>
				<polygon id="XMLID_123_" class="st2" points="173.7,163.6 206.7,181.5 206.7,395.5 173.7,374.8 				"/>
				<polygon id="XMLID_124_" class="st1" points="173.7,163.6 207.9,143.8 241.1,162.8 206.7,181.5 				"/>
			</g>
			<g id="XMLID_134_">
				<g id="XMLID_140_">
					
						<image style="overflow:visible;opacity:0.15;enable-background:new    ;" width="107" height="242" xlink:href="1E636F87.png"  transform="matrix(1 0 0 1 228.15 243.9999)">
					</image>
					<g>
						<polygon class="st2" points="257.4,273.7 257.4,421.4 291.4,442.7 291.4,293.2 						"/>
					</g>
				</g>
				<g id="XMLID_139_">
					
						<image style="overflow:visible;opacity:0.15;enable-background:new    ;" width="107" height="242" xlink:href="1E636F89.png"  transform="matrix(1 0 0 1 262.15 243.9999)">
					</image>
					<g>
						<polygon class="st3" points="291.4,293.2 325.6,273.7 325.6,422.4 291.4,442.7 						"/>
					</g>
				</g>
				<polygon id="XMLID_138_" class="st1" points="257.4,273.7 291.4,253.4 325.6,273.7 291.4,293.2 				"/>
				<polygon id="XMLID_137_" class="st2" points="292.4,282.9 272.9,271.9 272.9,244 292.4,255.7 				"/>
				<polygon id="XMLID_136_" class="st3" points="292.4,282.9 312.1,271.5 312.1,244 292.4,255.7 				"/>
				<polygon id="XMLID_135_" class="st1" points="272.9,244 292.4,232.4 312.1,244 292.4,255.7 				"/>
			</g>
			<g id="XMLID_133_">
				<g id="XMLID_130_">
					
						<image style="overflow:visible;opacity:0.15;enable-background:new    ;" width="154" height="196" xlink:href="1E636F8B.png"  transform="matrix(1 0 0 1 69.15 357.9999)">
					</image>
					<g>
						<polygon class="st2" points="99.1,387.5 180.1,436.1 180.1,510.5 99.1,462.5 						"/>
					</g>
				</g>
				<g id="XMLID_131_">
					
						<image style="overflow:visible;opacity:0.15;enable-background:new    ;" width="161" height="196" xlink:href="1E636F88.png"  transform="matrix(1 0 0 1 150.15 357.9999)">
					</image>
					<g>
						<polygon class="st3" points="180.1,436.1 267.4,387.5 267.4,461.1 180.1,510.5 						"/>
					</g>
				</g>
				<polygon id="XMLID_132_" class="st1" points="99.1,387.5 185.4,339.8 267.4,387.5 180.1,436.1 				"/>
			</g>
			<g id="XMLID_90_">
				<g id="XMLID_96_">
					
						<image style="overflow:visible;opacity:0.15;enable-background:new    ;" width="107" height="242" xlink:href="1E636F8F.png"  transform="matrix(1 0 0 1 484.15 243.9999)">
					</image>
					<g>
						<polygon class="st2" points="513.8,273.7 513.8,421.4 547.8,442.7 547.8,293.2 						"/>
					</g>
				</g>
				<g id="XMLID_95_">
					
						<image style="overflow:visible;opacity:0.15;enable-background:new    ;" width="107" height="242" xlink:href="1E636F8A.png"  transform="matrix(1 0 0 1 518.15 243.9999)">
					</image>
					<g>
						<polygon class="st3" points="547.8,293.2 581.9,273.7 581.9,422.4 547.8,442.7 						"/>
					</g>
				</g>
				<polygon id="XMLID_94_" class="st1" points="513.8,273.7 547.8,253.4 581.9,273.7 547.8,293.2 				"/>
				<polygon id="XMLID_93_" class="st2" points="548.8,282.9 529.2,271.9 529.2,244 548.8,255.7 				"/>
				<polygon id="XMLID_92_" class="st3" points="548.8,282.9 568.4,271.5 568.4,244 548.8,255.7 				"/>
				<polygon id="XMLID_91_" class="st1" points="529.2,244 548.8,232.4 568.4,244 548.8,255.7 				"/>
			</g>
			<g id="XMLID_83_">
				<g id="XMLID_89_">
					
						<image style="overflow:visible;opacity:0.15;enable-background:new    ;" width="107" height="242" xlink:href="1E636FB6.png"  transform="matrix(1 0 0 1 422.15 288.9999)">
					</image>
					<g>
						<polygon class="st2" points="451.4,318 451.4,465.8 485.4,487 485.4,337.5 						"/>
					</g>
				</g>
				<g id="XMLID_88_">
					
						<image style="overflow:visible;opacity:0.15;enable-background:new    ;" width="107" height="242" xlink:href="1E636FAC.png"  transform="matrix(1 0 0 1 456.15 288.9999)">
					</image>
					<g>
						<polygon class="st3" points="485.4,337.5 519.5,318 519.5,466.8 485.4,487 						"/>
					</g>
				</g>
				<polygon id="XMLID_87_" class="st1" points="451.4,318 485.4,297.8 519.5,318 485.4,337.5 				"/>
				<polygon id="XMLID_86_" class="st2" points="486.4,327.3 466.6,316.3 466.6,288.4 486.4,300 				"/>
				<polygon id="XMLID_85_" class="st3" points="486.4,327.3 505.9,315.9 505.9,288.4 486.4,300 				"/>
				<polygon id="XMLID_84_" class="st1" points="466.6,288.4 486.4,276.8 505.9,288.4 486.4,300 				"/>
			</g>
			<g id="XMLID_81_">
				<g id="XMLID_75_">
					
						<image style="overflow:visible;opacity:0.15;enable-background:new    ;" width="107" height="242" xlink:href="1E636F93.png"  transform="matrix(1 0 0 1 357.15 330.9999)">
					</image>
					<g>
						<polygon class="st2" points="386.9,360 386.9,507.8 420.9,529 420.9,379.5 						"/>
					</g>
				</g>
				<g id="XMLID_76_">
					
						<image style="overflow:visible;opacity:0.15;enable-background:new    ;" width="107" height="242" xlink:href="1E636F94.png"  transform="matrix(1 0 0 1 391.15 330.9999)">
					</image>
					<g>
						<polygon class="st3" points="420.9,379.5 455.1,360 455.1,508.8 420.9,529 						"/>
					</g>
				</g>
				<polygon id="XMLID_77_" class="st1" points="386.9,360 420.9,339.8 455.1,360 420.9,379.5 				"/>
				<polygon id="XMLID_78_" class="st2" points="421.9,369.3 402.4,358.3 402.4,330.4 421.9,342 				"/>
				<polygon id="XMLID_79_" class="st3" points="421.9,369.3 441.5,357.9 441.5,330.4 421.9,342 				"/>
				<polygon id="XMLID_80_" class="st1" points="402.4,330.4 421.9,318.8 441.5,330.4 421.9,342 				"/>
			</g>
			<g id="XMLID_74_">
				<g id="XMLID_65_">
					
						<image style="overflow:visible;opacity:0.15;enable-background:new    ;" width="201" height="236" xlink:href="1E636F97.png"  transform="matrix(1 0 0 1 536.15 333.9999)">
					</image>
					<g>
						<polygon class="st2" points="565.4,448.8 565.4,363.8 693.8,439.5 693.8,526.9 						"/>
					</g>
				</g>
				<g id="XMLID_66_">
					
						<image style="overflow:visible;opacity:0.15;enable-background:new    ;" width="120" height="187" xlink:href="1E636F95.png"  transform="matrix(1 0 0 1 664.15 382.9999)">
					</image>
					<g>
						<polygon class="st3" points="693.8,439.5 740.8,412.8 740.8,497.4 693.8,526.9 						"/>
					</g>
				</g>
				<polygon id="XMLID_67_" class="st1" points="565.4,363.8 613.5,335.5 740.8,412.8 693.8,439.5 				"/>
			</g>
		</g>
		<g>
			<polyline class="st7" points="109.1,510.8 109.1,514.7 139.6,532.2 139.6,528 109.1,510.8 			"/>
			<polygon class="st8" points="139.6,532.2 170.1,514.6 170.1,510.8 139.6,528 			"/>
			<polygon class="st9" points="109.1,514.7 109.1,517.4 139.6,535 139.6,532 			"/>
			<polygon class="st10" points="139.6,532.2 170.1,514.6 170.1,517.6 139.6,535 			"/>
			<polygon class="st4" points="109.1,510.8 139.2,493.2 170.1,510.8 139.6,528 			"/>
			<g>
				<polygon id="XMLID_332_" class="st7" points="139.6,508.4 143.6,510.7 143.6,509.2 139.6,506.9 				"/>
				<polygon id="XMLID_331_" class="st8" points="139.6,506.9 139.6,508.4 134.2,511.5 134.2,509.9 				"/>
				<g id="XMLID_329_">
					<polygon id="XMLID_330_" class="st8" points="146.2,509.1 146.2,511.5 139.6,515.3 139.6,512.9 					"/>
				</g>
				<g id="XMLID_327_">
					<polygon id="XMLID_328_" class="st7" points="132.9,509.1 132.9,511.5 139.6,515.3 139.6,512.9 					"/>
				</g>
				<path id="XMLID_324_" class="st4" d="M139.6,505.3l-6.6,3.8l6.6,3.8l6.6-3.8L139.6,505.3z M135.6,509.2l4-2.3l4,2.3l-4,2.3
					L135.6,509.2z"/>
				<polygon id="XMLID_323_" class="st10" points="139.6,508.4 136.9,509.9 139.6,511.5 142.2,509.9 				"/>
				<g id="XMLID_320_">
					<g id="XMLID_321_">
						<polygon id="XMLID_322_" class="st11" points="141.7,488.7 141.7,510 139.6,511.2 139.6,489.9 						"/>
					</g>
				</g>
				<g id="XMLID_317_">
					<g id="XMLID_318_">
						<polygon id="XMLID_319_" class="st12" points="137.4,488.7 137.4,510 139.6,511.2 139.6,489.9 						"/>
					</g>
				</g>
				<polygon id="XMLID_316_" class="st13" points="137.4,488.7 139.6,487.5 141.7,488.7 139.6,489.9 				"/>
				<g id="XMLID_312_">
					<g id="XMLID_313_" class="st14">
						<g id="XMLID_314_">
							<polygon id="XMLID_315_" class="st11" points="146.7,502.9 146.7,505.2 144.7,506.4 144.7,504.1 							"/>
						</g>
					</g>
				</g>
				<g id="XMLID_308_">
					<g id="XMLID_309_" class="st14">
						<g id="XMLID_310_">
							<polygon id="XMLID_311_" class="st12" points="139.6,501.1 139.6,503.5 144.7,506.4 144.7,504.1 							"/>
						</g>
					</g>
				</g>
				<polygon id="XMLID_307_" class="st9" points="139.6,501.1 141.7,499.9 146.7,502.9 144.7,504.1 				"/>
				<g id="XMLID_303_">
					<g id="XMLID_304_" class="st14">
						<g id="XMLID_305_">
							<polygon id="XMLID_306_" class="st11" points="146.7,496.8 146.7,503 144.7,504.2 144.7,498 							"/>
						</g>
					</g>
				</g>
				<g id="XMLID_299_">
					<g id="XMLID_300_" class="st14">
						<g id="XMLID_301_">
							<polygon id="XMLID_302_" class="st12" points="142.6,496.8 142.6,503 144.7,504.2 144.7,498 							"/>
						</g>
					</g>
				</g>
				<polygon id="XMLID_298_" class="st13" points="142.6,496.8 144.7,495.6 146.7,496.8 144.7,498 				"/>
				<g id="XMLID_294_">
					<g id="XMLID_295_" class="st14">
						<g id="XMLID_296_">
							<polygon id="XMLID_297_" class="st9" points="132.4,499 132.4,501.4 134.4,502.6 134.4,500.2 							"/>
						</g>
					</g>
				</g>
				<g id="XMLID_290_">
					<g id="XMLID_291_" class="st14">
						<g id="XMLID_292_">
							<polygon id="XMLID_293_" class="st11" points="139.6,497.3 139.6,499.6 134.4,502.6 134.4,500.2 							"/>
						</g>
					</g>
				</g>
				<polygon id="XMLID_289_" class="st9" points="139.6,497.3 137.4,496.1 132.4,499 134.4,500.2 				"/>
				<g id="XMLID_285_">
					<g id="XMLID_286_" class="st14">
						<g id="XMLID_287_">
							<polygon id="XMLID_288_" class="st9" points="132.4,494.6 132.4,499.1 134.4,500.3 134.4,495.8 							"/>
						</g>
					</g>
				</g>
				<g id="XMLID_281_">
					<g id="XMLID_282_" class="st14">
						<g id="XMLID_283_">
							<polygon id="XMLID_284_" class="st11" points="136.6,494.6 136.6,499.1 134.4,500.3 134.4,495.8 							"/>
						</g>
					</g>
				</g>
				<polygon id="XMLID_280_" class="st13" points="136.6,494.6 134.4,493.4 132.4,494.6 134.4,495.8 				"/>
				<g id="XMLID_277_" class="st14">
					<g id="XMLID_278_">
						<polygon id="XMLID_279_" class="st15" points="137.1,466 137.1,474 143.9,477.9 143.9,470 						"/>
					</g>
				</g>
				<g id="XMLID_274_">
					<g id="XMLID_275_">
						<polygon id="XMLID_276_" class="st8" points="150.9,466 150.9,474 143.9,477.9 143.9,470 						"/>
					</g>
				</g>
				<polygon id="XMLID_273_" class="st4" points="150.9,466 143.9,462.1 137.1,466 143.9,470 				"/>
				<g id="XMLID_270_">
					<g id="XMLID_271_">
						<polygon id="XMLID_272_" class="st7" points="122.7,471.7 122.7,489.4 138.1,498.3 138.1,480.6 						"/>
					</g>
				</g>
				<g id="XMLID_267_">
					<g id="XMLID_268_">
						<polygon id="XMLID_269_" class="st8" points="153.4,471.7 153.4,489.4 138.1,498.3 138.1,480.6 						"/>
					</g>
				</g>
				<polygon id="XMLID_266_" class="st4" points="153.4,471.7 138.1,462.9 122.7,471.7 138.1,480.6 				"/>
				<g id="XMLID_263_">
					<g id="XMLID_264_">
						<polygon id="XMLID_265_" class="st7" points="120.6,486.2 120.6,495.9 128.9,500.7 128.9,491 						"/>
					</g>
				</g>
				<g id="XMLID_260_">
					<g id="XMLID_261_">
						<polygon id="XMLID_262_" class="st8" points="137.4,486.2 137.4,495.9 128.9,500.7 128.9,491 						"/>
					</g>
				</g>
				<polygon id="XMLID_259_" class="st4" points="137.4,486.2 128.9,481.3 120.6,486.2 128.9,491 				"/>
				<g id="XMLID_256_">
					<g id="XMLID_257_">
						<polygon id="XMLID_258_" class="st7" points="139.4,484.2 139.4,495.2 149.1,500.7 149.1,489.7 						"/>
					</g>
				</g>
				<g id="XMLID_253_">
					<g id="XMLID_254_">
						<polygon id="XMLID_255_" class="st8" points="158.6,484.2 158.6,495.2 149.1,500.7 149.1,489.7 						"/>
					</g>
				</g>
				<polygon id="XMLID_252_" class="st4" points="158.6,484.2 149.1,478.7 139.4,484.2 149.1,489.7 				"/>
				<g id="XMLID_249_">
					<g id="XMLID_250_">
						<polygon id="XMLID_251_" class="st7" points="135.7,490.3 135.7,494.6 139.4,496.8 139.4,492.5 						"/>
					</g>
				</g>
				<g id="XMLID_246_">
					<g id="XMLID_247_">
						<polygon id="XMLID_248_" class="st8" points="143.2,490.3 143.2,494.6 139.4,496.8 139.4,492.5 						"/>
					</g>
				</g>
				<polygon id="XMLID_1_" class="st4" points="143.2,490.3 139.4,488.2 135.7,490.3 139.4,492.5 				"/>
			</g>
		</g>
		<g>
			<polyline class="st7" points="445.9,601.7 445.9,605.5 476.4,623 476.4,618.9 445.9,601.7 			"/>
			<polygon class="st8" points="476.4,623 506.9,605.5 506.9,601.7 476.4,618.9 			"/>
			<polygon class="st9" points="445.9,605.5 445.9,608.3 476.4,625.9 476.4,622.9 			"/>
			<polygon class="st10" points="476.4,623 506.9,605.5 506.9,608.5 476.4,625.9 			"/>
			<polygon class="st4" points="445.9,601.7 476.1,584 506.9,601.7 476.4,618.9 			"/>
			<g>
				<polygon id="XMLID_420_" class="st7" points="476.5,599.3 480.5,601.6 480.5,600 476.5,597.7 				"/>
				<polygon id="XMLID_419_" class="st8" points="476.5,597.7 476.5,599.3 471.1,602.4 471.1,600.8 				"/>
				<g id="XMLID_417_">
					<polygon id="XMLID_418_" class="st8" points="483.1,600 483.1,602.4 476.4,606.2 476.4,603.8 					"/>
				</g>
				<g id="XMLID_415_">
					<polygon id="XMLID_416_" class="st7" points="469.9,600 469.9,602.4 476.4,606.2 476.4,603.8 					"/>
				</g>
				<path id="XMLID_412_" class="st4" d="M476.4,596.1l-6.6,3.8l6.6,3.8l6.6-3.8L476.4,596.1z M472.4,600l4-2.3l4,2.3l-4,2.3
					L472.4,600z"/>
				<polygon id="XMLID_411_" class="st10" points="476.5,599.3 473.9,600.8 476.5,602.4 479.1,600.8 				"/>
				<g id="XMLID_408_">
					<g id="XMLID_409_">
						<polygon id="XMLID_410_" class="st11" points="478.5,579.6 478.5,600.9 476.4,602.1 476.4,580.8 						"/>
					</g>
				</g>
				<g id="XMLID_405_">
					<g id="XMLID_406_">
						<polygon id="XMLID_407_" class="st12" points="474.4,579.6 474.4,600.9 476.4,602.1 476.4,580.8 						"/>
					</g>
				</g>
				<polygon id="XMLID_404_" class="st13" points="474.4,579.6 476.4,578.4 478.5,579.6 476.4,580.8 				"/>
				<g id="XMLID_400_">
					<g id="XMLID_401_" class="st14">
						<g id="XMLID_402_">
							<polygon id="XMLID_403_" class="st11" points="483.6,593.7 483.6,596.1 481.5,597.3 481.5,594.9 							"/>
						</g>
					</g>
				</g>
				<g id="XMLID_396_">
					<g id="XMLID_397_" class="st14">
						<g id="XMLID_398_">
							<polygon id="XMLID_399_" class="st12" points="476.4,592 476.4,594.4 481.5,597.3 481.5,594.9 							"/>
						</g>
					</g>
				</g>
				<polygon id="XMLID_395_" class="st9" points="476.4,592 478.5,590.8 483.6,593.7 481.5,594.9 				"/>
				<g id="XMLID_391_">
					<g id="XMLID_392_" class="st14">
						<g id="XMLID_393_">
							<polygon id="XMLID_394_" class="st11" points="483.6,587.7 483.6,593.9 481.5,595.1 481.5,588.9 							"/>
						</g>
					</g>
				</g>
				<g id="XMLID_387_">
					<g id="XMLID_388_" class="st14">
						<g id="XMLID_389_">
							<polygon id="XMLID_390_" class="st12" points="479.4,587.7 479.4,593.9 481.5,595.1 481.5,588.9 							"/>
						</g>
					</g>
				</g>
				<polygon id="XMLID_386_" class="st13" points="479.4,587.7 481.5,586.5 483.6,587.7 481.5,588.9 				"/>
				<g id="XMLID_382_">
					<g id="XMLID_383_" class="st14">
						<g id="XMLID_384_">
							<polygon id="XMLID_385_" class="st9" points="469.4,589.9 469.4,592.2 471.4,593.4 471.4,591.1 							"/>
						</g>
					</g>
				</g>
				<g id="XMLID_378_">
					<g id="XMLID_379_" class="st14">
						<g id="XMLID_380_">
							<polygon id="XMLID_381_" class="st11" points="476.4,588.1 476.4,590.5 471.4,593.4 471.4,591.1 							"/>
						</g>
					</g>
				</g>
				<polygon id="XMLID_377_" class="st9" points="476.4,588.1 474.4,586.9 469.4,589.9 471.4,591.1 				"/>
				<g id="XMLID_373_">
					<g id="XMLID_374_" class="st14">
						<g id="XMLID_375_">
							<polygon id="XMLID_376_" class="st9" points="469.4,585.5 469.4,590 471.4,591.2 471.4,586.7 							"/>
						</g>
					</g>
				</g>
				<g id="XMLID_369_">
					<g id="XMLID_370_" class="st14">
						<g id="XMLID_371_">
							<polygon id="XMLID_372_" class="st11" points="473.4,585.5 473.4,590 471.4,591.2 471.4,586.7 							"/>
						</g>
					</g>
				</g>
				<polygon id="XMLID_368_" class="st13" points="473.4,585.5 471.4,584.3 469.4,585.5 471.4,586.7 				"/>
				<g id="XMLID_365_" class="st14">
					<g id="XMLID_366_">
						<polygon id="XMLID_367_" class="st15" points="474,556.9 474,564.8 480.9,568.8 480.9,560.9 						"/>
					</g>
				</g>
				<g id="XMLID_362_">
					<g id="XMLID_363_">
						<polygon id="XMLID_364_" class="st8" points="487.8,556.9 487.8,564.8 480.9,568.8 480.9,560.9 						"/>
					</g>
				</g>
				<polygon id="XMLID_361_" class="st4" points="487.8,556.9 480.9,552.9 474,556.9 480.9,560.9 				"/>
				<g id="XMLID_358_">
					<g id="XMLID_359_">
						<polygon id="XMLID_360_" class="st7" points="459.6,562.6 459.6,580.3 474.9,589.2 474.9,571.5 						"/>
					</g>
				</g>
				<g id="XMLID_355_">
					<g id="XMLID_356_">
						<polygon id="XMLID_357_" class="st8" points="490.4,562.6 490.4,580.3 474.9,589.2 474.9,571.5 						"/>
					</g>
				</g>
				<polygon id="XMLID_354_" class="st4" points="490.4,562.6 474.9,553.7 459.6,562.6 474.9,571.5 				"/>
				<g id="XMLID_351_">
					<g id="XMLID_352_">
						<polygon id="XMLID_353_" class="st7" points="457.4,577 457.4,586.7 465.9,591.6 465.9,581.9 						"/>
					</g>
				</g>
				<g id="XMLID_348_">
					<g id="XMLID_349_">
						<polygon id="XMLID_350_" class="st8" points="474.3,577 474.3,586.7 465.9,591.6 465.9,581.9 						"/>
					</g>
				</g>
				<polygon id="XMLID_347_" class="st4" points="474.3,577 465.9,572.2 457.4,577 465.9,581.9 				"/>
				<g id="XMLID_344_">
					<g id="XMLID_345_">
						<polygon id="XMLID_346_" class="st7" points="476.4,575.1 476.4,586.1 485.9,591.6 485.9,580.6 						"/>
					</g>
				</g>
				<g id="XMLID_341_">
					<g id="XMLID_342_">
						<polygon id="XMLID_343_" class="st8" points="495.5,575.1 495.5,586.1 485.9,591.6 485.9,580.6 						"/>
					</g>
				</g>
				<polygon id="XMLID_340_" class="st4" points="495.5,575.1 485.9,569.6 476.4,575.1 485.9,580.6 				"/>
				<g id="XMLID_337_">
					<g id="XMLID_338_">
						<polygon id="XMLID_339_" class="st7" points="472.6,581.2 472.6,585.5 476.4,587.7 476.4,583.4 						"/>
					</g>
				</g>
				<g id="XMLID_334_">
					<g id="XMLID_335_">
						<polygon id="XMLID_336_" class="st8" points="480.1,581.2 480.1,585.5 476.4,587.7 476.4,583.4 						"/>
					</g>
				</g>
				<polygon id="XMLID_333_" class="st4" points="480.1,581.2 476.4,579 472.6,581.2 476.4,583.4 				"/>
			</g>
		</g>
		<g>
			<polyline class="st7" points="715.3,533.7 715.3,537.6 745.8,555.1 745.8,550.9 715.3,533.7 			"/>
			<polygon class="st8" points="745.8,555.1 776.3,537.5 776.3,533.7 745.8,550.9 			"/>
			<polygon class="st9" points="715.3,537.6 715.3,540.3 745.8,557.9 745.8,554.9 			"/>
			<polygon class="st10" points="745.8,555.1 776.3,537.5 776.3,540.5 745.8,557.9 			"/>
			<polygon class="st4" points="715.3,533.7 745.3,516.1 776.3,533.7 745.8,550.9 			"/>
			<g>
				<polygon id="XMLID_508_" class="st7" points="745.8,531.3 749.8,533.6 749.8,532.1 745.8,529.7 				"/>
				<polygon id="XMLID_507_" class="st8" points="745.8,529.7 745.8,531.3 740.3,534.4 740.3,532.8 				"/>
				<g id="XMLID_505_">
					<polygon id="XMLID_506_" class="st8" points="752.3,532 752.3,534.4 745.8,538.2 745.8,535.8 					"/>
				</g>
				<g id="XMLID_503_">
					<polygon id="XMLID_504_" class="st7" points="739,532 739,534.4 745.8,538.2 745.8,535.8 					"/>
				</g>
				<path id="XMLID_500_" class="st4" d="M745.8,528.2l-6.6,3.8l6.6,3.8l6.6-3.8L745.8,528.2z M741.8,532.1l4-2.3l4,2.3l-4,2.3
					L741.8,532.1z"/>
				<polygon id="XMLID_499_" class="st10" points="745.8,531.3 743,532.8 745.8,534.4 748.3,532.8 				"/>
				<g id="XMLID_496_">
					<g id="XMLID_497_">
						<polygon id="XMLID_498_" class="st11" points="747.8,511.6 747.8,532.9 745.8,534.1 745.8,512.8 						"/>
					</g>
				</g>
				<g id="XMLID_493_">
					<g id="XMLID_494_">
						<polygon id="XMLID_495_" class="st12" points="743.7,511.6 743.7,532.9 745.8,534.1 745.8,512.8 						"/>
					</g>
				</g>
				<polygon id="XMLID_492_" class="st13" points="743.7,511.6 745.8,510.4 747.8,511.6 745.8,512.8 				"/>
				<g id="XMLID_488_">
					<g id="XMLID_489_" class="st14">
						<g id="XMLID_490_">
							<polygon id="XMLID_491_" class="st11" points="752.8,525.7 752.8,528.1 750.8,529.3 750.8,526.9 							"/>
						</g>
					</g>
				</g>
				<g id="XMLID_484_">
					<g id="XMLID_485_" class="st14">
						<g id="XMLID_486_">
							<polygon id="XMLID_487_" class="st12" points="745.8,524 745.8,526.4 750.8,529.3 750.8,526.9 							"/>
						</g>
					</g>
				</g>
				<polygon id="XMLID_483_" class="st9" points="745.8,524 747.8,522.8 752.8,525.7 750.8,526.9 				"/>
				<g id="XMLID_479_">
					<g id="XMLID_480_" class="st14">
						<g id="XMLID_481_">
							<polygon id="XMLID_482_" class="st11" points="752.8,519.7 752.8,525.9 750.8,527.1 750.8,520.9 							"/>
						</g>
					</g>
				</g>
				<g id="XMLID_475_">
					<g id="XMLID_476_" class="st14">
						<g id="XMLID_477_">
							<polygon id="XMLID_478_" class="st12" points="748.8,519.7 748.8,525.9 750.8,527.1 750.8,520.9 							"/>
						</g>
					</g>
				</g>
				<polygon id="XMLID_474_" class="st13" points="748.8,519.7 750.8,518.5 752.8,519.7 750.8,520.9 				"/>
				<g id="XMLID_470_">
					<g id="XMLID_471_" class="st14">
						<g id="XMLID_472_">
							<polygon id="XMLID_473_" class="st9" points="738.5,521.9 738.5,524.2 740.7,525.4 740.7,523.1 							"/>
						</g>
					</g>
				</g>
				<g id="XMLID_466_">
					<g id="XMLID_467_" class="st14">
						<g id="XMLID_468_">
							<polygon id="XMLID_469_" class="st11" points="745.8,520.1 745.8,522.5 740.7,525.4 740.7,523.1 							"/>
						</g>
					</g>
				</g>
				<polygon id="XMLID_465_" class="st9" points="745.8,520.1 743.7,518.9 738.5,521.9 740.7,523.1 				"/>
				<g id="XMLID_461_">
					<g id="XMLID_462_" class="st14">
						<g id="XMLID_463_">
							<polygon id="XMLID_464_" class="st9" points="738.5,517.5 738.5,522 740.7,523.2 740.7,518.7 							"/>
						</g>
					</g>
				</g>
				<g id="XMLID_457_">
					<g id="XMLID_458_" class="st14">
						<g id="XMLID_459_">
							<polygon id="XMLID_460_" class="st11" points="742.8,517.5 742.8,522 740.7,523.2 740.7,518.7 							"/>
						</g>
					</g>
				</g>
				<polygon id="XMLID_456_" class="st13" points="742.8,517.5 740.7,516.3 738.5,517.5 740.7,518.7 				"/>
				<g id="XMLID_453_" class="st14">
					<g id="XMLID_454_">
						<polygon id="XMLID_455_" class="st15" points="743.3,488.9 743.3,496.8 750.2,500.8 750.2,492.9 						"/>
					</g>
				</g>
				<g id="XMLID_450_">
					<g id="XMLID_451_">
						<polygon id="XMLID_452_" class="st8" points="757,488.9 757,496.8 750.2,500.8 750.2,492.9 						"/>
					</g>
				</g>
				<polygon id="XMLID_449_" class="st4" points="757,488.9 750.2,485 743.3,488.9 750.2,492.9 				"/>
				<g id="XMLID_446_">
					<g id="XMLID_447_">
						<polygon id="XMLID_448_" class="st7" points="728.8,494.6 728.8,512.3 744.3,521.2 744.3,503.5 						"/>
					</g>
				</g>
				<g id="XMLID_443_">
					<g id="XMLID_444_">
						<polygon id="XMLID_445_" class="st8" points="759.5,494.6 759.5,512.3 744.3,521.2 744.3,503.5 						"/>
					</g>
				</g>
				<polygon id="XMLID_442_" class="st4" points="759.5,494.6 744.2,485.8 728.8,494.6 744.3,503.5 				"/>
				<g id="XMLID_439_">
					<g id="XMLID_440_">
						<polygon id="XMLID_441_" class="st7" points="726.7,509 726.7,518.8 735,523.6 735,513.9 						"/>
					</g>
				</g>
				<g id="XMLID_436_">
					<g id="XMLID_437_">
						<polygon id="XMLID_438_" class="st8" points="743.5,509 743.5,518.8 735,523.6 735,513.9 						"/>
					</g>
				</g>
				<polygon id="XMLID_435_" class="st4" points="743.5,509 735,504.2 726.7,509 735,513.9 				"/>
				<g id="XMLID_432_">
					<g id="XMLID_433_">
						<polygon id="XMLID_434_" class="st7" points="745.7,507.1 745.7,518.1 755.2,523.6 755.2,512.6 						"/>
					</g>
				</g>
				<g id="XMLID_429_">
					<g id="XMLID_430_">
						<polygon id="XMLID_431_" class="st8" points="764.8,507.1 764.8,518.1 755.2,523.6 755.2,512.6 						"/>
					</g>
				</g>
				<polygon id="XMLID_428_" class="st4" points="764.8,507.1 755.2,501.6 745.7,507.1 755.2,512.6 				"/>
				<g id="XMLID_425_">
					<g id="XMLID_426_">
						<polygon id="XMLID_427_" class="st7" points="741.8,513.2 741.8,517.5 745.7,519.7 745.7,515.4 						"/>
					</g>
				</g>
				<g id="XMLID_422_">
					<g id="XMLID_423_">
						<polygon id="XMLID_424_" class="st8" points="749.3,513.2 749.3,517.5 745.7,519.7 745.7,515.4 						"/>
					</g>
				</g>
				<polygon id="XMLID_421_" class="st4" points="749.3,513.2 745.7,511 741.8,513.2 745.7,515.4 				"/>
			</g>
		</g>
	</g>
</g>
</svg>
