<?xml version="1.0" encoding="utf-8"?>
<!-- Generator: Adobe Illustrator 19.0.0, SVG Export Plug-In . SVG Version: 6.00 Build 0)  -->
<svg version="1.1" id="Calque_1" xmlns="http://www.w3.org/2000/svg" xmlns:xlink="http://www.w3.org/1999/xlink" x="0px" y="0px"
	 viewBox="68 50.1 748.2 692.9" style="enable-background:new 68 50.1 748.2 692.9;" xml:space="preserve">
<style type="text/css">
	.st0{fill:none;stroke:#FAFAFA;stroke-width:2;stroke-miterlimit:10;}
	.st1{fill:#6AD779;}
	.st2{fill:#69D678;}
	.st3{fill:#CADEED;}
	.st4{fill:#A6CBE3;}
	.st5{fill:#F8F9FF;}
	.st6{fill:#07FBEA;}
	.st7{fill:#58C162;}
	.st8{fill:#31953A;}
	.st9{fill:#996F44;}
	.st10{fill:#8E6239;}
	.st11{fill:#724E30;}
	.st12{fill:#89613D;}
	.st13{fill:#616236;}
	.st14{enable-background:new    ;}
	.st15{fill:#629D1B;}
</style>
<g id="BG">
</g>
<g id="Hero">
	<path class="st0" d="M146.9-6319.6"/>
</g>
<g id="section1">
</g>
<g id="section2">
</g>
<g id="section3">
</g>
<g id="section4">
</g>
<g id="footer">
	<g>
		<g id="XMLID_236_">
			
				<image style="overflow:visible;opacity:0.45;enable-background:new    ;" width="299" height="203" xlink:href="20461E1D.png"  transform="matrix(1 0 0 1 100.6 528.85)">
			</image>
			<g>
				<polygon class="st1" points="130.4,623.7 242.9,558.6 356.5,623.7 243.5,688.4 				"/>
			</g>
		</g>
		<g id="XMLID_235_">
			
				<image style="overflow:visible;opacity:0.45;enable-background:new    ;" width="333" height="224" xlink:href="20461E1F.png"  transform="matrix(1 0 0 1 450.6 146.85)">
			</image>
			<g>
				<polygon class="st2" points="480.4,242.9 597.6,176.1 740.6,260.4 625.6,327.5 				"/>
			</g>
		</g>
		<polygon id="XMLID_234_" class="st3" points="507.4,114 597.6,165.2 597.6,194.9 507.4,143.1 		"/>
		<polygon id="XMLID_233_" class="st4" points="597.6,165.2 687.3,111.7 687.3,230.4 597.6,279.6 		"/>
		<polygon id="XMLID_232_" class="st5" points="637.3,252.1 687.3,224.6 719.8,243.6 669.6,271.9 		"/>
		<polygon id="XMLID_231_" class="st3" points="637.3,252.1 637.3,257.9 669.6,277.2 669.6,271.9 		"/>
		<polygon id="XMLID_230_" class="st4" points="669.6,277.2 719.8,248.7 719.8,243.6 669.6,271.9 		"/>
		<polygon id="XMLID_229_" class="st3" points="597.6,194.9 620.5,181.5 620.5,236.1 597.6,248.1 		"/>
		<polygon id="XMLID_228_" class="st5" points="637.3,172.6 687.3,144 719.8,162.6 669.6,191.2 		"/>
		<polygon id="XMLID_227_" class="st3" points="669.6,191.2 669.6,200.1 637.3,180.7 637.3,172.6 		"/>
		<polygon id="XMLID_226_" class="st4" points="669.6,191.2 719.8,162.6 719.8,171.1 669.6,200.1 		"/>
		<polygon id="XMLID_225_" class="st3" points="507.4,195.7 597.6,248.1 597.6,279.6 506.5,227.6 		"/>
		<polygon id="XMLID_224_" class="st4" points="507.4,195.7 511.3,194.4 511.3,145.4 597.6,194.9 597.6,248.1 		"/>
		<polygon id="XMLID_223_" class="st5" points="507.4,114 597.6,61.2 687.3,111.7 597.6,165.2 		"/>
		<polygon id="XMLID_222_" class="st3" points="527,114 597.6,73.9 666.6,113.2 597.6,154.4 		"/>
		<g id="XMLID_221_">
			
				<image style="overflow:visible;opacity:0.45;enable-background:new    ;" width="473" height="306" xlink:href="20461E1A.png"  transform="matrix(1 0 0 1 283.6 290.85)">
			</image>
			<g>
				<polygon class="st1" points="312.9,466.9 568,320.6 713.2,406 458.5,553.7 				"/>
			</g>
		</g>
		<path id="XMLID_220_" class="st6" d="M544.4,434c0,0-8.3-4.5-38.8,7.4c-30.5,11.9-20.4-33.2-20.4-33.2s14.4-41.1,83.1-33.2
			c0,0,69.4,18,37.9,64c0,0-29.2,16.2-40.6,5.8C554.2,434.3,544.4,434,544.4,434z"/>
		<polygon id="XMLID_219_" class="st4" points="243.5,545.7 333.3,492.7 333.3,543.6 304.2,560.1 304.4,619.2 333.3,603.7 
			333.3,611.5 243.5,663.5 		"/>
		<polygon id="XMLID_218_" class="st5" points="330.3,605.4 330.3,601.6 333.3,603.7 		"/>
		<polygon id="XMLID_217_" class="st3" points="330.3,545.2 330.3,605.4 304.4,619.2 304.2,560.1 		"/>
		<polygon id="XMLID_216_" class="st3" points="152.6,611.5 243.5,663.5 243.5,545.7 152.6,492.7 152.6,543.2 182.4,560.5 
			182.1,621 152.6,603.5 		"/>
		<polygon id="XMLID_215_" class="st5" points="152.6,603.5 155.7,602.6 155.7,605.2 		"/>
		<polygon id="XMLID_214_" class="st4" points="155.7,545.1 155.7,605.2 182.1,621 182.4,560.5 		"/>
		<polygon id="XMLID_213_" class="st5" points="152.6,492.7 243.5,441.1 333.3,492.7 243.5,545.7 		"/>
		<polygon id="XMLID_212_" class="st3" points="172.4,494.2 242.9,453.7 253.2,459.7 253.2,496.4 280.1,512.7 242.9,535.1 		"/>
		<polygon id="XMLID_211_" class="st4" points="284.4,510.2 293.7,516.1 293.7,465.1 253.2,442.6 253.2,496.4 280.1,512.7 		"/>
		<polygon id="XMLID_210_" class="st3" points="293.7,465.1 333.3,441.1 333.3,492.7 293.7,516.1 		"/>
		<polygon id="XMLID_209_" class="st5" points="253.2,442.6 293.7,417.7 333.3,441.1 293.7,465.1 		"/>
		<g>
			<polyline class="st7" points="376.1,187 376.1,193.9 430.6,225.1 430.6,217.6 376.1,187 			"/>
			<polygon class="st8" points="430.6,225.1 485,193.6 485,187 430.6,217.6 			"/>
			<polygon class="st9" points="376.1,193.9 376.1,198.7 430.6,230.1 430.6,224.7 			"/>
			<polygon class="st10" points="430.6,225.1 485,193.6 485,199.1 430.6,230.1 			"/>
			<polygon class="st1" points="376.1,187 430,155.5 485,187 430.6,217.6 			"/>
			<g>
				<polygon id="XMLID_596_" class="st7" points="430.6,182.6 437.7,186.7 437.7,184.1 430.6,179.9 				"/>
				<polygon id="XMLID_595_" class="st8" points="430.6,179.9 430.6,182.6 421.1,188.1 421.1,185.4 				"/>
				<g id="XMLID_593_">
					<polygon id="XMLID_594_" class="st8" points="442.4,183.9 442.4,188.1 430.6,195 430.6,190.7 					"/>
				</g>
				<g id="XMLID_591_">
					<polygon id="XMLID_592_" class="st7" points="418.7,183.9 418.7,188.1 430.6,195 430.6,190.7 					"/>
				</g>
				<path id="XMLID_588_" class="st1" d="M430.6,177.1l-11.9,6.8l11.8,6.8l11.8-6.8L430.6,177.1z M423.4,184.1l7.2-4.1l7.2,4.1
					l-7.2,4.1L423.4,184.1z"/>
				<polygon id="XMLID_587_" class="st10" points="430.6,182.6 425.8,185.4 430.6,188.1 435.4,185.4 				"/>
				<g id="XMLID_584_">
					<g id="XMLID_585_">
						<polygon id="XMLID_586_" class="st11" points="434.3,147.5 434.3,185.6 430.6,187.6 430.6,149.6 						"/>
					</g>
				</g>
				<g id="XMLID_581_">
					<g id="XMLID_582_">
						<polygon id="XMLID_583_" class="st12" points="426.9,147.5 426.9,185.6 430.6,187.6 430.6,149.6 						"/>
					</g>
				</g>
				<polygon id="XMLID_580_" class="st13" points="426.9,147.5 430.6,145.4 434.3,147.5 430.6,149.6 				"/>
				<g id="XMLID_576_">
					<g id="XMLID_577_" class="st14">
						<g id="XMLID_578_">
							<polygon id="XMLID_579_" class="st11" points="443.3,172.7 443.3,177 439.6,179.1 439.6,174.9 							"/>
						</g>
					</g>
				</g>
				<g id="XMLID_572_">
					<g id="XMLID_573_" class="st14">
						<g id="XMLID_574_">
							<polygon id="XMLID_575_" class="st12" points="430.6,169.6 430.6,173.9 439.6,179.1 439.6,174.9 							"/>
						</g>
					</g>
				</g>
				<polygon id="XMLID_571_" class="st9" points="430.6,169.6 434.3,167.6 443.3,172.7 439.6,174.9 				"/>
				<g id="XMLID_567_">
					<g id="XMLID_568_" class="st14">
						<g id="XMLID_569_">
							<polygon id="XMLID_570_" class="st11" points="443.3,162 443.3,173 439.6,175.1 439.6,164.1 							"/>
						</g>
					</g>
				</g>
				<g id="XMLID_563_">
					<g id="XMLID_564_" class="st14">
						<g id="XMLID_565_">
							<polygon id="XMLID_566_" class="st12" points="435.9,162 435.9,173 439.6,175.1 439.6,164.1 							"/>
						</g>
					</g>
				</g>
				<polygon id="XMLID_562_" class="st13" points="435.9,162 439.6,159.7 443.3,162 439.6,164.1 				"/>
				<g id="XMLID_558_">
					<g id="XMLID_559_" class="st14">
						<g id="XMLID_560_">
							<polygon id="XMLID_561_" class="st9" points="417.8,165.9 417.8,170.1 421.5,172.1 421.5,168 							"/>
						</g>
					</g>
				</g>
				<g id="XMLID_554_">
					<g id="XMLID_555_" class="st14">
						<g id="XMLID_556_">
							<polygon id="XMLID_557_" class="st11" points="430.6,162.7 430.6,167 421.5,172.1 421.5,168 							"/>
						</g>
					</g>
				</g>
				<polygon id="XMLID_553_" class="st9" points="430.6,162.7 426.8,160.6 417.8,165.9 421.5,168 				"/>
				<g id="XMLID_549_">
					<g id="XMLID_550_" class="st14">
						<g id="XMLID_551_">
							<polygon id="XMLID_552_" class="st9" points="417.8,158.1 417.8,166.1 421.5,168.1 421.5,160.1 							"/>
						</g>
					</g>
				</g>
				<g id="XMLID_545_">
					<g id="XMLID_546_" class="st14">
						<g id="XMLID_547_">
							<polygon id="XMLID_548_" class="st11" points="425.2,158.1 425.2,166.1 421.5,168.1 421.5,160.1 							"/>
						</g>
					</g>
				</g>
				<polygon id="XMLID_544_" class="st13" points="425.2,158.1 421.5,155.9 417.8,158.1 421.5,160.1 				"/>
				<g id="XMLID_541_" class="st14">
					<g id="XMLID_542_">
						<polygon id="XMLID_543_" class="st15" points="426.2,107 426.2,121.1 438.4,128.2 438.4,114.1 						"/>
					</g>
				</g>
				<g id="XMLID_538_">
					<g id="XMLID_539_">
						<polygon id="XMLID_540_" class="st8" points="450.7,107 450.7,121.1 438.4,128.2 438.4,114.1 						"/>
					</g>
				</g>
				<polygon id="XMLID_537_" class="st1" points="450.7,107 438.4,100 426.2,107 438.4,114.1 				"/>
				<g id="XMLID_534_">
					<g id="XMLID_535_">
						<polygon id="XMLID_536_" class="st7" points="400.4,117.1 400.4,148.7 427.9,164.6 427.9,133.1 						"/>
					</g>
				</g>
				<g id="XMLID_531_">
					<g id="XMLID_532_">
						<polygon id="XMLID_533_" class="st8" points="455.3,117.1 455.3,148.7 427.9,164.6 427.9,133.1 						"/>
					</g>
				</g>
				<polygon id="XMLID_530_" class="st1" points="455.3,117.1 427.9,101.4 400.4,117.1 427.9,133.1 				"/>
				<g id="XMLID_527_">
					<g id="XMLID_528_">
						<polygon id="XMLID_529_" class="st7" points="396.6,143 396.6,160.2 411.6,169 411.6,151.6 						"/>
					</g>
				</g>
				<g id="XMLID_524_">
					<g id="XMLID_525_">
						<polygon id="XMLID_526_" class="st8" points="426.7,143 426.7,160.2 411.6,169 411.6,151.6 						"/>
					</g>
				</g>
				<polygon id="XMLID_523_" class="st1" points="426.7,143 411.6,134.2 396.6,143 411.6,151.6 				"/>
				<g id="XMLID_520_">
					<g id="XMLID_521_">
						<polygon id="XMLID_522_" class="st7" points="430.4,139.5 430.4,159.1 447.5,169 447.5,149.4 						"/>
					</g>
				</g>
				<g id="XMLID_517_">
					<g id="XMLID_518_">
						<polygon id="XMLID_519_" class="st8" points="464.6,139.5 464.6,159.1 447.5,169 447.5,149.4 						"/>
					</g>
				</g>
				<polygon id="XMLID_516_" class="st1" points="464.6,139.5 447.5,129.6 430.4,139.5 447.5,149.4 				"/>
				<g id="XMLID_513_">
					<g id="XMLID_514_">
						<polygon id="XMLID_515_" class="st7" points="423.8,150.4 423.8,158.1 430.4,162 430.4,154.2 						"/>
					</g>
				</g>
				<g id="XMLID_510_">
					<g id="XMLID_511_">
						<polygon id="XMLID_512_" class="st8" points="437.1,150.4 437.1,158.1 430.4,162 430.4,154.2 						"/>
					</g>
				</g>
				<polygon id="XMLID_509_" class="st1" points="437.1,150.4 430.4,146.5 423.8,150.4 430.4,154.2 				"/>
			</g>
		</g>
		<g>
			<g id="XMLID_208_">
				
					<image style="overflow:visible;opacity:0.45;enable-background:new    ;" width="336" height="229" xlink:href="20461E1B.png"  transform="matrix(1 0 0 1 165.6 209.85)">
				</image>
				<g>
					<polygon class="st2" points="195.3,306.9 305.3,239.6 458.5,329.5 348,395.6 					"/>
				</g>
			</g>
			<polygon id="XMLID_207_" class="st4" points="305.3,233.1 395.6,179.2 395.6,296.6 305.3,349 			"/>
			<polygon id="XMLID_206_" class="st5" points="333.8,271.9 400.3,237.6 464.6,271.9 401.4,309 			"/>
			<polygon id="XMLID_205_" class="st3" points="333.8,271.9 333.8,279.6 401.3,317.6 401.3,309 			"/>
			<polygon id="XMLID_204_" class="st3" points="337.5,330.4 337.5,281.7 396.6,315 396.6,366 			"/>
			<polygon id="XMLID_203_" class="st3" points="215,196.7 215,181.5 305.3,233.1 305.3,349 215,294.6 215,275.1 244.2,290.7 
				244.4,259.9 215,244.1 215,228.1 244.6,244.1 244.7,212.9 			"/>
			<polygon id="XMLID_202_" class="st5" points="215,228.1 218,226.4 218,229.6 			"/>
			<polygon id="XMLID_201_" class="st5" points="215,275.1 218,273.4 218,276.7 			"/>
			<polygon id="XMLID_200_" class="st4" points="218,198.5 218,229.6 244.6,244.1 244.7,212.9 			"/>
			<polygon id="XMLID_199_" class="st4" points="218,276.7 218,245.7 244.4,259.9 244.2,290.7 			"/>
			<polygon id="XMLID_198_" class="st5" points="215,181.5 305.3,129.2 395.6,179.2 305.3,233.1 			"/>
			<polygon id="XMLID_197_" class="st3" points="235.3,180.2 306.1,139.9 377.8,179.2 306.6,222.1 			"/>
		</g>
		<polygon id="XMLID_196_" class="st4" points="396.6,366 458.5,329.1 458.5,283.9 401.3,317.6 396.6,315 		"/>
		<polygon id="XMLID_2_" class="st4" points="401.3,309 464.6,271.9 464.6,280.2 401.3,317.6 		"/>
	</g>
</g>
</svg>
