<?xml version="1.0" encoding="utf-8"?>
<!-- Generator: Adobe Illustrator 19.0.0, SVG Export Plug-In . SVG Version: 6.00 Build 0)  -->
<svg version="1.1" id="Section1" xmlns="http://www.w3.org/2000/svg" xmlns:xlink="http://www.w3.org/1999/xlink" x="0px" y="0px"
	 viewBox="-5 97 600 600" style="enable-background:new -5 97 600 600;" xml:space="preserve">
<style type="text/css">
	.st0{fill:#F6F9FE;}
	.st1{fill:#6D30ED;}
	.st2{fill:#FFFFFF;}
	.st3{fill:#8D67F4;}
	.st4{fill:#4C22BF;}
	.st5{fill:#767DFF;}
	.st6{fill:none;stroke:#6F7592;stroke-width:3;stroke-miterlimit:10;}
	.st7{fill:#40405B;}
	.st8{clip-path:url(#SVGID_2_);fill:#99E6F2;}
	.st9{clip-path:url(#SVGID_4_);fill:#FFFFFF;}
	.st10{clip-path:url(#SVGID_6_);fill:#9043FF;}
	.st11{clip-path:url(#SVGID_8_);fill:#40405B;}
	.st12{clip-path:url(#SVGID_10_);fill:#38332D;}
	.st13{clip-path:url(#SVGID_12_);fill:#38332D;}
	.st14{clip-path:url(#SVGID_14_);fill:#38332D;}
	.st15{clip-path:url(#SVGID_16_);fill:#40405B;}
	.st16{fill:#38332D;}
	.st17{clip-path:url(#SVGID_18_);fill:#CAACF9;}
	.st18{clip-path:url(#SVGID_20_);fill:#FFFFFF;}
	.st19{clip-path:url(#SVGID_22_);}
	.st20{fill:#FFC931;}
	.st21{fill:#54BBD3;}
	.st22{opacity:0.2;fill:#E84376;enable-background:new    ;}
	.st23{fill:#9FA8FF;}
</style>
<g>
	<circle class="st0" cx="92.9" cy="350" r="12.9"/>
	<circle class="st0" cx="307.3" cy="301.7" r="38.8"/>
	<path class="st0" d="M485.4,261.4l-29.5-7.8c-6.4-1.7-10.2-8.2-8.5-14.6l7.8-29.5c1.7-6.4,8.2-10.2,14.6-8.5l29.5,7.8
		c6.4,1.7,10.2,8.2,8.5,14.6l-7.8,29.5C498.4,259.3,491.8,263.1,485.4,261.4z"/>
	<path class="st0" d="M124.3,237l-16.7-4.4c-3.6-1-5.8-4.7-4.8-8.3l4.4-16.7c1-3.6,4.7-5.8,8.3-4.8l16.7,4.4c3.6,1,5.8,4.7,4.8,8.3
		l-4.4,16.7C131.7,235.8,127.9,238,124.3,237z"/>
	<path class="st0" d="M167.9,618.8l-16.7-4.4c-3.6-1-5.8-4.7-4.8-8.3l4.4-16.7c1-3.6,4.7-5.8,8.3-4.8l16.7,4.4
		c3.6,1,5.8,4.7,4.8,8.3l-4.4,16.7C175.3,617.6,171.6,619.7,167.9,618.8z"/>
	<path class="st0" d="M490.5,625.4l-21.2-5.6c-6.4-1.7-10.2-8.2-8.5-14.6l5.6-21.2c1.7-6.4,8.2-10.2,14.6-8.5l21.2,5.6
		c6.4,1.7,10.2,8.2,8.5,14.6l-5.6,21.2C503.5,623.3,496.9,627.1,490.5,625.4z"/>
	<path class="st0" d="M301.7,577.8l-12.4-3.3c-3-0.8-4.7-3.8-3.9-6.8l3.3-12.4c0.8-3,3.8-4.7,6.8-3.9l12.4,3.3
		c3,0.8,4.7,3.8,3.9,6.8l-3.3,12.4C307.7,576.8,304.6,578.6,301.7,577.8z"/>
	<g>
		<path class="st1" d="M472.3,325.3c-6.5,0-11.8,5.3-11.8,11.8s5.3,11.8,11.8,11.8s11.8-5.3,11.8-11.8l0,0l0,0
			C484.1,330.6,478.8,325.4,472.3,325.3L472.3,325.3z M472.5,337.5l-1.2,4.1h6.6c0.2,0,0.3,0.1,0.3,0.3l0,0v0.1l-0.6,2
			c-0.1,0.2-0.2,0.3-0.4,0.3h-10l1.7-5.7l-1.9,0.6l0.4-1.3l1.9-0.6l2.4-8c0.1-0.2,0.2-0.3,0.4-0.3h2.5c0.2,0,0.3,0.1,0.3,0.3l0,0
			v0.1l-2,6.8l1.9-0.6l-0.4,1.4L472.5,337.5z"/>
	</g>
	<g>
		<circle class="st1" cx="209.8" cy="184.1" r="16"/>
		<path class="st2" d="M216.9,182.1c0.3-2.1-1.3-3.2-3.5-4l0.7-2.8l-1.7-0.4l-0.7,2.8c-0.5-0.1-0.9-0.2-1.4-0.3l0.7-2.8l-1.7-0.4
			l-0.7,2.8c-0.4-0.1-0.7-0.2-1.1-0.3l0,0l-2.4-0.6l-0.5,1.8l1.3,0.3c0.7,0.2,0.8,0.6,0.8,1l-0.7,3.3c0,0,0.1,0,0.2,0.1H206
			l-1.1,4.5c-0.1,0.2-0.3,0.5-0.8,0.4l-1.3-0.3l-0.9,2l2.3,0.6c0.4,0.1,0.8,0.2,1.2,0.3l-0.7,2.9l1.7,0.4l0.7-2.8
			c0.5,0.1,0.9,0.2,1.4,0.4l-0.7,2.8l1.7,0.4l0.7-2.9c2.9,0.6,5.2,0.3,6.1-2.3c0.8-2.1,0-3.4-1.6-4.2
			C215.9,184.4,216.7,183.6,216.9,182.1z M213,187.6c-0.5,2.1-4.1,1-5.3,0.7l0.9-3.8C209.8,184.8,213.6,185.4,213,187.6z
			 M213.5,182.1c-0.5,2-3.5,1-4.5,0.7l0.9-3.4C210.9,179.6,214,180,213.5,182.1z"/>
	</g>
	<g>
		<polygon class="st1" points="236.7,522 236.8,522.9 247.2,546.4 247.6,546.5 255.6,535.2 		"/>
		<polygon class="st3" points="236.7,522 233.9,544.9 247.6,546.5 242.5,535.1 		"/>
		<polygon class="st1" points="248.5,548.5 248.4,548.8 252.2,557.1 252.5,557.4 256.5,537.3 		"/>
		<polygon class="st3" points="252.5,557.4 248.5,548.5 234.8,547 		"/>
		<polygon class="st4" points="247.6,546.5 255.6,535.2 242.5,535.1 		"/>
		<polygon class="st1" points="233.9,544.9 247.6,546.5 242.5,535.1 		"/>
	</g>
	<g>
		<circle class="st5" cx="315" cy="416.5" r="16"/>
		<path class="st2" d="M315,426.5c-0.6,0-1.3-0.2-1.8-0.5l-5.3-3.1c-1.1-0.7-1.9-1.9-1.9-3.3v-6.2c0-1.3,0.7-2.6,1.9-3.3l5.3-3.1
			c0.6-0.3,1.2-0.5,1.9-0.5c0.6,0,1.3,0.2,1.8,0.5l5.3,3.1c1.1,0.7,1.9,1.9,1.9,3.3v6.2c0,1.3-0.7,2.6-1.9,3.3l-5.3,3.1
			C316.3,426.3,315.6,426.5,315,426.5z M311.9,420.1l-1,1c0.5,0.5,1.2,0.8,2,0.8c1.5,0,2.8-1.3,2.8-2.8v-0.9
			c0.4,0.2,0.9,0.4,1.4,0.4c0.7,0,1.5-0.3,2-0.8l-1-1c-0.3,0.3-0.6,0.4-1,0.4c-0.8,0-1.4-0.6-1.4-1.4v-4.7h-1.4v8
			c0,0.8-0.6,1.4-1.4,1.4C312.6,420.5,312.2,420.3,311.9,420.1z"/>
	</g>
	<g>
		<circle class="st5" cx="507.1" cy="216.6" r="16"/>
		<path class="st2" d="M504.9,207.1h4.5c0.3,0,0.6,0.2,0.8,0.4l6.9,12.3c0.1,0.3,0.1,0.6,0,0.8l-2.2,3.9c-0.2,0.3-0.4,0.4-0.8,0.4
			h-13.9c-0.3,0-0.6-0.2-0.8-0.4l-2.2-3.9c-0.1-0.3-0.1-0.6,0-0.8l6.9-12.3C504.3,207.2,504.6,207.1,504.9,207.1z M507.1,212
			l-4.7,8.3h9.3L507.1,212z"/>
	</g>
	<g>
		<circle class="st5" cx="80.5" cy="332.4" r="16"/>
		<g>
			<path class="st2" d="M83.6,324.4h-7.3l-0.6,3.4h6.6c3.2,0,4.2,1.2,4.2,3.1c0,1-0.4,2.7-0.6,3.2c-0.5,1.5-1.5,3.1-5.4,3.1h-6.4
				l-0.6,3.4h7.3c2.6,0,3.6-0.3,4.8-0.8c2.6-1.2,4.1-3.7,4.7-7C91.1,327.8,90,324.4,83.6,324.4L83.6,324.4z"/>
			<path class="st2" d="M80.3,332.2c0.2-1,0.3-1.4,0.3-1.4h-7.4c-1.9,0-2.2,1.2-2.4,2c-0.2,1-0.3,1.4-0.3,1.4H78
				C79.9,334.1,80.2,332.9,80.3,332.2z"/>
		</g>
	</g>
</g>
<g>
	<path class="st6" d="M133.2,374.6c0,0,11.7-47.3,90.9-52.2"/>
	<polyline class="st6" points="139,372.1 132.8,376.2 128.7,369.9 	"/>
	<polyline class="st6" points="219.6,317.6 225.8,321.9 221.5,328 	"/>
</g>
<g>
	<path class="st6" d="M443.8,374.6c0,0-11.7-47.3-90.9-52.2"/>
	<polyline class="st6" points="438,372.1 444.2,376.2 448.3,369.9 	"/>
	<polyline class="st6" points="357.4,317.6 351.2,321.9 355.5,328 	"/>
</g>
<polygon class="st2" points="80.4,439.9 76.1,438.5 73.5,433.9 72.6,429.5 72.6,426.3 73.3,423.9 75.8,422.8 79.4,412.6 85,402.1 
	123.3,401.4 126.6,412.6 126.6,421.9 127.8,423.3 130.1,423.1 132,425.4 132.3,431.6 129.8,437.6 126.6,439.4 123.7,440.1 
	113.9,464.9 114.4,471.4 116,475.7 119.3,480.8 115.7,481.9 108.4,483 101.1,483.4 94.2,482.9 84.5,481.5 88.8,475.5 89.9,470.8 
	89.9,462.5 82.4,445.7 "/>
<path class="st7" d="M126.6,422.4l-3.8-5.2c0.5,7.3,0.5,15.3-1.3,22.5c-0.6,2.1-1.9,6.1-4.2,5.9c-2.4-0.2-9-3.2-14.5-3.4
	c-5.3-0.1-10.2,2.2-15.4,2.8c-3.6,0.4-4.2-1.5-4.7-4.7c-1-6.4-1.6-12.2-1.6-18.7c0-0.9-0.6-3.5,0.1-4.3l-3.8,5.2
	c0.5,17.6,4.7,28,4.7,28c0.5,2.1,1.5,4.8,1.7,5.3c1.9,4.6,5.5,9.4,10.1,11.4c11,4.9,21.6,3.1,28-11.5
	C126.5,445.1,126.3,433.4,126.6,422.4z M111.8,452.3c-2.2,2.5-5.5,3.5-8.8,3.4c-0.9,0-1.7-0.2-2.5-0.4c-1.8-0.4-3.6-1.1-5.1-2.1
	c-0.7-0.5-4.1-3.7-3.3-4.8c0,0,1.4-1.9,10.7-1.7c9.3,0.2,10.7,2.2,10.7,2.2C114,449.5,112.2,452,111.8,452.3z"/>
<g>
	<g>
		<defs>
			<circle id="SVGID_1_" cx="101.6" cy="463.2" r="44.8"/>
		</defs>
		<clipPath id="SVGID_2_">
			<use xlink:href="#SVGID_1_"  style="overflow:visible;"/>
		</clipPath>
		<circle class="st8" cx="101.6" cy="463.2" r="44.8"/>
	</g>
	<g>
		<defs>
			<circle id="SVGID_3_" cx="101.6" cy="463.2" r="44.8"/>
		</defs>
		<clipPath id="SVGID_4_">
			<use xlink:href="#SVGID_3_"  style="overflow:visible;"/>
		</clipPath>
		<polygon class="st9" points="80.5,439.9 76.2,438.5 73.6,433.9 72.7,429.5 72.7,426.3 73.5,423.9 75.9,422.8 79.6,412.6 
			85.1,402.1 123.4,401.4 126.7,412.6 126.7,421.9 127.9,423.3 130.2,423.1 132.1,425.4 132.4,431.6 130,437.6 126.7,439.4 
			123.9,440.1 114,464.9 114.6,471.4 116.1,475.7 119.4,480.8 115.8,481.9 108.6,483 101.2,483.4 94.3,482.9 84.6,481.5 88.9,475.5 
			90.1,470.8 90.1,462.5 82.5,445.7 		"/>
	</g>
	<g>
		<defs>
			<circle id="SVGID_5_" cx="101.6" cy="463.2" r="44.8"/>
		</defs>
		<clipPath id="SVGID_6_">
			<use xlink:href="#SVGID_5_"  style="overflow:visible;"/>
		</clipPath>
		<path class="st10" d="M45.4,509c0,0,5.6-12.1,16.2-16.1l9-3.5c0,0,12.4-4.8,14.7-7.2c0,0,23,3.3,33.5-1.5c0,0,9.5,6.5,12.5,7.5
			c0,0,14.6,3.9,19.4,9.3c0,0,8.2,5.6,7.9,11.6L45.4,509L45.4,509z"/>
	</g>
	<g>
		<defs>
			<circle id="SVGID_7_" cx="101.6" cy="463.2" r="44.8"/>
		</defs>
		<clipPath id="SVGID_8_">
			<use xlink:href="#SVGID_7_"  style="overflow:visible;"/>
		</clipPath>
		<path class="st11" d="M79.2,428.7c1.6-5.3,1.5-19,8.4-20.7c2.9-0.7,12.7,7.3,26.3,0c5.4-2.9,10.9,15.8,11.9,18.5l0.4-2.4l2.5-1.9
			c0,0,10.5-38.2-27.4-37.4c-37.9,0.7-27,37.7-27,37.7S78.7,421.8,79.2,428.7z"/>
	</g>
	<g>
		<defs>
			<circle id="SVGID_9_" cx="101.6" cy="463.2" r="44.8"/>
		</defs>
		<clipPath id="SVGID_10_">
			<use xlink:href="#SVGID_9_"  style="overflow:visible;"/>
		</clipPath>
		<path class="st12" d="M48.6,504.1c3.1-5.5,8.9-9.7,14.8-12.3c2.4,5.5,2.7,11.4,2.2,17.3h1.5c0.5-6.1,0.2-12.1-2.3-17.8
			c5.7-2.2,11.8-3.4,16.9-6.8c0.1-0.1,0.2-0.1,0.3-0.2c1-0.6,1.9-1.3,2.7-2c0.1,0.1,0.2,0.2,0.4,0.3c11.4,2,23,2.8,34.2-0.5l0,0
			c0.4,0.4,0.9,0.8,1.4,1.2c5.4,4.3,13,5.7,19.3,8.3c0.3,0.1,0.5,0.2,0.8,0.3c-4,4.4-4.9,11.1-4.8,17.3h1.5
			c-0.1-6.1,0.8-12.5,4.8-16.6c5.4,2.6,10.5,6.6,13.4,11.6c0.9,1.6,1.6,3.4,2.3,5h1.4c-1.4-3.9-3.5-7.9-6.4-11.1
			c-4.2-4.8-10.9-7.4-16.9-9.4c-9.9-3.2-20.1-7-21.1-19c-0.3-2.9-0.1-5.9-0.1-8.9c4.7-3.3,7.6-9.1,9.1-14.9c1.9-7.2,2.5-15,1.9-22.5
			c-0.5,0.2-0.9,0.4-1.4,0.5c0.5,6.9-0.1,14-1.7,20.7c-1.9,8-6.4,16.9-15.7,17.4c-0.2,0-0.2,1.5,0,1.5c2.4-0.1,4.6-0.8,6.5-1.8
			c0,2.3-0.1,4.5,0.1,6.8c0.3,4.4,1.8,8.8,4.7,12.2c-10.6,2.9-21.5,2.3-32.3,0.4c3.4-3.6,4.4-7.9,4.7-12.6c0.2-2.6,0-5.2,0.1-7.8
			c1.6,1,3.5,1.8,5.5,2.2c0.9,0.2,1.2-1.3,0.2-1.5c-7.5-1.4-11.7-8.1-14-14.8c-2.4-6.9-3.1-14.3-3.1-21.5c0-0.9-1.5-0.8-1.5,0.2
			c0,7.6,0.9,15.4,3.4,22.6c1.6,4.6,4.2,9,8,12c-0.1,3.3,0.1,6.7-0.2,10c-0.3,3.9-1.8,7.5-4.4,10.5c-4.2,5-10.8,6.6-16.8,8.5
			s-12.7,4.6-16.9,9.4c-2.8,3.2-5,7.2-6.4,11.1h1.4C47,507.5,47.7,505.6,48.6,504.1z"/>
	</g>
	<g>
		<defs>
			<circle id="SVGID_11_" cx="101.6" cy="463.2" r="44.8"/>
		</defs>
		<clipPath id="SVGID_12_">
			<use xlink:href="#SVGID_11_"  style="overflow:visible;"/>
		</clipPath>
		<path class="st13" d="M126,423.5c-0.7,0.5,0,1.7,0.7,1.2c4.3-3.3,5.1,1.4,5,4.9c-0.1,4.1-1.9,9-6.6,9.5c-0.9,0.1-0.9,1.5,0,1.4
			c6.1-0.6,8-6.8,7.9-12.2C133.1,423.6,130.5,420.1,126,423.5z"/>
	</g>
	<g>
		<defs>
			<circle id="SVGID_13_" cx="101.6" cy="463.2" r="44.8"/>
		</defs>
		<clipPath id="SVGID_14_">
			<use xlink:href="#SVGID_13_"  style="overflow:visible;"/>
		</clipPath>
		<path class="st14" d="M79.1,423.5c0.7,0.5,0,1.7-0.7,1.2c-4.3-3.3-5.1,1.4-5,4.9c0.1,4.1,1.9,9,6.6,9.5c0.9,0.1,0.9,1.5,0,1.4
			c-6.1-0.6-8-6.8-7.9-12.2C72,423.6,74.6,420.1,79.1,423.5z"/>
	</g>
	<g>
		<defs>
			<circle id="SVGID_15_" cx="101.6" cy="463.2" r="44.8"/>
		</defs>
		<clipPath id="SVGID_16_">
			<use xlink:href="#SVGID_15_"  style="overflow:visible;"/>
		</clipPath>
		<path class="st15" d="M126.7,422.6l-3.8-5.2c0.5,7.3,0.5,15.3-1.3,22.5c-0.6,2.1-1.9,6.1-4.2,5.9c-2.4-0.2-9-3.2-14.5-3.4
			c-5.3-0.1-10.2,2.2-15.4,2.8c-3.6,0.4-4.2-1.5-4.7-4.7c-1-6.4-1.6-12.2-1.6-18.7c0-0.9-0.6-3.5,0.1-4.3l-3.8,5.2
			c0.5,17.6,4.7,28,4.7,28c0.5,2.1,1.5,4.8,1.7,5.3c1.9,4.6,5.5,9.4,10.1,11.4c11,4.9,21.6,3.1,28-11.5
			C126.6,445.3,126.4,433.7,126.7,422.6z M111.9,452.5c-2.2,2.5-5.5,3.5-8.8,3.4c-0.9,0-1.7-0.2-2.5-0.4c-1.8-0.4-3.6-1.1-5.1-2.1
			c-0.7-0.5-4.1-3.7-3.3-4.8c0,0,1.4-1.9,10.7-1.7c9.3,0.2,10.7,2.2,10.7,2.2C114.1,449.7,112.3,452.2,111.9,452.5z"/>
	</g>
</g>
<path class="st16" d="M126,423.5c-0.7,0.5,0,1.7,0.7,1.2c4.3-3.3,5.1,1.4,5,4.9c-0.1,4.1-1.9,9-6.6,9.5c-0.9,0.1-0.9,1.5,0,1.4
	c6.1-0.6,8-6.8,7.9-12.2C133.1,423.6,130.5,420.1,126,423.5z"/>
<path class="st16" d="M79.1,423.5c0.7,0.5,0,1.7-0.7,1.2c-4.3-3.3-5.1,1.4-5,4.9c0.1,4.1,1.9,9,6.6,9.5c0.9,0.1,0.9,1.5,0,1.4
	c-6.1-0.6-8-6.8-7.9-12.2C72,423.6,74.6,420.1,79.1,423.5z"/>
<path class="st7" d="M79.2,428.7c1.6-5.3,1.5-19,8.4-20.7c2.9-0.7,12.7,7.3,26.3,0c5.4-2.9,10.9,15.8,11.9,18.5l0.4-2.4l2.5-1.9
	c0,0,10.5-38.2-27.4-37.4c-37.9,0.7-27,37.7-27,37.7S78.7,421.8,79.2,428.7z"/>
<path class="st16" d="M103.3,453c-4.5,0-6.5-1.4-6.9-2.2c-0.4-0.7-0.6-1.3-0.5-2.2c0-0.1,0.1-0.2,0.1-0.3c0.1-0.1,0.2-0.1,0.3-0.1
	c0.1,0,10.6,1,13.4,0.4c0.1,0,0.3,0,0.4,0.1s0.1,0.2,0.1,0.4c0,0-0.9,3.7-6.1,3.9C103.7,453,103.5,453,103.3,453z M96.6,449.1
	c0,0.5,0.2,0.8,0.5,1.4c0.3,0.5,2.1,1.9,6.9,1.8c3.3-0.1,4.7-1.8,5.1-2.7C105.9,449.9,98.5,449.3,96.6,449.1z"/>
<path class="st16" d="M114.7,432c-0.1,0-0.2,0-0.3-0.1c-0.6-0.8-1.3-1.1-2.1-1.2l0,0c-1.3,0-2.3,1.1-2.3,1.2c-0.1,0.2-0.4,0.2-0.6,0
	c-0.2-0.1-0.2-0.4,0-0.6c0.1-0.1,1.3-1.4,2.9-1.4l0,0c1,0,1.9,0.5,2.7,1.4c0.1,0.2,0.1,0.4,0,0.6C114.9,432,114.8,432,114.7,432z"/>
<path class="st16" d="M95.1,432c-0.1,0-0.2,0-0.3-0.1c-0.6-0.8-1.3-1.2-2.1-1.2l0,0c-1.3,0-2.3,1.1-2.3,1.2c-0.1,0.2-0.4,0.2-0.6,0
	c-0.2-0.1-0.2-0.4,0-0.6c0.1-0.1,1.3-1.4,2.9-1.4c1,0,1.9,0.5,2.7,1.4c0.1,0.2,0.1,0.4,0,0.6C95.3,432,95.2,432,95.1,432z"/>
<g>
	<polygon class="st2" points="461,409 484.1,409 484.1,423 459,423 459,409 	"/>
	<g>
		<g>
			<defs>
				<circle id="SVGID_17_" cx="472.1" cy="463.7" r="44.8"/>
			</defs>
			<clipPath id="SVGID_18_">
				<use xlink:href="#SVGID_17_"  style="overflow:visible;"/>
			</clipPath>
			<circle class="st17" cx="472.1" cy="463.7" r="44.8"/>
		</g>
		<g>
			<defs>
				<circle id="SVGID_19_" cx="472.1" cy="463.7" r="44.8"/>
			</defs>
			<clipPath id="SVGID_20_">
				<use xlink:href="#SVGID_19_"  style="overflow:visible;"/>
			</clipPath>
			<polygon class="st18" points="418.7,511.2 421,503.9 422.5,500.5 429,493.1 435,489.6 445.1,485.9 454.9,481.9 459.5,474.7 
				460.5,470.5 460.8,464.7 460.8,459.1 456.9,455.1 454.7,451.2 452.9,446.8 452.4,444.6 447.5,443.1 444.9,440.1 444.1,436.2 
				445,433.5 447.3,431.8 450,431.2 450.8,416.1 467.1,406 491.9,407.2 497.9,426.5 494.6,430.4 495.3,431.7 498.3,432.3 
				500.2,434.4 500.9,437.8 499.3,441.6 497.4,443.3 495.4,444.2 492.9,444.9 488.9,455.3 485,459.7 483.5,460.7 483.8,467.9 
				484.7,473.6 486.9,478.2 490.6,481.9 498.5,485.8 509.6,489.5 516.2,493.6 518.6,495.8 522.1,500.9 525.4,507.9 525.4,509.1 			
				"/>
		</g>
		<g>
			<defs>
				<circle id="SVGID_21_" cx="472.1" cy="463.7" r="44.8"/>
			</defs>
			<clipPath id="SVGID_22_">
				<use xlink:href="#SVGID_21_"  style="overflow:visible;"/>
			</clipPath>
			<g class="st19">
				<path class="st20" d="M507.9,440.6c-4-8.9-2.7-20.7-3.6-30.2c-0.6-6.2-3.2-12.3-6.8-17.4c-2.7-3.7-8.4-7.3-13.1-7.7
					c-3.9-0.4-8.3,0.9-11.3,3.5c-2.7,2.4-6.3,4.8-6,8.8c0,0,1.5,4.7,3.7,11.4c7.6-3.1,18.7,3.1,21.2,10.4c1.5,4.4,2.2,8.9,2.1,13.4
					c1.1-0.5,2.3-0.7,3.3-0.1c0.3,0.1,0.6,0.2,0.9,0.4c0.5,0.3,0.8,0.7,1.1,1.2c0.1,0.1,0.1,0.1,0.2,0.1c1.9,1.5,1.3,3.5,0.1,5.1
					c-0.9,2.6-3.1,4.3-5.7,4.2c-0.4,0.1-0.9,0.2-1.3,0.3c-0.1,0-0.3,0-0.4,0c-0.6,2.2-1.4,4.3-2.4,6.3v0.1c-0.8,2.5-1.7,4.8-3.4,6.6
					c1.8,1.5,9.1,2.3,10.8,2.4c4.8,0.2,9.8-1,13.8-3.7c4.7-3.3,6.4-5.5,8.7-12.2C518.2,448.5,509.8,444.7,507.9,440.6z"/>
				<g>
					<path class="st21" d="M508.8,508.5c-1.6-8-4.7-20.9-8.4-21.7c-5.5-1.3-8.2-4.6-8.2-4.6c-19.6,31.1-38.6,1.2-38.6,1.2
						s-7.9,0.8-9.6,2.6c-3.3,3.6-4.4,15.1-4.9,22.4h69.7V508.5z"/>
					<g>
						<g>
							<path class="st16" d="M467.3,461.6c-7.1-1.4-11.4-8.1-13.6-14.4c-2.2-6.5-3-13.6-3-20.4c0-0.9-1.4-0.7-1.4,0.2
								c0,1.3,0,2.6,0.1,3.8c-3.4,0.1-6.5,3.4-5.9,7.2c0.7,3.9,4,6.7,7.8,7.2c0.1,0,0.2,0,0.3,0c0.3,1.1,0.6,2.1,1,3.2
								c1.5,4.4,4,8.6,7.6,11.3c-0.1,3.2,0.1,6.3-0.1,9.5c-0.3,3.7-1.7,7.1-4.1,9.9c-4,4.7-10.3,6.3-15.9,8.1
								c-5.6,1.8-10.7,4.1-14.7,8.6c-3.1,3.6-5.4,8.3-6.7,12.3h1.3c0.7-1,1.6-4.4,2.8-6.5c3.1-5.5,7.7-9.4,13.5-11.8
								c3.7-1.5,7.5-2.8,11.4-3.8c11.6-3,13.5-13,13.8-17.9c0.2-2.5,0-4.9,0-7.4c1.6,1,3.7,2.1,5.6,2.5
								C468,463.2,468.2,461.8,467.3,461.6z M445.2,438.7c-1.2-3.3,1.3-6.5,4.4-6.6c0.2,3.9,0.8,7.8,1.8,11.6
								C448.4,443.4,446.1,441.4,445.2,438.7z"/>
							<path class="st16" d="M519.3,495.7c-4-4.5-9.1-6.9-14.7-8.7c-5.6-1.8-11.9-3.3-15.9-8c-2.4-2.8-3.8-6.2-4.1-9.9
								c-0.2-2.8-0.1-5.6-0.1-8.4c4.5-3.1,7.2-8.7,8.6-14.1c0.1-0.5,0.2-0.9,0.4-1.4c0.1,0,0.1,0,0.2,0c3.8-0.5,7.1-3.3,7.8-7.2
								c0.7-3.9-2.6-7.3-6-7.2c-0.1,0-0.2,0-0.2,0c0-3.4-0.2-6.7-0.7-10c-0.1-0.9-1.5-0.5-1.3,0.4c1.1,7.9,0.7,16.4-1.1,24.2
								c-1.8,7.6-6.1,16.4-14.9,16.9c-0.9,0.1-0.9,1.4,0,1.4c2.3-0.1,4.3-1.1,6.1-2.1c0,2.1-0.1,4.3,0.1,6.4
								c0.6,10.3,5.5,15.7,15,18.6c3.5,1,6.8,2,10.1,3.3c5.8,2.4,10.4,6.2,13.5,11.7c1.2,2.1,2.1,5.5,2.8,6.5h1.3
								C524.7,504,522.4,499.3,519.3,495.7z M495.1,432.1c0.1,0,0.2,0,0.2,0c3.1,0,5.6,3.2,4.4,6.6c-0.9,2.7-3.2,4.6-6,5
								C494.5,440,495,436.1,495.1,432.1z"/>
						</g>
						<path class="st22" d="M488.3,438.2c4.3,2.8-4.4,7.6-7,4.4C478.6,439.4,485.9,436.6,488.3,438.2z"/>
						<path class="st22" d="M457,439c-4.5,2.9,4.5,7.9,7.3,4.6C467.2,440.2,459.6,437.3,457,439z"/>
						<path class="st20" d="M449.4,426.9c0,0,18.1-0.8,22.8-12.9c0,0,5.5,10.3,22.8,12.1c0,0,9.6-31.1-23-31.1
							C440.8,395,449.4,426.9,449.4,426.9z"/>
					</g>
				</g>
			</g>
		</g>
	</g>
	<path class="st20" d="M449.4,426.9c0,0,18.1-0.8,22.8-12.9c0,0,5.5,10.3,22.8,12.1c0,0,9.6-31.1-23-31.1
		C440.8,395,449.4,426.9,449.4,426.9z"/>
	<path class="st20" d="M518.1,445.7c-9-2.8-11-13.6-10-23.4s-2-19-2-19s-4-15.8-17.8-18s-17.9,11.8-17.9,11.8l3.7,11.9
		c10.7-2,16.7,2.3,20.1,7.6l-1.4,6.6l5.6,8.4c1.4-0.1,3.2,0.4,5.3,1.4c2.1,1,1.5,4.3,1.5,5.7s-1.7,3.3-4.3,4.9
		c-2.6,1.6-4.3,1.5-4.3,1.5l-6.8,12c26,10.1,33.2-13.3,33.2-13.3C521.9,446.8,518.1,445.7,518.1,445.7z"/>
	<path class="st16" d="M472.9,454.7c-4.5,0-6.5-1.4-6.9-2.2c-0.4-0.7-0.6-1.3-0.5-2.2c0-0.1,0.1-0.2,0.1-0.3
		c0.1-0.1,0.2-0.1,0.3-0.1c0.1,0,10.6,1,13.4,0.4c0.1,0,0.3,0,0.4,0.1s0.1,0.2,0.1,0.4c0,0-0.9,3.7-6.1,3.9
		C473.4,454.7,473.1,454.7,472.9,454.7z M466.2,450.7c0,0.5,0.2,0.8,0.5,1.4c0.3,0.5,2.1,1.9,6.9,1.8c3.3-0.1,4.7-1.8,5.1-2.7
		C475.5,451.6,468.1,450.9,466.2,450.7z"/>
	<path class="st16" d="M484.4,433.7c-0.1,0-0.2,0-0.3-0.1c-0.6-0.8-1.3-1.1-2.1-1.2l0,0c-1.3,0-2.3,1.1-2.3,1.2
		c-0.1,0.2-0.4,0.2-0.6,0c-0.2-0.1-0.2-0.4,0-0.6c0.1-0.1,1.3-1.4,2.9-1.4l0,0c1,0,1.9,0.5,2.7,1.4c0.1,0.2,0.1,0.4,0,0.6
		C484.6,433.7,484.5,433.7,484.4,433.7z"/>
	<path class="st16" d="M464.8,433.7c-0.1,0-0.2,0-0.3-0.1c-0.6-0.8-1.3-1.2-2.1-1.2l0,0c-1.3,0-2.3,1.1-2.3,1.2
		c-0.1,0.2-0.4,0.2-0.6,0c-0.2-0.1-0.2-0.4,0-0.6c0.1-0.1,1.3-1.4,2.9-1.4c1,0,1.9,0.5,2.7,1.4c0.1,0.2,0.1,0.4,0,0.6
		C464.9,433.7,464.8,433.7,464.8,433.7z"/>
</g>
<g>
	<path class="st5" d="M283.2,316.4c0-15.5,10.4-28.5,24.5-32.7c-3-0.9-6.3-1.4-9.7-1.4c-18.9,0-34.1,15.3-34.1,34.1
		c0,18.9,15.3,34.1,34.1,34.1c3.4,0,6.6-0.5,9.7-1.4C293.6,345,283.2,331.9,283.2,316.4z"/>
	<path class="st1" d="M308.7,303.1c8.4,0,15.4,5.6,17.6,13.1c0.5-1.7,0.8-3.4,0.8-5.2c0-10.1-8.2-18.4-18.4-18.4
		s-18.4,8.2-18.4,18.4c0,1.8,0.3,3.6,0.8,5.2C293.3,308.7,300.4,303.1,308.7,303.1z"/>
	<path class="st23" d="M315.2,322.4c0,6.2-4.1,11.4-9.8,13.1c1.2,0.3,2.5,0.5,3.8,0.5c7.6,0,13.7-6.1,13.7-13.7s-6.1-13.7-13.7-13.7
		c-1.3,0-2.6,0.2-3.8,0.5C311,311,315.2,316.2,315.2,322.4z"/>
</g>
</svg>
