<?xml version="1.0" encoding="utf-8"?>
<!-- Generator: Adobe Illustrator 19.0.0, SVG Export Plug-In . SVG Version: 6.00 Build 0)  -->
<svg version="1.1" id="Section1" xmlns="http://www.w3.org/2000/svg" xmlns:xlink="http://www.w3.org/1999/xlink" x="0px" y="0px"
	 viewBox="-5 97 600 600" style="enable-background:new -5 97 600 600;" xml:space="preserve">
<style type="text/css">
	.st0{fill:none;stroke:#6F7592;stroke-width:3;stroke-linecap:round;stroke-linejoin:round;stroke-miterlimit:10;}
	.st1{fill:#F6F9FE;}
	.st2{fill:#FFFFFF;}
	.st3{fill:#40405B;}
	.st4{clip-path:url(#SVGID_2_);fill:#99E6F2;}
	.st5{clip-path:url(#SVGID_2_);fill:#FFFFFF;}
	.st6{clip-path:url(#SVGID_2_);fill:#9043FF;}
	.st7{clip-path:url(#SVGID_2_);fill:#40405B;}
	.st8{clip-path:url(#SVGID_2_);fill:#38332D;}
	.st9{fill:#38332D;}
	.st10{fill:none;stroke:#6F7592;stroke-width:3;stroke-miterlimit:10;}
	.st11{fill:#6F7592;}
	.st12{fill:#FAFAFA;}
	.st13{fill:#9043FF;}
	.st14{fill:#FAFAFA;stroke:#6F7592;stroke-width:3;stroke-miterlimit:10;}
	.st15{fill:#332D55;}
	.st16{fill:#FAFAFA;stroke:#6F7592;stroke-width:3;stroke-linecap:round;stroke-linejoin:round;stroke-miterlimit:10;}
	.st17{fill:#54BBD3;}
	.st18{clip-path:url(#SVGID_4_);fill:#CAACF9;}
	.st19{clip-path:url(#SVGID_4_);fill:#FFFFFF;}
	.st20{clip-path:url(#SVGID_4_);}
	.st21{opacity:0.2;fill:#E84376;}
	.st22{clip-path:url(#SVGID_6_);fill:#38332D;}
	.st23{opacity:0.2;clip-path:url(#SVGID_6_);fill:#E84376;}
	.st24{clip-path:url(#SVGID_8_);fill:#CAACF9;}
	.st25{clip-path:url(#SVGID_8_);fill:#FFFFFF;}
	.st26{clip-path:url(#SVGID_8_);}
	.st27{clip-path:url(#SVGID_8_);fill:#9043FF;}
</style>
<polyline class="st0" points="975.9,-146.7 977.5,-154.8 985.6,-153.1 "/>
<circle class="st1" cx="56.9" cy="281.8" r="12.9"/>
<circle class="st1" cx="271.2" cy="233.6" r="38.8"/>
<path class="st1" d="M449.4,193.2l-29.5-7.8c-6.4-1.7-10.2-8.2-8.5-14.6l7.8-29.5c1.7-6.4,8.2-10.2,14.6-8.5l29.5,7.8
	c6.4,1.7,10.2,8.2,8.5,14.6l-7.8,29.5C462.3,191.1,455.8,194.9,449.4,193.2z"/>
<path class="st1" d="M88.2,168.9l-16.7-4.4c-3.6-1-5.8-4.7-4.8-8.3l4.4-16.7c1-3.6,4.7-5.8,8.3-4.8l16.7,4.4c3.6,1,5.8,4.7,4.8,8.3
	L96.6,164C95.6,167.6,91.9,169.8,88.2,168.9z"/>
<path class="st1" d="M131.9,550.6l-16.7-4.4c-3.6-1-5.8-4.7-4.8-8.3l4.4-16.7c1-3.6,4.7-5.8,8.3-4.8l16.7,4.4c3.6,1,5.8,4.7,4.8,8.3
	l-4.4,16.7C139.3,549.4,135.5,551.6,131.9,550.6z"/>
<path class="st1" d="M454.5,557.3l-21.2-5.6c-6.4-1.7-10.2-8.2-8.5-14.6l5.6-21.2c1.7-6.4,8.2-10.2,14.6-8.5l21.2,5.6
	c6.4,1.7,10.2,8.2,8.5,14.6l-5.6,21.2C467.5,555.1,460.9,558.9,454.5,557.3z"/>
<path class="st1" d="M265.6,509.7l-12.4-3.3c-3-0.8-4.7-3.8-3.9-6.8l3.3-12.4c0.8-3,3.8-4.7,6.8-3.9l12.4,3.3c3,0.8,4.7,3.8,3.9,6.8
	l-3.3,12.4C271.6,508.7,268.6,510.4,265.6,509.7z"/>
<path class="st1" d="M353.3,443.9l-10.6,7.2c-2.5,1.7-6,1-7.7-1.5l-7.2-10.6c-1.7-2.5-1-6,1.5-7.7l10.6-7.2c2.5-1.7,6-1,7.7,1.5
	l7.2,10.6C356.5,438.7,355.8,442.2,353.3,443.9z"/>
<g>
	<g>
		<polygon class="st2" points="281,370.3 277.6,369.2 275.6,365.6 274.8,362.1 274.8,359.6 275.5,357.7 277.4,356.9 280.3,348.8 
			284.6,340.6 314.7,340 317.3,348.8 317.3,356.1 318.2,357.3 320,357.1 321.5,358.9 321.8,363.8 319.8,368.4 317.3,369.9 
			315,370.5 307.3,389.9 307.7,395 308.9,398.4 311.6,402.4 308.7,403.2 303,404.1 297.2,404.5 291.8,404.1 284.2,403 287.6,398.3 
			288.5,394.5 288.5,388.1 282.6,374.9 		"/>
		<path class="st3" d="M317.3,356.5l-3-4c0.4,5.8,0.4,12-1.1,17.6c-0.4,1.7-1.5,4.8-3.3,4.6c-1.9-0.1-7.1-2.5-11.4-2.6
			c-4.2-0.1-8,1.7-12.1,2.2c-2.9,0.3-3.3-1.2-3.7-3.7c-0.8-5-1.2-9.6-1.2-14.7c0-0.7-0.4-2.7,0-3.4l-3,4c0.4,13.8,3.7,22,3.7,22
			c0.4,1.6,1.2,3.8,1.4,4.2c1.5,3.6,4.4,7.4,8,9c8.7,3.9,16.9,2.5,22-9C317.2,374.3,317,365.2,317.3,356.5z M305.7,380.1
			c-1.7,2-4.3,2.8-6.9,2.6c-0.7,0-1.3-0.1-2-0.3c-1.4-0.3-2.8-0.8-4-1.7c-0.6-0.4-3.2-2.9-2.6-3.8c0,0,1.1-1.5,8.4-1.4
			c7.3,0.2,8.4,1.7,8.4,1.8C307.4,377.8,306,379.7,305.7,380.1z"/>
		<g>
			<defs>
				<circle id="SVGID_1_" cx="297.7" cy="388.6" r="35.2"/>
			</defs>
			<clipPath id="SVGID_2_">
				<use xlink:href="#SVGID_1_"  style="overflow:visible;"/>
			</clipPath>
			<circle class="st4" cx="297.7" cy="388.6" r="35.2"/>
			<polygon class="st5" points="281.1,370.3 277.7,369.2 275.7,365.6 274.9,362.1 274.9,359.6 275.6,357.7 277.5,356.9 280.4,348.8 
				284.7,340.6 314.8,340 317.4,348.8 317.4,356.1 318.3,357.3 320.1,357.1 321.6,358.9 321.9,363.8 319.9,368.4 317.4,369.9 
				315.1,370.5 307.4,389.9 307.8,395 309,398.4 311.7,402.4 308.8,403.2 303.1,404.1 297.3,404.5 291.9,404.1 284.3,403 
				287.7,398.3 288.6,394.5 288.6,388.1 282.7,374.9 			"/>
			<path class="st6" d="M253.5,424c0,0,4.4-9.2,12.7-12.4l7.1-2.6c0,0,9.7-3.7,11.6-5.6c0,0,18.1,2.6,26.3-1.2c0,0,7.4,5.1,9.8,5.9
				c0,0,11.4,2.8,15.2,7c0,0,6.4,4.8,6.2,8.8H253.5z"/>
			<path class="st7" d="M280.1,361.5c1.2-4.2,1.2-14.9,6.6-16.3c2.3-0.6,10,5.7,20.7,0c4.3-2.3,8.6,12.4,9.4,14.5l0.3-1.9l2-1.5
				c0,0,8.3-30-21.5-29.4c-29.8,0.6-21.2,29.6-21.2,29.6S279.6,356.1,280.1,361.5z"/>
			<path class="st8" d="M256,420.7c2.4-4.3,7-7.6,11.6-9.6c1.9,4.3,2.1,8.9,1.7,13.6h1.2c0.4-4.8,0.1-9.5-1.8-14
				c4.5-1.8,9.3-2.7,13.3-5.4c0.1-0.1,0.2-0.1,0.2-0.2c0.8-0.5,1.5-1,2.2-1.6c0.1,0.1,0.2,0.2,0.3,0.2c9,1.6,18.1,2.2,26.9-0.4
				c0,0,0,0,0,0c0.3,0.3,0.7,0.7,1.1,1c4.3,3.3,10.2,4.5,15.1,6.5c0.2,0.1,0.4,0.2,0.6,0.3c-3.1,3.5-3.9,8.7-3.8,13.6h1.2
				c-0.1-4.8,0.6-9.9,3.7-13.1c4.2,2,8.3,5.2,10.5,9.1c0.7,1.2,1.3,2.7,1.8,3.9h1.1c-1.1-3-2.8-6.2-5-8.7c-3.3-3.7-8.6-5.8-13.3-7.4
				c-7.8-2.5-15.8-5.5-16.6-14.9c-0.2-2.3-0.1-4.6-0.1-7c3.7-2.6,5.9-7.2,7.2-11.7c1.5-5.7,1.9-11.8,1.5-17.7
				c-0.4,0.2-0.7,0.3-1.1,0.4c0.4,5.4-0.1,11-1.3,16.2c-1.5,6.3-5.1,13.3-12.4,13.7c-0.1,0-0.1,1.2,0,1.2c1.9-0.1,3.6-0.6,5.1-1.4
				c0,1.8-0.1,3.5,0,5.3c0.2,3.4,1.4,6.9,3.7,9.6c-8.3,2.3-16.9,1.8-25.4,0.3c2.7-2.8,3.5-6.2,3.7-9.9c0.1-2,0-4.1,0-6.1
				c1.3,0.8,2.7,1.4,4.4,1.7c0.7,0.1,0.9-1,0.2-1.1c-5.9-1.1-9.2-6.4-11-11.6c-1.9-5.4-2.5-11.2-2.5-16.9c0-0.7-1.1-0.6-1.1,0.1
				c0,6,0.7,12.1,2.7,17.7c1.3,3.6,3.3,7.1,6.3,9.4c0,2.6,0.1,5.2-0.1,7.8c-0.3,3.1-1.4,5.9-3.4,8.2c-3.3,3.9-8.5,5.2-13.2,6.7
				c-4.7,1.5-10,3.6-13.3,7.4c-2.2,2.5-3.9,5.7-5,8.7h1.1C254.7,423.4,255.3,421.9,256,420.7z"/>
			<path class="st8" d="M294.1,378.8c3.1-1.2,6.1-1,9.1,0.5c0.5,0.2,0.9-0.4,0.4-0.7c-3.2-1.6-6.4-1.8-9.7-0.6
				C293.4,378.2,293.6,379,294.1,378.8z"/>
			<path class="st8" d="M316.8,357.4c-0.5,0.4,0,1.4,0.5,0.9c3.3-2.6,4,1.1,4,3.9c-0.1,3.2-1.5,7.1-5.1,7.5c-0.7,0.1-0.7,1.2,0,1.1
				c4.8-0.5,6.3-5.3,6.2-9.6C322.4,357.5,320.3,354.7,316.8,357.4z"/>
			<path class="st8" d="M279.9,357.4c0.5,0.4,0,1.4-0.5,0.9c-3.3-2.6-4,1.1-4,3.9c0.1,3.2,1.5,7.1,5.1,7.5c0.7,0.1,0.7,1.2,0,1.1
				c-4.8-0.5-6.3-5.3-6.2-9.6C274.4,357.5,276.4,354.7,279.9,357.4z"/>
			<path class="st7" d="M317.4,356.7l-3-4c0.4,5.8,0.4,12-1.1,17.6c-0.4,1.7-1.5,4.8-3.3,4.6c-1.9-0.1-7.1-2.5-11.4-2.6
				c-4.2-0.1-8,1.7-12.1,2.2c-2.9,0.3-3.3-1.2-3.7-3.7c-0.8-5-1.2-9.6-1.2-14.7c0-0.7-0.4-2.7,0-3.4l-3,4c0.4,13.8,3.7,22,3.7,22
				c0.4,1.6,1.2,3.8,1.4,4.2c1.5,3.6,4.4,7.4,8,9c8.7,3.9,16.9,2.5,22-9C317.3,374.5,317.1,365.4,317.4,356.7z M305.8,380.2
				c-1.7,2-4.3,2.8-6.9,2.6c-0.7,0-1.3-0.1-2-0.3c-1.4-0.3-2.8-0.8-4-1.7c-0.6-0.4-3.2-2.9-2.6-3.8c0,0,1.1-1.5,8.4-1.4
				c7.3,0.2,8.4,1.7,8.4,1.8C307.5,378,306,379.9,305.8,380.2z"/>
		</g>
		<path class="st9" d="M316.8,357.4c-0.5,0.4,0,1.4,0.5,0.9c3.3-2.6,4,1.1,4,3.9c-0.1,3.2-1.5,7.1-5.1,7.5c-0.7,0.1-0.7,1.2,0,1.1
			c4.8-0.5,6.3-5.3,6.2-9.6C322.4,357.5,320.3,354.7,316.8,357.4z"/>
		<path class="st9" d="M279.9,357.4c0.5,0.4,0,1.4-0.5,0.9c-3.3-2.6-4,1.1-4,3.9c0.1,3.2,1.5,7.1,5.1,7.5c0.7,0.1,0.7,1.2,0,1.1
			c-4.8-0.5-6.3-5.3-6.2-9.6C274.4,357.5,276.4,354.7,279.9,357.4z"/>
		<path class="st3" d="M280.1,361.5c1.2-4.2,1.2-14.9,6.6-16.3c2.3-0.6,10,5.7,20.7,0c4.3-2.3,8.6,12.4,9.4,14.5l0.3-1.9l2-1.5
			c0,0,8.3-30-21.5-29.4c-29.8,0.6-21.2,29.6-21.2,29.6S279.6,356.1,280.1,361.5z"/>
	</g>
	<polyline class="st0" points="246.2,180 250,187.3 242.7,191.1 	"/>
	<polyline class="st0" points="141,370.5 132.8,369.9 133.4,361.6 	"/>
	<path class="st10" d="M82.8,350.6c0,0-6.7-28.3,22.4-48.7"/>
	<path class="st10" d="M246.4,369c0,0-23.3-43.1,17.8-91.3"/>
	<path class="st10" d="M325.3,329.3c0,0,29.3-40.1,90.5-20"/>
	<path class="st10" d="M348.2,370.2c0,0,35.8-38.9,9.1-92.5"/>
	<path class="st10" d="M362.4,195.3c0,0,46.4-9.2,81.2,47.6"/>
	<path class="st10" d="M498.5,444.6c0,0,37.6-44.5,8.9-94.1"/>
	<path class="st10" d="M389.9,522c0,0-45.3-90.7,29.5-158.7"/>
	<path class="st10" d="M201.5,498.3c0,0-36.6-50.6-5.5-98.6s5.5-72,5.5-72"/>
	<path class="st10" d="M133.7,369c0,0,43-31,91.2-3.3"/>
	<path class="st10" d="M107.3,489.2c0,0-6.7,56.5,54.6,67.6"/>
	<path class="st10" d="M223.5,498.3c0,0-16.1-54.6,26.8-87.1"/>
	<path class="st10" d="M281.2,458.2c0,0,14,64.6,84.8,79.1"/>
	<path class="st10" d="M262.2,557.8c0,0,10.1-59.9,65-72.4s72.5-29.1,72.5-29.1"/>
	<path class="st10" d="M270.5,618.3c0,0,46.5,29.3,95.5-3.7"/>
	<polyline class="st0" points="358.4,613.3 366.7,613.3 366.7,621.6 	"/>
	<polyline class="st0" points="271,625.6 269.1,617.6 277.1,615.7 	"/>
	<polyline class="st0" points="268.9,555.3 261.6,559.1 257.8,551.8 	"/>
	<polyline class="st0" points="228.3,493 223.9,500 216.9,495.6 	"/>
	<polyline class="st0" points="204.4,491.8 202.3,499.7 194.3,497.6 	"/>
	<polyline class="st0" points="158.9,550.2 163.3,557.1 156.4,561.6 	"/>
	<polyline class="st0" points="101.2,493.1 107.4,487.6 112.8,493.8 	"/>
	<polyline class="st0" points="362.7,530.8 367.7,537.3 361.2,542.4 	"/>
	<polyline class="st0" points="392.6,515.3 390.7,523.3 382.7,521.4 	"/>
	<polyline class="st0" points="392.8,455.2 401,455.5 400.7,463.7 	"/>
	<polyline class="st0" points="276,463.5 280.8,456.8 287.5,461.6 	"/>
	<polyline class="st0" points="242.9,409.9 251.1,410.3 250.7,418.5 	"/>
	<polyline class="st0" points="505.6,445.2 497.4,445.8 496.9,437.5 	"/>
	<polyline class="st0" points="504.8,357.3 506.4,349.2 514.5,350.8 	"/>
	<polyline class="st0" points="412.1,362.5 420.4,361.9 420.9,370.1 	"/>
	<polyline class="st0" points="414.5,302.3 417,310.2 409.1,312.7 	"/>
	<polyline class="st0" points="332.3,329.7 324,330.3 323.5,322.1 	"/>
	<polyline class="st0" points="355.5,370.9 347.3,371.4 346.7,363.2 	"/>
	<polyline class="st0" points="353.8,284.3 356.9,276.7 364.5,279.7 	"/>
	<polyline class="st0" points="257,277.6 265.2,276.8 266,285 	"/>
	<polyline class="st0" points="188.5,215.2 180.5,217.2 178.6,209.2 	"/>
	<polyline class="st0" points="249.6,362.5 247.3,370.4 239.4,368.2 	"/>
	<polyline class="st0" points="225.7,358.8 226,367.1 217.7,367.3 	"/>
	<polyline class="st0" points="87.6,344.9 83.2,352 76.2,347.6 	"/>
	<polyline class="st0" points="98.1,300.3 106.4,300.7 106,308.9 	"/>
	<polyline class="st0" points="198.4,334.2 201,326.4 208.8,328.9 	"/>
	<polyline class="st0" points="366.7,200.6 360.7,195 366.3,189 	"/>
	<polyline class="st0" points="446.3,236.3 444.4,244.3 436.4,242.3 	"/>
	<g>
		<path class="st11" d="M289.7,427l2,3.7l2.1-3.7h1.8v0.1l-3.1,5.1v3.7h-1.5v-3.7l-3-5.1V427H289.7z"/>
		<path class="st11" d="M295.3,430.4c0.5-0.6,1.2-0.9,2.1-0.9s1.6,0.3,2.1,0.9c0.5,0.6,0.8,1.4,0.8,2.3c0,0.9-0.3,1.7-0.8,2.3
			c-0.5,0.6-1.2,0.9-2.1,0.9c-0.9,0-1.6-0.3-2.1-0.9c-0.5-0.6-0.8-1.4-0.8-2.3C294.5,431.8,294.8,431.1,295.3,430.4z M297.4,430.9
			c-0.5,0-0.8,0.2-1.1,0.5c-0.3,0.4-0.4,0.8-0.4,1.3s0.1,0.9,0.4,1.3c0.3,0.4,0.6,0.5,1.1,0.5c0.5,0,0.8-0.2,1.1-0.5
			c0.3-0.4,0.4-0.8,0.4-1.3c0-0.5-0.1-0.9-0.4-1.3C298.2,431.1,297.9,430.9,297.4,430.9z"/>
		<path class="st11" d="M301.3,429.6h1.4v3.3c0,0.5,0.1,0.9,0.3,1.2s0.6,0.5,1,0.5c0.4,0,0.8-0.2,1-0.5c0.3-0.3,0.4-0.8,0.4-1.2
			v-3.2h1.4v6.3h-1.2l-0.1-0.8c-0.6,0.6-1.2,0.9-1.9,0.9c-0.7,0-1.2-0.3-1.7-0.8c-0.4-0.5-0.6-1.3-0.6-2.2V429.6z"/>
	</g>
	<g>
		<path class="st11" d="M179.9,606.8c0.5,0,0.9,0.1,1.3,0.3c0.4,0.2,0.7,0.4,0.9,0.7s0.4,0.6,0.5,1c0.1,0.4,0.2,0.8,0.2,1.2
			c0,0.4-0.1,0.8-0.2,1.2c-0.1,0.4-0.3,0.7-0.5,1s-0.5,0.5-0.9,0.7c-0.4,0.2-0.8,0.3-1.3,0.3h-2.2v2.6h-1.5v-8.9c0.4,0,1,0,1.9,0
			C178.9,606.8,179.5,606.8,179.9,606.8z M177.7,608.4v3.1h2.2c0.4,0,0.8-0.2,1.1-0.5c0.3-0.3,0.4-0.7,0.4-1.1
			c0-0.4-0.1-0.8-0.4-1.1c-0.3-0.3-0.6-0.5-1.1-0.5H177.7z"/>
		<path class="st11" d="M187.8,610.3l0-0.9h1.3v6.2h-1.3l-0.1-0.9c-0.1,0.3-0.4,0.6-0.8,0.8c-0.4,0.2-0.7,0.3-1,0.3
			c-0.8,0-1.5-0.3-2.1-0.9s-0.8-1.4-0.8-2.5c0-1,0.3-1.8,0.8-2.4c0.5-0.6,1.2-0.9,2.1-0.8c0.4,0,0.7,0.1,1,0.3
			S187.7,610,187.8,610.3z M186.2,610.7c-0.5,0-0.9,0.2-1.2,0.5s-0.5,0.8-0.5,1.4s0.2,1,0.5,1.4c0.3,0.3,0.7,0.5,1.2,0.5
			c0.4,0,0.8-0.1,1-0.4s0.5-0.6,0.5-0.9c0.1-0.4,0.1-0.7,0-1.1c-0.1-0.4-0.2-0.7-0.5-0.9C186.9,610.8,186.6,610.7,186.2,610.7z"/>
		<path class="st11" d="M191.7,618.3h-1.4v-8.8h1.3l0.1,0.9c0.2-0.3,0.5-0.6,0.8-0.7c0.3-0.2,0.7-0.3,1-0.3c0.8,0,1.5,0.3,2.1,0.9
			c0.5,0.6,0.8,1.4,0.8,2.3c0,0.9-0.3,1.7-0.8,2.3c-0.5,0.6-1.2,0.9-2,0.9c-0.4,0-0.7-0.1-1.1-0.2c-0.3-0.1-0.6-0.4-0.8-0.7V618.3z
			 M192.3,613.8c0.3,0.3,0.7,0.5,1.1,0.5c0.5,0,0.8-0.2,1.1-0.5c0.3-0.3,0.4-0.8,0.4-1.3c0-0.5-0.1-0.9-0.4-1.3
			c-0.3-0.3-0.7-0.5-1.1-0.5c-0.5,0-0.9,0.2-1.1,0.5c-0.3,0.3-0.4,0.8-0.4,1.3C191.8,613.1,192,613.5,192.3,613.8z"/>
		<path class="st11" d="M202.9,613.1h-4.3c0,0.4,0.2,0.7,0.5,1c0.3,0.2,0.7,0.4,1.1,0.4c0.3,0,0.5-0.1,0.8-0.2
			c0.3-0.1,0.5-0.2,0.7-0.4l0.9,1c-0.3,0.3-0.6,0.6-1.1,0.8c-0.4,0.2-0.9,0.3-1.3,0.3c-0.9,0-1.7-0.3-2.2-0.9
			c-0.5-0.6-0.8-1.4-0.8-2.4c0-1,0.3-1.7,0.8-2.4c0.5-0.6,1.3-0.9,2.1-0.9c1,0,1.7,0.3,2.2,1S203,611.9,202.9,613.1z M198.6,611.8h3
			c0-0.4-0.2-0.7-0.5-0.9c-0.3-0.2-0.6-0.3-1-0.3c-0.4,0-0.7,0.1-1,0.3C198.8,611.1,198.7,611.4,198.6,611.8z"/>
		<path class="st11" d="M203.9,609.5h1.3l0.1,0.7c0.2-0.4,0.4-0.6,0.7-0.7s0.6-0.2,0.9-0.2c0.6,0,1.1,0.2,1.4,0.6l-0.6,1.3
			c-0.3-0.3-0.6-0.4-1-0.4c-0.4,0-0.7,0.1-1,0.4c-0.3,0.3-0.4,0.7-0.4,1.2v3.3h-1.4V609.5z"/>
		<path class="st11" d="M212.9,609.4h1.2l1.2,4.7l1.3-4.7h1.5l-1.9,6.3h-1.6l-0.6-1.8l-0.5-2.1l-0.5,2.1l-0.6,1.8h-1.6l-1.9-6.3h1.5
			l1.3,4.7L212.9,609.4z"/>
		<path class="st11" d="M219.8,610.3c0.5-0.6,1.2-0.9,2.1-0.9s1.6,0.3,2.1,0.9c0.5,0.6,0.8,1.4,0.8,2.3c0,0.9-0.3,1.7-0.8,2.3
			s-1.2,0.9-2.1,0.9c-0.9,0-1.6-0.3-2.1-0.9s-0.8-1.4-0.8-2.3C219,611.7,219.3,610.9,219.8,610.3z M221.9,610.7
			c-0.5,0-0.8,0.2-1.1,0.5c-0.3,0.4-0.4,0.8-0.4,1.3s0.1,0.9,0.4,1.3s0.6,0.5,1.1,0.5c0.5,0,0.8-0.2,1.1-0.5s0.4-0.8,0.4-1.3
			c0-0.5-0.1-0.9-0.4-1.3C222.7,610.9,222.4,610.7,221.9,610.7z"/>
		<path class="st11" d="M225.7,609.5h1.3l0.1,0.7c0.2-0.4,0.4-0.6,0.7-0.7s0.6-0.2,0.9-0.2c0.6,0,1.1,0.2,1.4,0.6l-0.6,1.3
			c-0.3-0.3-0.6-0.4-1-0.4c-0.4,0-0.7,0.1-1,0.4c-0.3,0.3-0.4,0.7-0.4,1.2v3.3h-1.4V609.5z"/>
		<path class="st11" d="M230.6,606.8h1.4v5.1l1.9-2.5h1.6v0.1l-2.3,2.8l2.6,3.2v0.1h-1.7l-2.2-2.8v2.8h-1.4V606.8z"/>
	</g>
	<g>
		<path class="st11" d="M287.7,256.7v-7.3h-2.5v-1.5h6.5v1.5h-2.5v7.3H287.7z"/>
		<path class="st11" d="M292.5,247.9h1.4v3.5c0.4-0.6,1-0.9,1.7-0.9c0.8,0,1.3,0.3,1.7,0.8c0.4,0.5,0.6,1.3,0.6,2.2v3.3h-1.4v-3.3
			c0-0.5-0.1-1-0.3-1.2c-0.2-0.3-0.5-0.4-0.9-0.4c-0.4,0-0.7,0.2-1,0.5c-0.3,0.3-0.4,0.7-0.4,1.2v3.2h-1.4V247.9z"/>
		<path class="st11" d="M304.5,254.2h-4.3c0,0.4,0.2,0.7,0.5,1c0.3,0.2,0.7,0.4,1.1,0.4c0.3,0,0.5-0.1,0.8-0.2
			c0.3-0.1,0.5-0.2,0.7-0.4l0.9,1c-0.3,0.3-0.6,0.6-1.1,0.8s-0.9,0.3-1.3,0.3c-0.9,0-1.7-0.3-2.2-0.9c-0.5-0.6-0.8-1.4-0.8-2.4
			c0-1,0.3-1.7,0.8-2.4c0.5-0.6,1.3-0.9,2.1-0.9c1,0,1.7,0.3,2.2,1S304.6,252.9,304.5,254.2z M300.2,252.9h3c0-0.4-0.2-0.7-0.5-0.9
			c-0.3-0.2-0.6-0.3-1-0.3c-0.4,0-0.7,0.1-1,0.3C300.5,252.2,300.3,252.5,300.2,252.9z"/>
		<path class="st11" d="M311.6,247.9c0.8,0,1.5,0.2,2,0.6c0.5,0.4,0.7,1.1,0.7,1.9c0,0.8-0.3,1.4-1,1.7c0.4,0.1,0.7,0.4,0.9,0.8
			s0.3,0.8,0.3,1.1c0,1.7-1,2.6-2.9,2.6h-3.7v-8.9H311.6z M309.4,249.4v2h2.3c0.8,0,1.2-0.3,1.2-0.9c0-0.3-0.1-0.5-0.3-0.7
			c-0.2-0.2-0.5-0.3-0.9-0.3H309.4z M309.4,252.9v2.3h2.3c0.2,0,0.5,0,0.7-0.1c0.2-0.1,0.4-0.2,0.6-0.3s0.3-0.4,0.3-0.6
			c0-0.4-0.2-0.7-0.5-0.9c-0.3-0.2-0.7-0.3-1-0.3H309.4z"/>
		<path class="st11" d="M319.9,251.4l0-0.9h1.3v6.2h-1.3l-0.1-0.9c-0.2,0.3-0.4,0.6-0.8,0.8c-0.4,0.2-0.7,0.3-1,0.3
			c-0.8,0-1.5-0.3-2.1-0.9s-0.8-1.4-0.8-2.5c0-1,0.3-1.8,0.8-2.4c0.5-0.6,1.2-0.9,2.1-0.8c0.4,0,0.7,0.1,1,0.3
			S319.7,251.1,319.9,251.4z M318.2,251.7c-0.5,0-0.9,0.2-1.2,0.5c-0.3,0.3-0.5,0.8-0.5,1.4s0.2,1,0.5,1.4c0.3,0.3,0.7,0.5,1.2,0.5
			c0.4,0,0.8-0.1,1-0.4s0.5-0.6,0.5-0.9c0.1-0.4,0.1-0.7,0-1.1c-0.1-0.4-0.2-0.7-0.5-0.9C319,251.9,318.6,251.7,318.2,251.7z"/>
		<path class="st11" d="M327.8,256.7h-1.4v-3.3c0-0.5-0.1-0.9-0.3-1.2c-0.2-0.3-0.6-0.5-1-0.5c-0.4,0-0.8,0.2-1,0.5
			c-0.3,0.3-0.4,0.8-0.4,1.2v3.2h-1.4v-6.3h1.2l0.1,0.8c0.6-0.6,1.2-0.9,1.8-0.9c0.7,0,1.2,0.3,1.7,0.8s0.7,1.3,0.7,2.2V256.7z"/>
		<path class="st11" d="M329,247.9h1.4v5.1l1.9-2.5h1.6v0.1l-2.3,2.8l2.6,3.2v0.1h-1.7l-2.2-2.8v2.8H329V247.9z"/>
	</g>
	<g>
		<path class="st11" d="M128.7,306.7l1,1.2c-0.8,0.9-1.8,1.3-3,1.3c-0.7,0-1.3-0.1-1.9-0.4c-0.5-0.3-1-0.6-1.3-1s-0.6-0.9-0.7-1.4
			c-0.2-0.5-0.2-1.1-0.2-1.7c0-0.6,0.1-1.2,0.3-1.7c0.2-0.5,0.4-1,0.8-1.5s0.8-0.8,1.3-1.1s1.2-0.4,1.8-0.4c1.1,0,2.1,0.5,2.9,1.4
			l-1,1.1c-0.5-0.6-1.1-0.8-1.9-0.8c-0.9,0-1.6,0.3-2,0.9c-0.5,0.6-0.7,1.3-0.7,2.2c0,0.8,0.2,1.5,0.7,2.1c0.4,0.6,1.1,0.9,2,0.9
			c0.4,0,0.7-0.1,1.1-0.2C128.2,307.2,128.5,307,128.7,306.7z"/>
		<path class="st11" d="M130.9,303.5c0.5-0.6,1.2-0.9,2.1-0.9s1.6,0.3,2.1,0.9c0.5,0.6,0.8,1.4,0.8,2.3c0,0.9-0.3,1.7-0.8,2.3
			s-1.2,0.9-2.1,0.9c-0.9,0-1.6-0.3-2.1-0.9s-0.8-1.4-0.8-2.3C130.1,304.9,130.4,304.1,130.9,303.5z M133,304
			c-0.5,0-0.8,0.2-1.1,0.5c-0.3,0.4-0.4,0.8-0.4,1.3s0.1,0.9,0.4,1.3s0.6,0.5,1.1,0.5c0.5,0,0.8-0.2,1.1-0.5s0.4-0.8,0.4-1.3
			c0-0.5-0.1-0.9-0.4-1.3C133.8,304.2,133.4,304,133,304z"/>
		<path class="st11" d="M142.3,308.9h-1.4v-3.3c0-0.5-0.1-0.9-0.3-1.2c-0.2-0.3-0.6-0.5-1-0.5c-0.4,0-0.8,0.2-1,0.5
			c-0.3,0.3-0.4,0.8-0.4,1.2v3.2h-1.4v-6.3h1.2l0.1,0.8c0.6-0.6,1.2-0.9,1.8-0.9c0.7,0,1.2,0.3,1.7,0.8c0.4,0.5,0.7,1.3,0.7,2.2
			V308.9z"/>
		<path class="st11" d="M143.8,301.1l1.4-0.2v1.8h1.5v1.3h-1.5v2.7c0,0.3,0.1,0.5,0.2,0.7c0.1,0.2,0.3,0.2,0.5,0.2s0.4-0.1,0.7-0.2
			l0.4,1.3c-0.4,0.2-0.7,0.3-1.1,0.3c-0.6,0-1.1-0.2-1.5-0.6c-0.4-0.4-0.5-1-0.5-1.7V304h-1v-1.3h1V301.1z"/>
		<path class="st11" d="M147.7,302.7h1.3l0.1,0.7c0.2-0.4,0.4-0.6,0.7-0.7s0.6-0.2,0.9-0.2c0.6,0,1.1,0.2,1.4,0.6l-0.6,1.3
			c-0.3-0.3-0.6-0.4-1-0.4c-0.4,0-0.7,0.1-1,0.4c-0.3,0.3-0.4,0.7-0.4,1.2v3.3h-1.4V302.7z"/>
		<path class="st11" d="M157,303.6l0-0.9h1.3v6.2H157L157,308c-0.1,0.3-0.4,0.6-0.8,0.8c-0.4,0.2-0.7,0.3-1,0.3
			c-0.8,0-1.5-0.3-2.1-0.9s-0.8-1.4-0.8-2.5c0-1,0.3-1.8,0.8-2.4c0.5-0.6,1.2-0.9,2.1-0.8c0.4,0,0.7,0.1,1,0.3
			S156.8,303.3,157,303.6z M155.3,303.9c-0.5,0-0.9,0.2-1.2,0.5s-0.5,0.8-0.5,1.4s0.2,1,0.5,1.4c0.3,0.3,0.7,0.5,1.2,0.5
			c0.4,0,0.8-0.1,1-0.4s0.5-0.6,0.5-0.9c0.1-0.4,0.1-0.7,0-1.1c-0.1-0.4-0.2-0.7-0.5-0.9C156.1,304.1,155.7,303.9,155.3,303.9z"/>
		<path class="st11" d="M163.4,307.1l0.9,1c-0.6,0.7-1.3,1-2.1,1c-0.8,0-1.5-0.3-2.1-0.9s-0.8-1.4-0.8-2.4s0.3-1.9,0.8-2.4
			s1.3-0.9,2.1-0.9c0.8,0,1.4,0.3,2,0.9l-0.9,1c-0.3-0.3-0.7-0.5-1.1-0.5c-0.5,0-0.8,0.2-1.1,0.5s-0.4,0.8-0.4,1.3
			c0,0.6,0.1,1,0.4,1.3c0.3,0.3,0.7,0.5,1.1,0.5C162.7,307.6,163.1,307.5,163.4,307.1z"/>
		<path class="st11" d="M165.5,301.1l1.4-0.2v1.8h1.5v1.3h-1.5v2.7c0,0.3,0.1,0.5,0.2,0.7c0.1,0.2,0.3,0.2,0.5,0.2s0.4-0.1,0.7-0.2
			l0.4,1.3c-0.4,0.2-0.7,0.3-1.1,0.3c-0.6,0-1.1-0.2-1.5-0.6c-0.4-0.4-0.5-1-0.5-1.7V304h-1v-1.3h1V301.1z"/>
		<path class="st11" d="M173.8,303.3l-0.8,1c-0.4-0.4-0.8-0.6-1.4-0.6c-0.7,0-1,0.2-1,0.6c0,0.4,0.3,0.6,1,0.7c0.2,0,0.5,0,0.7,0.1
			c0.2,0,0.4,0.1,0.6,0.2c0.2,0.1,0.4,0.2,0.6,0.3c0.1,0.1,0.3,0.3,0.4,0.6c0.1,0.2,0.2,0.5,0.2,0.8c0,0.6-0.2,1.1-0.6,1.5
			c-0.4,0.4-1,0.6-1.8,0.6c-0.5,0-1-0.1-1.4-0.2c-0.4-0.2-0.8-0.4-1.2-0.9l0.7-1.1c0.2,0.2,0.5,0.4,0.9,0.6c0.4,0.2,0.7,0.3,1.1,0.3
			c0.3,0,0.5-0.1,0.7-0.2c0.2-0.1,0.3-0.3,0.3-0.5c0-0.2-0.1-0.4-0.3-0.5c-0.2-0.1-0.5-0.2-0.8-0.2c-0.3,0-0.6-0.1-0.8-0.1
			s-0.5-0.2-0.7-0.3c-0.2-0.1-0.4-0.3-0.6-0.6c-0.1-0.3-0.2-0.5-0.2-0.9c0-0.3,0.1-0.6,0.2-0.9s0.3-0.5,0.6-0.6
			c0.2-0.1,0.5-0.3,0.7-0.3c0.3-0.1,0.5-0.1,0.8-0.1C172.6,302.5,173.3,302.8,173.8,303.3z"/>
	</g>
	<g>
		<path class="st11" d="M437.5,482.1H436v-8.8h5.7v1.6h-4.2v2.4h3.9v1.5h-3.9V482.1z"/>
		<path class="st11" d="M442.7,474.7c-0.2-0.2-0.3-0.4-0.3-0.7c0-0.3,0.1-0.5,0.3-0.7s0.4-0.2,0.6-0.2s0.4,0.1,0.6,0.2
			s0.3,0.4,0.3,0.7c0,0.3-0.1,0.5-0.3,0.7s-0.4,0.2-0.6,0.2S442.9,474.9,442.7,474.7z M443.9,475.8h-1.4v6.3h1.4V475.8z"/>
		<path class="st11" d="M450.6,482.1h-1.4v-3.3c0-0.5-0.1-0.9-0.3-1.2c-0.2-0.3-0.6-0.5-1-0.5c-0.4,0-0.8,0.2-1,0.5
			c-0.3,0.3-0.4,0.8-0.4,1.2v3.2h-1.4v-6.3h1.2l0.1,0.8c0.6-0.6,1.2-0.9,1.8-0.9c0.7,0,1.2,0.3,1.7,0.8c0.4,0.5,0.7,1.3,0.7,2.2
			V482.1z"/>
		<path class="st11" d="M456.2,476.7l0-0.9h1.3v6.2h-1.3l-0.1-0.9c-0.1,0.3-0.4,0.6-0.8,0.8c-0.4,0.2-0.7,0.3-1,0.3
			c-0.8,0-1.5-0.3-2.1-0.9s-0.8-1.4-0.8-2.5c0-1,0.3-1.8,0.8-2.4c0.5-0.6,1.2-0.9,2.1-0.8c0.4,0,0.7,0.1,1,0.3
			S456,476.4,456.2,476.7z M454.5,477c-0.5,0-0.9,0.2-1.2,0.5c-0.3,0.3-0.5,0.8-0.5,1.4s0.2,1,0.5,1.4c0.3,0.3,0.7,0.5,1.2,0.5
			c0.4,0,0.8-0.1,1-0.4s0.5-0.6,0.5-0.9c0.1-0.4,0.1-0.7,0-1.1s-0.2-0.7-0.5-0.9C455.3,477.2,454.9,477,454.5,477z"/>
		<path class="st11" d="M464.1,482.1h-1.4v-3.3c0-0.5-0.1-0.9-0.3-1.2c-0.2-0.3-0.6-0.5-1-0.5c-0.4,0-0.8,0.2-1,0.5
			c-0.3,0.3-0.4,0.8-0.4,1.2v3.2h-1.4v-6.3h1.2l0.1,0.8c0.6-0.6,1.2-0.9,1.8-0.9c0.7,0,1.2,0.3,1.7,0.8s0.7,1.3,0.7,2.2V482.1z"/>
		<path class="st11" d="M469.2,480.2l0.9,1c-0.6,0.7-1.3,1-2.1,1c-0.8,0-1.5-0.3-2.1-0.9s-0.8-1.4-0.8-2.4s0.3-1.9,0.8-2.4
			s1.3-0.9,2.1-0.9c0.8,0,1.4,0.3,2,0.9l-0.9,1c-0.3-0.3-0.7-0.5-1.1-0.5c-0.5,0-0.8,0.2-1.1,0.5s-0.5,0.8-0.5,1.3
			c0,0.6,0.2,1,0.5,1.3c0.3,0.3,0.7,0.5,1.1,0.5C468.4,480.8,468.9,480.6,469.2,480.2z"/>
		<path class="st11" d="M476.4,479.5h-4.3c0,0.4,0.2,0.7,0.5,1c0.3,0.2,0.7,0.4,1.1,0.4c0.3,0,0.5-0.1,0.8-0.2
			c0.3-0.1,0.5-0.2,0.7-0.4l0.9,1c-0.3,0.3-0.6,0.6-1.1,0.8c-0.4,0.2-0.9,0.3-1.3,0.3c-0.9,0-1.7-0.3-2.2-0.9
			c-0.5-0.6-0.8-1.4-0.8-2.4c0-1,0.3-1.7,0.8-2.4c0.5-0.6,1.3-0.9,2.1-0.9c1,0,1.7,0.3,2.2,1S476.5,478.2,476.4,479.5z M472.1,478.2
			h3c0-0.4-0.2-0.7-0.5-0.9c-0.3-0.2-0.6-0.3-1-0.3c-0.4,0-0.7,0.1-1,0.3C472.4,477.5,472.2,477.8,472.1,478.2z"/>
	</g>
	<g>
		<path class="st11" d="M393.2,592c0.5,0,0.9,0.1,1.3,0.3s0.7,0.4,0.9,0.7s0.4,0.6,0.5,1s0.2,0.8,0.2,1.2s-0.1,0.8-0.2,1.2
			c-0.1,0.4-0.3,0.7-0.5,1s-0.5,0.5-0.9,0.7s-0.8,0.3-1.3,0.3H391v2.6h-1.5V592c0.4,0,1,0,1.9,0C392.2,592,392.8,592,393.2,592z
			 M391,593.6v3.1h2.2c0.4,0,0.8-0.2,1.1-0.5s0.4-0.7,0.4-1.1c0-0.4-0.1-0.8-0.4-1.1c-0.3-0.3-0.6-0.5-1.1-0.5H391z"/>
		<path class="st11" d="M401.1,595.5l0-0.9h1.3v6.2h-1.3l-0.1-0.9c-0.2,0.3-0.4,0.6-0.8,0.8c-0.4,0.2-0.7,0.3-1,0.3
			c-0.8,0-1.5-0.3-2.1-0.9s-0.8-1.4-0.8-2.5c0-1,0.3-1.8,0.8-2.4c0.5-0.6,1.2-0.9,2.1-0.8c0.4,0,0.7,0.1,1,0.3
			S400.9,595.2,401.1,595.5z M399.5,595.8c-0.5,0-0.9,0.2-1.2,0.5c-0.3,0.3-0.5,0.8-0.5,1.4s0.2,1,0.5,1.4c0.3,0.3,0.7,0.5,1.2,0.5
			c0.4,0,0.8-0.1,1-0.4s0.5-0.6,0.5-0.9c0.1-0.4,0.1-0.7,0-1.1c-0.1-0.4-0.2-0.7-0.5-0.9C400.2,596,399.9,595.8,399.5,595.8z"/>
		<path class="st11" d="M407.4,594.6h1.5l-3.4,8.8h-1.5l1-2.7l-2.2-6.1h1.6l0.8,2.7l0.5,1.8l0.6-1.7L407.4,594.6z"/>
		<path class="st11" d="M414.7,600.9h-1.4v-3.3c0-0.4-0.1-0.8-0.3-1.1c-0.2-0.3-0.5-0.5-0.8-0.5c-0.4,0-0.6,0.2-0.9,0.5
			c-0.2,0.3-0.3,0.7-0.3,1.1v3.3h-1.4v-6.3h1.3l0.1,0.8c0.1-0.3,0.3-0.5,0.6-0.7s0.6-0.2,0.9-0.2c0.8,0,1.4,0.4,1.6,1.2
			c0.4-0.8,1-1.1,1.9-1.1c0.8,0,1.4,0.3,1.8,0.8s0.6,1.2,0.6,2.2v3.4H417v-3.4c0-0.4-0.1-0.8-0.3-1.1c-0.2-0.3-0.4-0.4-0.8-0.4
			c-0.4,0-0.7,0.2-0.9,0.4c-0.2,0.3-0.3,0.7-0.3,1.1V600.9z"/>
		<path class="st11" d="M425.3,598.3h-4.3c0,0.4,0.2,0.7,0.5,1c0.3,0.2,0.7,0.4,1.1,0.4c0.3,0,0.5-0.1,0.8-0.2s0.5-0.2,0.7-0.4
			l0.9,1c-0.3,0.3-0.6,0.6-1.1,0.8c-0.4,0.2-0.9,0.3-1.3,0.3c-0.9,0-1.7-0.3-2.2-0.9c-0.5-0.6-0.8-1.4-0.8-2.4c0-1,0.3-1.7,0.8-2.4
			c0.5-0.6,1.3-0.9,2.1-0.9c1,0,1.7,0.3,2.2,1S425.4,597,425.3,598.3z M421,597h3c0-0.4-0.2-0.7-0.5-0.9c-0.3-0.2-0.6-0.3-1-0.3
			c-0.4,0-0.7,0.1-1,0.3C421.2,596.3,421,596.6,421,597z"/>
		<path class="st11" d="M431.8,600.9h-1.4v-3.3c0-0.5-0.1-0.9-0.3-1.2s-0.6-0.5-1-0.5c-0.4,0-0.8,0.2-1,0.5
			c-0.3,0.3-0.4,0.8-0.4,1.2v3.2h-1.4v-6.3h1.2l0.1,0.8c0.6-0.6,1.2-0.9,1.8-0.9c0.7,0,1.2,0.3,1.7,0.8c0.4,0.5,0.7,1.3,0.7,2.2
			V600.9z"/>
		<path class="st11" d="M433.3,593l1.4-0.2v1.8h1.5v1.3h-1.5v2.7c0,0.3,0.1,0.5,0.2,0.7c0.1,0.2,0.3,0.2,0.5,0.2
			c0.2,0,0.4-0.1,0.7-0.2l0.4,1.3c-0.4,0.2-0.7,0.3-1.1,0.3c-0.6,0-1.1-0.2-1.5-0.6s-0.5-1-0.5-1.7V596h-1v-1.3h1V593z"/>
		<path class="st11" d="M441.6,595.3l-0.8,1c-0.4-0.4-0.8-0.6-1.4-0.6c-0.7,0-1,0.2-1,0.6c0,0.4,0.3,0.6,1,0.7c0.2,0,0.5,0,0.7,0.1
			s0.4,0.1,0.6,0.2c0.2,0.1,0.4,0.2,0.6,0.3c0.1,0.1,0.3,0.3,0.4,0.6c0.1,0.2,0.2,0.5,0.2,0.8c0,0.6-0.2,1.1-0.6,1.5
			c-0.4,0.4-1,0.6-1.8,0.6c-0.5,0-1-0.1-1.4-0.2c-0.4-0.2-0.8-0.4-1.2-0.9l0.7-1.1c0.2,0.2,0.5,0.4,0.9,0.6c0.4,0.2,0.7,0.3,1.1,0.3
			c0.3,0,0.5-0.1,0.7-0.2c0.2-0.1,0.3-0.3,0.3-0.5c0-0.2-0.1-0.4-0.3-0.5c-0.2-0.1-0.5-0.2-0.8-0.2c-0.3,0-0.6-0.1-0.8-0.1
			c-0.2-0.1-0.5-0.2-0.7-0.3c-0.2-0.1-0.4-0.3-0.6-0.6c-0.1-0.3-0.2-0.5-0.2-0.9c0-0.3,0.1-0.6,0.2-0.9c0.1-0.3,0.3-0.5,0.6-0.6
			c0.2-0.1,0.5-0.3,0.7-0.3c0.3-0.1,0.5-0.1,0.8-0.1C440.3,594.4,441,594.7,441.6,595.3z"/>
	</g>
	<g>
		<path class="st11" d="M95,444.8l-1.2,0.7c-0.1-0.3-0.4-0.5-0.7-0.7c-0.3-0.2-0.7-0.3-1.1-0.3c-0.5,0-0.9,0.1-1.2,0.3
			c-0.3,0.2-0.4,0.5-0.4,0.8c0,0.2,0.1,0.4,0.3,0.6c0.2,0.2,0.4,0.3,0.6,0.3c0.2,0.1,0.5,0.1,0.9,0.2c0.4,0.1,0.7,0.1,1,0.2
			c0.3,0.1,0.6,0.2,0.9,0.3c0.3,0.1,0.5,0.3,0.7,0.5s0.3,0.4,0.5,0.8c0.1,0.3,0.2,0.7,0.2,1.1c0,0.6-0.2,1.2-0.5,1.6
			c-0.3,0.4-0.7,0.7-1.2,0.9c-0.5,0.2-1,0.3-1.6,0.3c-1.8,0-2.9-0.7-3.4-2.2l1.2-0.7c0.2,0.5,0.4,0.8,0.8,1.1
			c0.4,0.2,0.9,0.4,1.4,0.4c0.5,0,0.9-0.1,1.3-0.3c0.3-0.2,0.5-0.6,0.5-1c0-0.7-0.6-1.2-1.8-1.3c-0.5-0.1-0.8-0.1-1.2-0.2
			c-0.3-0.1-0.6-0.2-1-0.4c-0.3-0.2-0.6-0.5-0.7-0.8c-0.2-0.3-0.2-0.7-0.2-1.2c0-0.6,0.2-1.1,0.5-1.5c0.3-0.4,0.7-0.7,1.1-0.9
			c0.4-0.2,0.9-0.3,1.4-0.3C93.5,443,94.5,443.6,95,444.8z"/>
		<path class="st11" d="M102.2,449.6h-4.3c0,0.4,0.2,0.7,0.5,1s0.7,0.4,1.1,0.4c0.3,0,0.5-0.1,0.8-0.2c0.3-0.1,0.5-0.2,0.7-0.4
			l0.9,1c-0.3,0.3-0.6,0.6-1.1,0.8c-0.4,0.2-0.9,0.3-1.3,0.3c-0.9,0-1.7-0.3-2.2-0.9s-0.8-1.4-0.8-2.4c0-1,0.3-1.7,0.8-2.4
			c0.5-0.6,1.3-0.9,2.1-0.9c1,0,1.7,0.3,2.2,1S102.3,448.4,102.2,449.6z M97.9,448.4h3c0-0.4-0.2-0.7-0.5-0.9
			c-0.3-0.2-0.6-0.3-1-0.3c-0.4,0-0.7,0.1-1,0.3C98.2,447.7,98,448,97.9,448.4z"/>
		<path class="st11" d="M108.7,449.6h-4.3c0,0.4,0.2,0.7,0.5,1s0.7,0.4,1.1,0.4c0.3,0,0.5-0.1,0.8-0.2c0.3-0.1,0.5-0.2,0.7-0.4
			l0.9,1c-0.3,0.3-0.6,0.6-1.1,0.8c-0.4,0.2-0.9,0.3-1.3,0.3c-0.9,0-1.7-0.3-2.2-0.9s-0.8-1.4-0.8-2.4c0-1,0.3-1.7,0.8-2.4
			c0.5-0.6,1.3-0.9,2.1-0.9c1,0,1.7,0.3,2.2,1S108.8,448.4,108.7,449.6z M104.4,448.4h3c0-0.4-0.2-0.7-0.5-0.9
			c-0.3-0.2-0.6-0.3-1-0.3c-0.4,0-0.7,0.1-1,0.3C104.7,447.7,104.5,448,104.4,448.4z"/>
		<path class="st11" d="M79.9,458.5h1.5v7.3h4v1.5h-5.5V458.5z"/>
		<path class="st11" d="M90.9,462l0-0.9h1.3v6.2H91l-0.1-0.9c-0.1,0.3-0.4,0.6-0.8,0.8c-0.4,0.2-0.7,0.3-1,0.3
			c-0.8,0-1.5-0.3-2.1-0.9s-0.8-1.4-0.8-2.5c0-1,0.3-1.8,0.8-2.4c0.5-0.6,1.2-0.9,2.1-0.8c0.4,0,0.7,0.1,1,0.3S90.7,461.7,90.9,462z
			 M89.3,462.4c-0.5,0-0.9,0.2-1.2,0.5c-0.3,0.3-0.5,0.8-0.5,1.4s0.2,1,0.5,1.4s0.7,0.5,1.2,0.5c0.4,0,0.8-0.1,1-0.4
			s0.5-0.6,0.5-0.9c0.1-0.4,0.1-0.7,0-1.1c-0.1-0.4-0.2-0.7-0.5-0.9C90,462.5,89.7,462.4,89.3,462.4z"/>
		<path class="st11" d="M97,461.1h1.2l1.2,4.7l1.3-4.7h1.5l-1.9,6.3h-1.6l-0.6-1.8l-0.5-2.1l-0.5,2.1l-0.6,1.8h-1.6l-1.9-6.3h1.5
			l1.3,4.7L97,461.1z"/>
		<path class="st11" d="M107.5,461.1h1.5l-3.4,8.8h-1.5l1-2.7l-2.2-6.1h1.6l0.8,2.7l0.5,1.8l0.6-1.7L107.5,461.1z"/>
		<path class="st11" d="M115.3,464.8h-4.3c0,0.4,0.2,0.7,0.5,1s0.7,0.4,1.1,0.4c0.3,0,0.5-0.1,0.8-0.2c0.3-0.1,0.5-0.2,0.7-0.4
			l0.9,1c-0.3,0.3-0.6,0.6-1.1,0.8c-0.4,0.2-0.9,0.3-1.3,0.3c-0.9,0-1.7-0.3-2.2-0.9s-0.8-1.4-0.8-2.4c0-1,0.3-1.7,0.8-2.4
			c0.5-0.6,1.3-0.9,2.1-0.9c1,0,1.7,0.3,2.2,1S115.4,463.6,115.3,464.8z M110.9,463.5h3c0-0.4-0.2-0.7-0.5-0.9
			c-0.3-0.2-0.6-0.3-1-0.3c-0.4,0-0.7,0.1-1,0.3C111.2,462.8,111,463.1,110.9,463.5z"/>
		<path class="st11" d="M116.3,461.1h1.3l0.1,0.7c0.2-0.4,0.4-0.6,0.7-0.7c0.3-0.1,0.6-0.2,0.9-0.2c0.6,0,1.1,0.2,1.4,0.6l-0.6,1.3
			c-0.3-0.3-0.6-0.4-1-0.4c-0.4,0-0.7,0.1-1,0.4c-0.3,0.3-0.4,0.7-0.4,1.2v3.3h-1.4V461.1z"/>
	</g>
	<g>
		<path class="st11" d="M458.1,329.9l-1.2,0.7c-0.1-0.3-0.4-0.5-0.7-0.7c-0.3-0.2-0.7-0.3-1.1-0.3c-0.5,0-0.9,0.1-1.2,0.3
			c-0.3,0.2-0.4,0.5-0.4,0.8c0,0.2,0.1,0.4,0.3,0.6c0.2,0.2,0.4,0.3,0.6,0.3c0.2,0.1,0.5,0.1,0.9,0.2c0.4,0.1,0.7,0.1,1,0.2
			c0.3,0.1,0.6,0.2,0.9,0.3c0.3,0.1,0.5,0.3,0.7,0.5s0.3,0.4,0.5,0.8c0.1,0.3,0.2,0.7,0.2,1.1c0,0.6-0.2,1.2-0.5,1.6
			c-0.3,0.4-0.7,0.7-1.2,0.9c-0.5,0.2-1,0.3-1.6,0.3c-1.8,0-2.9-0.7-3.4-2.2l1.2-0.7c0.2,0.5,0.4,0.8,0.8,1.1s0.9,0.4,1.4,0.4
			c0.5,0,0.9-0.1,1.3-0.3c0.3-0.2,0.5-0.6,0.5-1c0-0.7-0.6-1.2-1.8-1.3c-0.5-0.1-0.8-0.1-1.2-0.2s-0.6-0.2-1-0.4
			c-0.3-0.2-0.6-0.5-0.7-0.8s-0.2-0.7-0.2-1.2c0-0.6,0.2-1.1,0.5-1.5c0.3-0.4,0.7-0.7,1.1-0.9c0.4-0.2,0.9-0.3,1.4-0.3
			C456.5,328.2,457.6,328.8,458.1,329.9z"/>
		<path class="st11" d="M465.2,334.8h-4.3c0,0.4,0.2,0.7,0.5,1c0.3,0.2,0.7,0.4,1.1,0.4c0.3,0,0.5-0.1,0.8-0.2
			c0.3-0.1,0.5-0.2,0.7-0.4l0.9,1c-0.3,0.3-0.6,0.6-1.1,0.8c-0.4,0.2-0.9,0.3-1.3,0.3c-0.9,0-1.7-0.3-2.2-0.9
			c-0.5-0.6-0.8-1.4-0.8-2.4c0-1,0.3-1.7,0.8-2.4c0.5-0.6,1.3-0.9,2.1-0.9c1,0,1.7,0.3,2.2,1S465.3,333.5,465.2,334.8z M460.9,333.5
			h3c0-0.4-0.2-0.7-0.5-0.9c-0.3-0.2-0.6-0.3-1-0.3c-0.4,0-0.7,0.1-1,0.3C461.2,332.8,461,333.1,460.9,333.5z"/>
		<path class="st11" d="M471.8,334.8h-4.3c0,0.4,0.2,0.7,0.5,1c0.3,0.2,0.7,0.4,1.1,0.4c0.3,0,0.5-0.1,0.8-0.2
			c0.3-0.1,0.5-0.2,0.7-0.4l0.9,1c-0.3,0.3-0.6,0.6-1.1,0.8c-0.4,0.2-0.9,0.3-1.3,0.3c-0.9,0-1.7-0.3-2.2-0.9
			c-0.5-0.6-0.8-1.4-0.8-2.4c0-1,0.3-1.7,0.8-2.4c0.5-0.6,1.3-0.9,2.1-0.9c1,0,1.7,0.3,2.2,1S471.9,333.5,471.8,334.8z M467.5,333.5
			h3c0-0.4-0.2-0.7-0.5-0.9c-0.3-0.2-0.6-0.3-1-0.3c-0.4,0-0.7,0.1-1,0.3C467.7,332.8,467.6,333.1,467.5,333.5z"/>
		<path class="st11" d="M442.8,350.3l1,1.2c-0.8,0.9-1.8,1.3-3,1.3c-0.7,0-1.3-0.1-1.9-0.4c-0.5-0.3-1-0.6-1.3-1s-0.6-0.9-0.7-1.4
			c-0.2-0.5-0.2-1.1-0.2-1.7c0-0.6,0.1-1.2,0.3-1.7c0.2-0.5,0.4-1,0.8-1.5c0.3-0.4,0.8-0.8,1.3-1.1c0.5-0.3,1.2-0.4,1.8-0.4
			c1.1,0,2.1,0.5,2.9,1.4l-1,1.1c-0.5-0.6-1.1-0.8-1.9-0.8c-0.9,0-1.6,0.3-2,0.9c-0.5,0.6-0.7,1.3-0.7,2.2c0,0.8,0.2,1.5,0.7,2.1
			c0.5,0.6,1.1,0.9,2,0.9c0.4,0,0.7-0.1,1.1-0.2S442.5,350.6,442.8,350.3z"/>
		<path class="st11" d="M444.9,347.1c0.5-0.6,1.2-0.9,2.1-0.9s1.6,0.3,2.1,0.9s0.8,1.4,0.8,2.3c0,0.9-0.3,1.7-0.8,2.3
			c-0.5,0.6-1.2,0.9-2.1,0.9s-1.6-0.3-2.1-0.9c-0.5-0.6-0.8-1.4-0.8-2.3C444.1,348.5,444.4,347.7,444.9,347.1z M447,347.6
			c-0.5,0-0.8,0.2-1.1,0.5c-0.3,0.4-0.4,0.8-0.4,1.3s0.1,0.9,0.4,1.3c0.3,0.4,0.6,0.5,1.1,0.5s0.8-0.2,1.1-0.5
			c0.3-0.4,0.4-0.8,0.4-1.3c0-0.5-0.1-0.9-0.4-1.3S447.5,347.6,447,347.6z"/>
		<path class="st11" d="M450.9,346.3h1.4v3.3c0,0.5,0.1,0.9,0.3,1.2c0.2,0.3,0.6,0.5,1,0.5c0.4,0,0.8-0.2,1-0.5
			c0.3-0.3,0.4-0.8,0.4-1.2v-3.2h1.4v6.3h-1.2l-0.1-0.8c-0.6,0.6-1.2,0.9-1.9,0.9c-0.7,0-1.2-0.3-1.7-0.8c-0.4-0.5-0.6-1.3-0.6-2.2
			V346.3z"/>
		<path class="st11" d="M463.1,352.5h-1.4v-3.3c0-0.5-0.1-0.9-0.3-1.2c-0.2-0.3-0.6-0.5-1-0.5c-0.4,0-0.8,0.2-1,0.5
			c-0.3,0.3-0.4,0.8-0.4,1.2v3.2h-1.4v-6.3h1.2l0.1,0.8c0.6-0.6,1.2-0.9,1.8-0.9c0.7,0,1.2,0.3,1.7,0.8s0.7,1.3,0.7,2.2V352.5z"/>
		<path class="st11" d="M468.1,350.7l0.9,1c-0.6,0.7-1.3,1-2.1,1c-0.8,0-1.5-0.3-2.1-0.9s-0.8-1.4-0.8-2.4s0.3-1.9,0.8-2.4
			s1.3-0.9,2.1-0.9c0.8,0,1.4,0.3,2,0.9l-0.9,1c-0.3-0.3-0.7-0.5-1.1-0.5c-0.5,0-0.8,0.2-1.1,0.5s-0.5,0.8-0.5,1.3
			c0,0.6,0.2,1,0.5,1.3c0.3,0.3,0.7,0.5,1.1,0.5C467.4,351.2,467.8,351.1,468.1,350.7z"/>
		<path class="st11" d="M475.3,350H471c0,0.4,0.2,0.7,0.5,1c0.3,0.2,0.7,0.4,1.1,0.4c0.3,0,0.5-0.1,0.8-0.2c0.3-0.1,0.5-0.2,0.7-0.4
			l0.9,1c-0.3,0.3-0.6,0.6-1.1,0.8c-0.4,0.2-0.9,0.3-1.3,0.3c-0.9,0-1.7-0.3-2.2-0.9c-0.5-0.6-0.8-1.4-0.8-2.4c0-1,0.3-1.7,0.8-2.4
			c0.5-0.6,1.3-0.9,2.1-0.9c1,0,1.7,0.3,2.2,1S475.4,348.7,475.3,350z M471,348.7h3c0-0.4-0.2-0.7-0.5-0.9c-0.3-0.2-0.6-0.3-1-0.3
			c-0.4,0-0.7,0.1-1,0.3C471.3,348,471.1,348.3,471,348.7z"/>
		<path class="st11" d="M476.4,343.7h1.4v8.8h-1.4V343.7z"/>
		<path class="st11" d="M479.5,347.1c0.5-0.6,1.2-0.9,2.1-0.9s1.6,0.3,2.1,0.9s0.8,1.4,0.8,2.3c0,0.9-0.3,1.7-0.8,2.3
			c-0.5,0.6-1.2,0.9-2.1,0.9s-1.6-0.3-2.1-0.9c-0.5-0.6-0.8-1.4-0.8-2.3C478.7,348.5,478.9,347.7,479.5,347.1z M481.6,347.6
			c-0.5,0-0.8,0.2-1.1,0.5c-0.3,0.4-0.4,0.8-0.4,1.3s0.1,0.9,0.4,1.3c0.3,0.4,0.6,0.5,1.1,0.5s0.8-0.2,1.1-0.5
			c0.3-0.4,0.4-0.8,0.4-1.3c0-0.5-0.1-0.9-0.4-1.3S482,347.6,481.6,347.6z"/>
		<path class="st11" d="M485.4,346.3h1.3l0.1,0.7c0.2-0.4,0.4-0.6,0.7-0.7s0.6-0.2,0.9-0.2c0.6,0,1.1,0.2,1.4,0.6l-0.6,1.3
			c-0.3-0.3-0.6-0.4-1-0.4c-0.4,0-0.7,0.1-1,0.4c-0.3,0.3-0.4,0.7-0.4,1.2v3.3h-1.4V346.3z"/>
	</g>
	<path class="st12" d="M477.6,459.2l-40.9,6.2c-3.8,0.6-7.4-2-7.9-5.8l-7.5-48.8c-0.6-3.8,2-7.4,5.8-7.9l40.9-6.2
		c3.8-0.6,7.4,2,7.9,5.8l7.5,48.8C484,455.1,481.4,458.7,477.6,459.2z"/>
	<path class="st11" d="M465,445.3l-8.2,1.2c-0.6,0.1-0.9,0.6-0.8,1.2l1.2,8.2c0.1,0.6,0.6,0.9,1.2,0.8l8.2-1.2
		c0.6-0.1,0.9-0.6,0.8-1.2l-1.2-8.2C466,445.6,465.5,445.2,465,445.3z M465.2,453.6l-6.2,0.9l-0.9-6.2l6.2-0.9L465.2,453.6z"/>
	<path class="st11" d="M452.8,447.2l-8.2,1.2c-0.6,0.1-0.9,0.6-0.8,1.2l1.2,8.2c0.1,0.6,0.6,0.9,1.2,0.8l8.2-1.2
		c0.6-0.1,0.9-0.6,0.8-1.2l-1.2-8.2C453.9,447.5,453.3,447.1,452.8,447.2z M453,455.5l-6.2,0.9l-0.9-6.2l6.2-0.9L453,455.5z"/>
	<path class="st11" d="M450.9,435l-8.2,1.2c-0.6,0.1-0.9,0.6-0.8,1.2l1.2,8.2c0.1,0.6,0.6,0.9,1.2,0.8l8.2-1.2
		c0.6-0.1,0.9-0.6,0.8-1.2l-1.2-8.2C452,435.3,451.5,434.9,450.9,435z M451.2,443.3l-6.2,0.9l-0.9-6.2l6.2-0.9L451.2,443.3z"/>
	<path class="st11" d="M440.6,449l-8.2,1.2c-0.6,0.1-0.9,0.6-0.8,1.2l1.2,8.2c0.1,0.6,0.6,0.9,1.2,0.8l8.2-1.2
		c0.6-0.1,0.9-0.6,0.8-1.2l-1.2-8.2C441.7,449.3,441.2,448.9,440.6,449z M440.9,457.3l-6.2,0.9l-0.9-6.2l6.2-0.9L440.9,457.3z"/>
	<path class="st11" d="M474.1,423.3l-8.2,1.2c-0.6,0.1-0.9,0.6-0.8,1.2l0.6,4c0.1,0.6,0.6,0.9,1.2,0.8l8.2-1.2
		c0.6-0.1,0.9-0.6,0.8-1.2l-0.6-4C475.1,423.6,474.6,423.2,474.1,423.3z M473.7,427.4l-6.2,0.9l-0.3-2l6.2-0.9L473.7,427.4z"/>
	<path class="st11" d="M463.1,433.1l-8.2,1.2c-0.6,0.1-0.9,0.6-0.8,1.2l1.2,8.2c0.1,0.6,0.6,0.9,1.2,0.8l8.2-1.2
		c0.6-0.1,0.9-0.6,0.8-1.2l-1.2-8.2C464.2,433.4,463.7,433,463.1,433.1z M463.3,441.5l-6.2,0.9l-0.9-6.2l6.2-0.9L463.3,441.5z"/>
	<path class="st11" d="M461.9,425.1l-8.2,1.2c-0.6,0.1-0.9,0.6-0.8,1.2l0.6,4c0.1,0.6,0.6,0.9,1.2,0.8l8.2-1.2
		c0.6-0.1,0.9-0.6,0.8-1.2l-0.6-4C462.9,425.4,462.4,425,461.9,425.1z M461.5,429.3l-6.2,0.9l-0.3-2l6.2-0.9L461.5,429.3z"/>
	<path class="st11" d="M469.9,396.2l-44.7,6.8c-2.8,0.4-4.7,3-4.2,5.8l8,52.7c0.4,2.8,3,4.7,5.8,4.2l44.7-6.8c2.8-0.4,4.7-3,4.2-5.8
		l-8-52.7C475.3,397.7,472.7,395.8,469.9,396.2z M481.7,453.5c0.3,1.7-0.9,3.2-2.5,3.5l-44.7,6.8c-1.7,0.3-3.2-0.9-3.5-2.5l-8-52.7
		c-0.3-1.7,0.9-3.2,2.5-3.5l44.7-6.8c1.7-0.3,3.2,0.9,3.5,2.5L481.7,453.5z"/>
	<path class="st11" d="M470.7,401.6l-44.7,6.8c-0.6,0.1-0.9,0.6-0.8,1.2l2.5,16.3c0.1,0.6,0.6,0.9,1.2,0.8l8.2-1.2
		c0.6-0.1,0.9-0.6,0.8-1.2c-0.1-0.6-0.6-0.9-1.2-0.8l-7.2,1.1l-2.2-14.3l42.7-6.5l2.2,14.3l-31.5,4.8c-0.6,0.1-0.9,0.6-0.8,1.2
		s0.6,0.9,1.2,0.8l32.5-5c0.6-0.1,0.9-0.6,0.8-1.2l-2.5-16.3C471.8,401.9,471.3,401.5,470.7,401.6z"/>
	<path class="st11" d="M463.7,408.8l4-0.6c0.6-0.1,0.9-0.6,0.8-1.2c-0.1-0.6-0.6-0.9-1.2-0.8l-4,0.6c-0.6,0.1-0.9,0.6-0.8,1.2
		C462.6,408.5,463.1,408.9,463.7,408.8z"/>
	<path class="st11" d="M464.9,416.8l4-0.6c0.6-0.1,0.9-0.6,0.8-1.2c-0.1-0.6-0.6-0.9-1.2-0.8l-4,0.6c-0.6,0.1-0.9,0.6-0.8,1.2
		C463.8,416.5,464.3,416.9,464.9,416.8z"/>
	<path class="st11" d="M463.3,413.3c0.1,0.6,0.6,0.9,1.2,0.8c0.6-0.1,0.9-0.6,0.8-1.2l-0.4-2.7c-0.1-0.6-0.6-0.9-1.2-0.8
		s-0.9,0.6-0.8,1.2L463.3,413.3z"/>
	<polygon class="st2" points="427.7,584.9 427,579.2 433.8,570.8 440.4,576 433.5,584.8 	"/>
	<path class="st2" d="M440.1,575.9l-44,5.2c-3.7,0.4-7-2.2-7.5-5.9l-3.4-28.7c-0.4-3.7,2.2-7,5.9-7.5l44-5.2c3.7-0.4,7,2.2,7.5,5.9
		l3.4,28.7C446.4,572.1,443.8,575.5,440.1,575.9z"/>
	<path class="st13" d="M423.6,557.5c-0.1-0.5-0.6-0.9-1.1-0.9l-15.8,1.9c-0.5,0.1-0.9,0.6-0.9,1.1c0.1,0.5,0.6,0.9,1.1,0.9l15.8-1.9
		C423.3,558.6,423.7,558.1,423.6,557.5z"/>
	<path class="st11" d="M404.2,545.7c-0.1-0.5-0.6-0.9-1.1-0.9l-9.9,1.2c-0.5,0.1-0.9,0.6-0.9,1.1c0.1,0.5,0.6,0.9,1.1,0.9l9.9-1.2
		C403.9,546.8,404.2,546.3,404.2,545.7z"/>
	<path class="st13" d="M407.4,564.4c-0.5,0.1-0.9,0.6-0.9,1.1c0.1,0.5,0.6,0.9,1.1,0.9l5.9-0.7c0.5-0.1,0.9-0.6,0.9-1.1
		c-0.1-0.5-0.6-0.9-1.1-0.9L407.4,564.4z"/>
	<path class="st11" d="M423.9,576.6l-30.7,3.6c-1.6,0.2-3.1-1-3.3-2.6l-4-33.7c-0.2-1.6,1-3.1,2.6-3.3l49.5-5.8
		c1.6-0.2,3.1,1,3.3,2.6l2.8,23.8c0.1,0.5,0.6,0.9,1.1,0.9c0.5-0.1,0.9-0.6,0.9-1.1l-2.8-23.8c-0.3-2.7-2.8-4.7-5.5-4.4l-49.5,5.8
		c-2.7,0.3-4.7,2.8-4.4,5.5l4,33.7c0.3,2.7,2.8,4.7,5.5,4.4l30.7-3.6c0.5-0.1,0.9-0.6,0.9-1.1S424.4,576.5,423.9,576.6z"/>
	<path class="st11" d="M432.8,541.4c-0.5,0.1-0.9,0.6-0.9,1.1c0.1,0.5,0.6,0.9,1.1,0.9l2-0.2c0.5-0.1,0.9-0.6,0.9-1.1
		c-0.1-0.5-0.6-0.9-1.1-0.9L432.8,541.4z"/>
	<path class="st11" d="M423.1,544.5c0.5-0.1,0.9-0.6,0.9-1.1c-0.1-0.5-0.6-0.9-1.1-0.9l-2,0.2c-0.5,0.1-0.9,0.6-0.9,1.1
		c0.1,0.5,0.6,0.9,1.1,0.9L423.1,544.5z"/>
	<path class="st11" d="M429.1,543.8c0.5-0.1,0.9-0.6,0.9-1.1c-0.1-0.5-0.6-0.9-1.1-0.9l-2,0.2c-0.5,0.1-0.9,0.6-0.9,1.1
		c0.1,0.5,0.6,0.9,1.1,0.9L429.1,543.8z"/>
	<path class="st11" d="M433.5,556.3c-0.1-0.5-0.6-0.9-1.1-0.9l-5.9,0.7c-0.5,0.1-0.9,0.6-0.9,1.1s0.6,0.9,1.1,0.9l5.9-0.7
		C433.2,557.4,433.6,556.9,433.5,556.3z"/>
	<path class="st11" d="M417.5,565.3l11.9-1.4c0.5-0.1,0.9-0.6,0.9-1.1c-0.1-0.5-0.6-0.9-1.1-0.9l-11.9,1.4c-0.5,0.1-0.9,0.6-0.9,1.1
		S417,565.3,417.5,565.3z"/>
	<path class="st13" d="M400.6,566.7l0.5,1.3c0.2,0.5-0.1,1-0.6,1.2c-0.3,0.1-0.6,0.2-1,0.2c-1.6,0.2-2.9-0.1-3.9-0.7
		c-1-0.7-1.7-1.7-2.2-3l-1.1,0.1l-0.2-1.8l0.9-0.1l0-0.4c0-0.2,0-0.4,0-0.5l-0.9,0.1l-0.2-1.8l1.1-0.1c0.2-1.4,0.7-2.5,1.5-3.4
		c0.8-0.9,2-1.4,3.5-1.6c0.6-0.1,1.2,0,1.8,0.1l-0.4,2.2c-0.3-0.1-0.7-0.1-1.1,0c-1.6,0.2-2.6,1-3.1,2.5l2.6-0.3
		c0.6-0.1,1,0.4,1,0.9l0,0c0,0.4-0.4,0.8-0.8,0.8l-3.1,0.4c0,0.1,0,0.3,0,0.5c0,0.2,0,0.3,0.1,0.4l2.5-0.3c0.5-0.1,1,0.4,1,0.9l0,0
		c0,0.4-0.4,0.8-0.8,0.8l-2,0.2c0.8,1.3,2,1.9,3.7,1.7C399.7,567.1,400.1,567,400.6,566.7z M468.2,566.7l0.5,1.3
		c0.2,0.5-0.1,1-0.6,1.2c-0.3,0.1-0.6,0.2-1,0.2c-1.6,0.2-2.9-0.1-3.9-0.7c-1-0.7-1.7-1.7-2.2-3l-1.1,0.1l-0.2-1.8l0.9-0.1l0-0.4
		c0-0.2,0-0.4,0-0.5l-0.9,0.1l-0.2-1.8l1.1-0.1c0.2-1.4,0.7-2.5,1.5-3.4c0.8-0.9,2-1.4,3.5-1.6c0.6-0.1,1.2,0,1.8,0.1l-0.4,2.2
		c-0.3-0.1-0.7-0.1-1.1,0c-1.6,0.2-2.6,1-3.1,2.5l2.6-0.3c0.6-0.1,1,0.4,1,0.9l0,0c0,0.4-0.4,0.8-0.8,0.8l-3.1,0.4
		c0,0.1,0,0.3,0,0.5c0,0.2,0,0.3,0.1,0.4l2.5-0.3c0.5-0.1,1,0.4,1,0.9l0,0c0,0.4-0.4,0.8-0.8,0.8l-2,0.2c0.8,1.3,2,1.9,3.7,1.7
		C467.3,567.1,467.8,567,468.2,566.7z"/>
	<g>
		<path class="st12" d="M273.4,238.1l1-3.3h5.4v-4.1h1.5v-3.5h1.8l0.5-24.2l-2.1-0.4l-0.1-2.5l-2-2.2l0.3-7.7c0,0-7,0.1-7.2,0
			c-0.2-0.1-0.3-1.5-0.3-1.5l37.4-24.1l37.4,24.1l-0.7,1.5l-7.1-0.1l0.3,8.8l-1.3,0.5l-0.4,3.2l-1.6,0.7l0.1,23.6l1.4,0.9l0.1,3
			l1.5,0.1l-0.2,4l-12.8-0.4l-0.1-3l1.6-0.4l0.1-3.4l2-1.3l-0.1-23.6l-2.2-0.8v-2.8l-1.2-1.5l-0.1-2.7l-10.7,0.3v3.8l-1.3,1.1
			l-0.1,2.6h-1.5l0.1,23.8l1.8,1.1v2.6l1.4,1.2l0.1,3.4h-13.3l1.5-4.3l0.5-3.5l1.8-0.9l-0.3-23l-1.8-1.5v-2.4l-1.3-0.8l-0.2-2.7
			l-10.5-0.5l0.1,3.4l-1.2,1.1l-0.3,2.8l-1.7,0.5l-0.2,23.5l2,1.1v2.8l1.8,0.5l-0.2,2.6l-0.1,0.9l52.5-0.1l0.5,2.5l-1.9,2.4h-68.5
			L273.4,238.1z"/>
		<g>
			<g>
				<path class="st11" d="M347.3,187.5l-25.4-16.4c-0.5-0.3-1.2-0.2-1.5,0.3c-0.3,0.5-0.2,1.2,0.3,1.5l25.1,16.1h-5.8l-28.5-18.4
					c-1-0.6-2.2-0.6-3.2,0l-28.5,18.4h-5.8l36-23.2l5.1,3.3c0.5,0.3,1.2,0.2,1.5-0.3c0.3-0.5,0.2-1.2-0.3-1.5l-5.1-3.3
					c-0.7-0.5-1.6-0.5-2.4,0l-36.4,23.4c-0.8,0.5-1.1,1.4-0.9,2.3c0.3,0.9,1.1,1.5,2,1.5h5.5v3.8v3.3c0,0.9,0.6,1.6,1.4,1.8v1.9
					c0,1,0.8,1.8,1.8,1.8h0.2v13.4c0,0.6,0.5,1.1,1.1,1.1c0.6,0,1.1-0.5,1.1-1.1v-14.5c0-0.6-0.5-1.1-1.1-1.1h-0.9v-1.5h7.7v1.5
					h-0.9c-0.6,0-1.1,0.5-1.1,1.1v24.2c0,0.6,0.5,1.1,1.1,1.1h0.9v1.6h-7.7V228h0.9c0.6,0,1.1-0.5,1.1-1.1v-2.8
					c0-0.6-0.5-1.1-1.1-1.1s-1.1,0.5-1.1,1.1v1.7h-0.2c-1,0-1.8,0.8-1.8,1.8v1.9c-0.8,0.2-1.4,0.9-1.4,1.8v2.2h-3.9
					c-1.2,0-2.2,1-2.2,2.2v2.3c0,1.2,1,2.2,2.2,2.2h69.6c1.2,0,2.2-1,2.2-2.2v-2.3c0-1.2-1-2.2-2.2-2.2h-3.9v-2.2
					c0-0.9-0.6-1.6-1.4-1.8v-1.9c0-1-0.8-1.8-1.8-1.8h-0.2v-22h0.2c1,0,1.8-0.8,1.8-1.8v-1.9c0.8-0.2,1.4-0.9,1.4-1.8v-3.3v-3.8h5.5
					c0.9,0,1.7-0.6,2-1.5C348.4,188.9,348.1,188,347.3,187.5z M309.3,172.6c0.3-0.2,0.6-0.2,0.8,0l25.7,16.5h-52.2L309.3,172.6z
					 M281,191.3h57.5v2.7h-11.7h-10.6h-12.8h-10.6H281V191.3z M315.8,229.6v-1.9c0-1-0.8-1.8-1.8-1.8h-0.2v-22h0.2
					c1,0,1.8-0.8,1.8-1.8v-1.9c0.8-0.2,1.4-0.9,1.4-1.8v-2.2h8.4v2.2c0,0.9,0.6,1.6,1.4,1.8v1.9c0,1,0.8,1.8,1.8,1.8h0.2v22h-0.2
					c-1,0-1.8,0.8-1.8,1.8v1.9c-0.8,0.2-1.4,0.9-1.4,1.8v2.2h-8.4v-2.2C317.2,230.5,316.6,229.8,315.8,229.6z M292.4,229.6v-1.9
					c0-1-0.8-1.8-1.8-1.8h-0.2v-22h0.2c1,0,1.8-0.8,1.8-1.8v-1.9c0.8-0.2,1.4-0.9,1.4-1.8v-2.2h8.4v2.2c0,0.9,0.6,1.6,1.4,1.8v1.9
					c0,1,0.8,1.8,1.8,1.8h0.2v22h-0.2c-1,0-1.8,0.8-1.8,1.8v1.9c-0.8,0.2-1.4,0.9-1.4,1.8v2.2h-8.4v-2.2
					C293.8,230.5,293.2,229.8,292.4,229.6z M312.7,228h0.9v1.6h-7.7V228h0.9c0.6,0,1.1-0.5,1.1-1.1v-24.2c0-0.6-0.5-1.1-1.1-1.1
					h-0.9v-1.5h7.7v1.5h-0.9c-0.6,0-1.1,0.5-1.1,1.1v24.2C311.6,227.5,312.1,228,312.7,228z M304.8,198L304.8,198h-0.3v-1.8H315v1.8
					h-0.3c0,0,0,0,0,0c0,0,0,0,0,0H304.8z M304.4,231.8c0.1,0,0.2,0.1,0.3,0.1h9.9c0.1,0,0.2,0,0.3-0.1v1.8h-10.6V231.8z M281.3,198
					H281v-1.8h10.6v1.8h0h-0.3H281.3z M281,231.8c0.1,0,0.2,0.1,0.3,0.1h9.9c0.1,0,0.2,0,0.3-0.1v1.8H281V231.8L281,231.8z
					 M344.5,235.8l0,2.3c0,0,0,0,0,0l-69.6,0l0-2.3L344.5,235.8z M338.1,231.9c0.1,0,0.2,0,0.3-0.1v1.8h-10.6v-1.8
					c0.1,0,0.2,0.1,0.3,0.1H338.1z M330.1,201.7h-0.9v-1.5h7.7v1.5h-0.9c-0.6,0-1.1,0.5-1.1,1.1v24.2c0,0.6,0.5,1.1,1.1,1.1h0.9v1.6
					h-7.7V228h0.9c0.6,0,1.1-0.5,1.1-1.1v-24.2C331.2,202.2,330.8,201.7,330.1,201.7z M338.5,198L338.5,198h-0.3c0,0,0,0,0,0l0,0
					h-9.9h0h-0.3v-1.8h10.6V198L338.5,198z"/>
			</g>
		</g>
		<g>
			<rect x="304.5" y="180.1" class="st11" width="10.5" height="7.2"/>
		</g>
		<rect x="307.9" y="180.1" class="st2" width="3.6" height="7.2"/>
	</g>
	<path class="st10" d="M181.1,215.6c0,0,22.5-36.2,67.7-28.8"/>
	<g>
		<path class="st14" d="M229.1,594.7l-40.8-2.5c-3.2-0.2-5.6-2.9-5.4-6.1l3.9-63.6c0.2-3.2,2.9-5.6,6.1-5.4l40.8,2.5
			c3.2,0.2,5.6,2.9,5.4,6.1l-3.9,63.6C235,592.5,232.3,594.9,229.1,594.7z"/>
		<path class="st15" d="M206.2,528.7l-11-0.7c-0.5,0-0.9-0.5-0.8-0.9l0,0c0-0.5,0.5-0.9,0.9-0.8l11,0.7c0.5,0,0.9,0.5,0.8,0.9l0,0
			C207.1,528.3,206.7,528.7,206.2,528.7z"/>
		<path class="st15" d="M199.3,537.5l-4.6-0.3c-0.5,0-0.9-0.5-0.8-0.9l0,0c0-0.5,0.5-0.9,0.9-0.8l4.6,0.3c0.5,0,0.9,0.5,0.8,0.9l0,0
			C200.2,537.2,199.8,537.6,199.3,537.5z"/>
		<path class="st15" d="M211,533.5l-16-1c-0.5,0-0.9-0.5-0.8-0.9l0,0c0-0.5,0.5-0.9,0.9-0.8l16,1c0.5,0,0.9,0.5,0.8,0.9l0,0
			C211.9,533.2,211.5,533.5,211,533.5z"/>
		<path class="st15" d="M223.3,546.7l-29.1-1.8c-0.5,0-0.9-0.5-0.8-0.9l0,0c0-0.5,0.5-0.9,0.9-0.8l29.1,1.8c0.5,0,0.9,0.5,0.8,0.9
			l0,0C224.3,546.4,223.8,546.8,223.3,546.7z"/>
		<path class="st15" d="M226.8,557.8l-33.2-2c-0.5,0-0.9-0.5-0.8-0.9l0,0c0-0.5,0.5-0.9,0.9-0.8l33.2,2c0.5,0,0.9,0.5,0.8,0.9l0,0
			C227.7,557.4,227.3,557.8,226.8,557.8z"/>
		<path class="st15" d="M228.5,563.7l-35.2-2.1c-0.5,0-0.9-0.5-0.8-0.9l0,0c0-0.5,0.5-0.9,0.9-0.8l35.2,2.1c0.5,0,0.9,0.5,0.8,0.9
			l0,0C229.4,563.3,228.9,563.7,228.5,563.7z"/>
		<path class="st15" d="M218.6,568.9l-25.8-1.6c-0.5,0-0.9-0.5-0.8-0.9l0,0c0-0.5,0.5-0.9,0.9-0.8l25.8,1.6c0.5,0,0.9,0.5,0.8,0.9
			l0,0C219.5,568.5,219.1,568.9,218.6,568.9z"/>
		<path class="st11" d="M225.8,575.1l-33.2-2c-0.5,0-0.9-0.5-0.8-0.9l0,0c0-0.5,0.5-0.9,0.9-0.8l33.2,2c0.5,0,0.9,0.5,0.8,0.9l0,0
			C226.7,574.8,226.3,575.2,225.8,575.1z"/>
		<path class="st11" d="M217.9,580.5l-25.8-1.6c-0.5,0-0.9-0.5-0.8-0.9l0,0c0-0.5,0.5-0.9,0.9-0.8l25.8,1.6c0.5,0,0.9,0.5,0.8,0.9
			l0,0C218.8,580.1,218.4,580.5,217.9,580.5z"/>
		<path class="st11" d="M225.1,586.7l-33.2-2c-0.5,0-0.9-0.5-0.8-0.9l0,0c0-0.5,0.5-0.9,0.9-0.8l33.2,2c0.5,0,0.9,0.5,0.8,0.9l0,0
			C226,586.4,225.6,586.8,225.1,586.7z"/>
		<path class="st15" d="M231,552.6l-37.1-2.2c-0.5,0-0.9-0.5-0.8-0.9l0,0c0-0.5,0.5-0.9,0.9-0.8l37.1,2.2c0.5,0,0.9,0.5,0.8,0.9l0,0
			C231.9,552.3,231.5,552.7,231,552.6z"/>
		<g>
			
				<rect x="227.7" y="529.1" transform="matrix(0.9982 6.042437e-002 -6.042437e-002 0.9982 32.4843 -12.9274)" class="st15" width="4.6" height="3"/>
			<path class="st15" d="M230.2,527.4l-3.3,1.5c-0.1,0,0,0.1,0,0.1l6.4,0.4c0.1,0,0.1-0.1,0-0.1L230.2,527.4
				C230.2,527.4,230.2,527.4,230.2,527.4z"/>
		</g>
	</g>
	<g>
		<path class="st16" d="M192.4,566.4l-2.4-46.9c-0.1-2.5,1.8-4.7,4.3-4.8l43.2-2.2c2.5-0.1,4.7,1.8,4.8,4.3l3.3,66.1
			c0.1,2.5-1.8,4.7-4.3,4.8l-43.2,2.2c-2.5,0.1-4.7-1.8-4.8-4.3l-0.6-11.4"/>
		<path class="st13" d="M210.1,524.6l-11,0.6c-0.5,0-0.9-0.4-0.9-0.8l0,0c0-0.5,0.4-0.9,0.8-0.9l11-0.6c0.5,0,0.9,0.4,0.9,0.8l0,0
			C211,524.2,210.6,524.6,210.1,524.6z"/>
		<path class="st13" d="M204.2,534.2l-4.6,0.2c-0.5,0-0.9-0.4-0.9-0.8l0,0c0-0.5,0.4-0.9,0.8-0.9l4.6-0.2c0.5,0,0.9,0.4,0.9,0.8l0,0
			C205.1,533.8,204.7,534.2,204.2,534.2z"/>
		<path class="st13" d="M215.4,528.9l-16,0.8c-0.5,0-0.9-0.4-0.9-0.8l0,0c0-0.5,0.4-0.9,0.8-0.9l16-0.8c0.5,0,0.9,0.4,0.9,0.8l0,0
			C216.3,528.5,215.9,528.9,215.4,528.9z"/>
		<path class="st11" d="M229.2,540.7l-29.1,1.5c-0.5,0-0.9-0.4-0.9-0.8l0,0c0-0.5,0.4-0.9,0.8-0.9l29.1-1.5c0.5,0,0.9,0.4,0.9,0.8
			l0,0C230,540.2,229.6,540.6,229.2,540.7z"/>
		<path class="st11" d="M233.8,551.2l-33.3,1.7c-0.5,0-0.9-0.4-0.9-0.8l0,0c0-0.5,0.4-0.9,0.8-0.9l33.3-1.7c0.5,0,0.9,0.4,0.9,0.8
			l0,0C234.7,550.8,234.3,551.2,233.8,551.2z"/>
		<path class="st11" d="M236.1,556.9l-35.2,1.8c-0.5,0-0.9-0.4-0.9-0.8l0,0c0-0.5,0.4-0.9,0.8-0.9l35.2-1.8c0.5,0,0.9,0.4,0.9,0.8
			l0,0C237,556.5,236.6,556.9,236.1,556.9z"/>
		<path class="st11" d="M226.9,563.2l-25.8,1.3c-0.5,0-0.9-0.4-0.9-0.8l0,0c0-0.5,0.4-0.9,0.8-0.9l25.8-1.3c0.5,0,0.9,0.4,0.9,0.8
			l0,0C227.8,562.8,227.4,563.2,226.9,563.2z"/>
		<path class="st11" d="M234.7,568.6l-33.3,1.7c-0.5,0-0.9-0.4-0.9-0.8l0,0c0-0.5,0.4-0.9,0.8-0.9l33.3-1.7c0.5,0,0.9,0.4,0.9,0.8
			l0,0C235.6,568.2,235.2,568.6,234.7,568.6z"/>
		<path class="st11" d="M227.5,574.8l-25.8,1.3c-0.5,0-0.9-0.4-0.9-0.8l0,0c0-0.5,0.4-0.9,0.8-0.9l25.8-1.3c0.5,0,0.9,0.4,0.9,0.8
			l0,0C228.4,574.4,228,574.8,227.5,574.8z"/>
		<path class="st11" d="M235.3,580.2l-33.3,1.7c-0.5,0-0.9-0.4-0.9-0.8l0,0c0-0.5,0.4-0.9,0.8-0.9l33.3-1.7c0.5,0,0.9,0.4,0.9,0.8
			l0,0C236.2,579.8,235.8,580.2,235.3,580.2z"/>
		<path class="st11" d="M237.4,545.7l-37.1,1.9c-0.5,0-0.9-0.4-0.9-0.8l0,0c0-0.5,0.4-0.9,0.8-0.9l37.1-1.9c0.5,0,0.9,0.4,0.9,0.8h0
			C238.3,545.3,237.9,545.7,237.4,545.7z"/>
	</g>
	<g>
		<polygon class="st12" points="127.4,286.9 124.1,284.7 120.4,241.5 122.1,239.3 162,235.9 165,238.3 165,245.9 158,246.5 
			160.2,273.9 167.6,273.9 167.6,282.1 166.1,283.7 147.6,285.2 148.1,292.7 142.3,290.8 138,293.4 137.4,286.3 		"/>
		<g>
			<path class="st11" d="M165.2,246.5c0.5,0,0.9-0.5,0.8-1l-0.5-6.4c-0.2-2.5-2.4-4.3-4.9-4.1l-36.8,3c-2.6,0.2-4.4,2.3-4.2,4.9
				l3.3,40.8c0.2,2.5,2.4,4.4,4.9,4.2l9-0.7l0.5,6.3c0,0.3,0.2,0.6,0.5,0.7s0.6,0.1,0.9,0l4.3-2.6l4.6,1.9c0.1,0.1,0.3,0.1,0.4,0.1
				c0.2,0,0.3-0.1,0.5-0.2c0.3-0.2,0.4-0.5,0.4-0.8l-0.5-6.3l16.3-1.4c2.5-0.2,4.4-2.4,4.2-5l-0.5-6.4c0-0.5-0.5-0.9-1-0.8l-6.4,0.5
				l-2.1-26.1L165.2,246.5z M163.7,239.3l0.4,5.5l-5.5,0.4l-0.4-5.4c-0.1-1.5,1-2.8,2.5-3C162.2,236.7,163.6,237.8,163.7,239.3z
				 M146.3,277.8c-0.1,0.1-0.2,0.2-0.3,0.3c-1.1,1-2.5,1.7-4,1.8c-1.6,0.1-3.1-0.3-4.4-1.3c-1.4-1.1-2.3-2.8-2.5-4.6
				c-0.3-3.5,2.3-6.6,5.9-6.9s6.6,2.3,6.9,5.9C148.1,274.8,147.5,276.5,146.3,277.8z M146.9,291.2l-3.7-1.5
				c-0.3-0.1-0.6-0.1-0.8,0.1l-3.4,2.1l-0.9-10.8c1.3,0.6,2.7,0.8,4.1,0.7c1.4-0.1,2.7-0.6,3.8-1.3L146.9,291.2z M147.7,279
				c1.5-1.7,2.2-3.9,2-6.1c-0.4-4.5-4.4-7.9-8.9-7.5c-4.5,0.4-7.9,4.4-7.5,8.9c0.2,2.2,1.2,4.2,2.9,5.6l0.5,5.5l-9,0.7
				c-1.5,0.1-2.8-1-3-2.6l-3.3-40.8c-0.1-1.5,1-2.8,2.5-2.9l33.2-2.7c-0.5,0.8-0.8,1.8-0.7,2.8l3.3,40.7c0.1,1,0.5,2,1.2,2.7
				l-12.7,1.1L147.7,279z M166.6,274.5l0.4,5.5c0.1,1.5-1,2.9-2.5,3c-1.5,0.1-2.8-1-2.9-2.5l-0.4-5.5L166.6,274.5z"/>
			<path class="st11" d="M141.2,269c-2.5,0.2-4.4,2.4-4.2,4.9c0.2,2.5,2.4,4.4,4.9,4.2c2.5-0.2,4.4-2.4,4.2-4.9
				C145.9,270.7,143.7,268.8,141.2,269z M141.8,276.3c-1.5,0.1-2.8-1-3-2.5c-0.1-1.5,1-2.8,2.5-3s2.8,1,3,2.5
				S143.3,276.2,141.8,276.3z"/>
			<path class="st11" d="M152.2,254.3l-24.3,2c-0.5,0-0.9,0.5-0.8,1c0,0.5,0.5,0.9,1,0.8l24.3-2c0.5,0,0.9-0.5,0.8-1
				S152.7,254.3,152.2,254.3z"/>
			<path class="st11" d="M148.9,258.2l-17,1.4c-0.5,0-0.9,0.5-0.8,1s0.5,0.9,1,0.8l17-1.4c0.5,0,0.9-0.5,0.8-1
				C149.8,258.6,149.4,258.2,148.9,258.2z"/>
			<path class="st15" d="M151.9,250.7l-3.6,0.3c-0.5,0-0.9,0.5-0.8,1c0,0.5,0.5,0.9,1,0.8l3.6-0.3c0.5,0,0.9-0.5,0.8-1
				C152.9,251,152.4,250.6,151.9,250.7z"/>
			<path class="st11" d="M127.7,254.5l17-1.4c0.5,0,0.9-0.5,0.8-1c0-0.5-0.5-0.9-1-0.8l-17,1.4c-0.5,0-0.9,0.5-0.8,1
				C126.8,254.1,127.2,254.5,127.7,254.5z"/>
			<path class="st17" d="M130.4,249.2c0.2,0.1,0.4,0.2,0.6,0.1c0.3,0,0.5-0.2,0.7-0.4l1.9-2.9l2.3,2.5c0.2,0.2,0.5,0.3,0.7,0.3
				c0.3,0,0.5-0.2,0.7-0.4l1.9-2.9l2.3,2.5c0.2,0.2,0.5,0.3,0.7,0.3s0.5-0.2,0.7-0.4l1.9-2.9l2.3,2.5c0.3,0.4,0.9,0.4,1.3,0.1
				c0.4-0.3,0.4-0.9,0.1-1.3l-3.1-3.4c-0.2-0.2-0.5-0.3-0.7-0.3s-0.5,0.2-0.7,0.4l-1.9,2.9l-2.3-2.5c-0.2-0.2-0.5-0.3-0.7-0.3
				c-0.3,0-0.5,0.2-0.7,0.4l-1.9,2.9l-2.3-2.5c-0.2-0.2-0.5-0.3-0.7-0.3c-0.3,0-0.5,0.2-0.7,0.4l-2.5,3.9
				C129.8,248.3,130,248.9,130.4,249.2z"/>
		</g>
	</g>
	<g>
		<polygon class="st12" points="135.4,274.3 132.9,271.1 142.8,228.9 145.1,227.3 184.1,236.5 186.2,239.7 183.9,246.9 177,245.3 
			170.6,272 177.7,274.3 175.2,282.1 173.2,283.1 155.1,278.9 153.3,286.2 148.4,282.6 143.5,283.7 145.1,276.8 		"/>
		<g>
			<path class="st11" d="M183.9,247.5c0.5,0.1,1-0.2,1.1-0.7l1.5-6.2c0.6-2.4-1-4.9-3.4-5.4l-36-8.5c-2.5-0.6-4.9,0.9-5.5,3.3
				l-9.4,39.8c-0.6,2.5,0.9,5,3.4,5.6l8.7,2.1l-1.5,6.2c-0.1,0.3,0,0.6,0.2,0.9c0.2,0.2,0.5,0.3,0.9,0.2l4.9-1.1l3.8,3.2
				c0.1,0.1,0.2,0.2,0.4,0.2c0.2,0,0.3,0,0.5,0c0.3-0.1,0.5-0.3,0.6-0.7l1.5-6.2l16,3.8c2.5,0.6,4.9-0.9,5.5-3.4l1.5-6.2
				c0.1-0.5-0.2-1-0.7-1.1l-6.2-1.5l6-25.5L183.9,247.5z M184.7,240.2l-1.3,5.3l-5.3-1.3l1.3-5.3c0.3-1.5,1.8-2.4,3.3-2
				C184.1,237.3,185,238.8,184.7,240.2z M156.2,271.5c-0.1,0-0.3,0.1-0.4,0.2c-1.3,0.7-2.9,0.8-4.3,0.5c-1.5-0.4-2.9-1.3-3.8-2.6
				c-1-1.5-1.4-3.4-1-5.1c0.8-3.4,4.3-5.6,7.7-4.8c3.4,0.8,5.6,4.3,4.8,7.7C158.8,269.2,157.7,270.6,156.2,271.5z M152.6,284.4
				l-3.1-2.6c-0.2-0.2-0.5-0.3-0.8-0.2l-3.9,0.9l2.5-10.5c1,0.9,2.3,1.6,3.7,1.9c1.3,0.3,2.7,0.3,4-0.1L152.6,284.4z M157.2,273
				c1.9-1.1,3.3-3,3.8-5.2c1-4.4-1.7-8.9-6.1-9.9c-4.4-1-8.9,1.7-9.9,6.1c-0.5,2.1-0.1,4.3,1,6.2l-1.3,5.4l-8.7-2.1
				c-1.5-0.3-2.4-1.9-2-3.4l9.4-39.8c0.3-1.5,1.8-2.3,3.3-2l32.4,7.7c-0.7,0.6-1.3,1.5-1.5,2.5l-9.4,39.7c-0.2,1-0.1,2,0.3,2.9
				l-12.4-2.9L157.2,273z M176.5,274.6l-1.3,5.3c-0.3,1.5-1.9,2.4-3.3,2.1c-1.5-0.4-2.4-1.8-2-3.3l1.3-5.3L176.5,274.6z"/>
			<path class="st11" d="M154,261.5c-2.5-0.6-4.9,0.9-5.5,3.4c-0.6,2.5,0.9,4.9,3.4,5.5c2.5,0.6,4.9-0.9,5.5-3.4
				C158,264.6,156.5,262.1,154,261.5z M152.3,268.6c-1.5-0.3-2.4-1.8-2-3.3s1.8-2.4,3.3-2c1.5,0.3,2.4,1.8,2,3.3
				C155.3,268.1,153.8,269,152.3,268.6z"/>
			<path class="st11" d="M169.1,250.9l-23.7-5.6c-0.5-0.1-1,0.2-1.1,0.7c-0.1,0.5,0.2,1,0.7,1.1l23.7,5.6c0.5,0.1,1-0.2,1.1-0.7
				C169.9,251.5,169.6,251.1,169.1,250.9z"/>
			<path class="st11" d="M164.7,253.7l-16.6-3.9c-0.5-0.1-1,0.2-1.1,0.7c-0.1,0.5,0.2,1,0.7,1.1l16.6,3.9c0.5,0.1,1-0.2,1.1-0.7
				C165.5,254.3,165.2,253.8,164.7,253.7z"/>
			<path class="st11" d="M169.9,247.4l-3.6-0.8c-0.5-0.1-1,0.2-1.1,0.7c-0.1,0.5,0.2,1,0.7,1.1l3.6,0.8c0.5,0.1,1-0.2,1.1-0.7
				C170.7,248,170.4,247.5,169.9,247.4z"/>
			<path class="st11" d="M145.8,243.5l16.6,3.9c0.5,0.1,1-0.2,1.1-0.7c0.1-0.5-0.2-1-0.7-1.1l-16.6-3.9c-0.5-0.1-1,0.2-1.1,0.7
				C145,242.9,145.3,243.4,145.8,243.5z"/>
			<path class="st13" d="M149.9,239.3c0.1,0.2,0.3,0.3,0.5,0.3c0.3,0.1,0.6,0,0.8-0.2l2.7-2.2l1.4,3.1c0.1,0.3,0.3,0.4,0.6,0.5
				c0.3,0.1,0.6,0,0.8-0.2l2.7-2.2l1.4,3.1c0.1,0.3,0.3,0.4,0.6,0.5c0.3,0.1,0.6,0,0.8-0.2l2.7-2.2l1.4,3.1c0.2,0.5,0.8,0.7,1.2,0.5
				c0.5-0.2,0.7-0.8,0.5-1.2l-1.9-4.2c-0.1-0.3-0.3-0.4-0.6-0.5c-0.3-0.1-0.6,0-0.8,0.2l-2.7,2.2l-1.4-3.1c-0.1-0.3-0.3-0.4-0.6-0.5
				c-0.3-0.1-0.6,0-0.8,0.2l-2.7,2.2l-1.4-3.1c-0.1-0.3-0.3-0.4-0.6-0.5c-0.3-0.1-0.6,0-0.8,0.2l-3.6,2.9
				C149.7,238.4,149.6,238.9,149.9,239.3z"/>
		</g>
	</g>
	
		<rect x="469.8" y="433.7" transform="matrix(0.9888 -0.1496 0.1496 0.9888 -60.9321 75.7877)" class="st13" width="7.3" height="18.6"/>
	<path class="st11" d="M475.3,431.3l-8.2,1.2c-0.6,0.1-0.9,0.6-0.8,1.2l3.1,20.3c0.1,0.6,0.6,0.9,1.2,0.8l8.2-1.2
		c0.6-0.1,0.9-0.6,0.8-1.2l-1.9-12.3c-0.1-0.6-0.6-0.9-1.2-0.8c-0.6,0.1-0.9,0.6-0.8,1.2l1.7,11.3l-6.2,0.9l-2.8-18.3l6.2-0.9l0.5,3
		c0.1,0.6,0.6,0.9,1.2,0.8c0.6-0.1,0.9-0.6,0.8-1.2l-0.6-4C476.3,431.6,475.8,431.2,475.3,431.3z"/>
	
		<rect x="432.1" y="439.2" transform="matrix(0.9884 -0.1516 0.1516 0.9884 -62.0593 71.1294)" class="st17" width="6.8" height="6.8"/>
	<path class="st11" d="M438.7,436.8l-8.2,1.2c-0.6,0.1-0.9,0.6-0.8,1.2l1.2,8.2c0.1,0.6,0.6,0.9,1.2,0.8l8.2-1.2
		c0.6-0.1,0.9-0.6,0.8-1.2l-1.2-8.2C439.8,437.1,439.3,436.8,438.7,436.8z M439,445.2l-6.2,0.9l-0.9-6.2l6.2-0.9L439,445.2z"/>
	<polygon class="st17" points="436.8,566.8 439.5,563.7 442.1,563.6 446.1,567.3 446.1,569.1 443.5,572.1 	"/>
	<path class="st11" d="M445.4,565.2l-2.2-1.7c-1.7-1.3-4-1.1-5.4,0.6l-11.4,14.5c-0.2,0.2-0.2,0.5-0.2,0.7l0.7,5.9
		c0.1,0.5,0.6,0.9,1.1,0.9l5.9-0.7c0.3,0,0.5-0.2,0.7-0.4l11.4-14.5C447.5,568.8,447.2,566.6,445.4,565.2z M437.1,568.3l1.8,1.4
		l-7.6,9.6l-1.8-1.4L437.1,568.3z M428.8,584l-0.5-4.5l5.1,4L428.8,584z M434.5,581.9l-1.8-1.4l7.6-9.6l1.8,1.4L434.5,581.9z
		 M444.5,569.3l-1.1,1.4l-5.1-4l1.1-1.4c0.7-0.9,1.7-1,2.6-0.3l2.2,1.7C445.1,567.4,445.2,568.4,444.5,569.3z"/>
	<g>
		<g>
			<defs>
				<circle id="SVGID_3_" cx="461.7" cy="292.3" r="27.8"/>
			</defs>
			<clipPath id="SVGID_4_">
				<use xlink:href="#SVGID_3_"  style="overflow:visible;"/>
			</clipPath>
			<circle class="st18" cx="461.7" cy="292.3" r="27.8"/>
			<polygon class="st19" points="450.4,286 442.7,279.6 445.9,266.8 465.6,260.2 474.9,266.4 479.6,280 473.2,287 473.4,288.6 
				471.2,289.8 468.7,292.2 468.9,296.9 469.8,300.5 471.7,303.5 468.4,305.2 464.9,305.7 460.1,305.7 455.4,304.4 453.3,302.9 
				453,302.7 454.3,300.4 455.3,297.3 455.3,291.3 453.2,289 452.1,287.3 			"/>
			<g class="st20">
				<path class="st17" d="M481.3,273.9c-3.8-3.8-1-21.8-19.1-21.5c-12.4,0.2-16.9,6.7-22,20.9c-4.6,13,9.9,15.1,12.4,15.3
					c-0.2-0.4-0.4-0.8-0.6-1.2c-0.6-1.8-1.3-3.8-1.9-5.8c-0.1,0-0.3,0-0.4,0c-0.1,0-0.2,0-0.3,0c-1.3-0.2-2.4-2-2.9-3.5
					c-0.7-1.1-1-2.2,0.1-2.9c0.1-0.1,0.2-0.1,0.2-0.1c0.2-0.2,0.5-0.3,0.8-0.4c0.1-0.1,0.1-0.1,0.2-0.2c0.5-0.2,0.9-0.1,1.2,0.2
					c0.1-2,0.6-3.9,1.9-5.5c2.3-2.9,6.1-4.7,9.7-5.4c8.3-1.5,14.9,2.4,14.6,10.7c0,0.2,0,0.4,0,0.6c0.1,0,0.2,0,0.3-0.1c0,0,0,0,0,0
					c0.2-0.1,0.4-0.1,0.7-0.1c0.4,0.1,0.6,0.3,0.9,0.5c0.4,0.3,0.6,0.6,0.7,1.1c0.1,0.2,0.1,0.4,0.1,0.5c0.1,0.7-0.1,1.3-0.4,1.9
					c-0.5,1.7-1.5,3.4-3.4,3.4c-0.2,0.8-0.5,1.6-0.7,2.4c-0.5,1.4-1.1,2.8-1.9,4.1l0.4,0C482.9,289.2,485,277.7,481.3,273.9z"/>
				<path class="st13" d="M491.1,314.3c-5.2-6.2-15.3-7.7-15.3-7.7c-0.9,3.4-6.1,5.6-6.1,5.6c-4.8,0.2-7-5.2-7-5.2s-3.3,4.9-6.8,4.7
					c-2.2-0.1-5.4-6.2-5.4-6.2s-3.6,1.6-6.6,2.6c-3,1,0-0.1-5.6,2.3c-5,2.2-6.7,8.1-7,9.4H493"/>
				<path class="st9" d="M489.9,313c-2.4-2.7-5.4-4.2-8.7-5.2c-3.3-1.1-7-2-9.4-4.8c-1.4-1.7-2.2-3.7-2.4-5.9
					c-0.1-1.7-0.1-3.3-0.1-5c2.6-1.8,4.2-5.1,5.1-8.4c1.3-4.9,1.5-10.2,0.8-15.2c-0.1-0.5-0.9-0.3-0.8,0.2c0.6,4.7,0.4,9.7-0.7,14.3
					c-1.1,4.5-3.6,9.7-8.8,10c-0.5,0-0.5,0.9,0,0.8c1.4-0.1,2.6-0.7,3.6-1.2c0,1.3,0,2.5,0,3.8c0.2,2.6,1,5,2.6,6.9
					c-2.3,1.6-5.2,2.1-8,2.1c-0.1,0-0.2,0-0.3,0c-0.2,0-0.4,0-0.5,0c-3-0.1-6.4-0.8-8.8-2.7c1.3-1.8,2-4,2.1-6.3
					c0.1-1.5,0-2.9,0-4.4c0.9,0.6,2.2,1.2,3.3,1.4c0.5,0.1,0.6-0.7,0.1-0.8c-4.2-0.8-6.8-4.8-8.1-8.5c-1.3-3.8-1.8-8-1.8-12.1
					c0-0.5-0.8-0.4-0.8,0.1c0,4.3,0.5,8.6,1.9,12.6c0.9,2.6,2.4,5.1,4.5,6.7c0,1.9,0.1,3.7-0.1,5.6c-0.2,2.2-1,4.2-2.4,5.9
					c-2.4,2.8-6.1,3.7-9.4,4.8c-3.3,1.1-6.3,2.6-8.7,5.2c-1.7,2-3,4.4-3.8,6.9h0.8c0.4-1.2,0.9-2.4,1.5-3.5c1.8-3.2,4.5-5.7,8-7.1
					c3.2-1.3,6.6-1.9,9.6-3.7c0.1,3.2,2,5.9,5.4,6.1c3.1,0.3,5.9-1.9,6.8-4.7c0.4,2.8,2.7,4.9,5.6,5.2c3.8,0.4,6.3-2.4,8.2-5.2
					c0,0,0,0,0,0c2.2,0.9,4.6,1.4,6.8,2.3c3.4,1.4,6.2,3.8,8,7.1"/>
				<path class="st12" d="M471.7,304C471.7,304,471.7,304,471.7,304c0.6,0.6,1.3,1.1,2.1,1.6c0.7,0.4,1.3,0.8,2,1.1
					c-1.6,2.4-3.5,4.6-6.5,4.8c-3.2,0.2-5.6-2.1-5.8-5.1C466.3,306.3,469.4,305.7,471.7,304z"/>
				<path class="st12" d="M453,303.4c2.5,1.9,5.8,2.6,9,2.8c-0.7,2.7-3,4.7-5.8,4.7c-3.3,0-5-2.8-4.9-5.8c0,0,0,0,0,0
					C451.9,304.6,452.5,304,453,303.4z"/>
				<path class="st21" d="M471.6,279.8c2.6,1.6-2.6,4.5-4.2,2.6C465.8,280.5,470.1,278.9,471.6,279.8z"/>
				<path class="st21" d="M453.1,280.3c-2.6,1.7,2.7,4.7,4.3,2.7C459.1,281,454.6,279.3,453.1,280.3z"/>
				<path class="st9" d="M464.9,287.2c-1.8,0.7-3.9,0.8-5.7-0.1c-0.5-0.3-1,0.4-0.5,0.7c2,1.1,4.4,1.1,6.6,0.2
					C465.8,287.8,465.5,287,464.9,287.2z"/>
				<path class="st9" d="M477.7,275.1c-0.8-1.1-2.1-0.4-2.8,0.3c-0.3,0.3,0.1,0.9,0.4,0.6c1.3-1.3,2.1-0.4,2.3,1
					c0.1,0.8-0.2,1.6-0.4,2.3c-0.5,1.4-1.4,3.2-3.1,3.1c-0.5,0-0.5,0.7-0.1,0.7c2.4,0.2,3.7-2.5,4.1-4.5
					C478.5,277.4,478.5,276.2,477.7,275.1z"/>
				<path class="st9" d="M446.5,274.6c0.8-1.1,2.1-0.4,2.8,0.3c0.3,0.3-0.1,0.9-0.4,0.6c-1.3-1.3-2.1-0.4-2.3,1
					c-0.1,0.8,0.2,1.6,0.4,2.3c0.5,1.4,1.4,3.2,3.1,3.1c0.5,0,0.5,0.7,0.1,0.7c-2.4,0.2-3.7-2.5-4.1-4.5
					C445.8,276.8,445.8,275.6,446.5,274.6z"/>
				<circle class="st12" cx="462.7" cy="312" r="1.2"/>
				<circle class="st12" cx="462.7" cy="317.2" r="1.2"/>
				<path class="st17" d="M447.7,273.2c0,0,14.8-1.2,21.5-8.4l6.4,9.9c0,0,4.4-20.4-13.7-20.1C445.3,254.9,447.7,273.2,447.7,273.2z
					"/>
			</g>
		</g>
		<path class="st17" d="M481.3,273.9c-3.8-3.8-1-21.8-19.1-21.5c-12.4,0.2-16.9,6.7-22,20.9c-4.6,13,9.9,15.1,12.4,15.3
			c-0.2-0.4-0.4-0.8-0.6-1.2c-0.6-1.8-1.3-3.8-1.9-5.8c-0.1,0-0.3,0-0.4,0c-0.1,0-0.2,0-0.3,0c-1.3-0.2-2.4-2-2.9-3.5
			c-0.7-1.1-1-2.2,0.1-2.9c0.1-0.1,0.2-0.1,0.2-0.1c0.2-0.2,0.5-0.3,0.8-0.4c0.1-0.1,0.1-0.1,0.2-0.2c0.5-0.2,0.9-0.1,1.2,0.2
			c0.1-2,0.6-3.9,1.9-5.5c2.3-2.9,6.1-4.7,9.7-5.4c8.3-1.5,14.9,2.4,14.6,10.7c0,0.2,0,0.4,0,0.6c0.1,0,0.2,0,0.3-0.1c0,0,0,0,0,0
			c0.2-0.1,0.4-0.1,0.7-0.1c0.4,0.1,0.6,0.3,0.9,0.5c0.4,0.3,0.6,0.6,0.7,1.1c0.1,0.2,0.1,0.4,0.1,0.5c0.1,0.7-0.1,1.3-0.4,1.9
			c-0.5,1.7-1.5,3.4-3.4,3.4c-0.2,0.8-0.5,1.6-0.7,2.4c-0.5,1.4-1.1,2.8-1.9,4.1l0.4,0C482.9,289.2,485,277.7,481.3,273.9z"/>
		<path class="st17" d="M447.7,273.2c0,0,14.8-1.2,21.5-8.4l6.4,9.9c0,0,4.4-20.4-13.7-20.1C445.3,254.9,447.7,273.2,447.7,273.2z"
			/>
		<g>
			<defs>
				<rect id="SVGID_5_" x="445.9" y="266.8" width="32.5" height="31.6"/>
			</defs>
			<clipPath id="SVGID_6_">
				<use xlink:href="#SVGID_5_"  style="overflow:visible;"/>
			</clipPath>
			<path class="st22" d="M489.9,313c-2.4-2.7-5.4-4.2-8.7-5.2c-3.3-1.1-7-2-9.4-4.8c-1.4-1.7-2.2-3.7-2.4-5.9
				c-0.1-1.7-0.1-3.3-0.1-5c2.6-1.8,4.2-5.1,5.1-8.4c1.3-4.9,1.5-10.2,0.8-15.2c-0.1-0.5-0.9-0.3-0.8,0.2c0.6,4.7,0.4,9.7-0.7,14.3
				c-1.1,4.5-3.6,9.7-8.8,10c-0.5,0-0.5,0.9,0,0.8c1.4-0.1,2.6-0.7,3.6-1.2c0,1.3,0,2.5,0,3.8c0.2,2.6,1,5,2.6,6.9
				c-2.3,1.6-5.2,2.1-8,2.1c-0.1,0-0.2,0-0.3,0c-0.2,0-0.4,0-0.5,0c-3-0.1-6.4-0.8-8.8-2.7c1.3-1.8,2-4,2.1-6.3c0.1-1.5,0-2.9,0-4.4
				c0.9,0.6,2.2,1.2,3.3,1.4c0.5,0.1,0.6-0.7,0.1-0.8c-4.2-0.8-6.8-4.8-8.1-8.5c-1.3-3.8-1.8-8-1.8-12.1c0-0.5-0.8-0.4-0.8,0.1
				c0,4.3,0.5,8.6,1.9,12.6c0.9,2.6,2.4,5.1,4.5,6.7c0,1.9,0.1,3.7-0.1,5.6c-0.2,2.2-1,4.2-2.4,5.9c-2.4,2.8-6.1,3.7-9.4,4.8
				c-3.3,1.1-6.3,2.6-8.7,5.2c-1.7,2-3,4.4-3.8,6.9h0.8c0.4-1.2,0.9-2.4,1.5-3.5c1.8-3.2,4.5-5.7,8-7.1c3.2-1.3,6.6-1.9,9.6-3.7
				c0.1,3.2,2,5.9,5.4,6.1c3.1,0.3,5.9-1.9,6.8-4.7c0.4,2.8,2.7,4.9,5.6,5.2c3.8,0.4,6.3-2.4,8.2-5.2c0,0,0,0,0,0
				c2.2,0.9,4.6,1.4,6.8,2.3c3.4,1.4,6.2,3.8,8,7.1"/>
			<path class="st23" d="M471.6,279.8c2.6,1.6-2.6,4.5-4.2,2.6C465.8,280.5,470.1,278.9,471.6,279.8z"/>
			<path class="st23" d="M453.1,280.3c-2.6,1.7,2.7,4.7,4.3,2.7C459.1,281,454.6,279.3,453.1,280.3z"/>
			<path class="st22" d="M477.7,275.1c-0.8-1.1-2.1-0.4-2.8,0.3c-0.3,0.3,0.1,0.9,0.4,0.6c1.3-1.3,2.1-0.4,2.3,1
				c0.1,0.8-0.2,1.6-0.4,2.3c-0.5,1.4-1.4,3.2-3.1,3.1c-0.5,0-0.5,0.7-0.1,0.7c2.4,0.2,3.7-2.5,4.1-4.5
				C478.5,277.4,478.5,276.2,477.7,275.1z"/>
			<path class="st22" d="M446.5,274.6c0.8-1.1,2.1-0.4,2.8,0.3c0.3,0.3-0.1,0.9-0.4,0.6c-1.3-1.3-2.1-0.4-2.3,1
				c-0.1,0.8,0.2,1.6,0.4,2.3c0.5,1.4,1.4,3.2,3.1,3.1c0.5,0,0.5,0.7,0.1,0.7c-2.4,0.2-3.7-2.5-4.1-4.5
				C445.8,276.8,445.8,275.6,446.5,274.6z"/>
		</g>
	</g>
	<g>
		<g>
			<defs>
				<circle id="SVGID_7_" cx="99.7" cy="406.3" r="27.8"/>
			</defs>
			<clipPath id="SVGID_8_">
				<use xlink:href="#SVGID_7_"  style="overflow:visible;"/>
			</clipPath>
			<circle class="st24" cx="99.7" cy="406.3" r="27.8"/>
			<polygon class="st25" points="69.7,436.1 71.7,429.3 73.5,426.5 76.4,424.3 79.8,422.7 85.5,420.8 89.1,419.3 91.5,417 
				93.1,413.4 93.4,406.7 90.7,403.7 89.1,399.7 88.2,396.9 85.8,395.7 84.6,394.1 84.2,391.1 84.4,389.3 85.5,387.9 90,377.4 
				108.5,376.3 111.9,386.6 112.3,388.3 113.7,388.2 114.5,389.3 114.8,391.5 114.3,394.1 113,396 111.4,396.8 110.9,396.8 
				109.9,401.2 107.9,405.1 105.6,407.3 105.8,412.1 106.1,414.3 108.5,417.9 110.7,419.6 113.8,421.1 119.2,422.7 124.8,426.1 
				127.2,428.9 128.1,431.2 128.9,433.4 99.7,442.3 			"/>
			<g class="st26">
				<polygon class="st17" points="99.6,420.3 97.6,424.4 99,425 102.4,425 103.9,423.5 100.9,419.9 				"/>
				<path class="st13" d="M87.6,391c0.8-2.7,0.8-9.7,4.3-10.6c1.5-0.4,6.5,3.7,13.4,0c2.8-1.5,5.6,8.1,6.1,9.4l0.2-1.2l1.3-1
					c0,0,5.4-19.5-14-19.1c-19.3,0.4-13.8,19.3-13.8,19.3S87.3,387.5,87.6,391z"/>
				<path class="st9" d="M125.5,426.4c-2.1-2.4-5.6-3.8-8.6-4.8c-2.4-0.8-4.9-1.4-7-2.9c-0.1-0.1-0.2-0.2-0.3-0.2
					c-0.5-0.4-0.9-0.7-1.3-1.2c-1.3-1.5-2-3.4-2.2-5.3c-0.1-1.5-0.1-3-0.1-4.5c2.4-1.7,3.9-4.7,4.7-7.6c1-3.7,1.3-7.7,1-11.5
					c-0.2,0.1-0.5,0.2-0.7,0.3c0.2,3.5,0,7.2-0.9,10.6c-1,4.1-3.3,8.6-8,8.9c-0.5,0-0.5,0.8,0,0.8c1.2-0.1,2.3-0.4,3.3-0.9
					c0,1.2,0,2.3,0,3.5c0.1,1.4,0.4,2.8,0.9,4c0,0,0,0,0,0c-2.1,1.5-4,3.2-6.2,4.5c-2.6-1.3-5.2-2.3-7.8-3.6
					c0.8-1.4,1.2-3.1,1.3-4.8c0.1-1.3,0-2.7,0-4c0.8,0.5,1.8,0.9,2.8,1.1c0.5,0.1,0.6-0.7,0.1-0.7c-3.8-0.7-6-4.1-7.1-7.6
					c-1.2-3.5-1.6-7.3-1.6-11c0-0.5-0.7-0.4-0.7,0.1c0,3.9,0.5,7.8,1.8,11.5c0.8,2.4,2.2,4.6,4.1,6.1c0,1.7,0.1,3.4-0.1,5.1
					c-0.2,2-0.9,3.8-2.2,5.3c-2.2,2.5-5.5,3.4-8.6,4.3c-3,1-6.5,2.3-8.6,4.8c-1.4,1.6-2.5,2.6-3.2,5.6H71c0.3,0,0.7-1.7,1.2-2.5
					c1.6-3,4.8-5.1,8-6.4c2.9-1.2,6.1-1.7,8.8-3.4c0.1,0,0.1-0.1,0.2-0.1c2.1,2.5,5.4,3.4,7.8,5.6c0.3,0.2,0.6,0,0.6-0.2
					c1-1.4,1.9-2.7,2.7-4.2c0,0,0.1,0,0.1,0.1c0,0,0,0.1,0.1,0.1c0.9,1.3,2,2.5,3,3.8c0,0.1,0.1,0.1,0.2,0.1c0,0,0,0,0,0
					c0,0,0,0,0,0c0.1,0,0.3,0,0.4-0.1c1.9-1.7,3.6-3.7,5.5-5.5c0.2,0.1,0.3,0.2,0.5,0.3c2.7,1.7,5.9,2.2,8.8,3.4
					c3.1,1.3,6.3,3.5,8,6.4c0.5,0.8,0.8,2.5,1.2,2.5h0.7C128,429,126.9,428,125.5,426.4z M97.1,424.3c-2.3-1.9-5.4-2.9-7.4-5.2
					c0.9-0.7,1.6-1.5,2.2-2.4c2.5,1.3,5.2,2.4,7.7,3.6C98.9,421.7,98,423,97.1,424.3z M103.9,424c-0.9-1.2-1.8-2.3-2.7-3.4
					c0,0-0.1-0.1-0.1-0.1c0-0.1,0-0.2-0.2-0.3c2-1.2,3.8-2.8,5.8-4.2c0.6,1.1,1.4,2.1,2.4,2.9C107.2,420.5,105.6,422.3,103.9,424z"
					/>
				<path class="st9" d="M103.8,401.5c-2.8,1-5.4,0.9-8.1-0.4c-0.4-0.2-0.8,0.4-0.4,0.6c2.8,1.4,5.7,1.6,8.6,0.5
					C104.4,402,104.2,401.4,103.8,401.5z"/>
				<path class="st9" d="M111.5,388.4c-0.4,0.3,0,0.9,0.4,0.6c2.2-1.7,2.6,0.7,2.6,2.5c0,2.1-1,4.6-3.3,4.9c-0.4,0-0.5,0.8,0,0.7
					c3.1-0.3,4.1-3.5,4.1-6.2C115.1,388.4,113.7,386.7,111.5,388.4z"/>
				<path class="st9" d="M87.5,388.4c0.4,0.3,0,0.9-0.4,0.6c-2.2-1.7-2.6,0.7-2.6,2.5c0,2.1,1,4.6,3.3,4.9c0.4,0,0.5,0.8,0,0.7
					c-3.1-0.3-4.1-3.5-4.1-6.2C83.9,388.4,85.2,386.7,87.5,388.4z"/>
				<polygon class="st17" points="99,425 98,427.8 98,434 103,434 103,427.8 102.4,425 				"/>
			</g>
			<path class="st27" d="M107.7,388.2c-2.6-0.9-5.2,0.3-6,2.9c-0.1,0.3-0.2,0.5-0.2,0.8c-0.6-0.3-1.3-0.3-1.9-0.3
				c-0.6,0-1.3,0.3-2,0.3c-0.2-1.7-1.4-3.1-3.2-3.7c-2.6-0.9-5.2,0.3-6,2.9c-1.9,5.4,7,8.1,9,2.7c0.1-0.3,0.2-0.7,0.2-1
				c0.5,0,0.9-0.2,1.4-0.2c0.9-0.2,1.7-0.1,2.5,0.3c0.3,4.2,7.4,5.7,9.2,1C111.6,391.4,110.1,389,107.7,388.2z M96.6,393.4
				c-0.3,1.1-1,1.9-2,2.3c-2.8,1.2-6.1-1-5.4-4.1c0.5-2.2,2.7-3.1,4.7-2.6C96,389.4,97.1,391.3,96.6,393.4z M109.9,393.4
				c-0.3,1.1-1,1.9-2,2.3c-2.8,1.2-6.1-1-5.4-4.1c0.5-2.2,2.7-3.1,4.7-2.6C109.3,389.4,110.4,391.3,109.9,393.4z"/>
		</g>
		<path class="st13" d="M87.6,391c0.8-2.7,0.8-9.7,4.3-10.6c1.5-0.4,6.5,3.7,13.4,0c2.8-1.5,5.6,8.1,6.1,9.4l0.2-1.2l1.3-1
			c0,0,5.4-19.5-14-19.1c-19.3,0.4-13.8,19.3-13.8,19.3S87.3,387.5,87.6,391z"/>
		<path class="st9" d="M111.5,388.4c-0.4,0.3,0,0.9,0.4,0.6c2.2-1.7,2.6,0.7,2.6,2.5c0,2.1-1,4.6-3.3,4.9c-0.4,0-0.5,0.8,0,0.7
			c3.1-0.3,4.1-3.5,4.1-6.2C115.1,388.4,113.7,386.7,111.5,388.4z"/>
		<path class="st9" d="M87.5,388.4c0.4,0.3,0,0.9-0.4,0.6c-2.2-1.7-2.6,0.7-2.6,2.5c0,2.1,1,4.6,3.3,4.9c0.4,0,0.5,0.8,0,0.7
			c-3.1-0.3-4.1-3.5-4.1-6.2C83.9,388.4,85.2,386.7,87.5,388.4z"/>
	</g>
</g>
</svg>
