<?xml version="1.0" encoding="utf-8"?>
<!-- Generator: Adobe Illustrator 19.0.0, SVG Export Plug-In . SVG Version: 6.00 Build 0)  -->
<svg version="1.1" id="Section1" xmlns="http://www.w3.org/2000/svg" xmlns:xlink="http://www.w3.org/1999/xlink" x="0px" y="0px"
	 viewBox="-79.9 166.4 32 32" style="enable-background:new -79.9 166.4 32 32;" xml:space="preserve">
<style type="text/css">
	.st0{fill:#767DFF;}
	.st1{fill:#FFFFFF;}
</style>
<g>
	<circle class="st0" cx="-63.9" cy="182.4" r="16"/>
	<path class="st1" d="M-66.1,172.9h4.5c0.3,0,0.6,0.2,0.8,0.4l6.9,12.3c0.1,0.3,0.1,0.6,0,0.8l-2.2,3.9c-0.2,0.3-0.4,0.4-0.8,0.4
		h-13.9c-0.3,0-0.6-0.2-0.8-0.4l-2.2-3.9c-0.1-0.3-0.1-0.6,0-0.8l6.9-12.3C-66.7,173-66.4,172.9-66.1,172.9z M-63.9,177.8l-4.7,8.3
		h9.3L-63.9,177.8z"/>
</g>
</svg>
