<?xml version="1.0" encoding="utf-8"?>
<!-- Generator: Adobe Illustrator 19.0.0, SVG Export Plug-In . SVG Version: 6.00 Build 0)  -->
<svg version="1.1" id="Section1" xmlns="http://www.w3.org/2000/svg" xmlns:xlink="http://www.w3.org/1999/xlink" x="0px" y="0px"
	 viewBox="-289 381 32 32" style="enable-background:new -289 381 32 32;" xml:space="preserve">
<style type="text/css">
	.st0{fill:#FFFFFF;}
	.st1{fill:#6D30ED;}
</style>
<g>
	<circle class="st0" cx="-273" cy="397" r="16"/>
	<g>
		<path class="st1" d="M-273,381c-8.8,0-16,7.2-16,16s7.2,16,16,16s16-7.2,16-16l0,0l0,0C-257,388.2-264.2,381.2-273,381L-273,381z
			 M-272.7,397.6l-1.6,5.6h8.9c0.3,0,0.4,0.1,0.4,0.4l0,0v0.1l-0.8,2.7c-0.1,0.3-0.3,0.4-0.5,0.4h-13.6l2.3-7.7l-2.6,0.8l0.5-1.8
			l2.6-0.8l3.3-10.8c0.1-0.3,0.3-0.4,0.5-0.4h3.4c0.3,0,0.4,0.1,0.4,0.4l0,0v0.1l-2.7,9.2l2.6-0.8l-0.5,1.9L-272.7,397.6z"/>
	</g>
</g>
</svg>
