<?xml version="1.0" encoding="utf-8"?>
<!-- Generator: Adobe Illustrator 19.0.0, SVG Export Plug-In . SVG Version: 6.00 Build 0)  -->
<svg version="1.1" id="Section1" xmlns="http://www.w3.org/2000/svg" xmlns:xlink="http://www.w3.org/1999/xlink" x="0px" y="0px"
	 viewBox="-79.9 166.4 32 32" style="enable-background:new -79.9 166.4 32 32;" xml:space="preserve">
<style type="text/css">
	.st0{fill:#767DFF;}
	.st1{fill:#FFFFFF;}
</style>
<g>
	<circle class="st0" cx="-63.9" cy="182.4" r="16"/>
	<g>
		<path class="st1" d="M-60.8,174.4h-7.3l-0.6,3.4h6.6c3.2,0,4.2,1.2,4.2,3.1c0,1-0.4,2.7-0.6,3.2c-0.5,1.5-1.5,3.1-5.4,3.1h-6.4
			l-0.6,3.4h7.3c2.6,0,3.6-0.3,4.8-0.8c2.6-1.2,4.1-3.7,4.7-7C-53.3,177.8-54.4,174.4-60.8,174.4L-60.8,174.4z"/>
		<path class="st1" d="M-64.1,182.2c0.2-1,0.3-1.4,0.3-1.4h-7.4c-1.9,0-2.2,1.2-2.4,2c-0.2,1-0.3,1.4-0.3,1.4h7.5
			C-64.5,184.1-64.2,182.9-64.1,182.2z"/>
	</g>
</g>
</svg>
