<?xml version="1.0" encoding="utf-8"?>
<!-- Generator: Adobe Illustrator 19.0.0, SVG Export Plug-In . SVG Version: 6.00 Build 0)  -->
<svg version="1.1" id="Section1" xmlns="http://www.w3.org/2000/svg" xmlns:xlink="http://www.w3.org/1999/xlink" x="0px" y="0px"
	 viewBox="-79.9 166.4 32 32" style="enable-background:new -79.9 166.4 32 32;" xml:space="preserve">
<style type="text/css">
	.st0{fill:#767DFF;}
	.st1{fill:#FFFFFF;}
</style>
<g>
	<circle class="st0" cx="-63.9" cy="182.4" r="16"/>
	<path class="st1" d="M-63.9,192.4c-0.6,0-1.3-0.2-1.8-0.5l-5.3-3.1c-1.1-0.7-1.9-1.9-1.9-3.3v-6.2c0-1.3,0.7-2.6,1.9-3.3l5.3-3.1
		c0.6-0.3,1.2-0.5,1.9-0.5c0.6,0,1.3,0.2,1.8,0.5l5.3,3.1c1.1,0.7,1.9,1.9,1.9,3.3v6.2c0,1.3-0.7,2.6-1.9,3.3l-5.3,3.1
		C-62.6,192.2-63.3,192.4-63.9,192.4z M-67,186l-1,1c0.5,0.5,1.2,0.8,2,0.8c1.5,0,2.8-1.3,2.8-2.8v-0.9c0.4,0.2,0.9,0.4,1.4,0.4
		c0.7,0,1.5-0.3,2-0.8l-1-1c-0.3,0.3-0.6,0.4-1,0.4c-0.8,0-1.4-0.6-1.4-1.4V177h-1.4v8c0,0.8-0.6,1.4-1.4,1.4
		C-66.3,186.4-66.7,186.2-67,186z"/>
</g>
</svg>
