<?xml version="1.0" encoding="utf-8"?>
<!-- Generator: Adobe Illustrator 19.0.0, SVG Export Plug-In . SVG Version: 6.00 Build 0)  -->
<svg version="1.1" id="Section1" xmlns="http://www.w3.org/2000/svg" xmlns:xlink="http://www.w3.org/1999/xlink" x="0px" y="0px"
	 viewBox="-79.9 166.4 32 32" style="enable-background:new -79.9 166.4 32 32;" xml:space="preserve">
<style type="text/css">
	.st0{fill:#767DFF;}
	.st1{fill:#FFFFFF;}
</style>
<g>
	<circle class="st0" cx="-63.9" cy="182.4" r="16"/>
	<path class="st1" d="M-66.6,181.4c-0.6,0-1.1,0-1.7,0.1c0.5-4.2,3.9-7.3,8.1-7.3c2.5,0,4.3,1.2,4.3,3.8c0,2.6-2.1,3.8-5.1,3.8
		C-63.3,181.9-64.4,181.4-66.6,181.4 M-66.8,183c-3,0-5.1,1.2-5.1,3.8c0,2.6,1.7,3.8,4.3,3.8c4.1,0,7.6-3.2,8.1-7.3
		c-0.5,0.1-1.1,0.1-1.7,0.1C-63.5,183.4-64.5,183-66.8,183"/>
</g>
</svg>
