<?xml version="1.0" encoding="utf-8"?>
<!-- Generator: Adobe Illustrator 19.0.0, SVG Export Plug-In . SVG Version: 6.00 Build 0)  -->
<svg version="1.1" id="Section1" xmlns="http://www.w3.org/2000/svg" xmlns:xlink="http://www.w3.org/1999/xlink" x="0px" y="0px"
	 viewBox="-79.9 166.4 32 32" style="enable-background:new -79.9 166.4 32 32;" xml:space="preserve">
<style type="text/css">
	.st0{fill:#6D30ED;}
	.st1{fill:#FFFFFF;}
</style>
<g>
	<circle class="st0" cx="-63.9" cy="182.4" r="16"/>
	<path class="st1" d="M-56.5,183.2c-0.6-0.7-1.5-1.1-2.7-1.3v0c1-0.2,1.9-0.6,2.4-1.3c0.6-0.7,0.9-1.5,0.9-2.4
		c0-1.5-0.5-2.5-1.4-3.2c-1-0.8-2.4-1-4.4-1h-7.5v7h-4.3v2.7h11.7c0.9,0,1.6,0.1,2.1,0.4c0.5,0.4,0.7,0.8,0.7,1.6s-0.2,1.3-0.7,1.7
		c-0.5,0.4-1.2,0.6-2.1,0.6h-4v-2.1h-3.4v4.7h7.7c2,0,3.5-0.5,4.5-1.3c1-0.8,1.5-2,1.5-3.4C-55.5,184.8-55.8,183.9-56.5,183.2z
		 M-62.3,180.9h-3.6v-4.3h3.6c1.8,0,2.8,0.7,2.8,2.1S-60.4,180.9-62.3,180.9z"/>
</g>
</svg>
