<?xml version="1.0" encoding="utf-8"?>
<!-- Generator: Adobe Illustrator 19.0.0, SVG Export Plug-In . SVG Version: 6.00 Build 0)  -->
<svg version="1.1" id="Section1" xmlns="http://www.w3.org/2000/svg" xmlns:xlink="http://www.w3.org/1999/xlink" x="0px" y="0px"
	 viewBox="-99 150 79 79" style="enable-background:new -99 150 79 79;" xml:space="preserve">
<style type="text/css">
	.st0{fill:#767DFF;}
	.st1{fill:#6D30ED;}
	.st2{fill:#9FA8FF;}
</style>
<g>
	<path class="st0" d="M-73.6,189.5c0-17.8,11.9-32.8,28.1-37.6c-3.5-1-7.2-1.6-11.1-1.6c-21.7,0-39.2,17.6-39.2,39.2
		c0,21.7,17.6,39.2,39.2,39.2c3.9,0,7.6-0.6,11.1-1.6C-61.7,222.3-73.6,207.3-73.6,189.5z"/>
	<path class="st1" d="M-44.3,174.2c9.6,0,17.7,6.4,20.2,15.1c0.6-1.9,0.9-3.9,0.9-6c0-11.6-9.4-21.1-21.1-21.1
		c-11.7,0-21.1,9.4-21.1,21.1c0,2.1,0.3,4.1,0.9,6C-62,180.6-53.9,174.2-44.3,174.2z"/>
	<path class="st2" d="M-36.9,196.3c0,7.1-4.7,13.1-11.3,15c1.4,0.4,2.9,0.6,4.4,0.6c8.7,0,15.7-7,15.7-15.7c0-8.7-7-15.7-15.7-15.7
		c-1.5,0-3,0.2-4.4,0.6C-41.7,183.2-36.9,189.2-36.9,196.3z"/>
</g>
</svg>
