<?xml version="1.0" encoding="utf-8"?>
<!-- Generator: Adobe Illustrator 19.0.0, SVG Export Plug-In . SVG Version: 6.00 Build 0)  -->
<svg version="1.1" id="Section1" xmlns="http://www.w3.org/2000/svg" xmlns:xlink="http://www.w3.org/1999/xlink" x="0px" y="0px"
	 viewBox="-99 150 79 79" style="enable-background:new -99 150 79 79;" xml:space="preserve">
<style type="text/css">
	.st0{fill:#FAFAFA;}
</style>
<g>
	<g>
		<g>
			<path class="st0" d="M-59.5,150.2c-19.3,0-35,15.7-35,35c0,0.7,0.6,1.2,1.2,1.2c0.7,0,1.2-0.6,1.2-1.2
				c0-17.9,14.6-32.5,32.5-32.5S-27,167.2-27,185.1c0,0.7,0.6,1.2,1.2,1.2s1.2-0.6,1.2-1.2C-24.5,165.9-40.2,150.2-59.5,150.2z"/>
		</g>
	</g>
	<g>
		<g>
			<path class="st0" d="M-59.5,183.9c-0.7,0-1.2,0.6-1.2,1.2v8.7c0,0.7,0.6,1.2,1.2,1.2c0.7,0,1.2-0.6,1.2-1.2v-8.7
				C-58.3,184.4-58.8,183.9-59.5,183.9z"/>
		</g>
	</g>
	<g>
		<g>
			<path class="st0" d="M-24.9,189.3c-3.2-3.5-7.6-5.4-12.2-5.4c-4.2,0-8.1,1.6-11.2,4.5c-3.1-2.9-7.1-4.5-11.2-4.5
				s-8.1,1.6-11.2,4.5c-3.1-2.9-7.1-4.5-11.2-4.5c-4.6,0-8.9,1.9-12.1,5.3c-0.5,0.5-0.4,1.3,0.1,1.8c0.5,0.5,1.3,0.4,1.8-0.1
				c2.8-2.9,6.4-4.5,10.3-4.5c3.9,0,7.6,1.6,10.3,4.6c0.2,0.3,0.6,0.4,0.9,0.4s0.7-0.1,0.9-0.4c2.8-3,6.4-4.6,10.3-4.6
				c3.9,0,7.6,1.6,10.3,4.6c0.5,0.5,1.4,0.5,1.8,0c2.8-3,6.4-4.6,10.3-4.6c3.9,0,7.6,1.6,10.3,4.6c0.2,0.3,0.6,0.4,0.9,0.4
				c0.3,0,0.6-0.1,0.9-0.3C-24.4,190.6-24.4,189.8-24.9,189.3z"/>
		</g>
	</g>
	<g>
		<g>
			<path class="st0" d="M-74.5,206.6c-0.7,0-1.2,0.6-1.2,1.2v19.7c0,0.7,0.6,1.2,1.2,1.2s1.2-0.6,1.2-1.2v-19.7
				C-73.2,207.2-73.8,206.6-74.5,206.6z"/>
		</g>
	</g>
	<g>
		<g>
			<path class="st0" d="M-44.5,206.6c-0.7,0-1.2,0.6-1.2,1.2v19.7c0,0.7,0.6,1.2,1.2,1.2s1.2-0.6,1.2-1.2v-19.7
				C-43.3,207.2-43.8,206.6-44.5,206.6z"/>
		</g>
	</g>
	<g>
		<g>
			<path class="st0" d="M-58.4,193.2c-0.4-0.6-1.1-0.8-1.7-0.4L-78.9,204c-0.6,0.4-0.8,1.1-0.4,1.7c0.2,0.4,0.6,0.6,1.1,0.6
				c0.2,0,0.4-0.1,0.6-0.2l18.7-11.2C-58.3,194.6-58.1,193.8-58.4,193.2z"/>
		</g>
	</g>
	<g>
		<g>
			<path class="st0" d="M-40.1,209l-18.7-11.2c-0.6-0.4-1.4-0.2-1.7,0.4s-0.2,1.4,0.4,1.7l18.7,11.2c0.2,0.1,0.4,0.2,0.6,0.2
				c0.4,0,0.8-0.2,1.1-0.6C-39.3,210.2-39.5,209.4-40.1,209z"/>
		</g>
	</g>
	<g>
		<g>
			<path class="st0" d="M-55.8,215.1h-7.5c-0.7,0-1.2,0.6-1.2,1.2v11.2c0,0.7,0.6,1.2,1.2,1.2h7.5c0.7,0,1.2-0.6,1.2-1.2v-11.2
				C-54.5,215.7-55.1,215.1-55.8,215.1z M-57,226.3h-5v-8.7h5V226.3z"/>
		</g>
	</g>
</g>
</svg>
