<?xml version="1.0" encoding="utf-8"?>
<!-- Generator: Adobe Illustrator 19.0.0, SVG Export Plug-In . SVG Version: 6.00 Build 0)  -->
<svg version="1.1" id="Section1" xmlns="http://www.w3.org/2000/svg" xmlns:xlink="http://www.w3.org/1999/xlink" x="0px" y="0px"
	 viewBox="-99 150 79 79" style="enable-background:new -99 150 79 79;" xml:space="preserve">
<style type="text/css">
	.st0{fill:#FAFAFA;}
</style>
<g>
	<g>
		<g>
			<path class="st0" d="M-62,226.5c-14.1,0-25.5-11.4-25.5-25.5c0-0.7-0.6-1.3-1.3-1.3s-1.3,0.6-1.3,1.3c0,15.5,12.6,28,28,28
				c0.7,0,1.3-0.6,1.3-1.3C-60.8,227-61.3,226.5-62,226.5z"/>
		</g>
	</g>
	<g>
		<g>
			<path class="st0" d="M-46.8,162.7c-6.3,0-11.5-5.1-11.5-11.5c0-0.7-0.6-1.3-1.3-1.3s-1.3,0.6-1.3,1.3c0,7.7,6.3,14,14,14
				c0.7,0,1.3-0.6,1.3-1.3C-45.5,163.3-46.1,162.7-46.8,162.7z"/>
		</g>
	</g>
	<g>
		<g>
			<path class="st0" d="M-30.2,199.7c-0.7,0-1.3,0.6-1.3,1.3c0,14.1-11.4,25.5-25.5,25.5c-0.7,0-1.3,0.6-1.3,1.3
				c0,0.7,0.6,1.3,1.3,1.3c15.5,0,28-12.6,28-28C-28.9,200.3-29.5,199.7-30.2,199.7z"/>
		</g>
	</g>
	<g>
		<g>
			<path class="st0" d="M-30.2,157.6c-0.7,0-1.3,0.6-1.3,1.3c0,2.1-1.7,3.8-3.8,3.8c-0.7,0-1.3,0.6-1.3,1.3c0,0.7,0.6,1.3,1.3,1.3
				c3.5,0,6.4-2.9,6.4-6.4C-28.9,158.2-29.5,157.6-30.2,157.6z"/>
		</g>
	</g>
	<g>
		<g>
			<path class="st0" d="M-35.3,162.7h-11.5c-0.7,0-1.3,0.6-1.3,1.3c0,0.7,0.6,1.3,1.3,1.3h11.5c0.7,0,1.3-0.6,1.3-1.3
				C-34,163.3-34.6,162.7-35.3,162.7z"/>
		</g>
	</g>
	<g>
		<g>
			<path class="st0" d="M-30.2,157.6c-0.7,0-1.3,0.6-1.3,1.3v42c0,0.7,0.6,1.3,1.3,1.3c0.7,0,1.3-0.6,1.3-1.3v-42
				C-28.9,158.2-29.5,157.6-30.2,157.6z"/>
		</g>
	</g>
	<g>
		<g>
			<path class="st0" d="M-59.5,150c-0.7,0-1.3,0.6-1.3,1.3c0,6.3-5.1,11.5-11.5,11.5c-0.7,0-1.3,0.6-1.3,1.3c0,0.7,0.6,1.3,1.3,1.3
				c7.7,0,14-6.3,14-14C-58.2,150.6-58.8,150-59.5,150z"/>
		</g>
	</g>
	<g>
		<g>
			<path class="st0" d="M-83.7,162.7c-2.1,0-3.8-1.7-3.8-3.8c0-0.7-0.6-1.3-1.3-1.3s-1.3,0.6-1.3,1.3c0,3.5,2.9,6.4,6.4,6.4
				c0.7,0,1.3-0.6,1.3-1.3C-82.4,163.3-83,162.7-83.7,162.7z"/>
		</g>
	</g>
	<g>
		<g>
			<path class="st0" d="M-72.2,162.7h-11.5c-0.7,0-1.3,0.6-1.3,1.3c0,0.7,0.6,1.3,1.3,1.3h11.5c0.7,0,1.3-0.6,1.3-1.3
				C-71,163.3-71.5,162.7-72.2,162.7z"/>
		</g>
	</g>
	<g>
		<g>
			<path class="st0" d="M-88.8,157.6c-0.7,0-1.3,0.6-1.3,1.3v42c0,0.7,0.6,1.3,1.3,1.3s1.3-0.6,1.3-1.3v-42
				C-87.5,158.2-88.1,157.6-88.8,157.6z"/>
		</g>
	</g>
	<g>
		<g>
			<path class="st0" d="M-36.6,169.1h-10.2c-4.4,0-8.6-1.6-11.9-4.6c-0.5-0.4-1.2-0.4-1.7,0c-3.3,3-7.5,4.6-11.9,4.6h-10.2
				c-0.7,0-1.3,0.6-1.3,1.3V201c0,11.9,9.7,21.7,21.7,21.7h5.1c11.9,0,21.7-9.7,21.7-21.7v-30.6C-35.3,169.7-35.9,169.1-36.6,169.1z
				 M-37.8,201c0,10.5-8.6,19.1-19.1,19.1H-62c-10.5,0-19.1-8.6-19.1-19.1v-29.3h8.9c4.6,0,9.1-1.6,12.7-4.5
				c3.6,2.9,8.1,4.5,12.7,4.5h8.9V201z"/>
		</g>
	</g>
	<g>
		<g>
			<path class="st0" d="M-58.4,178.7c-0.4-0.6-1.1-0.8-1.7-0.4l-12.7,7.6c-0.6,0.4-0.8,1.1-0.4,1.7c0.2,0.4,0.7,0.6,1.1,0.6
				c0.2,0,0.4-0.1,0.7-0.2l12.7-7.6C-58.2,180-58,179.3-58.4,178.7z"/>
		</g>
	</g>
	<g>
		<g>
			<path class="st0" d="M-46.1,185.9l-12.7-7.6c-0.6-0.4-1.4-0.2-1.7,0.4c-0.4,0.6-0.2,1.4,0.4,1.7l12.7,7.6
				c0.2,0.1,0.4,0.2,0.7,0.2c0.4,0,0.9-0.2,1.1-0.6C-45.3,187-45.5,186.2-46.1,185.9z"/>
		</g>
	</g>
	<g>
		<g>
			<path class="st0" d="M-58.4,183.7c-0.4-0.6-1.1-0.8-1.7-0.4l-12.7,7.6c-0.6,0.4-0.8,1.1-0.4,1.7c0.2,0.4,0.7,0.6,1.1,0.6
				c0.2,0,0.4-0.1,0.7-0.2l12.7-7.6C-58.2,185.1-58,184.4-58.4,183.7z"/>
		</g>
	</g>
	<g>
		<g>
			<path class="st0" d="M-46.1,191l-12.7-7.6c-0.6-0.4-1.4-0.2-1.7,0.4c-0.4,0.6-0.2,1.4,0.4,1.7l12.7,7.6c0.2,0.1,0.4,0.2,0.7,0.2
				c0.4,0,0.9-0.2,1.1-0.6C-45.3,192.1-45.5,191.3-46.1,191z"/>
		</g>
	</g>
	<g>
		<g>
			<path class="st0" d="M-72.2,185.7c-0.7,0-1.3,0.6-1.3,1.3v5.1c0,0.7,0.6,1.3,1.3,1.3c0.7,0,1.3-0.6,1.3-1.3V187
				C-71,186.2-71.5,185.7-72.2,185.7z"/>
		</g>
	</g>
	<g>
		<g>
			<path class="st0" d="M-46.8,185.7c-0.7,0-1.3,0.6-1.3,1.3v5.1c0,0.7,0.6,1.3,1.3,1.3s1.3-0.6,1.3-1.3V187
				C-45.5,186.2-46.1,185.7-46.8,185.7z"/>
		</g>
	</g>
	<g>
		<g>
			<path class="st0" d="M-69.7,189.2c-0.7,0-1.3,0.6-1.3,1.3v15.5c0,0.7,0.6,1.3,1.3,1.3c0.7,0,1.3-0.6,1.3-1.3v-15.5
				C-68.4,189.8-69,189.2-69.7,189.2z"/>
		</g>
	</g>
	<g>
		<g>
			<path class="st0" d="M-49.3,204.8h-20.4c-0.7,0-1.3,0.6-1.3,1.3c0,0.7,0.6,1.3,1.3,1.3h20.4c0.7,0,1.3-0.6,1.3-1.3
				C-48,205.4-48.6,204.8-49.3,204.8z"/>
		</g>
	</g>
	<g>
		<g>
			<path class="st0" d="M-49.3,189.2c-0.7,0-1.3,0.6-1.3,1.3v15.5c0,0.7,0.6,1.3,1.3,1.3c0.7,0,1.3-0.6,1.3-1.3v-15.5
				C-48,189.8-48.6,189.2-49.3,189.2z"/>
		</g>
	</g>
	<g>
		<g>
			<path class="st0" d="M-57,194.6H-62c-0.7,0-1.3,0.6-1.3,1.3v10.2c0,0.7,0.6,1.3,1.3,1.3h5.1c0.7,0,1.3-0.6,1.3-1.3v-10.2
				C-55.7,195.2-56.2,194.6-57,194.6z M-58.2,204.8h-2.5v-7.6h2.5V204.8z"/>
		</g>
	</g>
</g>
</svg>
