<?xml version="1.0" encoding="utf-8"?>
<!-- Generator: Adobe Illustrator 19.0.0, SVG Export Plug-In . SVG Version: 6.00 Build 0)  -->
<svg version="1.1" id="Section1" xmlns="http://www.w3.org/2000/svg" xmlns:xlink="http://www.w3.org/1999/xlink" x="0px" y="0px"
	 viewBox="-99 150 79 79" style="enable-background:new -99 150 79 79;" xml:space="preserve">
<style type="text/css">
	.st0{fill:#FAFAFA;}
</style>
<g>
	<g>
		<g>
			<path class="st0" d="M-70.6,167.2c-0.7,0-1.2,0.6-1.2,1.2v21.1c0,0.7,0.6,1.2,1.2,1.2s1.2-0.6,1.2-1.2v-21.1
				C-69.4,167.8-69.9,167.2-70.6,167.2z"/>
		</g>
	</g>
	<g>
		<g>
			<path class="st0" d="M-36,167.1c-0.7,0-1.2,0.6-1.2,1.2v21.1c0,0.7,0.6,1.2,1.2,1.2c0.7,0,1.2-0.6,1.2-1.2v-21.1
				C-34.8,167.7-35.4,167.1-36,167.1z"/>
		</g>
	</g>
	<g>
		<g>
			<path class="st0" d="M-52.3,150.5c-0.4-0.6-1.2-0.7-1.7-0.3L-75,165c-0.6,0.4-0.7,1.2-0.3,1.7c0.2,0.3,0.6,0.5,1,0.5
				c0.2,0,0.5-0.1,0.7-0.2l21-14.8C-52.1,151.8-51.9,151.1-52.3,150.5z"/>
		</g>
	</g>
	<g>
		<g>
			<path class="st0" d="M-31.6,165l-21-14.8c-0.6-0.4-1.3-0.3-1.7,0.3c-0.4,0.6-0.3,1.3,0.3,1.7l21,14.8c0.2,0.2,0.5,0.2,0.7,0.2
				c0.4,0,0.8-0.2,1-0.5C-30.9,166.2-31.1,165.4-31.6,165z"/>
		</g>
	</g>
	<g>
		<g>
			<path class="st0" d="M-52.3,155.5c-0.4-0.6-1.2-0.7-1.7-0.3L-75,170c-0.6,0.4-0.7,1.2-0.3,1.7c0.2,0.3,0.6,0.5,1,0.5
				c0.2,0,0.5-0.1,0.7-0.2l21-14.8C-52.1,156.8-51.9,156-52.3,155.5z"/>
		</g>
	</g>
	<g>
		<g>
			<path class="st0" d="M-31.6,170l-21-14.8c-0.6-0.4-1.3-0.3-1.7,0.3c-0.4,0.6-0.3,1.3,0.3,1.7l21,14.8c0.2,0.2,0.5,0.2,0.7,0.2
				c0.4,0,0.8-0.2,1-0.5C-30.9,171.1-31.1,170.4-31.6,170z"/>
		</g>
	</g>
	<g>
		<g>
			<path class="st0" d="M-74.3,164.8c-0.7,0-1.2,0.6-1.2,1.2v4.9c0,0.7,0.6,1.2,1.2,1.2s1.2-0.6,1.2-1.2V166
				C-73.1,165.4-73.6,164.8-74.3,164.8z"/>
		</g>
	</g>
	<g>
		<g>
			<path class="st0" d="M-32.3,164.8c-0.7,0-1.2,0.6-1.2,1.2v4.9c0,0.7,0.6,1.2,1.2,1.2c0.7,0,1.2-0.6,1.2-1.2V166
				C-31.1,165.4-31.7,164.8-32.3,164.8z"/>
		</g>
	</g>
	<g>
		<g>
			<path class="st0" d="M-48.4,172.2h-9.9c-0.7,0-1.2,0.6-1.2,1.2v16c0,0.7,0.6,1.2,1.2,1.2h9.9c0.7,0,1.2-0.6,1.2-1.2v-16
				C-47.2,172.8-47.7,172.2-48.4,172.2z M-49.6,188.3H-57v-13.6h7.4V188.3z"/>
		</g>
	</g>
	<g>
		<g>
			<path class="st0" d="M-36,188.3h-34.6c-0.7,0-1.2,0.6-1.2,1.2s0.6,1.2,1.2,1.2H-36c0.7,0,1.2-0.6,1.2-1.2S-35.4,188.3-36,188.3z"
				/>
		</g>
	</g>
	<g>
		<g>
			<path class="st0" d="M-91.6,221.6L-91.6,221.6c-0.7,0-1.2,0.6-1.2,1.2s0.6,1.2,1.2,1.2c0.7,0,1.2-0.6,1.2-1.2
				S-90.9,221.6-91.6,221.6z"/>
		</g>
	</g>
	<g>
		<g>
			<path class="st0" d="M-26.2,199.4c-0.7,0-1.2,0.6-1.2,1.2s0.6,1.2,1.2,1.2c2,0,3.7,1.7,3.7,3.7c0,1.3-0.7,2.5-1.9,3.2
				c-0.6,0.3-0.8,1.1-0.4,1.7c0.2,0.4,0.6,0.6,1.1,0.6c0.2,0,0.4-0.1,0.6-0.2c1.9-1.1,3.1-3.1,3.1-5.3
				C-20,202.1-22.8,199.4-26.2,199.4z"/>
		</g>
	</g>
	<g>
		<g>
			<path class="st0" d="M-22.6,209.2c-0.3-0.6-1.1-0.8-1.7-0.5l-33.3,17.9c-0.6,0.3-0.8,1.1-0.5,1.7c0.2,0.4,0.6,0.6,1.1,0.6
				c0.2,0,0.4,0,0.6-0.1l33.3-17.9C-22.5,210.6-22.3,209.8-22.6,209.2z"/>
		</g>
	</g>
	<g>
		<g>
			<path class="st0" d="M-56.9,226.5l-28.4-3.7c-0.7-0.1-1.3,0.4-1.4,1.1c-0.1,0.7,0.4,1.3,1.1,1.4l28.4,3.7c0.1,0,0.1,0,0.2,0
				c0.6,0,1.1-0.5,1.2-1.1C-55.7,227.2-56.2,226.6-56.9,226.5z"/>
		</g>
	</g>
	<g>
		<g>
			<path class="st0" d="M-85.4,192h-12.3c-0.7,0-1.2,0.6-1.2,1.2v33.3c0,0.7,0.6,1.2,1.2,1.2h12.3c0.7,0,1.2-0.6,1.2-1.2v-33.3
				C-84.2,192.5-84.7,192-85.4,192z M-86.7,225.3h-9.9v-30.9h9.9V225.3z"/>
		</g>
	</g>
	<g>
		<g>
			<path class="st0" d="M-25.8,200.5c-0.1-0.7-0.7-1.1-1.4-1l-23.8,3.6c-0.7,0.1-1.1,0.7-1,1.4c0.1,0.6,0.6,1,1.2,1
				c0.1,0,0.1,0,0.2,0l23.8-3.6C-26.2,201.8-25.7,201.2-25.8,200.5z"/>
		</g>
	</g>
	<g>
		<g>
			<path class="st0" d="M-54.7,198.2c-0.7-0.1-1.3,0.3-1.4,1c-0.1,0.7,0.3,1.3,1,1.4c1.8,0.3,3.1,1.8,3.1,3.6c0,2-1.7,3.7-3.7,3.7
				c-0.7,0-1.2,0.6-1.2,1.2c0,0.7,0.6,1.2,1.2,1.2c3.4,0,6.2-2.8,6.2-6.2C-49.6,201.3-51.8,198.7-54.7,198.2z"/>
		</g>
	</g>
	<g>
		<g>
			<path class="st0" d="M-54.7,198.2l-19.4-3.8c-0.7-0.1-1.3,0.3-1.4,1s0.3,1.3,1,1.4l19.4,3.8c0.1,0,0.2,0,0.2,0
				c0.6,0,1.1-0.4,1.2-1C-53.6,199-54,198.4-54.7,198.2z"/>
		</g>
	</g>
	<g>
		<g>
			<path class="st0" d="M-74.3,194.4h-11.1c-0.7,0-1.2,0.6-1.2,1.2s0.6,1.2,1.2,1.2h11.1c0.7,0,1.2-0.6,1.2-1.2
				S-73.6,194.4-74.3,194.4z"/>
		</g>
	</g>
	<g>
		<g>
			<path class="st0" d="M-56.2,208l-15.5-1.2c-0.7-0.1-1.3,0.5-1.3,1.1c-0.1,0.7,0.5,1.3,1.1,1.3l15.5,1.2c0,0,0.1,0,0.1,0
				c0.6,0,1.2-0.5,1.2-1.1C-55,208.6-55.5,208-56.2,208z"/>
		</g>
	</g>
	<g>
		<g>
			<path class="st0" d="M-26.2,199.4c-0.4,0-0.7,0-1.1,0.1c-0.7,0.1-1.1,0.8-1,1.4c0.1,0.6,0.6,1,1.2,1c0.1,0,0.1,0,0.2,0
				c0.2,0,0.4-0.1,0.6-0.1c0.7,0,1.2-0.6,1.2-1.2C-24.9,199.9-25.5,199.4-26.2,199.4z"/>
		</g>
	</g>
	<g>
		<g>
			<path class="st0" d="M-55.8,208c-0.1,0-0.3,0-0.4,0c-0.7-0.1-1.3,0.4-1.4,1.1c-0.1,0.7,0.4,1.3,1.1,1.4c0.2,0,0.4,0,0.6,0
				c0.7,0,1.2-0.6,1.2-1.2C-54.6,208.6-55.1,208-55.8,208z"/>
		</g>
	</g>
	<g>
		<g>
			<path class="st0" d="M-55.8,180.9L-55.8,180.9c-0.7,0-1.2,0.6-1.2,1.2s0.6,1.2,1.2,1.2c0.7,0,1.2-0.6,1.2-1.2
				S-55.1,180.9-55.8,180.9z"/>
		</g>
	</g>
</g>
</svg>
